<?xml version="1.0" encoding="UTF-8"?>
<svg width="837px" height="927px" viewBox="0 0 837 927" version="1.1" xmlns="http://www.w3.org/2000/svg" xmlns:xlink="http://www.w3.org/1999/xlink">
    <title>bg shape</title>
    <g id="Page-1" stroke="none" stroke-width="1" fill="none" fill-rule="evenodd">
        <g id="01.Home" transform="translate(-914.000000, -1125.000000)">
            <g id="Features" transform="translate(0.000000, 956.265347)">
                <g id="bg-shape" transform="translate(914.000000, 168.734653)">
                    <path d="M489.772221,863.426938 C584.839029,863.426938 736.604865,387.852478 736.604865,206.426938 C736.604865,25.0013974 409.790928,6.42693767 489.772221,206.426938 C569.753515,406.426938 221.604865,392.001397 221.604865,573.426938 C221.604865,754.852478 394.705414,863.426938 489.772221,863.426938 Z" fill="#5634f7" transform="translate(479.104865, 463.367299) rotate(-16.000000) translate(-479.104865, -463.367299) "></path>
                    <path d="M493.63827,63.5520495 C537.241822,63.5520495 585.005515,78.2504558 619.616896,106.46891 C648.839849,130.294209 668.681406,163.765199 668.681406,206.171326 C668.681406,304.171245 619.642452,488.032492 557.979778,636.337567 C530.202258,703.14536 499.862915,762.738077 470.284458,804.009677 C444.15626,840.467039 418.64934,862.671326 396.012217,862.671326 C336.602083,862.671326 249.620066,827.978383 185.254813,765.083626 C135.826502,716.784559 99.7319431,651.841902 99.7319431,573.171326 C99.7319431,537.969069 114.30313,510.174002 137.102294,486.757913 C166.948939,456.103644 210.875962,432.94437 254.764764,410.527987 L258.922091,408.40634 C259.845719,407.935262 260.769132,407.464419 261.692198,406.993748 C262.227259,406.720921 262.762202,406.44815 263.297003,406.175424 L266.503887,404.539504 C318.314228,378.097629 368.301648,351.846012 393.235633,314.712584 C412.237334,286.413926 416.753567,251.80097 396.469439,205.968971 C376.839643,161.615437 379.405924,128.045533 395.347998,104.674537 C414.303835,76.8853814 452.096726,63.5520495 493.63827,63.5520495 Z" stroke="#1B2129" transform="translate(384.206675, 463.111688) rotate(-16.000000) translate(-384.206675, -463.111688) "></path>
                </g>
            </g>
        </g>
    </g>
</svg>