<?xml version="1.0" encoding="UTF-8"?>
<svg width="362px" height="413px" viewBox="0 0 362 413" version="1.1" xmlns="http://www.w3.org/2000/svg" xmlns:xlink="http://www.w3.org/1999/xlink">
    <title>bg shape</title>
    <g id="Page-1" stroke="none" stroke-width="1" fill="none" fill-rule="evenodd">
        <g id="10.Blog-Sidebar" transform="translate(-1392.000000, -3180.000000)" fill="#FFFFFF" stroke="#1B2129">
            <g id="CTA" transform="translate(-124.000000, 3155.378646)">
                <path d="M1662.59315,44.3162799 C1680.29215,29.1765191 1712.74096,22.2018198 1747.79129,22.6374881 C1784.43823,23.0930018 1823.94767,31.664581 1852.52144,47.5881032 C1865.14798,54.624593 1875.63705,63.0956699 1882.78196,72.9431909 C1889.31555,81.9481509 1893.04802,92.1039772 1893.04802,103.361041 C1893.04802,154.709025 1850.69036,250.960837 1804.82549,325.863448 C1781.3042,364.276424 1756.85686,397.077184 1736.70761,415.318379 C1727.59551,423.567596 1719.37823,428.837605 1712.52972,430.244088 C1709.36007,430.895041 1706.49156,430.710719 1703.97857,429.582066 C1701.54619,428.489616 1699.45403,426.515354 1697.73466,423.596555 C1684.31048,400.807602 1649.48104,394.102634 1613.00383,387.173498 C1612.68335,387.11262 1612.36275,387.051722 1612.04205,386.990792 L1609.15307,386.441237 C1580.2412,380.930797 1550.77595,374.881358 1530.76752,359.985055 C1515.71356,348.777363 1506.04802,332.542092 1506.04802,307.733195 C1506.04802,288.505629 1513.75094,273.152242 1525.7703,260.111017 C1541.91781,242.590675 1565.83644,229.234237 1589.42397,216.29276 L1591.53518,215.134832 L1591.53518,215.134832 L1593.27115,214.1827 C1621.60422,198.638127 1648.80798,183.388633 1660.95506,162.030294 C1670.15745,145.849625 1670.79157,126.16202 1656.73125,100.174067 C1650.32303,88.3296196 1647.98355,77.9091885 1648.94086,68.8632606 C1649.97628,59.0791024 1654.87429,50.9190173 1662.59315,44.3162799 Z" id="bg-shape" transform="translate(1699.548025, 226.618341) scale(1, -1) rotate(353.000000) translate(-1699.548025, -226.618341) "></path>
            </g>
        </g>
    </g>
</svg>