<?xml version="1.0" encoding="UTF-8"?>
<svg width="611px" height="886px" viewBox="0 0 611 886" version="1.1" xmlns="http://www.w3.org/2000/svg" xmlns:xlink="http://www.w3.org/1999/xlink">
    <title>bg shape</title>
    <g id="Page-1" stroke="none" stroke-width="1" fill="none" fill-rule="evenodd">
        <g id="01.Home" transform="translate(-1148.000000, -2367.000000)" stroke="#FFFFFF">
            <g id="BG" transform="translate(-512.693644, 2288.653112)">
                <path d="M1900.25775,199.872056 C1936.09593,173.098793 2001.78874,160.733081 2072.77428,161.503659 C2146.91787,162.30852 2226.84997,177.459376 2284.65902,205.594544 C2310.24113,218.045138 2331.48831,233.036504 2345.96392,250.460536 C2359.21462,266.410168 2366.7848,284.397791 2366.7848,304.33679 C2366.7848,400.62842 2299.33128,581.280196 2214.52316,726.997724 C2142.49265,850.760707 2057.9442,949.469831 1991.52403,949.469831 C1909.7513,949.469831 1790.01768,915.368675 1701.41998,853.520618 C1633.44946,806.071925 1583.7848,742.283189 1583.7848,664.98721 C1583.7848,630.961166 1599.39298,603.7924 1623.74769,580.714514 C1649.98408,555.853605 1686.35893,535.734897 1724.38471,516.931762 L1727.31289,515.487904 C1731.7096,513.325836 1736.1254,511.180113 1740.54725,509.045471 L1743.49589,507.623961 L1743.49589,507.623961 L1746.44547,506.205387 L1746.44547,506.205387 L1749.39513,504.789404 L1749.39513,504.789404 L1752.344,503.375664 L1752.344,503.375664 L1755.29122,501.963821 L1755.29122,501.963821 L1756.76395,501.258503 C1815.17378,473.28539 1871.83826,446.108484 1896.84702,407.705604 C1906.52953,392.837356 1911.48354,376.289561 1909.99065,357.369014 C1908.62368,340.044214 1901.84529,320.721184 1888.30791,298.869359 C1875.3148,277.896082 1870.58053,259.444073 1872.5213,243.426717 C1874.6249,226.065554 1884.57544,211.587677 1900.25775,199.872056 Z" id="bg-shape" transform="translate(1975.284796, 555.469831) scale(1, -1) rotate(138.000000) translate(-1975.284796, -555.469831) "></path>
            </g>
        </g>
    </g>
</svg>