<?xml version="1.0" encoding="UTF-8"?>
<svg width="420px" height="535px" viewBox="0 0 420 535" version="1.1" xmlns="http://www.w3.org/2000/svg" xmlns:xlink="http://www.w3.org/1999/xlink">
    <title>bg shape</title>
    <g id="Page-1" stroke="none" stroke-width="1" fill="none" fill-rule="evenodd">
        <g id="05.Service-Single" transform="translate(-1420.000000, -1787.000000)" stroke="#1B2129">
            <g id="Service-description" transform="translate(-509.000000, 754.000000)">
                <g id="bg-shapes" transform="translate(0.000000, 403.500000)">
                    <path d="M2029.87563,640.209658 C2055.19792,614.616456 2097.27512,607.301953 2143.27518,612.847754 C2194.65399,619.042022 2250.94739,641.297785 2294.42512,672.237455 C2302.09806,677.697686 2307.09541,684.262539 2309.95768,691.696609 C2313.10186,699.862863 2313.6724,709.072245 2312.40686,719.005486 C2309.59197,741.099619 2297.7109,766.754289 2284.60846,792.534878 L2283.5983,794.518191 C2281.40498,798.815656 2279.18332,803.114172 2276.96964,807.397839 C2276.07113,809.13652 2275.17401,810.87276 2274.28066,812.605506 L2273.2106,814.683055 C2256.65739,846.856969 2241.73832,877.675584 2243.82111,900.346232 C2244.69439,909.851673 2248.53111,917.940549 2256.43231,924.13007 C2263.63071,929.769038 2274.22619,933.832554 2289.08514,935.918266 C2304.05842,938.020026 2313.28187,942.586818 2317.66906,949.048074 C2319.97196,952.439682 2320.92622,956.347844 2320.69066,960.670364 C2320.44182,965.236567 2318.87067,970.259192 2316.16029,975.627906 C2304.05414,999.607739 2269.31595,1030.37484 2226.75521,1058.06452 C2184.99666,1085.23231 2135.69612,1109.42966 2092.76592,1121.32613 C2056.47334,1131.38324 2024.72266,1132.68584 2006.04416,1119.39383 C2002.35706,1116.77001 2000.4112,1113.24298 1999.87907,1108.94918 C1999.29235,1104.21485 2000.40697,1098.56663 2002.77789,1092.17578 C2008.90711,1075.65441 2023.42518,1054.23515 2039.27927,1030.83046 C2058.75107,1002.08512 2080.23676,970.35549 2090.78215,941.023623 C2098.31789,920.063074 2100.26149,900.326118 2092.01288,883.743305 C2085.77337,871.199558 2078.4304,857.61204 2070.76244,843.423407 C2048.11452,801.516174 2022.61925,754.359758 2014.4156,713.383498 C2008.65268,684.59836 2011.423,658.859715 2029.87563,640.209658 Z" id="bg-shape" transform="translate(2160.225530, 870.106575) rotate(-30.000000) translate(-2160.225530, -870.106575) "></path>
                </g>
            </g>
        </g>
    </g>
</svg>