<?xml version="1.0" encoding="UTF-8"?>
<svg width="587px" height="658px" viewBox="0 0 587 658" version="1.1" xmlns="http://www.w3.org/2000/svg" xmlns:xlink="http://www.w3.org/1999/xlink">
    <title>bg shape</title>
    <g id="Page-1" stroke="none" stroke-width="1" fill="none" fill-rule="evenodd">
        <g id="05.Service-Single" transform="translate(-272.000000, -1377.000000)" stroke="#1B2129">
            <g id="Service-description" transform="translate(50.000000, 754.000000)">
                <g id="bg-shapes" transform="translate(0.000000, 403.500000)">
                    <path d="M722.072582,199.542703 C751.800367,191.496919 774.714039,185.257798 789.22653,188.788244 C795.076004,190.211242 799.537495,193.242639 802.493522,198.43315 C805.341229,203.43346 806.796593,210.410798 806.796593,219.824245 C806.796593,296.693939 757.762267,440.908638 696.114853,557.23519 C668.34283,609.640043 638.009539,656.386101 608.436886,688.760104 C582.295588,717.377709 556.766307,734.785119 534.127404,734.785119 C485.646634,734.785119 452.031126,690.017642 414.521846,640.239418 C370.621161,581.979217 321.433241,516.787731 237.40344,507.263713 C218.818963,505.157331 203.652314,498.368509 191.667938,488.23705 C178.541704,477.140275 169.233996,462.037955 163.421363,444.704767 C150.468525,406.079591 154.862132,356.386949 173.125669,315.091718 C188.65002,279.989991 214.201552,250.940489 247.688275,239.965098 C275.878245,230.725737 309.674881,234.315083 347.811131,257.825456 C396.066743,287.574249 427.617337,299.715874 450.204179,301.350526 C479.846956,303.495828 494.150867,287.626453 510.451856,269.458436 C528.943081,248.849327 550.045877,225.307527 599.707428,222.465249 C647.467687,219.731787 688.976668,208.500067 722.072582,199.542703 Z" id="bg-shape" transform="translate(481.386894, 461.285119) rotate(130.000000) translate(-481.386894, -461.285119) "></path>
                </g>
            </g>
        </g>
    </g>
</svg>