<svg width="684px" height="708px" viewBox="0 0 684 708" version="1.1" xmlns="http://www.w3.org/2000/svg" xmlns:xlink="http://www.w3.org/1999/xlink">
    <title>bg shape_white1</title>
    <g id="Page-1" stroke="none" stroke-width="1" fill="none" fill-rule="evenodd">
        <g id="03.About" transform="translate(-795.000000, -2249.000000)" fill="#FFFFFF" stroke="#1B2129">
            <g id="Contact" transform="translate(-590.000000, 1861.000000)">
                <path d="M1938.73988,299.106415 C1968.43561,288.862417 1991.33047,280.903432 2005.83151,285.399746 C2011.69125,287.216666 2016.14754,291.101247 2019.10637,297.723277 C2021.96571,304.122652 2023.43146,313.049796 2023.43146,325.09951 C2023.43146,423.099428 1974.39251,606.960676 1912.72984,755.26575 C1884.95232,822.073543 1854.61297,881.66626 1825.03452,922.937861 C1798.90632,959.395222 1773.3994,981.59951 1750.76228,981.59951 C1702.27703,981.59951 1668.68734,924.514727 1631.1878,861.084513 C1587.28483,786.822908 1538.07868,703.743175 1454.05349,691.604647 C1435.47908,688.921333 1420.32358,680.267256 1408.3465,667.361683 C1395.20336,653.199653 1385.88583,633.925898 1380.06572,611.804821 C1367.0999,562.524279 1371.49307,499.121623 1389.77564,446.43238 C1405.30645,401.673529 1430.8562,364.62285 1464.36015,350.626555 C1478.97933,344.519385 1495.11117,342.812178 1512.57742,346.777867 C1528.75715,350.451452 1546.07622,358.988323 1564.39947,373.386039 C1612.67158,411.316441 1644.23638,426.790086 1666.82922,428.874145 C1679.58696,430.050974 1689.50969,426.978968 1697.97293,421.259552 C1709.18824,413.680288 1717.83237,401.423454 1727.12343,388.224841 C1745.60905,361.964686 1766.69493,331.95039 1816.35011,328.328122 C1864.11971,324.843405 1905.63735,310.525641 1938.73988,299.106415 Z" id="bg-shape_white1" transform="translate(1698.021766, 632.862528) rotate(130.000000) translate(-1698.021766, -632.862528) "></path>
            </g>
        </g>
    </g>
</svg>