<?xml version="1.0" encoding="UTF-8"?>
<svg width="982px" height="954px" viewBox="0 0 982 954" version="1.1" xmlns="http://www.w3.org/2000/svg" xmlns:xlink="http://www.w3.org/1999/xlink">
    <title>bg 2</title>
    <g id="Page-1" stroke="none" stroke-width="1" fill="none" fill-rule="evenodd">
        <g id="01.Home" transform="translate(123.000000, -1688.000000)">
            <g id="About" transform="translate(-512.435015, 1688.655000)">
                <g id="bg-2" transform="translate(390.000000, 0.000000)">
                    <path d="M436.304278,114.427074 C462.327227,87.2144022 510.034862,74.6532663 561.572243,75.4363868 C615.430611,76.2547752 673.495265,91.6596646 715.488649,120.268087 C751.117301,144.54047 775.178077,178.325589 775.178077,220.793056 C775.178077,318.792975 726.139123,502.654222 664.476449,650.959297 C636.698929,717.767089 606.359586,777.359807 576.781129,818.631407 C550.652932,855.088768 525.146011,877.293056 502.508888,877.293056 C443.098755,877.293056 356.116737,842.600112 291.751485,779.705355 C242.323173,731.406288 206.228614,666.463632 206.228614,587.793056 C206.228614,505.335041 270.456997,462.371441 331.96527,421.138177 C333.239561,420.283931 334.512705,419.430422 335.784114,418.577318 L338.324446,416.871553 C339.170337,416.303079 340.015282,415.734688 340.859109,415.166281 L343.38706,413.460914 C381.671473,387.592496 417.27982,361.488428 433.829682,325.915023 C447.294828,296.97212 448.18511,261.758608 427.621432,215.294965 C418.161426,193.920077 414.721202,175.113902 416.134005,158.792523 C417.66431,141.113706 424.892861,126.360201 436.304278,114.427074 Z" id="bg-shape" stroke="#1B2129" transform="translate(490.703346, 476.347524) rotate(130.000000) translate(-490.703346, -476.347524) "></path>
                    <path d="M506.190535,515.752287 C536.064713,515.752287 554.927713,424.327463 570.741474,370.314459 C585.938437,318.408172 666.588715,332.692304 666.588715,299.63488 C666.588715,232.178333 516.827295,176.896111 541.96094,251.258902 C567.094585,325.621693 455.588715,306.087247 455.588715,373.543794 C455.588715,441.000341 476.316358,515.752287 506.190535,515.752287 Z" id="bg-shape-blue" fill="#5634f7" transform="translate(561.088715, 365.752287) rotate(337.000000) translate(-561.088715, -365.752287) "></path>
                </g>
            </g>
        </g>
    </g>
</svg>