<?xml version="1.0" encoding="utf-8"?>
<!-- Generator: Adobe Illustrator 26.0.3, SVG Export Plug-In . SVG Version: 6.00 Build 0)  -->
<svg version="1.1" id="Layer_1" xmlns="http://www.w3.org/2000/svg" xmlns:xlink="http://www.w3.org/1999/xlink" x="0px" y="0px"
	 viewBox="0 0 152.6 158.5" style="enable-background:new 0 0 152.6 158.5;" xml:space="preserve">
<style type="text/css">
	.st0{fill:#FFFFFF;stroke:#1A1A1A;stroke-width:2;stroke-linecap:round;stroke-linejoin:round;stroke-miterlimit:10;}
</style>
<g>
	<ellipse class="st0" cx="76.1" cy="84.6" rx="59.2" ry="59.2"/>
	<ellipse class="st0" cx="76.1" cy="84.6" rx="50.9" ry="50.8"/>
	<g>
		<g>
			<path class="st0" d="M87.3,99.3c0-2.5-0.9-4.5-2.6-6.2s-4.6-3.2-8.7-4.6c-5.7-1.7-9.8-4-12.4-6.8c-2.6-2.8-3.9-6.3-3.9-10.6
				c0-4.4,1.3-8,3.8-10.8c2.5-2.8,6-4.5,10.5-5v-8.8h6v8.8c4.5,0.6,8,2.5,10.5,5.6s3.7,7.5,3.7,12.9h-7.4c0-3.8-0.9-6.8-2.7-9
				c-1.8-2.2-4.2-3.3-7.2-3.3c-3.2,0-5.6,0.8-7.3,2.5c-1.7,1.6-2.5,3.9-2.5,6.9c0,2.7,0.9,4.9,2.7,6.5c1.8,1.6,4.7,3.1,8.8,4.4
				c4.1,1.3,7.2,2.8,9.5,4.4c2.3,1.6,4,3.4,5,5.5c1.1,2.1,1.6,4.6,1.6,7.4c0,4.5-1.4,8.1-4.1,10.9c-2.7,2.7-6.5,4.4-11.4,4.9v7.6
				h-5.9v-7.6c-5-0.5-8.8-2.2-11.7-5.3c-2.8-3.1-4.2-7.3-4.2-12.5h7.4c0,3.7,1,6.6,2.9,8.6s4.7,3,8.3,3c3.5,0,6.2-0.8,8.2-2.5
				C86.3,104.5,87.3,102.2,87.3,99.3z"/>
		</g>
	</g>
</g>
</svg>
