<?xml version="1.0" encoding="utf-8"?>
<!-- Generator: Adobe Illustrator 26.0.3, SVG Export Plug-In . SVG Version: 6.00 Build 0)  -->
<svg version="1.1" id="Layer_1" xmlns="http://www.w3.org/2000/svg" xmlns:xlink="http://www.w3.org/1999/xlink" x="0px" y="0px"
	 viewBox="0 0 1758.5 1325.7" style="enable-background:new 0 0 1758.5 1325.7;" xml:space="preserve">
<style type="text/css">
	.st0{fill:none;}
	.st1{fill:#FFFFFF;}
	.st2{fill:#1A1A1A;}
	.st3{fill:#8054D4;}
	.st4{fill:#FFA64D;}
</style>
<g>
	<path class="st0" d="M1298,1202c-0.7,0.2-1.4,0.4-2.1,0.5c-3.8,0.9-8.4,1.9-14.4,3.1c0,0,0,0,0,0c-5,1-10.3,2-16,3
		c-1.5,0.3-3,0.6-4.6,0.9c-0.1,6.6-0.4,11.7-0.6,14.3h97.1c-14.6-2.5-28.2-6.8-37.6-13.2C1306.2,1199.7,1303.1,1200.6,1298,1202z"/>
	<polygon class="st0" points="1449.1,819.3 1429.7,781.5 1373.7,891 1412.4,891 	"/>
	<path class="st0" d="M542,798.3c-16.4-5.3-28.3-20.7-28.3-38.8c0-18.2,11.9-33.5,28.3-38.8c-2-0.3-4-0.5-6.1-0.5
		c-21.7,0-39.3,17.6-39.3,39.3s17.6,39.3,39.3,39.3C538,798.8,540,798.6,542,798.3z"/>
	<polygon class="st0" points="156.2,1029.4 94.8,1029.4 94.8,1041.5 172.9,1041.5 172.9,963.5 156.2,963.5 	"/>
	<path class="st1" d="M558.5,116.5c-0.6-0.2-1.1-0.3-1.5-0.2v6.1c0.1,0.8,1,9.5,6.2,12.8c2.5,1.5,5.6,1.6,9.4,0.1
		c0.6-0.2,1.1-0.4,1.7-0.6C568.5,124.6,562.7,117.9,558.5,116.5z"/>
	<path class="st1" d="M577.7,208.4c-12.3-8.5-6.5-20.5-2.4-29.2c1.8-3.8,3.6-7.5,3.4-9.8c0-0.1,0-0.2,0-0.3c-1.9-0.5-3.9-1.2-6.1-2
		c-3.8-1.5-6.9-1.4-9.4,0.1c-5.2,3.2-6.1,12-6.1,12.8v34.3c0,0.3-0.1,0.6-0.3,0.9c4,6.6,6.7,12.7,8.5,18.2c3.9-2.3,8.4-4.3,13.5-5.3
		c3.2-0.6,6.4-0.9,9.7-0.7l-9.2-18.8C578.7,208.7,578.1,208.7,577.7,208.4z"/>
	<path class="st2" d="M557,116.3c0.5,0,1,0,1.5,0.2c4.2,1.4,9.9,8.1,15.7,18.1c1-0.4,2-0.7,2.9-1c-6.1-10.8-12.5-18.3-17.6-20
		c-0.9-0.3-1.7-0.4-2.4-0.4V116.3z"/>
	<path class="st2" d="M565.2,233.4c-1.8-5.5-4.5-11.7-8.5-18.2c-0.3,0.4-0.7,0.6-1.2,0.6h-2c4.4,7,7.2,13.6,9,19.4
		C563.4,234.5,564.3,233.9,565.2,233.4z"/>
	<path class="st3" d="M576,138c1.4-1.1,2.9-1.5,4.6-1.2c4.1,0.9,8.6,6.1,15.7,18.7c0.2-1.3,0.3-2.8,0.3-4.4
		c-0.1-7.6-1.8-12.3-5-14.5c-3.5-2.4-9.3-1.9-17.8,1.4c-4.7,1.8-8.8,1.7-12.1-0.4c-6.6-4.2-7.5-14.7-7.5-15.1c0,0,0-0.1,0-0.1V83.8
		h-34.2c-0.8,0.1-9.5,1-12.8,6.2c-1.5,2.5-1.6,5.6-0.1,9.4c3.8,9.6,4.1,16.1,1.1,20.6c-2.8,4.1-8.3,6.2-17,6.3
		c-8.7-0.1-14.3-2.2-17.1-6.3c-3-4.4-2.6-11,1.1-20.6c1.5-3.8,1.4-6.9-0.1-9.4c-3.2-5.1-12-6.1-12.8-6.2h-36.7v38.6c0,0,0,0.1,0,0.1
		c0,0.4-0.9,11-7.5,15.1c-3.3,2.1-7.4,2.2-12.1,0.4c-8.5-3.3-14.3-3.8-17.8-1.4c-3.2,2.2-4.9,6.9-5,14.5c0.1,7.6,1.8,12.3,5,14.5
		c3.5,2.4,9.3,1.9,17.8-1.4c4.7-1.8,8.8-1.7,12.1,0.4c6.6,4.2,7.5,14.7,7.5,15.1c0,0,0,0.1,0,0.1v32.8h36.7c0.8-0.1,9.5-1,12.8-6.2
		c1.5-2.5,1.6-5.6,0.1-9.4c-3.7-9.6-4.1-16.2-1.1-20.6c2.8-4.1,8.3-6.2,17-6.3c0,0,0,0,0.1,0c8.7,0.1,14.2,2.2,17,6.3
		c3,4.4,2.6,11-1.1,20.6c-1.5,3.8-1.4,6.9,0.1,9.4c3.2,5.1,12,6.1,12.8,6.2H554v-32.8c0,0,0-0.1,0-0.1c0-0.4,0.9-11,7.5-15.1
		c3.3-2.1,7.4-2.2,12.1-0.4c1.6,0.6,3.1,1.1,4.5,1.6c-0.5-2.1-1.1-4.4-1.8-6.8C573.9,150.6,571.3,141.8,576,138z"/>
	<path class="st2" d="M555.5,215.7c0.5,0,0.9-0.2,1.2-0.6c0.2-0.3,0.3-0.6,0.3-0.9v-34.3c0.1-0.8,1-9.5,6.1-12.8
		c2.5-1.5,5.6-1.6,9.4-0.1c2.2,0.9,4.2,1.5,6.1,2c-0.1-1-0.3-2.1-0.6-3.3c-1.4-0.4-2.9-0.9-4.5-1.6c-4.7-1.8-8.8-1.7-12.1,0.4
		c-6.6,4.2-7.5,14.7-7.5,15.1c0,0,0,0.1,0,0.1v32.8h-34.2c-0.8-0.1-9.5-1-12.8-6.2c-1.5-2.5-1.6-5.6-0.1-9.4
		c3.8-9.6,4.1-16.1,1.1-20.6c-2.8-4.1-8.3-6.2-17-6.3c0,0,0,0-0.1,0c-8.7,0.1-14.2,2.2-17,6.3c-3,4.4-2.6,11,1.1,20.6
		c1.5,3.8,1.4,6.9-0.1,9.4c-3.2,5.2-12,6.1-12.8,6.2h-36.7v-32.8c0,0,0-0.1,0-0.1c0-0.4-0.9-11-7.5-15.1c-3.3-2.1-7.4-2.2-12.1-0.4
		c-8.5,3.3-14.3,3.8-17.8,1.4c-3.2-2.2-4.9-6.9-5-14.5c0.1-7.6,1.8-12.4,5-14.5c3.5-2.4,9.3-1.9,17.8,1.4c4.7,1.8,8.8,1.7,12.1-0.4
		c6.6-4.2,7.5-14.7,7.5-15.1c0,0,0-0.1,0-0.1V83.8h36.7c0.8,0.1,9.6,1,12.8,6.2c1.5,2.5,1.6,5.6,0.1,9.4c-3.7,9.6-4.1,16.2-1.1,20.6
		c2.8,4.1,8.3,6.2,17.1,6.3c8.7-0.2,14.2-2.2,17-6.3c3-4.4,2.6-11-1.1-20.6c-1.5-3.8-1.4-6.9,0.1-9.4c3.2-5.1,12-6.1,12.8-6.2H554
		v38.6c0,0,0,0.1,0,0.1c0,0.4,0.9,11,7.5,15.1c3.3,2.1,7.4,2.2,12.1,0.4c8.5-3.3,14.3-3.8,17.8-1.4c3.2,2.2,4.9,6.9,5,14.5
		c0,1.6-0.1,3-0.3,4.4c0.7,1.3,1.5,2.7,2.3,4.2c0.6-2.4,0.9-5.3,1-8.5c-0.1-8.7-2.2-14.2-6.3-17c-3.7-2.5-8.9-2.6-16.1-0.5
		c-0.9,0.3-1.9,0.6-2.9,1c-0.5,0.2-1.1,0.4-1.7,0.6c-3.8,1.5-6.9,1.4-9.4-0.1c-5.1-3.2-6.1-12-6.2-12.8v-6.1v-3v-31
		c0-0.8-0.7-1.5-1.5-1.5h-35.7c0,0-0.1,0-0.1,0c-0.4,0-11,0.9-15.1,7.5c-2.1,3.3-2.2,7.4-0.4,12.1c3.3,8.5,3.8,14.3,1.4,17.8
		c-2.2,3.2-6.9,4.9-14.5,5c-7.6-0.1-12.4-1.8-14.6-5c-2.4-3.5-1.9-9.3,1.4-17.8c1.8-4.7,1.7-8.8-0.4-12.1
		c-4.2-6.6-14.7-7.5-15.1-7.6c0,0-0.1,0-0.1,0h-38.3c-0.8,0-1.5,0.7-1.5,1.5v40.1c-0.1,0.8-1,9.5-6.2,12.8c-2.5,1.5-5.6,1.6-9.4,0.1
		c-9.6-3.7-16.2-4.1-20.6-1.1c-4.1,2.8-6.2,8.3-6.3,17c0.1,8.7,2.2,14.2,6.3,17c4.4,3,11,2.6,20.6-1.1c3.8-1.5,6.9-1.4,9.4,0.1
		c5.1,3.2,6.1,12,6.2,12.8v34.3c0,0.8,0.7,1.5,1.5,1.5h38.3c0,0,0.1,0,0.1,0c0.4,0,11-0.9,15.1-7.6c2.1-3.3,2.2-7.4,0.4-12.1
		c-3.3-8.5-3.8-14.3-1.4-17.8c2.2-3.2,6.9-4.9,14.5-5c7.6,0.1,12.4,1.8,14.5,5c2.4,3.5,1.9,9.3-1.4,17.8c-1.8,4.7-1.7,8.8,0.4,12.1
		c4.2,6.6,14.7,7.5,15.1,7.5c0,0,0.1,0,0.1,0h33.8H555.5z"/>
	<path class="st1" d="M602.8,174.5c-8.7-17.4-17.4-33.6-22.9-34.7c-0.8-0.2-1.4,0-2.1,0.5c-3.1,2.5-0.6,11.1,1.3,17.9
		c1.2,4,2.3,7.9,2.5,10.9c0.3,3.2-1.6,7-3.7,11.3c-4.1,8.6-8.8,18.4,1.4,25.5c0.7,0.5,0.8,1.4,0.4,2.1c-0.2,0.2-0.4,0.4-0.6,0.5
		l9.2,18.8c5.2,0.2,10.6,1.4,16.1,3.6C607.8,213.6,610.3,189.5,602.8,174.5z"/>
	<path class="st2" d="M596.2,155.5c-7.1-12.6-11.6-17.8-15.7-18.7c-1.6-0.4-3.2,0-4.6,1.2c-4.6,3.8-2.1,12.6,0.3,21.1
		c0.7,2.4,1.3,4.7,1.8,6.8c0.3,1.2,0.5,2.3,0.6,3.3c0,0.1,0,0.2,0,0.3c0.2,2.4-1.5,6-3.4,9.8c-4.2,8.7-9.9,20.7,2.4,29.2
		c0.5,0.3,1,0.3,1.5,0.1c0.2-0.1,0.4-0.3,0.6-0.5c0.5-0.7,0.3-1.6-0.4-2.1c-10.2-7.1-5.5-16.8-1.4-25.5c2.1-4.4,3.9-8.2,3.7-11.3
		c-0.2-3-1.3-6.8-2.5-10.9c-2-6.9-4.4-15.4-1.3-17.9c0.7-0.5,1.3-0.7,2.1-0.5c5.4,1.2,14.2,17.4,22.9,34.7c7.5,15,5,39.1,1.7,56.4
		c1,0.4,1.9,0.8,2.9,1.2c3.5-17.8,6.2-43-1.9-59c-2.6-5.1-4.9-9.6-7-13.5C597.7,158.2,596.9,156.8,596.2,155.5z"/>
	<path class="st4" d="M164.4,1227.8H703c0-0.3,0.1-0.7,0.1-1H164.4C164.4,1227.1,164.4,1227.4,164.4,1227.8z"/>
	<path d="M1166,1116.1c-5.6-26.8-15.6-52.1-29.1-74.9c3.4,28.8,6.3,52.7,8.1,68.3C1152.3,1111.7,1159.3,1113.9,1166,1116.1z"/>
	<path d="M1022.5,1075c-16.7-25.9-31.8-55.8-45.2-86.9c-24.9,14.4-70.1,39.5-121.4,62.5C911.7,1052.4,969.1,1062.4,1022.5,1075z"/>
	<path d="M468.2,1222.1H672c-2.4-0.3-4.7-0.7-7.1-1.1c-35-5.5-82.1-17.5-108.3-43.4c-13.5-13.3-20.3-29.3-20.3-47.3
		c0-19.5,13-48.7,38.7-87.4C515.9,1082.4,474.7,1147.3,468.2,1222.1z"/>
	<path d="M1136.6,1038.8c0.1,0.8,0.2,1.6,0.3,2.4c13.5,22.9,23.5,48.1,29.1,74.9c1.1,0.4,2.2,0.7,3.3,1.1
		c-5.6-27.8-15.8-54.3-30.3-78.5C1138.2,1038.7,1137.4,1038.7,1136.6,1038.8z"/>
	<path d="M672,1222.1H468.2c6.5-74.8,47.7-139.7,106.8-179.1c1.5-2.3,3.1-4.7,4.8-7.1c-13.3,8.2-25.9,17.8-37.6,28.7
		c-44.9,41.6-72.3,98.1-77.1,158.9c0,0.1,0,0.2,0,0.3h220.4C681.2,1223.3,676.6,1222.7,672,1222.1z"/>
	<path d="M1279.4,1202.9c0-0.1,0-0.1,0-0.2c0-0.3-0.1-0.5-0.2-0.8c-0.1-0.3-0.1-0.6-0.2-0.9c-0.1-0.3-0.1-0.5-0.2-0.8
		c-0.1-0.3-0.2-0.6-0.2-0.9c-0.1-0.3-0.2-0.5-0.2-0.8c-0.1-0.3-0.2-0.6-0.3-0.9c-0.1-0.3-0.2-0.5-0.3-0.8c-0.1-0.3-0.2-0.6-0.3-0.9
		c-0.1-0.3-0.2-0.5-0.3-0.8c-0.1-0.3-0.2-0.6-0.4-0.9c-0.1-0.2-0.2-0.5-0.3-0.7c-0.1-0.3-0.3-0.6-0.4-0.9c-0.1-0.2-0.3-0.5-0.4-0.7
		c-0.2-0.3-0.3-0.6-0.5-0.9c-0.1-0.2-0.3-0.5-0.4-0.7c-0.2-0.3-0.3-0.6-0.5-0.9c-0.1-0.2-0.3-0.5-0.4-0.7c-0.2-0.3-0.4-0.6-0.5-0.9
		c-0.2-0.2-0.3-0.5-0.5-0.7c-0.2-0.3-0.4-0.6-0.6-0.8c-0.2-0.2-0.3-0.5-0.5-0.7c-0.2-0.3-0.4-0.6-0.6-0.8c-0.2-0.2-0.3-0.5-0.5-0.7
		c-0.2-0.3-0.4-0.6-0.6-0.8c-0.2-0.2-0.4-0.5-0.5-0.7c-0.2-0.3-0.5-0.6-0.7-0.8c-0.2-0.2-0.4-0.5-0.6-0.7c-0.2-0.3-0.5-0.6-0.7-0.8
		c-0.2-0.2-0.4-0.5-0.6-0.7c-0.2-0.3-0.5-0.5-0.7-0.8c-0.2-0.2-0.4-0.4-0.6-0.7c-0.3-0.3-0.5-0.6-0.8-0.8c-0.2-0.2-0.4-0.4-0.6-0.7
		c-0.3-0.3-0.5-0.6-0.8-0.8c-0.2-0.2-0.4-0.4-0.6-0.6c-0.3-0.3-0.5-0.6-0.8-0.8c-0.2-0.2-0.4-0.4-0.6-0.6c-0.3-0.3-0.6-0.6-0.9-0.8
		c-0.2-0.2-0.4-0.4-0.6-0.6c-0.3-0.3-0.6-0.6-0.9-0.8c-0.2-0.2-0.4-0.4-0.6-0.6c-0.2-0.2-0.5-0.4-0.7-0.7c2.6,12.2,3.3,25.5,3.3,36
		c1.3-0.3,2.7-0.5,4-0.8C1270,1204.7,1274.9,1203.8,1279.4,1202.9z"/>
	<path d="M1281.4,1205.6C1281.4,1205.6,1281.4,1205.6,1281.4,1205.6C1281.4,1205.6,1281.4,1205.6,1281.4,1205.6
		c-0.4,0.1-0.8,0-1.2-0.3c-0.3-0.2-0.6-0.6-0.6-1c-0.1-0.5-0.1-0.9-0.2-1.4c-4.6,0.9-9.4,1.8-14.5,2.8c-1.3,0.2-2.6,0.5-4,0.8
		c0,1,0,2.1,0,3.1c1.5-0.3,3.1-0.6,4.6-0.9C1271.1,1207.6,1276.4,1206.6,1281.4,1205.6z"/>
	<path d="M1272.8,1187.5c0.2,0.2,0.3,0.5,0.5,0.7C1273.2,1187.9,1273,1187.7,1272.8,1187.5z"/>
	<path d="M1266.9,1179.8c0.2,0.2,0.4,0.4,0.6,0.7C1267.3,1180.3,1267.1,1180.1,1266.9,1179.8z"/>
	<path d="M1269.5,1182.9c0.2,0.2,0.4,0.5,0.5,0.7C1269.8,1183.3,1269.6,1183.1,1269.5,1182.9z"/>
	<path d="M1265.6,1178.4c0.2,0.2,0.4,0.4,0.6,0.7C1266,1178.8,1265.8,1178.6,1265.6,1178.4z"/>
	<path d="M1270.6,1184.4c0.2,0.2,0.3,0.5,0.5,0.7C1271,1184.8,1270.8,1184.6,1270.6,1184.4z"/>
	<path d="M1271.8,1185.9c0.2,0.2,0.3,0.5,0.5,0.7C1272.1,1186.4,1271.9,1186.1,1271.8,1185.9z"/>
	<path d="M1268.2,1181.3c0.2,0.2,0.4,0.4,0.6,0.7C1268.6,1181.8,1268.4,1181.6,1268.2,1181.3z"/>
	<path d="M1259.9,1172.5c0.2,0.2,0.4,0.4,0.6,0.6C1260.3,1172.9,1260.1,1172.7,1259.9,1172.5z"/>
	<path d="M1258.4,1171.1c0.2,0.2,0.4,0.4,0.6,0.6C1258.8,1171.5,1258.6,1171.3,1258.4,1171.1z"/>
	<path d="M1261.4,1174c0.2,0.2,0.4,0.4,0.6,0.6C1261.8,1174.4,1261.6,1174.2,1261.4,1174z"/>
	<path d="M1262.8,1175.4c0.2,0.2,0.4,0.4,0.6,0.6C1263.2,1175.8,1263,1175.6,1262.8,1175.4z"/>
	<path d="M1264.2,1176.9c0.2,0.2,0.4,0.4,0.6,0.7C1264.6,1177.3,1264.4,1177.1,1264.2,1176.9z"/>
	<path d="M1273.9,1189c0.1,0.2,0.3,0.5,0.4,0.7C1274.1,1189.5,1274,1189.3,1273.9,1189z"/>
	<path d="M1277.2,1195.4c0.1,0.3,0.2,0.5,0.3,0.8C1277.4,1195.9,1277.3,1195.6,1277.2,1195.4z"/>
	<path d="M1277.8,1197c0.1,0.3,0.2,0.5,0.3,0.8C1278,1197.5,1277.9,1197.3,1277.8,1197z"/>
	<path d="M1278.4,1198.6c0.1,0.3,0.2,0.5,0.2,0.8C1278.6,1199.2,1278.5,1198.9,1278.4,1198.6z"/>
	<path d="M1278.9,1200.3c0.1,0.3,0.1,0.5,0.2,0.8C1279,1200.8,1278.9,1200.5,1278.9,1200.3z"/>
	<path d="M1279.3,1202c0.1,0.3,0.1,0.5,0.2,0.8C1279.4,1202.5,1279.3,1202.2,1279.3,1202z"/>
	<path d="M1276.5,1193.8c0.1,0.2,0.2,0.5,0.3,0.7C1276.7,1194.3,1276.6,1194,1276.5,1193.8z"/>
	<path d="M1274.8,1190.6c0.1,0.2,0.3,0.5,0.4,0.7C1275.1,1191.1,1274.9,1190.8,1274.8,1190.6z"/>
	<path d="M1275.7,1192.2c0.1,0.2,0.3,0.5,0.4,0.7C1275.9,1192.7,1275.8,1192.4,1275.7,1192.2z"/>
	<path d="M1426.8,1184.8c-10.2-6.8-23.6-14.5-35.4-21.4c-11.9-6.9-22.1-12.9-27.1-16.6c-5.3-3.9-10.1-9.3-14.8-14.6
		c-9.7-10.8-18.8-21.1-30.4-16.4c0.2,0.2,0.5,0.5,0.7,0.7c0.6,0.6,1.3,1.3,1.9,1.9c0.5,0.5,0.9,0.9,1.4,1.4c0.6,0.6,1.3,1.2,1.9,1.9
		c0.5,0.5,1,1,1.4,1.4c0.6,0.6,1.2,1.2,1.9,1.8c0.5,0.5,1,1,1.5,1.5c0.6,0.6,1.2,1.2,1.9,1.8c0.5,0.5,1,1,1.6,1.5
		c0.6,0.6,1.2,1.2,1.8,1.8c0.5,0.5,1.1,1,1.6,1.5c0.6,0.6,1.2,1.2,1.8,1.8c0.5,0.5,1.1,1,1.6,1.5c0.6,0.6,1.2,1.2,1.9,1.7
		c0.6,0.5,1.1,1,1.7,1.6c0.6,0.6,1.2,1.1,1.9,1.7c0.6,0.5,1.1,1,1.7,1.6c0.6,0.6,1.2,1.1,1.9,1.7c0.6,0.5,1.2,1,1.7,1.6
		c0.6,0.6,1.3,1.1,1.9,1.7c0.6,0.5,1.2,1,1.8,1.6c0.6,0.6,1.3,1.1,1.9,1.7c0.6,0.5,1.2,1,1.8,1.6c0.6,0.5,1.3,1.1,1.9,1.6
		c0.6,0.5,1.2,1,1.9,1.6c0.6,0.5,1.3,1.1,1.9,1.6c0.6,0.5,1.3,1.1,1.9,1.6c0.6,0.5,1.2,1,1.9,1.5c0.7,0.5,1.3,1.1,2,1.6
		c0.6,0.5,1.2,1,1.8,1.5c0.7,0.5,1.4,1.1,2.1,1.6c0.6,0.5,1.2,0.9,1.8,1.4c0.7,0.6,1.5,1.1,2.2,1.7c0.6,0.4,1.2,0.9,1.7,1.3
		c0.8,0.6,1.6,1.2,2.4,1.8c0.5,0.4,1.1,0.8,1.6,1.2c1,0.7,2,1.4,3,2.1c0.3,0.2,0.7,0.5,1,0.7c1.3,0.9,2.7,1.9,4.1,2.8
		c0.3,0.2,0.7,0.5,1,0.7c1,0.7,2.1,1.4,3.1,2.1c0.5,0.3,1,0.6,1.5,1c0.9,0.6,1.8,1.1,2.7,1.7c0.5,0.3,1.1,0.7,1.7,1
		c0.8,0.5,1.7,1.1,2.5,1.6c0.6,0.4,1.2,0.7,1.7,1c0.8,0.5,1.7,1,2.5,1.5c0.6,0.3,1.2,0.7,1.8,1c0.8,0.5,1.7,0.9,2.5,1.4
		c0.6,0.3,1.2,0.7,1.9,1c0.8,0.4,1.6,0.9,2.5,1.3c0.6,0.3,1.3,0.7,1.9,1c0.8,0.4,1.6,0.9,2.5,1.3c0.6,0.3,1.3,0.6,1.9,1
		c0.8,0.4,1.6,0.8,2.5,1.2c0.7,0.3,1.3,0.6,2,0.9c0.8,0.4,1.6,0.8,2.5,1.1c0.7,0.3,1.3,0.6,2,0.9c0.8,0.4,1.6,0.7,2.5,1.1
		c0.7,0.3,1.4,0.6,2,0.8c0.8,0.3,1.7,0.7,2.5,1c0.7,0.3,1.4,0.5,2.1,0.8c0.6,0.2,1.2,0.4,1.8,0.7c0.6-1.9,0.9-3.9,0.9-6.1
		C1443.7,1198.3,1442.1,1194.9,1426.8,1184.8z"/>
	<path d="M1317.6,1114.4c0.5,0.5,1,1,1.5,1.5c11.6-4.7,20.8,5.6,30.4,16.4c4.7,5.3,9.5,10.7,14.8,14.6c5,3.7,15.3,9.6,27.1,16.6
		c11.8,6.9,25.1,14.6,35.4,21.4c15.3,10.1,16.9,13.5,16.9,14.5c0,2.2-0.3,4.2-0.9,6.1c0.5,0.2,0.9,0.4,1.4,0.5
		c0.4,0.1,0.7,0.4,0.9,0.8c0.2,0.4,0.2,0.8,0,1.2c1.1-2.6,1.7-5.5,1.7-8.6c0-6.6-22.3-20.1-53.8-38.5c-11.8-6.9-22-12.8-26.9-16.4
		c-5-3.7-9.8-9-14.4-14.1c-10.5-11.8-21.3-23.9-35.9-16.2c0,0,0,0,0,0c0,0,0,0,0,0C1316.4,1113.8,1317.1,1113.9,1317.6,1114.4z"/>
	<path d="M1387.3,1175.5c-0.3-0.2-0.7-0.5-1-0.7C1386.6,1175.1,1387,1175.3,1387.3,1175.5z"/>
	<path d="M1392.4,1179c-0.3-0.2-0.7-0.4-1-0.7C1391.7,1178.6,1392,1178.8,1392.4,1179z"/>
	<path d="M1405.5,1187.4c-0.6-0.3-1.2-0.7-1.7-1C1404.4,1186.7,1405,1187.1,1405.5,1187.4z"/>
	<path d="M1379.3,1169.7c-0.6-0.4-1.2-0.9-1.7-1.3C1378.1,1168.9,1378.7,1169.3,1379.3,1169.7z"/>
	<path d="M1335,1131.7c-0.6-0.6-1.2-1.2-1.8-1.8C1333.8,1130.5,1334.4,1131.1,1335,1131.7z"/>
	<path d="M1431.9,1201.1c-0.7-0.3-1.3-0.6-2-0.9C1430.6,1200.5,1431.2,1200.8,1431.9,1201.1z"/>
	<path d="M1383.3,1172.7c-0.5-0.4-1.1-0.8-1.6-1.2C1382.2,1171.9,1382.7,1172.3,1383.3,1172.7z"/>
	<path d="M1397,1182.1c-0.5-0.3-1-0.6-1.5-1C1396,1181.4,1396.5,1181.7,1397,1182.1z"/>
	<path d="M1324.9,1121.8c-0.6-0.6-1.3-1.3-1.9-1.9C1323.7,1120.6,1324.3,1121.2,1324.9,1121.8z"/>
	<path d="M1401.3,1184.8c-0.5-0.3-1.1-0.7-1.7-1C1400.2,1184.1,1400.7,1184.5,1401.3,1184.8z"/>
	<path d="M1409.8,1189.9c-0.6-0.3-1.2-0.7-1.8-1C1408.6,1189.2,1409.2,1189.6,1409.8,1189.9z"/>
	<path d="M1345.5,1141.5c-0.6-0.6-1.2-1.1-1.9-1.7C1344.3,1140.4,1344.9,1140.9,1345.5,1141.5z"/>
	<path d="M1321.7,1118.5c-0.6-0.6-1.3-1.3-1.9-1.9C1320.4,1117.3,1321,1117.9,1321.7,1118.5z"/>
	<path d="M1441,1204.8c-0.7-0.3-1.4-0.5-2.1-0.8C1439.6,1204.3,1440.3,1204.5,1441,1204.8z"/>
	<path d="M1331.6,1128.4c-0.6-0.6-1.2-1.2-1.9-1.8C1330.4,1127.2,1331,1127.8,1331.6,1128.4z"/>
	<path d="M1427.4,1199c-0.7-0.3-1.3-0.6-2-0.9C1426.1,1198.4,1426.8,1198.7,1427.4,1199z"/>
	<path d="M1328.2,1125.1c-0.6-0.6-1.2-1.2-1.9-1.8C1327,1123.9,1327.6,1124.5,1328.2,1125.1z"/>
	<path d="M1436.4,1203c-0.7-0.3-1.4-0.6-2-0.8C1435.1,1202.4,1435.7,1202.7,1436.4,1203z"/>
	<path d="M1360.1,1154.4c-0.6-0.5-1.3-1.1-1.9-1.6C1358.8,1153.3,1359.5,1153.9,1360.1,1154.4z"/>
	<path d="M1363.8,1157.5c-0.6-0.5-1.3-1.1-1.9-1.6C1362.6,1156.5,1363.2,1157,1363.8,1157.5z"/>
	<path d="M1342,1138.2c-0.6-0.6-1.2-1.2-1.9-1.7C1340.7,1137.1,1341.3,1137.6,1342,1138.2z"/>
	<path d="M1349.1,1144.8c-0.6-0.6-1.2-1.1-1.9-1.7C1347.8,1143.6,1348.5,1144.2,1349.1,1144.8z"/>
	<path d="M1352.7,1148c-0.6-0.6-1.3-1.1-1.9-1.7C1351.4,1146.9,1352.1,1147.4,1352.7,1148z"/>
	<path d="M1367.6,1160.7c-0.6-0.5-1.2-1-1.9-1.5C1366.4,1159.6,1367,1160.2,1367.6,1160.7z"/>
	<path d="M1356.4,1151.2c-0.6-0.5-1.3-1.1-1.9-1.7C1355.1,1150.1,1355.7,1150.7,1356.4,1151.2z"/>
	<path d="M1418.6,1194.7c-0.6-0.3-1.3-0.7-1.9-1C1417.3,1194,1417.9,1194.3,1418.6,1194.7z"/>
	<path d="M1414.2,1192.3c-0.6-0.3-1.2-0.7-1.9-1C1412.9,1191.7,1413.6,1192,1414.2,1192.3z"/>
	<path d="M1338.5,1134.9c-0.6-0.6-1.2-1.2-1.8-1.8C1337.2,1133.8,1337.8,1134.4,1338.5,1134.9z"/>
	<path d="M1375.4,1166.8c-0.6-0.5-1.2-0.9-1.8-1.4C1374.2,1165.8,1374.8,1166.3,1375.4,1166.8z"/>
	<path d="M1423,1196.9c-0.6-0.3-1.3-0.6-1.9-1C1421.7,1196.3,1422.3,1196.6,1423,1196.9z"/>
	<path d="M1371.5,1163.7c-0.6-0.5-1.2-1-1.8-1.5C1370.3,1162.8,1370.9,1163.2,1371.5,1163.7z"/>
	<path class="st3" d="M1282.4,1202.3c5.3-1,9.3-1.9,12.8-2.7c0.7-0.2,1.4-0.4,2-0.5c1.9-0.5,3.6-0.9,5.4-0.9c4.2,0,9.1,2.2,19.1,10
		c18.4,12.6,53.9,16.7,81,15.2c21.1-1.2,34.2-6.3,38.9-15c-49.3-18.3-91-56.1-125.3-90.9c-3,1.8-6.2,4.8-9.5,8.7
		c-14.6,17.6-37.7,23-56.1,24.3c2.5,4.3,4.4,9.4,5.8,14.8C1268.9,1176.3,1280,1188.6,1282.4,1202.3z"/>
	<path class="st2" d="M1250.6,1150.4c18.5-1.3,41.6-6.8,56.1-24.3c3.3-4,6.5-6.9,9.5-8.7c34.4,34.8,76.1,72.6,125.3,90.9
		c-4.8,8.8-17.8,13.8-38.9,15c-27.1,1.5-62.7-2.6-81-15.2c-9.9-7.8-14.8-10-19.1-10c-1.8,0-3.5,0.4-5.4,0.9c-0.6,0.2-1.3,0.4-2,0.5
		c-3.4,0.8-7.5,1.7-12.8,2.7c-2.4-13.8-13.5-26-26-37c0.5,1.7,0.9,3.4,1.2,5.2c0.2,0.2,0.5,0.4,0.7,0.7c0.2,0.2,0.4,0.4,0.6,0.6
		c0.3,0.3,0.6,0.6,0.9,0.8c0.2,0.2,0.4,0.4,0.6,0.6c0.3,0.3,0.6,0.6,0.9,0.8c0.2,0.2,0.4,0.4,0.6,0.6c0.3,0.3,0.6,0.6,0.8,0.8
		c0.2,0.2,0.4,0.4,0.6,0.6c0.3,0.3,0.5,0.6,0.8,0.8c0.2,0.2,0.4,0.4,0.6,0.7c0.3,0.3,0.5,0.5,0.8,0.8c0.2,0.2,0.4,0.4,0.6,0.7
		c0.2,0.3,0.5,0.5,0.7,0.8c0.2,0.2,0.4,0.4,0.6,0.7c0.2,0.3,0.5,0.6,0.7,0.8c0.2,0.2,0.4,0.4,0.6,0.7c0.2,0.3,0.5,0.6,0.7,0.8
		c0.2,0.2,0.4,0.5,0.5,0.7c0.2,0.3,0.4,0.6,0.6,0.8c0.2,0.2,0.3,0.5,0.5,0.7c0.2,0.3,0.4,0.6,0.6,0.8c0.2,0.2,0.3,0.5,0.5,0.7
		c0.2,0.3,0.4,0.6,0.6,0.8c0.2,0.2,0.3,0.5,0.5,0.7c0.2,0.3,0.4,0.6,0.5,0.9c0.1,0.2,0.3,0.5,0.4,0.7c0.2,0.3,0.3,0.6,0.5,0.9
		c0.1,0.2,0.3,0.5,0.4,0.7c0.2,0.3,0.3,0.6,0.5,0.9c0.1,0.2,0.3,0.5,0.4,0.7c0.1,0.3,0.3,0.6,0.4,0.9c0.1,0.2,0.2,0.5,0.3,0.7
		c0.1,0.3,0.3,0.6,0.4,0.9c0.1,0.3,0.2,0.5,0.3,0.8c0.1,0.3,0.2,0.6,0.3,0.9c0.1,0.3,0.2,0.5,0.3,0.8c0.1,0.3,0.2,0.6,0.3,0.9
		c0.1,0.3,0.2,0.5,0.2,0.8c0.1,0.3,0.2,0.6,0.2,0.9c0.1,0.3,0.1,0.5,0.2,0.8c0.1,0.3,0.1,0.6,0.2,0.9c0.1,0.3,0.1,0.5,0.2,0.8
		c0,0.1,0,0.1,0,0.2c0.1,0.5,0.2,0.9,0.2,1.4c0.1,0.4,0.3,0.8,0.6,1c0.3,0.2,0.8,0.3,1.2,0.3c0,0,0,0,0,0c6-1.2,10.6-2.2,14.4-3.1
		c0.8-0.2,1.5-0.4,2.1-0.5c5.1-1.4,8.2-2.2,21.9,8.6c9.4,6.4,22.9,10.7,37.6,13.2h64.2c12.5-2.9,20.2-8.1,23.4-15.8
		c0.2-0.4,0.2-0.8,0-1.2c-0.2-0.4-0.5-0.7-0.9-0.8c-0.5-0.2-0.9-0.4-1.4-0.5c-0.6-0.2-1.2-0.4-1.8-0.7c-0.7-0.3-1.4-0.5-2.1-0.8
		c-0.8-0.3-1.7-0.7-2.5-1c-0.7-0.3-1.4-0.6-2-0.8c-0.8-0.4-1.7-0.7-2.5-1.1c-0.7-0.3-1.3-0.6-2-0.9c-0.8-0.4-1.7-0.8-2.5-1.1
		c-0.7-0.3-1.3-0.6-2-0.9c-0.8-0.4-1.6-0.8-2.5-1.2c-0.6-0.3-1.3-0.6-1.9-1c-0.8-0.4-1.6-0.8-2.5-1.3c-0.6-0.3-1.3-0.7-1.9-1
		c-0.8-0.4-1.6-0.9-2.5-1.3c-0.6-0.3-1.2-0.7-1.9-1c-0.8-0.5-1.7-0.9-2.5-1.4c-0.6-0.3-1.2-0.7-1.8-1c-0.8-0.5-1.7-1-2.5-1.5
		c-0.6-0.3-1.2-0.7-1.7-1c-0.9-0.5-1.7-1-2.5-1.6c-0.5-0.3-1.1-0.7-1.7-1c-0.9-0.6-1.8-1.1-2.7-1.7c-0.5-0.3-1-0.6-1.5-1
		c-1-0.7-2.1-1.4-3.1-2.1c-0.3-0.2-0.7-0.4-1-0.7c-1.4-0.9-2.7-1.9-4.1-2.8c-0.3-0.2-0.7-0.5-1-0.7c-1-0.7-2-1.4-3-2.1
		c-0.5-0.4-1.1-0.8-1.6-1.2c-0.8-0.6-1.6-1.2-2.4-1.8c-0.6-0.4-1.2-0.9-1.7-1.3c-0.7-0.6-1.5-1.1-2.2-1.7c-0.6-0.5-1.2-0.9-1.8-1.4
		c-0.7-0.5-1.4-1.1-2.1-1.6c-0.6-0.5-1.2-1-1.8-1.5c-0.7-0.5-1.3-1.1-2-1.6c-0.6-0.5-1.2-1-1.9-1.5c-0.6-0.5-1.3-1.1-1.9-1.6
		c-0.6-0.5-1.3-1.1-1.9-1.6c-0.6-0.5-1.2-1-1.9-1.6c-0.6-0.5-1.3-1.1-1.9-1.6c-0.6-0.5-1.2-1-1.8-1.6c-0.6-0.5-1.3-1.1-1.9-1.7
		c-0.6-0.5-1.2-1-1.8-1.6c-0.6-0.6-1.3-1.1-1.9-1.7c-0.6-0.5-1.2-1-1.7-1.6c-0.6-0.6-1.2-1.1-1.9-1.7c-0.6-0.5-1.1-1-1.7-1.6
		c-0.6-0.6-1.2-1.1-1.9-1.7c-0.6-0.5-1.1-1-1.7-1.6c-0.6-0.6-1.2-1.2-1.9-1.7c-0.5-0.5-1.1-1-1.6-1.5c-0.6-0.6-1.2-1.2-1.8-1.8
		c-0.5-0.5-1.1-1-1.6-1.5c-0.6-0.6-1.2-1.2-1.8-1.8c-0.5-0.5-1-1-1.6-1.5c-0.6-0.6-1.2-1.2-1.9-1.8c-0.5-0.5-1-1-1.5-1.5
		c-0.6-0.6-1.2-1.2-1.9-1.8c-0.5-0.5-1-1-1.4-1.4c-0.6-0.6-1.3-1.3-1.9-1.9c-0.5-0.5-0.9-0.9-1.4-1.4c-0.6-0.6-1.3-1.3-1.9-1.9
		c-0.2-0.2-0.5-0.5-0.7-0.7c-0.5-0.5-1-1-1.5-1.5c-0.5-0.5-1.2-0.6-1.8-0.3c0,0,0,0,0,0c-3.7,2-7.4,5.2-11.4,10
		c-14.3,17.3-37.5,22.3-55.6,23.4C1249.4,1148.5,1250,1149.4,1250.6,1150.4z"/>
	<path class="st1" d="M1136.2,1035.9c13-0.6,25.9-3,38.4-7.3c46.2-15.7,76.8-53.7,82-101.6c6.1-56.2-38.2-127.7-76.4-177.7
		c-21.4-28-43.3-52.6-59.6-69.9c-5.4,13.2-13.5,22.2-25.4,28.1C1104,767.9,1123.7,931.3,1136.2,1035.9z"/>
	<path class="st2" d="M1120.7,679.4c16.3,17.3,38.2,41.9,59.6,69.9c38.2,50.1,82.5,121.6,76.4,177.7c-5.2,47.9-35.8,85.9-82,101.6
		c-12.5,4.3-25.4,6.7-38.4,7.3c0.1,1,0.2,1.9,0.3,2.8c0.8,0,1.7-0.1,2.5-0.1c12.5-0.8,24.8-3.2,36.5-7.1c22.6-7.7,42.2-21,56.8-38.7
		c15.2-18.3,24.6-40.9,27.2-65.4c2.7-25.3-4.2-55.6-20.5-90.1c-13-27.5-32-57.7-56.5-89.8c-21.9-28.7-44.3-53.8-60.7-71.2
		C1121.5,677.3,1121.1,678.4,1120.7,679.4z"/>
	<path class="st1" d="M721.7,1068.2C721.7,1068.2,721.7,1068.2,721.7,1068.2c-0.3-0.8,0.2-1.7,1-1.9c38.9-12.4,82-16.8,126.3-15.9
		c53.8-23.8,101.5-50.2,127.2-65.1c-16.9-39.6-31.1-80.9-42.4-117.7c-16.1-52.4-28.3-102.5-36.5-141.9c-8.7,0.8-17.7,1.7-27.1,2.8
		c-0.1,0-0.1,0-0.2,0c-0.1,0-0.2,0-0.3,0c-2.9-0.7-5.8-1.6-8.7-2.9c-21.1,20.6-89.8,88.3-157.7,163.5
		c-106.8,118.3-163.4,201.5-163.9,240.7L721.7,1068.2z"/>
	<path class="st2" d="M855.9,1050.6c51.3-23,96.5-48.1,121.4-62.5c-0.4-0.9-0.8-1.9-1.2-2.8c-25.7,14.9-73.5,41.3-127.2,65.1
		C851.2,1050.5,853.5,1050.5,855.9,1050.6z"/>
	<path class="st2" d="M575,1043c-25.7,38.7-38.7,67.9-38.7,87.4c0-0.8,0.7-1.5,1.5-1.5c0.7,0,1.2,0.4,1.4,1l0.1,0
		c0.5-39.2,57.1-122.4,163.9-240.7c67.9-75.2,136.6-143,157.7-163.5c-1-0.4-1.9-0.9-2.9-1.4c-22,21.5-89.9,88.5-157.1,162.9
		c-31.1,34.5-57.9,65.7-80.2,93.8c-15.9,20-29.6,38.3-41,55C578.2,1038.3,576.6,1040.7,575,1043z"/>
	<path class="st1" d="M1233,1139.7c-12.8-3.1-31.9-9.2-56-17c-9.8-3.1-20.4-6.5-31.6-10.1c1.1,9.6,1.8,15.4,1.9,16
		c0.1,0.5,0.3,2.9-2,5.3l3.7,15.2l14.7,61.4l3.2,13.2l90.6,0C1258.1,1213.2,1261.6,1145.3,1233,1139.7z"/>
	<path class="st1" d="M539.3,1130.4c0,17.2,6.5,32.4,19.4,45.1c49,48.6,175,48.2,176.3,48.3l202.1,0c0.1-2.2,0.4-7.1,2-13.2
		c4.1-15.6,17.5-42.9,62-51c50.8-9.3,69.5-9.4,75.3-9l-2.2-9.9l-1.7-7.4c-0.2,0-0.4-0.1-0.6-0.1c-0.2-0.1-0.5-0.2-0.6-0.3
		c-16.6-13.7-32.1-32.4-46.5-54.1c-98.3-23.5-211.1-38.3-301.3-9.5c-0.8,0.3-1.6-0.2-1.9-0.9l-182.3,61.6l-0.1,0
		C539.3,1130,539.3,1130.2,539.3,1130.4z"/>
	<path class="st2" d="M734.7,1226.8h-0.2C734.6,1226.8,734.7,1226.8,734.7,1226.8z"/>
	<path class="st2" d="M1022.5,1075c-53.3-12.6-110.8-22.6-166.6-24.4c-2.3-0.1-4.6-0.1-7-0.2c-44.3-0.9-87.3,3.5-126.3,15.9
		c-0.8,0.3-1.2,1.1-1,1.9c0,0,0,0,0,0c0.3,0.8,1.1,1.2,1.9,0.9c90.2-28.8,203-14.1,301.3,9.5
		C1024.1,1077.4,1023.3,1076.2,1022.5,1075z"/>
	<path class="st2" d="M1166,1116.1c-6.7-2.2-13.7-4.4-21-6.7c0.1,1.1,0.3,2.2,0.4,3.3c11.2,3.5,21.8,6.9,31.6,10.1
		c24.1,7.7,43.2,13.9,56,17c28.7,5.6,25.1,73.5,24.4,84.1h3c0.2-2.5,0.5-7.7,0.6-14.3c0-1,0-2,0-3.1c0-10.5-0.7-23.8-3.3-36
		c-0.4-1.7-0.8-3.5-1.2-5.2c-1.5-5.4-3.4-10.5-5.8-14.8c-0.6-1-1.2-2-1.8-2.9c-3.8-5.6-8.8-9.5-15.2-10.8
		c-12.7-3-31.7-9.2-55.7-16.9c-2.8-0.9-5.6-1.8-8.5-2.7C1168.2,1116.8,1167.1,1116.4,1166,1116.1z"/>
	<path class="st2" d="M735,1223.8c-1.3,0-127.3,0.4-176.3-48.3c-12.9-12.8-19.4-28-19.4-45.1c0-0.2,0-0.3-0.1-0.5
		c-0.2-0.6-0.8-1-1.4-1c-0.8,0-1.5,0.7-1.5,1.5c0,18,6.8,33.9,20.3,47.3c26.1,25.9,73.3,37.9,108.3,43.4c2.4,0.4,4.8,0.7,7.1,1.1
		c4.6,0.6,9.1,1.2,13.5,1.7h251.7c0,0,0,0,0,0L735,1223.8z"/>
	<polygon class="st2" points="1166.8,1223.8 1166.8,1223.8 1257.3,1223.8 	"/>
	<rect x="956.8" y="1246.2" class="st3" width="272.6" height="16.2"/>
	<rect x="797.4" y="1250.4" class="st3" width="108.6" height="16.2"/>
	<path class="st3" d="M345.5,520.3l47.8,47.8l6.4-6.4L342.2,504c0.1,0.3,0.2,0.7,0.4,1C345,511.4,346,516.3,345.5,520.3z"/>
	<rect x="471.7" y="1263.1" class="st3" width="112.2" height="9.1"/>
	<rect x="671.6" y="1239.5" class="st3" width="112.2" height="9.1"/>
	<rect x="1528.1" y="1169.9" class="st3" width="112.2" height="9.1"/>
	<rect x="1497.3" y="1141.6" class="st3" width="112.2" height="9.1"/>
	
		<rect x="373" y="602.8" transform="matrix(0.7071 -0.7071 0.7071 0.7071 -355.2996 459.9556)" class="st3" width="9.1" height="112.2"/>
	
		<rect x="272.4" y="706.8" transform="matrix(0.7071 -0.7071 0.7071 0.7071 -458.3424 419.2968)" class="st3" width="9.1" height="112.2"/>
	<polygon class="st3" points="1215.4,328.9 1188.5,328.9 1188.5,302 1161.6,302 1161.6,275.1 1134.7,275.1 1126.8,284.3 
		1153.7,284.3 1153.7,311.2 1180.6,311.2 1180.6,338.1 1207.6,338.1 1207.6,365 1234.5,365 1234.5,391.9 1242.3,382.8 1242.3,355.8 
		1215.4,355.8 	"/>
	<path class="st3" d="M1489.6,893.3c-0.3,0.4-0.8,0.7-1.3,0.7h-77.4l-8.7,17h117.1l-58.5-114.3l-9.9,19.3l38.8,75.8
		C1489.9,892.3,1489.8,892.9,1489.6,893.3z"/>
	<polygon class="st3" points="1485.8,891 1449.1,819.3 1412.4,891 	"/>
	<path class="st3" d="M93.3,960.5h62.8v-18.5H68.7v87.4h23.1V962C91.8,961.2,92.5,960.5,93.3,960.5z"/>
	<rect x="94.8" y="963.5" class="st3" width="61.3" height="65.9"/>
	<path d="M1123.2,230.7h25.4v25.4c0,0.8,0.7,1.5,1.5,1.5h25.4V283c0,0.8,0.7,1.5,1.5,1.5l25.4,0V310c0,0.8,0.7,1.5,1.5,1.5h25.4
		v25.4c0,0.8,0.7,1.5,1.5,1.5s1.5-0.7,1.5-1.5V310c0-0.8-0.7-1.5-1.5-1.5h-25.4V283c0-0.8-0.7-1.5-1.5-1.5l-25.4,0v-25.4
		c0-0.8-0.7-1.5-1.5-1.5h-25.4v-25.4c0-0.8-0.7-1.5-1.5-1.5h-26.9c-0.8,0-1.5,0.7-1.5,1.5S1122.4,230.7,1123.2,230.7z"/>
	<path d="M175.9,1043v-81c0-0.8-0.7-1.5-1.5-1.5h-18.2H93.3c-0.8,0-1.5,0.7-1.5,1.5v67.4v13.7c0,0.8,0.7,1.5,1.5,1.5h81
		C175.2,1044.5,175.9,1043.9,175.9,1043z M172.9,1041.5h-78v-12.2v-65.9h61.3h16.7V1041.5z"/>
	<path d="M1371.2,894h39.6h77.4c0.5,0,1-0.3,1.3-0.7c0.3-0.4,0.3-1,0.1-1.5l-38.8-75.8l-19.7-38.5c-0.3-0.5-0.8-0.8-1.3-0.8
		s-1.1,0.3-1.3,0.8l-58.5,114.3c-0.2,0.5-0.2,1,0.1,1.5C1370.2,893.8,1370.7,894,1371.2,894z M1429.7,781.5l19.4,37.8l36.7,71.7
		h-73.4h-38.7L1429.7,781.5z"/>
	<path d="M316.5,781.5c0.3,0.3,0.7,0.4,1.1,0.4s0.8-0.1,1.1-0.4c0.6-0.6,0.6-1.5,0-2.1l-67.3-67.3c-0.6-0.6-1.5-0.6-2.1,0
		s-0.6,1.5,0,2.1L316.5,781.5z"/>
	<path d="M395.8,543.3c0.3,0.3,0.7,0.4,1.1,0.4s0.8-0.1,1.1-0.4c0.6-0.6,0.6-1.5,0-2.1l-49.8-49.8c-0.9,0.4-1.9,0.9-2.7,1.5
		L395.8,543.3z"/>
	<path d="M350.1,608.3c-0.6-0.6-1.5-0.6-2.1,0c-0.6,0.6-0.6,1.5,0,2.1l67.3,67.3c0.3,0.3,0.7,0.4,1.1,0.4s0.8-0.1,1.1-0.4
		c0.6-0.6,0.6-1.5,0-2.1L350.1,608.3z"/>
	<path class="st3" d="M513.8,759.5c0,18.2,11.9,33.6,28.3,38.8c18.8-2.9,33.2-19.2,33.2-38.8c0-19.6-14.4-35.9-33.2-38.8
		C525.6,725.9,513.8,741.3,513.8,759.5z"/>
	<path class="st3" d="M578.3,759.5c0,18.9-12.5,35-29.7,40.4c1.9,0.3,3.9,0.4,6,0.4c22.5,0,40.8-18.3,40.8-40.8
		c0-22.5-18.3-40.8-40.8-40.8c-2,0-4,0.2-6,0.4C565.8,724.5,578.3,740.5,578.3,759.5z"/>
	<path d="M548.6,799.8c17.2-5.4,29.7-21.5,29.7-40.4c0-18.9-12.5-35-29.7-40.4c-4-1.3-8.3-1.9-12.7-1.9c-23.3,0-42.3,19-42.3,42.3
		s19,42.3,42.3,42.3C540.4,801.8,544.6,801.1,548.6,799.8z M496.6,759.5c0-21.7,17.6-39.3,39.3-39.3c2.1,0,4.1,0.2,6.1,0.5
		c18.8,2.9,33.2,19.2,33.2,38.8c0,19.6-14.4,35.9-33.2,38.8c-2,0.3-4,0.5-6.1,0.5C514.3,798.8,496.6,781.1,496.6,759.5z"/>
	<path d="M1092,687.2c0.7,3.3,1.6,9.2,2.8,17.1c12.7-6.6,20.9-17.1,25.9-34.2c2.1-7.3,0.8-16.2-3.1-26.3
		c-13.8-3.6-28.5-8.2-44.1-13.8C1080.4,644.4,1087.2,663.1,1092,687.2z"/>
	<path d="M884.4,646.7c0-4.3,0.5-8.9,1.5-13.7c-1.6-0.7-3.2-1.7-4.5-2.9c-7.4-6.6-7.8-19.7-1.5-38.9c10.2-30.6,31.3-45.1,48.9-52
		c-18.2-47.2-52.3-100-64.9-118.7c-1.2,0-2.5,0.1-3.8,0.2c4.1,9.9,7.5,15.4,7.6,15.5c0.4,0.7,0.3,1.6-0.4,2
		c-1.1,0.8-19.8,13.7-37.5,13.7c-6.9,0-13.6-1.9-19.1-7.3c-0.2-0.2-0.4-0.5-0.4-0.8l-3.8-17.2c-0.6,0.1-1.3,0.3-1.9,0.4
		c-0.2,18.4,1.9,108.6,54.7,204.7c5.8,9.1,1.2,25.6-12,41.9c-5,6.2-11,12.1-17.6,17c11.9,19.6,25.4,31.4,40.3,34.9
		c9.1-1.1,18-2,26.5-2.7C888.5,683.7,884.4,655.5,884.4,646.7z"/>
	<path d="M861,725.6c2.8,1.3,5.7,2.2,8.7,2.9c0.1,0,0.2,0,0.3,0c0.1,0,0.1,0,0.2,0c9.3-1.1,18.3-2,27.1-2.8c-0.2-1-0.4-2-0.6-3
		c-8.5,0.8-17.4,1.7-26.5,2.7c-14.8-3.5-28.3-15.3-40.3-34.9c-0.8,0.6-1.7,1.2-2.5,1.8c9.3,15.3,19.6,25.9,30.8,31.7
		C859.1,724.7,860,725.2,861,725.6z"/>
	<path d="M1117.6,643.9c4,10.1,5.3,19,3.1,26.3c-5,17.1-13.3,27.6-25.9,34.2c0.1,1,0.3,2.1,0.5,3.1c12-6,20-14.9,25.4-28.1
		c0.4-1,0.8-2,1.2-3.1c0.6-1.7,1.2-3.4,1.7-5.3c2.1-7.2,1.3-15.9-2.5-26.2C1119.9,644.5,1118.8,644.2,1117.6,643.9z"/>
	<path d="M860.2,420.6c1.3-0.1,2.5-0.1,3.8-0.2c-0.7-1.1-1.4-2-1.9-2.9c-1,0-2,0.1-3,0.1C859.4,418.7,859.8,419.7,860.2,420.6z"/>
	<path d="M804.7,427.1c0.6-0.1,1.3-0.3,1.9-0.4l-0.7-3c-0.4,0.1-0.8,0.2-1.2,0.3C804.7,424.4,804.7,425.5,804.7,427.1z"/>
	<path class="st1" d="M805.8,329.8c0.3-3.8,0.6-7.3,0.3-9.1c-27.4-2.3-42.6-12.7-50.6-21.1c-1.3-1.4-2.5-2.8-3.5-4.2
		c-5.7,26-0.4,58.9,5.3,76.4c1.9,5.8,5.2,9.6,9.8,11.2c12,4.3,29.3-6.6,29.5-6.8c0.4-0.3,0.9-0.3,1.4-0.1c0.5,0.2,0.8,0.6,0.9,1.1
		l14.4,65.5c16.2,15,45.2-2.3,51.3-6.3c-2.4-4.2-10-18.5-15.5-40.4C800.9,385.6,804.2,348,805.8,329.8z"/>
	<path class="st2" d="M806.6,426.7l3.8,17.2c0.1,0.3,0.2,0.6,0.4,0.8c5.5,5.3,12.2,7.3,19.1,7.3c17.7,0,36.4-12.9,37.5-13.7
		c0.7-0.5,0.8-1.4,0.4-2c-0.1-0.1-3.5-5.6-7.6-15.5c-0.4-0.9-0.8-1.9-1.2-2.9c-2.3-5.9-4.8-13.1-6.9-21.5c-0.6,0-1.2,0.1-1.8,0.1
		c0,0,0,0-0.1,0c-0.1,0-0.2,0-0.3,0c-0.3-0.1-0.6-0.1-0.9-0.2c5.5,21.9,13.1,36.2,15.5,40.4c-6.1,4-35.1,21.3-51.3,6.3l-14.4-65.5
		c-0.1-0.5-0.4-0.9-0.9-1.1c-0.5-0.2-1-0.1-1.4,0.1c-0.2,0.1-17.5,11-29.5,6.8c-4.6-1.6-7.9-5.4-9.8-11.2
		c-5.7-17.6-11-50.4-5.3-76.4c-0.9-1.1-1.7-2.2-2.3-3.3c-1.5,6.1-2.5,12.9-2.9,20.3c-1.2,21.8,3,46,7.7,60.3
		c2.2,6.7,6.1,11.1,11.6,13.1c11.1,4,25.3-3.1,30.3-6l9.6,43.7L806.6,426.7z"/>
	<path d="M1611.8,1223.8h-190.2h-64.2h-97.1h-3h-90.6l0.2,1c0.1,0.4,0,0.9-0.3,1.3c-0.3,0.4-0.7,0.6-1.2,0.6H938.7
		c-0.8,0-1.5-0.6-1.5-1.4c0-0.1,0-0.5,0-1.4H685.5H465.1H164.7h-7.9c-0.8,0-1.5,0.7-1.5,1.5s0.7,1.5,1.5,1.5h7.7h538.7h31.4h0.2
		h877.1c0.8,0,1.5-0.7,1.5-1.5S1612.7,1223.8,1611.8,1223.8z"/>
	<path class="st3" d="M759.9,525c0.6,0.1,1.1,0.5,1.2,1.1c0.2,0.8-0.3,1.6-1.1,1.8c-0.1,0-2.4,0.6-6.6,1.5
		c-0.1,4.1-0.3,8.2-0.3,12.3c-1,52.5,3,122.3,28.1,157.4c22.5,8,48.3-8,64-27.5c12.1-15.1,16.8-30.5,11.7-38.4c0,0,0-0.1-0.1-0.1
		c-31-56.4-44.3-110.4-50-145.8c-5.4-33.3-5.2-56.8-5.1-62.6c-5.8-0.7-16.1-1.5-24.5-0.7L759.9,525z"/>
	<path class="st2" d="M829.8,690.7c6.6-4.9,12.6-10.8,17.6-17c13.1-16.3,17.8-32.8,12-41.9c-52.8-96-54.9-186.3-54.7-204.7
		c0-1.6,0-2.7,0.1-3.1c0-0.2,0-0.3,0-0.3c0-0.8-0.5-1.5-1.3-1.6c-2.1-0.3-14.4-1.9-25.2-1c0.4,0.2,0.7,0.7,0.8,1.2
		c0,0.8-0.6,1.5-1.4,1.6c-0.1,0-0.2,0-0.3,0l-0.1,0.3c8.3-0.8,18.7,0,24.5,0.7c-0.1,5.8-0.3,29.3,5.1,62.6
		c5.7,35.4,19,89.4,50,145.8c0,0,0,0.1,0.1,0.1c5.1,7.9,0.4,23.3-11.7,38.4c-15.7,19.5-41.5,35.5-64,27.5
		C756,664.1,752,594.3,753,541.8c0.1-4.1,0.2-8.3,0.3-12.3c-0.9,0.2-1.9,0.4-3,0.7c-0.1,3.8-0.2,7.7-0.3,11.6
		c-1,53.1,3.1,123.9,29,159.6c0.2,0.2,0.4,0.4,0.7,0.5c4.5,1.7,9.2,2.4,13.9,2.4c11.6,0,23.3-4.7,33.8-11.9
		C828.1,691.9,829,691.3,829.8,690.7z"/>
	<path class="st3" d="M961.4,532.3c2.2-2.6,4.8-4.5,7.8-5.4c7.7-2.1,45.1,3.3,83.3,9.9c-30.8-19.4-53-37.8-65.9-48.5
		c-0.6-0.5-0.7-1.4-0.2-2.1l-98.5-76.2c-9.8-0.6-20.8,2.2-25.1,3.4c7.4,10.8,48.1,71.2,68.8,124.8c0.7-0.3,1.5-0.5,2.2-0.8
		C944.6,533.9,954.5,532.6,961.4,532.3z"/>
	<path class="st2" d="M863.9,420.4c12.5,18.7,46.6,71.5,64.9,118.7c0.9-0.4,1.9-0.7,2.8-1c-20.7-53.5-61.4-113.9-68.8-124.8
		c4.4-1.2,15.3-4,25.1-3.4l-0.2-0.2c-1,0.1-1.6,0.1-1.7,0.1c-0.8,0-1.5-0.6-1.6-1.4c-0.1-0.8,0.6-1.5,1.4-1.6c0,0,0,0,0,0
		c-12.4-0.2-25.2,4-25.9,4.3c-0.4,0.1-0.8,0.5-1,1c-0.1,0.5-0.1,0.9,0.2,1.3c0.1,0.1,1.1,1.6,2.8,4.2
		C862.6,418.4,863.2,419.4,863.9,420.4z"/>
	<path class="st3" d="M986.4,486.1c0.5-0.6,1.5-0.7,2.1-0.2c13.7,11.4,37.9,31.5,71.8,52.2c40.6,7.1,79.8,14.8,83,15.4
		c0.6,0.1,1.1,0.6,1.2,1.2l94.4-16.4c0,0,0,0,0,0c-45-76.2-138-107.1-208.3-119.6c-70.1-12.5-132.2-9.6-143-9l0.2,0.2L986.4,486.1
		C986.4,486.2,986.4,486.1,986.4,486.1z"/>
	<path class="st2" d="M884.4,408.5c0.1,0.8,0.8,1.4,1.6,1.4c0.1,0,0.6,0,1.7-0.1c10.9-0.6,72.9-3.5,143,9
		c70.3,12.5,163.3,43.4,208.3,119.6c-0.1-0.6,0.1-1.1,0.6-1.5c0.7-0.5,1.6-0.3,2.1,0.4c0.5,0.7,0.9,1.4,1.3,2.2
		c-0.2-0.4-0.4-0.7-0.6-1.1c-20-34.6-51.2-63.1-92.8-84.6c-33.2-17.2-73.1-30-118.5-38c-76.8-13.6-143.9-9-145.4-8.9c0,0,0,0,0,0
		C884.9,406.9,884.3,407.6,884.4,408.5z"/>
	<path class="st2" d="M1060.4,538.1c-33.9-20.7-58.1-40.8-71.8-52.2c-0.6-0.5-1.6-0.4-2.1,0.2c0,0,0,0,0,0c-0.5,0.6-0.4,1.6,0.2,2.1
		c12.9,10.7,35,29.1,65.9,48.5C1055.1,537.2,1057.8,537.7,1060.4,538.1z"/>
	<path class="st3" d="M1144.6,555.3c-0.2,0.8-1,1.3-1.8,1.2c-54.2-10.7-160.2-30.2-172.8-26.7c-1.6,0.4-3,1.2-4.3,2.3
		c3.4,0,5.5,0.1,5.7,0.2c0.4,0,0.8,0.2,1,0.6c0.2,0.2,15.7,20.1,3.9,35.9c15.9,0.8,34.7,4.8,56.8,13.7c0.5,0.2,10.7,4.9,23.2,20.2
		c4.6,5.7,9.9,13.4,15.2,23.5c71.9,26.1,124.6,31.2,152.8,14.7c16.9-9.9,25.5-27.8,25.5-53.2c0-10.7-2.6-36.7-10.6-48.6
		c-0.1-0.2-0.2-0.4-0.2-0.6l-94.4,16.4C1144.6,555,1144.6,555.2,1144.6,555.3z"/>
	<path class="st2" d="M1239.6,536.9c-0.5,0.3-0.7,0.9-0.6,1.5c0,0,0,0,0,0c0,0.2,0.1,0.4,0.2,0.6c8.1,12,10.7,38,10.6,48.6
		c0,25.4-8.6,43.3-25.5,53.2c-28.2,16.5-80.9,11.4-152.8-14.7c0.7,1.3,1.3,2.6,2,3.9c15.6,5.6,30.3,10.2,44.1,13.8
		c1.2,0.3,2.3,0.6,3.5,0.9c10.6,2.7,20.6,4.7,29.9,6.2c10.9,1.7,20.9,2.5,30.1,2.5c18.4,0,33.4-3.3,44.7-10
		c17.9-10.5,27-29.3,27-55.8c0-8.3-1.8-33.9-9.8-48.1c-0.4-0.8-0.9-1.5-1.3-2.2C1241.2,536.6,1240.3,536.4,1239.6,536.9z"/>
	<path class="st2" d="M1142.8,556.5c0.8,0.2,1.6-0.4,1.8-1.2c0-0.2,0-0.4,0-0.5c-0.1-0.6-0.6-1.1-1.2-1.2c-3.2-0.6-42.5-8.4-83-15.4
		c-2.6-0.5-5.2-0.9-7.9-1.4c-38.2-6.5-75.5-12-83.3-9.9c-3,0.8-5.6,2.8-7.8,5.4c1.6-0.1,3-0.1,4.3-0.1c1.3-1.1,2.8-1.9,4.3-2.3
		C982.7,526.4,1088.6,545.8,1142.8,556.5z"/>
	<path class="st3" d="M612.8,279.9c2.2-10.4,4.2-19.3,5.7-25.9c1-4.7,1.8-8.3,2.2-10.2c-14.6-11.1-28.5-15.4-41.4-12.8
		c-17.7,3.5-27.6,19.2-28.6,20.8c-0.5,1.5-3.7,11.8-8.2,27.8C550.8,274.8,579.9,260.7,612.8,279.9z"/>
	<path class="st3" d="M734.2,429.5c-44.5,6.8-105.5,16.2-126.6,6.8c-11.9-5.3-14.5-31.8-8.1-81.2c3.3-24.9,8.3-51.2,12.7-72.1
		c-37.5-22.5-69.8,0.2-70.2,0.5c-0.2,0.1-0.4,0.2-0.6,0.3c-18.2,66.3-52.7,214.3-5.8,243.3c61,37.8,222-1.6,223.6-2
		c0.2-0.1,0.4-0.1,0.6,0l17.4-100.9l0.1-0.3C768.7,424.2,752.7,426.7,734.2,429.5z"/>
	<path class="st2" d="M753.4,529.5c4.2-0.9,6.5-1.5,6.6-1.5c0.8-0.2,1.3-1,1.1-1.8c-0.1-0.6-0.6-1-1.2-1.1c-0.2,0-0.4,0-0.6,0
		c-1.6,0.4-162.6,39.8-223.6,2c-46.9-29.1-12.5-177.1,5.8-243.3c-0.6,0.1-1.1-0.1-1.5-0.6c-0.5-0.7-0.3-1.6,0.3-2.1
		c0.1,0,0.9-0.6,2.3-1.4c4.5-16,7.7-26.4,8.2-27.8c1-1.6,10.9-17.3,28.6-20.8c12.8-2.5,26.7,1.8,41.4,12.8
		c-0.4,1.9-1.2,5.5-2.2,10.2c-1.5,6.6-3.5,15.5-5.7,25.9c0.6,0.4,1.2,0.7,1.8,1.1c0.7,0.4,0.9,1.4,0.5,2.1c-0.3,0.5-0.8,0.7-1.3,0.7
		c-0.3,0-0.5-0.1-0.8-0.2c-0.3-0.2-0.6-0.4-0.9-0.5c-4.4,21-9.4,47.2-12.7,72.1c-6.5,49.3-3.8,75.9,8.1,81.2
		c21.2,9.4,82.1,0,126.6-6.8c18.5-2.8,34.5-5.3,43.1-5.7c0.1,0,0.2,0,0.3,0c0.8,0,1.5-0.7,1.4-1.6c0-0.5-0.3-1-0.8-1.2
		c-0.2-0.1-0.5-0.2-0.8-0.2c-8.6,0.3-24.9,2.8-43.7,5.7c-44.1,6.8-104.6,16.1-124.9,7c-7.1-3.2-14-19.3-6.3-78
		c5.1-38.6,14.4-80.7,18.9-100.9c1.3-5.8,2.2-9.7,2.4-11.2c0.1-0.5-0.1-1.1-0.6-1.4c-5.4-4.2-10.7-7.4-15.9-9.8
		c-1-0.4-1.9-0.9-2.9-1.2c-5.5-2.2-10.8-3.4-16.1-3.6c-3.3-0.1-6.5,0.1-9.7,0.7c-5.2,1-9.7,3-13.5,5.3c-0.9,0.6-1.8,1.1-2.6,1.7
		c-9.3,6.5-14.2,14.8-14.4,15.3c-0.1,0.1-0.1,0.2-0.1,0.3c-0.2,0.6-19.4,60.5-30.7,124.3c-15.3,86.2-9.6,138.3,16.8,154.6
		c18.2,11.3,46.1,16.9,83.2,16.9c16.1,0,33.9-1.1,53.4-3.2c34.1-3.7,64.7-9.9,79.6-13.2C751.4,530,752.4,529.7,753.4,529.5z"/>
	<path d="M807.4,317.8c0.5,0,1,0.4,1.2,0.8c1,2.1,0.7,5.8,0.2,11.5c-1.6,18.7-4.7,53.4,41.6,63.2c36.8-1.8,63-26.4,78.4-46.8
		c14.1-18.6,22.1-37.1,24.4-42.7c-10.8-1.5-63.8-11.3-112-63c-15.6-16.7-39.6-14.8-56.9-7.5c-19,8.1-37.8,25.8-36.8,47.3
		C748,282.7,757.4,314.1,807.4,317.8z"/>
	<path d="M752,295.4c1,1.4,2.2,2.7,3.5,4.2c8,8.4,23.2,18.9,50.6,21.1c0.3,1.8,0,5.4-0.3,9.1c-1.6,18.1-4.9,55.7,43.2,66.2
		c0.3,0.1,0.6,0.1,0.9,0.2c0.1,0,0.2,0,0.3,0c0,0,0,0,0.1,0c0.6,0,1.2-0.1,1.8-0.1c29.5-2,56.7-18.5,79-47.9
		c17.1-22.6,25.4-45.1,25.5-45.3c0.2-0.4,0.1-0.9-0.1-1.3c-0.3-0.4-0.7-0.6-1.1-0.7c-0.6,0-59.1-5.6-112-62.3
		c-16.6-17.8-42.1-15.9-60.3-8.2c-20.1,8.5-39.8,27.4-38.6,50.4c0,0.1,0,0.2,0,0.3c0.1,0.3,1.2,4.9,5.1,11
		C750.3,293.2,751.1,294.3,752,295.4z M784.2,233.3c17.3-7.3,41.3-9.2,56.9,7.5c48.2,51.7,101.2,61.5,112,63
		c-2.3,5.7-10.3,24.2-24.4,42.7c-15.4,20.4-41.6,45-78.4,46.8c-46.3-9.8-43.2-44.5-41.6-63.2c0.5-5.7,0.8-9.4-0.2-11.5
		c-0.2-0.5-0.7-0.8-1.2-0.8c-50-3.7-59.3-35.1-59.9-37.2C746.4,259.1,765.1,241.3,784.2,233.3z"/>
	<path d="M1078.9,1140c0.6,0.2,1.1,0.5,1.7,0.7c0.8,0.3,1.6,0.6,2.3,0.9c0.6,0.2,1.1,0.4,1.7,0.6c0.8,0.3,1.6,0.6,2.4,0.8
		c0.6,0.2,1.1,0.4,1.7,0.6c0.8,0.3,1.7,0.5,2.6,0.8c0.5,0.2,1.1,0.3,1.6,0.5c1,0.3,2,0.5,3,0.8c0.4,0.1,0.9,0.2,1.3,0.3
		c1.4,0.3,2.8,0.7,4.3,1c0.7,0.1,1.3,0.2,2,0.4c0.8,0.1,1.6,0.3,2.3,0.4c0.7,0.1,1.5,0.2,2.2,0.3c0.7,0.1,1.4,0.2,2.2,0.3
		c0.8,0.1,1.5,0.2,2.3,0.3c0.7,0.1,1.4,0.2,2.1,0.2c0.8,0.1,1.6,0.1,2.4,0.2c0.7,0.1,1.4,0.1,2.1,0.2c0.8,0,1.6,0.1,2.4,0.1
		c0.7,0,1.4,0.1,2.1,0.1c0.8,0,1.6,0,2.4,0c0.7,0,1.4,0,2.2,0c0.8,0,1.6,0,2.3-0.1c0.7,0,1.5,0,2.2-0.1c0.8,0,1.5-0.1,2.3-0.1
		c0.8,0,1.5-0.1,2.3-0.1c0.7-0.1,1.5-0.1,2.2-0.2c0.8-0.1,1.6-0.1,2.3-0.2c0.7-0.1,1.5-0.2,2.2-0.3c0.5-0.1,1.1-0.1,1.6-0.2l-3-12.3
		c-3.6,2.1-9.9,3.7-20.5,3.7c-10.6,0-25.4-1.6-46.3-5.8l1.2,5.3C1077.6,1139.5,1078.2,1139.8,1078.9,1140z"/>
	<path d="M1142.6,1136l3,12.3c0.5-0.1,1.1-0.1,1.6-0.2c0.8-0.1,1.5,0.4,1.7,1.1l-3.7-15.2c-0.1,0.1-0.1,0.2-0.2,0.2
		C1144.3,1134.8,1143.6,1135.4,1142.6,1136z"/>
	<path d="M1074.7,1139.1c0.4-0.4,1.1-0.4,1.6-0.2c0.2,0.1,0.4,0.2,0.7,0.3l-1.2-5.3c-1.1-0.2-2.1-0.4-3.2-0.7l1.7,7.4
		C1074.1,1140,1074.3,1139.4,1074.7,1139.1z"/>
	<path d="M1116.9,1149.2c-0.8-0.1-1.6-0.1-2.4-0.2C1115.3,1149.1,1116.1,1149.2,1116.9,1149.2z"/>
	<path d="M1097.1,1146.1c-0.4-0.1-0.9-0.2-1.3-0.3C1096.2,1145.9,1096.7,1146,1097.1,1146.1z"/>
	<path d="M1092.8,1145c-0.5-0.2-1.1-0.3-1.6-0.5C1091.8,1144.7,1092.3,1144.8,1092.8,1145z"/>
	<path d="M1144,1148.5c-0.7,0.1-1.4,0.2-2.2,0.3C1142.5,1148.7,1143.2,1148.6,1144,1148.5z"/>
	<path d="M1103.4,1147.4c-0.7-0.1-1.3-0.2-2-0.4C1102,1147.2,1102.7,1147.3,1103.4,1147.4z"/>
	<path d="M1080.6,1140.7c-0.6-0.2-1.1-0.5-1.7-0.7C1079.4,1140.3,1080,1140.5,1080.6,1140.7z"/>
	<path d="M1084.6,1142.3c-0.6-0.2-1.1-0.4-1.7-0.6C1083.5,1141.9,1084,1142.1,1084.6,1142.3z"/>
	<path d="M1088.7,1143.7c-0.6-0.2-1.1-0.4-1.7-0.6C1087.6,1143.4,1088.1,1143.6,1088.7,1143.7z"/>
	<path d="M1107.9,1148.2c-0.7-0.1-1.5-0.2-2.2-0.3C1106.4,1148,1107.2,1148.1,1107.9,1148.2z"/>
	<path d="M1130.4,1149.6c-0.8,0-1.6,0-2.3,0.1C1128.8,1149.6,1129.6,1149.6,1130.4,1149.6z"/>
	<path d="M1134.9,1149.4c-0.8,0-1.5,0.1-2.3,0.1C1133.4,1149.5,1134.2,1149.4,1134.9,1149.4z"/>
	<path d="M1139.4,1149c-0.7,0.1-1.5,0.1-2.2,0.2C1138,1149.2,1138.7,1149.1,1139.4,1149z"/>
	<path d="M1121.4,1149.5c-0.8,0-1.6-0.1-2.4-0.1C1119.8,1149.4,1120.6,1149.5,1121.4,1149.5z"/>
	<path d="M1112.4,1148.8c-0.8-0.1-1.5-0.2-2.3-0.3C1110.9,1148.6,1111.6,1148.7,1112.4,1148.8z"/>
	<path d="M1125.9,1149.6c-0.8,0-1.6,0-2.4,0C1124.3,1149.6,1125.1,1149.6,1125.9,1149.6z"/>
	<path class="st3" d="M1077.8,1142.8l2,9.1c0.1,0.5,0,1-0.4,1.4s-0.9,0.5-1.4,0.4c-0.5-0.1-13.2-2.8-76.3,8.8
		c-41.1,7.5-54.7,31.9-59.1,46.9h217.7l-14-58.2C1122.5,1154.7,1098.3,1151.7,1077.8,1142.8z"/>
	<path class="st2" d="M1147.2,1148.1c-0.5,0.1-1.1,0.1-1.6,0.2c-0.5,0.1-1.1,0.1-1.6,0.2c-0.7,0.1-1.4,0.2-2.2,0.3
		c-0.8,0.1-1.6,0.2-2.3,0.2c-0.7,0.1-1.5,0.1-2.2,0.2c-0.8,0.1-1.5,0.1-2.3,0.1c-0.8,0-1.5,0.1-2.3,0.1c-0.7,0-1.5,0-2.2,0.1
		c-0.8,0-1.6,0-2.3,0.1c-0.7,0-1.5,0-2.2,0c-0.8,0-1.6,0-2.4,0c-0.7,0-1.4-0.1-2.1-0.1c-0.8,0-1.6-0.1-2.4-0.1
		c-0.7,0-1.4-0.1-2.1-0.2c-0.8-0.1-1.6-0.1-2.4-0.2c-0.7-0.1-1.4-0.2-2.1-0.2c-0.8-0.1-1.5-0.2-2.3-0.3c-0.7-0.1-1.5-0.2-2.2-0.3
		c-0.7-0.1-1.5-0.2-2.2-0.3c-0.8-0.1-1.6-0.3-2.3-0.4c-0.7-0.1-1.3-0.2-2-0.4c-1.4-0.3-2.8-0.6-4.3-1c-0.4-0.1-0.9-0.2-1.3-0.3
		c-1-0.3-2-0.5-3-0.8c-0.5-0.2-1.1-0.3-1.6-0.5c-0.9-0.3-1.7-0.5-2.6-0.8c-0.6-0.2-1.1-0.4-1.7-0.6c-0.8-0.3-1.6-0.6-2.4-0.8
		c-0.6-0.2-1.1-0.4-1.7-0.6c-0.8-0.3-1.6-0.6-2.3-0.9c-0.6-0.2-1.1-0.5-1.7-0.7c-0.6-0.3-1.3-0.6-1.9-0.8c-0.2-0.1-0.4-0.2-0.7-0.3
		c-0.5-0.2-1.1-0.2-1.6,0.2s-0.6,0.9-0.5,1.5l2.2,9.9c-5.8-0.4-24.4-0.3-75.3,9c-44.5,8.2-58,35.5-62,51c0.2-0.7,0.8-1.1,1.5-1.1h2
		c4.5-15.1,18-39.4,59.1-46.9c63.1-11.6,75.8-8.9,76.3-8.8c0.5,0.1,1,0,1.4-0.4s0.5-0.9,0.4-1.4l-2-9.1c20.5,8.9,44.7,11.8,68.5,8.4
		l14,58.2h1.9c0.7,0,1.3,0.5,1.5,1.1l-14.7-61.4C1148.7,1148.4,1147.9,1147.9,1147.2,1148.1z"/>
	<path d="M1160.9,1212.4H941.8c-1.2,5.1-1.5,9.1-1.6,11.1h223.4L1160.9,1212.4z"/>
	<path d="M1163.6,1210.6c-0.2-0.7-0.8-1.1-1.5-1.1h-1.9H942.6h-2c-0.7,0-1.3,0.5-1.5,1.1c-1.6,6.1-1.9,11-2,13.2c0,0,0,0,0,0
		c0,0.8,0,1.3,0,1.4c0,0.8,0.7,1.4,1.5,1.4h226.9c0.5,0,0.9-0.2,1.2-0.6c0.3-0.4,0.4-0.8,0.3-1.3l-0.2-1v0L1163.6,1210.6z
		 M941.8,1212.4h219.2l2.7,11.1H940.2C940.2,1221.5,940.5,1217.5,941.8,1212.4z"/>
	<path class="st1" d="M924.1,628.1c-0.2,0.2-0.4,0.4-0.6,0.5c-0.8,0.4-14.3,6.3-26.9,6.3c-2.7,0-5.4-0.3-7.9-1
		c-0.9,4.4-1.4,8.7-1.4,12.7c0,17.8,16.8,114.1,49.3,220.1c28.2,92,74.7,212.3,136.4,263.4c50.9,10.7,65.6,5.9,69.7,2
		c1.7-1.6,1.6-3,1.5-3.1c-0.5-4.1-47.3-401.9-55.2-441.3c-16.7-83.6-56.7-102.4-57.1-102.6c-23.1-9.3-42.5-13.2-58.7-13.6
		C963.4,574.1,934.5,613.1,924.1,628.1z"/>
	<path class="st2" d="M976.1,985.3c0.4,0.9,0.8,1.9,1.2,2.8c13.4,31.1,28.5,61,45.2,86.9c0.8,1.2,1.6,2.4,2.4,3.7
		c14.4,21.7,29.9,40.4,46.5,54.1c0.2,0.2,0.4,0.3,0.6,0.3c0.2,0,0.4,0.1,0.6,0.1c1.1,0.2,2.2,0.5,3.2,0.7
		c20.9,4.3,35.8,5.8,46.3,5.8c10.6,0,16.9-1.6,20.5-3.7c1-0.6,1.7-1.2,2.4-1.8c0.1-0.1,0.2-0.2,0.2-0.2c2.3-2.4,2.1-4.8,2-5.3
		c-0.1-0.7-0.7-6.4-1.9-16c-0.1-1-0.3-2.1-0.4-3.3c-1.8-15.5-4.7-39.5-8.1-68.3c-0.1-0.8-0.2-1.6-0.3-2.4c-0.1-0.9-0.2-1.9-0.3-2.8
		c-12.5-104.6-32.3-268-41-328.4c-0.2-1.1-0.3-2.1-0.5-3.1c-1.2-7.9-2.1-13.8-2.8-17.1c-4.8-24.1-11.6-42.8-18.6-57.1
		c-0.7-1.3-1.3-2.6-2-3.9c-5.3-10.1-10.6-17.8-15.2-23.5c-12.4-15.3-22.7-20-23.2-20.2c-22.1-8.9-40.9-12.9-56.8-13.7
		c-0.6,0.8-1.2,1.6-2,2.4c-0.2,0.2-0.5,0.4-0.8,0.4c-0.1,0-0.2,0.1-0.3,0.1c16.2,0.4,35.6,4.3,58.7,13.6c0.4,0.2,40.4,19,57.1,102.6
		c7.9,39.4,54.7,437.2,55.2,441.3c0,0.1,0.2,1.5-1.5,3.1c-4.2,3.9-18.8,8.8-69.7-2c-61.7-51.2-108.2-171.5-136.4-263.4
		c-32.5-106.1-49.3-202.4-49.3-220.1c0-4,0.5-8.3,1.4-12.7c-1-0.3-1.9-0.6-2.8-1c-1,4.8-1.5,9.4-1.5,13.7c0,8.9,4.1,37,12.2,76.1
		c0.2,1,0.4,2,0.6,3c8.3,39.5,20.5,89.5,36.5,141.9C945,904.4,959.2,945.7,976.1,985.3z"/>
	<path class="st1" d="M934.6,540.3c-25.8,8.5-43.2,25.9-51.9,51.8c-6,17.9-5.8,29.9,0.6,35.7c10.6,9.6,35.2-0.4,38.5-1.8
		c4.9-7,38-53.9,50.6-57.2c12.1-13.1,0.4-30.3-2-33.5c-0.7,0-2-0.1-3.7-0.1C960.5,535.2,948.1,535.8,934.6,540.3z"/>
	<path class="st2" d="M879.9,591.2c-6.4,19.2-5.9,32.3,1.5,38.9c1.4,1.2,2.9,2.2,4.5,2.9c0.9,0.4,1.9,0.7,2.8,1c2.5,0.7,5.2,1,7.9,1
		c12.5,0,26-6,26.9-6.3c0.2-0.1,0.5-0.3,0.6-0.5c10.4-15,39.4-54,49.2-56.4c0.1,0,0.2-0.1,0.3-0.1c0.3-0.1,0.6-0.2,0.8-0.4
		c0.7-0.8,1.4-1.6,2-2.4c11.9-15.9-3.7-35.7-3.9-35.9c-0.3-0.3-0.6-0.5-1-0.6c-0.2,0-2.3-0.2-5.7-0.2c-1.3,0-2.7,0.1-4.3,0.1
		c-6.9,0.4-16.8,1.6-27.6,5.1c-0.7,0.2-1.5,0.5-2.2,0.8c-0.9,0.3-1.8,0.7-2.8,1C911.2,546.1,890.1,560.6,879.9,591.2z M970.5,535.3
		c2.4,3.2,14.1,20.4,2,33.5c-12.6,3.4-45.7,50.2-50.6,57.2c-3.3,1.4-27.9,11.4-38.5,1.8c-6.4-5.8-6.6-17.8-0.6-35.7
		c8.6-25.9,26.1-43.4,51.9-51.8c13.5-4.4,25.8-5.1,32.1-5.1C968.5,535.2,969.8,535.2,970.5,535.3z"/>
	<path d="M612.2,283c0.3,0.2,0.6,0.4,0.9,0.5c0.2,0.2,0.5,0.2,0.8,0.2c0.5,0,1-0.3,1.3-0.7c0.4-0.7,0.2-1.6-0.5-2.1
		c-0.6-0.4-1.2-0.7-1.8-1.1c-32.9-19.2-62.1-5.1-70.3-0.3c-1.4,0.8-2.2,1.4-2.3,1.4c-0.7,0.5-0.8,1.4-0.3,2.1
		c0.4,0.5,0.9,0.7,1.5,0.6c0.2,0,0.4-0.1,0.6-0.3C542.3,283.3,574.7,260.6,612.2,283z"/>
	<path class="st3" d="M1419.5,584.4c0.4,0,11,0.9,15.1,7.5c2.1,3.3,2.2,7.4,0.4,12.1c-3.3,8.5-3.8,14.3-1.4,17.8
		c2.2,3.2,6.9,4.9,14.5,5c7.6-0.1,12.3-1.8,14.5-5c2.4-3.5,1.9-9.3-1.4-17.8c-1.8-4.7-1.7-8.8,0.4-12.1c4.2-6.6,14.7-7.5,15.1-7.5
		c0,0,0.1,0,0.1,0h32.8v-36.7c-0.1-0.8-1-9.5-6.2-12.8c-2.5-1.5-5.6-1.6-9.4-0.1c-9.6,3.7-16.2,4.1-20.6,1.1
		c-4.1-2.8-6.2-8.3-6.3-17c0,0,0,0,0-0.1c0.1-8.7,2.2-14.2,6.3-17c4.4-3,11-2.6,20.6,1.1c3.8,1.5,6.9,1.4,9.4-0.1
		c5.1-3.2,6.1-12,6.2-12.8V456h-32.8c0,0-0.1,0-0.1,0c-0.4,0-11-0.9-15.1-7.5c-2.1-3.3-2.2-7.4-0.4-12.1c3.3-8.5,3.8-14.3,1.4-17.8
		c-2.2-3.2-6.9-4.9-14.6-5c-7.6,0.1-12.3,1.8-14.5,5c-2.4,3.5-1.9,9.3,1.4,17.8c1.8,4.7,1.7,8.8-0.4,12.1
		c-4.2,6.6-14.7,7.5-15.1,7.5c0,0-0.1,0-0.1,0h-38.6v34.2c0.1,0.8,1,9.5,6.2,12.8c2.5,1.5,5.6,1.6,9.4,0.1
		c9.6-3.8,16.1-4.1,20.6-1.1c4.1,2.8,6.2,8.3,6.3,17c-0.1,8.7-2.2,14.3-6.3,17.1c-4.4,3-11,2.6-20.6-1.1c-3.8-1.5-6.9-1.4-9.4,0.1
		c-5.1,3.2-6.1,12-6.2,12.8v36.7h38.6C1419.4,584.4,1419.5,584.4,1419.5,584.4z"/>
	<path class="st2" d="M1379.3,587.4h40.1c0.8,0.1,9.5,1,12.8,6.2c1.5,2.5,1.6,5.6,0.1,9.4c-3.7,9.6-4.1,16.2-1.1,20.6
		c2.8,4.1,8.3,6.2,17,6.3c8.7-0.1,14.2-2.2,17-6.3c3-4.4,2.6-11-1.1-20.6c-1.5-3.8-1.4-6.9,0.1-9.4c3.2-5.1,12-6.1,12.8-6.2h34.3
		c0.8,0,1.5-0.7,1.5-1.5v-38.3c0,0,0-0.1,0-0.1c0-0.4-0.9-11-7.6-15.1c-3.3-2.1-7.4-2.2-12.1-0.4c-8.5,3.3-14.3,3.8-17.8,1.4
		c-3.2-2.2-4.9-6.9-5-14.5c0.1-7.6,1.8-12.4,5-14.5c3.5-2.4,9.3-1.9,17.8,1.4c4.7,1.8,8.8,1.7,12.1-0.4c6.6-4.2,7.5-14.7,7.5-15.1
		c0,0,0-0.1,0-0.1v-35.7c0-0.8-0.7-1.5-1.5-1.5h-34.3c-0.7-0.1-9.5-1-12.8-6.1c-1.5-2.5-1.6-5.6-0.1-9.4c3.7-9.6,4.1-16.2,1.1-20.6
		c-2.8-4.1-8.3-6.2-17.1-6.3c-8.7,0.1-14.2,2.2-17,6.3c-3,4.4-2.6,11,1.1,20.6c1.5,3.8,1.4,6.9-0.1,9.4c-3.2,5.1-12,6.1-12.8,6.2
		h-40.1c-0.8,0-1.5,0.7-1.5,1.5v35.7c0,0,0,0.1,0,0.1c0,0.4,0.9,11,7.5,15.1c3.3,2.1,7.4,2.2,12.1,0.4c8.5-3.3,14.3-3.8,17.8-1.4
		c3.2,2.2,4.9,6.9,5,14.5c-0.1,7.6-1.8,12.4-5,14.6c-3.5,2.4-9.3,1.9-17.8-1.4c-4.7-1.8-8.8-1.7-12.1,0.4
		c-6.6,4.2-7.5,14.7-7.6,15.1c0,0,0,0.1,0,0.1v38.3C1377.8,586.7,1378.4,587.4,1379.3,587.4z M1380.8,547.7c0.1-0.8,1-9.6,6.2-12.8
		c2.5-1.5,5.6-1.6,9.4-0.1c9.6,3.7,16.2,4.1,20.6,1.1c4.1-2.8,6.2-8.3,6.3-17.1c-0.2-8.7-2.2-14.2-6.3-17c-4.4-3-11-2.6-20.6,1.1
		c-3.8,1.5-6.9,1.4-9.4-0.1c-5.1-3.2-6.1-12-6.2-12.8V456h38.6c0,0,0.1,0,0.1,0c0.4,0,11-0.9,15.1-7.5c2.1-3.3,2.2-7.4,0.4-12.1
		c-3.3-8.5-3.8-14.3-1.4-17.8c2.2-3.2,6.9-4.9,14.5-5c7.6,0.1,12.4,1.8,14.6,5c2.4,3.5,1.9,9.3-1.4,17.8c-1.8,4.7-1.7,8.8,0.4,12.1
		c4.2,6.6,14.7,7.5,15.1,7.5c0,0,0.1,0,0.1,0h32.8v34.2c-0.1,0.8-1,9.5-6.2,12.8c-2.5,1.5-5.6,1.6-9.4,0.1
		c-9.6-3.8-16.1-4.1-20.6-1.1c-4.1,2.8-6.2,8.3-6.3,17c0,0,0,0,0,0.1c0.1,8.7,2.2,14.2,6.3,17c4.4,3,11,2.6,20.6-1.1
		c3.8-1.5,6.9-1.4,9.4,0.1c5.2,3.2,6.1,12,6.2,12.8v36.7h-32.8c0,0-0.1,0-0.1,0c-0.4,0-11,0.9-15.1,7.5c-2.1,3.3-2.2,7.4-0.4,12.1
		c3.3,8.5,3.8,14.3,1.4,17.8c-2.2,3.2-6.9,4.9-14.5,5c-7.6-0.1-12.4-1.8-14.5-5c-2.4-3.5-1.9-9.3,1.4-17.8c1.8-4.7,1.7-8.8-0.4-12.1
		c-4.2-6.6-14.7-7.5-15.1-7.5c0,0-0.1,0-0.1,0h-38.6V547.7z"/>
	<path class="st1" d="M298,486.5c0.4,0,11,0.9,15.1,7.5c2.1,3.3,2.2,7.4,0.4,12.1c-3.3,8.5-3.8,14.3-1.4,17.8
		c2.2,3.2,6.9,4.9,14.6,5c7.6-0.1,12.3-1.8,14.5-5c2.4-3.5,1.9-9.3-1.4-17.8c-1.8-4.7-1.7-8.8,0.4-12.1c4.2-6.6,14.7-7.5,15.1-7.5
		c0,0,0.1,0,0.1,0H394v-34.2c-0.1-0.8-1-9.5-6.2-12.8c-2.5-1.5-5.6-1.6-9.4-0.1c-9.6,3.8-16.1,4.1-20.6,1.1c-4.1-2.8-6.2-8.3-6.3-17
		c0.1-8.7,2.2-14.3,6.3-17.1c4.4-3,11-2.6,20.6,1.1c3.8,1.5,6.9,1.4,9.4-0.1c5.1-3.2,6.1-12,6.2-12.8v-36.7h-38.6c0,0-0.1,0-0.1,0
		c-0.4,0-11-0.9-15.1-7.5c-2.1-3.3-2.2-7.4-0.4-12.1c3.3-8.5,3.8-14.3,1.4-17.8c-2.2-3.2-6.9-4.9-14.5-5c-7.6,0.1-12.3,1.8-14.5,5
		c-2.4,3.5-1.9,9.3,1.4,17.8c1.8,4.7,1.7,8.8-0.4,12.1c-4.2,6.6-14.7,7.5-15.1,7.5c0,0-0.1,0-0.1,0h-32.8v36.7
		c0.1,0.8,1,9.5,6.2,12.8c2.5,1.5,5.6,1.6,9.4,0.1c9.6-3.7,16.2-4.1,20.6-1.1c4.1,2.8,6.2,8.3,6.3,17c0,0,0,0,0,0.1
		c-0.2,8.7-2.2,14.2-6.3,17c-4.4,3-11,2.6-20.6-1.1c-3.8-1.5-7-1.4-9.4,0.1c-5.2,3.2-6.1,12-6.1,12.8v34.2h32.8
		C298,486.5,298,486.5,298,486.5z"/>
	<path class="st2" d="M263.6,489.5h34.3c0.8,0.1,9.5,1,12.8,6.2c1.5,2.5,1.6,5.6,0.1,9.4c-3.7,9.6-4.1,16.2-1.1,20.6
		c2.8,4.1,8.3,6.2,17.1,6.3c8.7-0.1,14.2-2.2,17-6.3c1-1.5,1.7-3.3,1.9-5.4c0.4-3.9-0.6-8.9-3-15.2c-0.1-0.4-0.2-0.7-0.4-1
		c-1.1-3.3-0.9-6.1,0.5-8.4c0.7-1.1,1.7-2,2.8-2.8c0.9-0.6,1.8-1.1,2.7-1.5c3.4-1.5,6.8-1.8,7.3-1.9h40.1c0.8,0,1.5-0.7,1.5-1.5
		v-35.7c0,0,0-0.1,0-0.1c0-0.4-0.9-11-7.5-15.1c-3.3-2.1-7.4-2.2-12.1-0.4c-8.5,3.3-14.3,3.8-17.8,1.4c-3.2-2.2-4.9-6.9-5-14.5
		c0.1-7.6,1.8-12.4,5-14.6c3.5-2.4,9.3-1.9,17.8,1.4c4.7,1.8,8.8,1.7,12.1-0.4c6.6-4.2,7.5-14.7,7.6-15.1c0,0,0-0.1,0-0.1v-38.3
		c0-0.8-0.7-1.5-1.5-1.5h-40.1c-0.8-0.1-9.5-1-12.8-6.2c-1.5-2.5-1.6-5.6-0.1-9.4c3.7-9.6,4.1-16.2,1.1-20.6
		c-2.8-4.1-8.3-6.2-17-6.3c-8.7,0.1-14.2,2.2-17,6.3c-3,4.4-2.6,11,1.1,20.6c1.5,3.8,1.4,6.9-0.1,9.4c-3.2,5.1-12,6.1-12.8,6.2
		h-34.3c-0.8,0-1.5,0.7-1.5,1.5v38.3c0,0,0,0.1,0,0.1c0,0.4,0.9,11,7.6,15.1c3.3,2.1,7.4,2.2,12.1,0.4c8.5-3.3,14.3-3.8,17.8-1.4
		c3.2,2.2,4.9,6.9,5,14.5c-0.1,7.6-1.8,12.4-5,14.5c-3.5,2.4-9.3,1.9-17.8-1.4c-4.7-1.8-8.8-1.7-12.1,0.4
		c-6.6,4.2-7.5,14.7-7.5,15.1c0,0,0,0.1,0,0.1V488C262.1,488.9,262.7,489.5,263.6,489.5z M265.1,452.4c0.1-0.7,1-9.5,6.1-12.8
		c2.5-1.5,5.6-1.6,9.4-0.1c9.6,3.8,16.1,4.1,20.6,1.1c4.1-2.8,6.2-8.3,6.3-17c0,0,0,0,0-0.1c-0.1-8.7-2.2-14.2-6.3-17
		c-4.4-3-11-2.6-20.6,1.1c-3.8,1.5-6.9,1.4-9.4-0.1c-5.2-3.2-6.1-12-6.2-12.8v-36.7h32.8c0,0,0.1,0,0.1,0c0.4,0,11-0.9,15.1-7.5
		c2.1-3.3,2.2-7.4,0.4-12.1c-3.3-8.5-3.8-14.3-1.4-17.8c2.2-3.2,6.9-4.9,14.5-5c7.6,0.1,12.4,1.8,14.5,5c2.4,3.5,1.9,9.3-1.4,17.8
		c-1.8,4.7-1.7,8.8,0.4,12.1c4.2,6.6,14.7,7.5,15.1,7.5c0,0,0.1,0,0.1,0H394v36.7c-0.1,0.8-1,9.6-6.2,12.8c-2.5,1.5-5.6,1.6-9.4,0.1
		c-9.6-3.7-16.2-4.1-20.6-1.1c-4.1,2.8-6.2,8.3-6.3,17.1c0.1,8.7,2.2,14.2,6.3,17c4.4,3,11,2.6,20.6-1.1c3.8-1.5,6.9-1.4,9.4,0.1
		c5.1,3.2,6.1,12,6.2,12.8v34.2h-38.6c0,0-0.1,0-0.1,0c-0.4,0-11,0.9-15.1,7.5c-2.1,3.3-2.2,7.4-0.4,12.1c3.3,8.5,3.8,14.3,1.4,17.8
		c-2.2,3.2-6.9,4.9-14.5,5c-7.6-0.1-12.4-1.8-14.6-5c-2.4-3.5-1.9-9.3,1.4-17.8c1.8-4.7,1.7-8.8-0.4-12.1
		c-4.2-6.6-14.7-7.5-15.1-7.5c0,0-0.1,0-0.1,0h-32.8V452.4z"/>
</g>
</svg>
