<?xml version="1.0" encoding="utf-8"?>
<!-- Generator: Adobe Illustrator 26.0.3, SVG Export Plug-In . SVG Version: 6.00 Build 0)  -->
<svg version="1.1" id="Layer_1" xmlns="http://www.w3.org/2000/svg" xmlns:xlink="http://www.w3.org/1999/xlink" x="0px" y="0px"
	 viewBox="0 0 1191 1450" style="enable-background:new 0 0 1191 1450;" xml:space="preserve">
<style type="text/css">
	.st0{fill:none;stroke:#1A1A1A;stroke-width:3;stroke-linecap:round;stroke-linejoin:round;stroke-miterlimit:10;}
	
		.st1{fill:none;stroke:#1A1A1A;stroke-width:2;stroke-linecap:round;stroke-linejoin:round;stroke-miterlimit:10;stroke-dasharray:12;}
	.st2{fill:#1A1A1A;stroke:#1A1A1A;stroke-width:2;stroke-linecap:round;stroke-linejoin:round;stroke-miterlimit:10;}
	.st3{fill:#FFFFFF;stroke:#1A1A1A;stroke-width:2;stroke-linecap:round;stroke-linejoin:round;stroke-miterlimit:10;}
	.st4{fill:none;stroke:#1A1A1A;stroke-width:2;stroke-linecap:round;stroke-linejoin:round;stroke-miterlimit:10;}
	.st5{fill:none;stroke:#FFFFFF;stroke-width:2;stroke-linecap:round;stroke-linejoin:round;stroke-miterlimit:10;}
	
		.st6{fill:none;stroke:#B3B3B3;stroke-width:2;stroke-linecap:round;stroke-linejoin:round;stroke-miterlimit:10;stroke-dasharray:12;}
	.st7{fill:#8054D4;stroke:#1A1A1A;stroke-width:2;stroke-linecap:round;stroke-linejoin:round;stroke-miterlimit:10;}
</style>
<g>
	<path class="st0" d="M310.8,966.5c-110.9,56-133.5,96-130.6,123.4c4.7,43.9,76,61.2,77.5,115.3c1.1,39.4-36,49.5-30.8,79.2
		c9.6,54.9,151.5,106,231.5,60.2c37.6-21.5,27.6-45,65.8-68.2c16-9.7,56-28.8,227.2,8c115.8,24.9,119.6,38.5,167.8,36.1
		c56.8-2.8,156.7-26.7,181.6-95.3c30.2-83.1-71.5-171.4-86-183.5c-126-106.1-345.8-94.1-401.4-18.1c-10.1,13.8-18.3,34.5-38.2,38.1
		c-32.2,5.8-54.8-40.1-100.9-69.2C443.9,973.4,394.2,955.7,310.8,966.5z"/>
	<g>
		<path class="st1" d="M334.6,872.9c-23.5-80-20.8-170.5-6.7-267.9C379,252.3,761.9,54.9,761.9,54.9"/>
		<path class="st2" d="M557.8,193.2c0,0,58.7,73.6,65.1,73.6C624,254.8,746.5,72.1,765.3,54C690.6,72.2,557.8,193.2,557.8,193.2z"/>
		<polygon class="st3" points="623,266.8 581.8,203.4 769.4,52.1 		"/>
		<path class="st3" d="M557.8,193.2c0,0,164.5-128.4,211.5-141.1c-58.6,13.7-204.8,83-273.8,163.8
			C519.9,194.9,546.5,186,557.8,193.2z"/>
		<path class="st3" d="M570.1,197c0,0,120.8-108,199.2-144.9C664,145.2,611.4,205,585.5,279.3C574.1,249,570.1,197,570.1,197z"/>
	</g>
	<path class="st3" d="M769.7,799.2c-8.4-34.5,9.3-73.5,40.7-90c11.5-6,25.4-9.9,32.3-21c5.5-8.7,5.2-19.9,3.2-30
		c-1.3-6.4-3.1-12.8-3.5-19.3c-0.3-6.5,1.1-13.5,5.5-18.3c7.4-8,20.4-7.3,30.7-3.6c10.3,3.6,37.5,29.9,21.9,45.3
		c-3.3,3.3-8.6,5.2-9.9,9.7c-1.6,5.7,3.6,11.2,9,13.6s11.7,3.2,16.5,6.7c9.8,7.3,8.3,23.9-0.8,32.2c-9,8.3-22.6,9.7-34.7,7.6
		c-9.8-1.6-20.9-5-29.1,0.7c-4.3,2.9-6.8,7.8-8.3,12.8c-4,12.7-2.7,26.6-5.7,39.6s-13,26.4-26.3,25.8"/>
	<path class="st3" d="M780.4,801.6c4.8-22,11.7-43.9,24.1-62.7c12.5-18.8,31.1-34.2,53.1-39"/>
	<path class="st3" d="M789.7,804.9c4.2-16.9,16.4-31.6,32.3-38.8"/>
	<path class="st3" d="M850.6,849.7c-1.3-9-2.6-18.1-1.4-27.1s5.4-18,12.9-23.1c6.8-4.6,15.3-5.5,23.3-6.8c8-1.4,16.6-3.7,21.7-10.1
		c8.9-11.2,3-29.4,11.9-40.7c6-7.7,16.8-9.5,26.6-9.5c5.7,0,11.5,0.4,16.9,2.4c5.4,2,10.3,5.6,12.8,10.8c4.3,8.8,0.4,19.8-6.9,26.3
		c-5,4.5-11.5,7.5-15.5,12.9c-5.9,8.2-4.5,19.4-2,29.2c2.5,9.8,5.9,20,3.1,29.7c-2.8,9.6-11.3,16.7-20.7,20
		c-9.4,3.3-19.7,3.3-29.6,2.5c-12.4-1-24.7-3.1-36.7-6.4"/>
	<path class="st4" d="M855.7,851.9c-0.3-11.1,6.2-21.4,14.5-28.8c8.3-7.4,18.3-12.5,27.7-18.3c9.4-5.8,18.7-12.7,24.1-22.4
		c6.1-10.8,6.7-23.7,6.9-36.1"/>
	<path class="st4" d="M861.5,855.1c2.8-10.2,12.1-17.2,21.7-21.6c9.6-4.3,20.1-6.8,29.2-12c9.2-5.2,17.3-14.2,17.2-24.8"/>
	<path class="st4" d="M860.6,859.4c7.2-6.3,17.2-8.1,26.7-8.5s19.2,0.2,28.5-2.1c9.2-2.4,18.3-8.6,20.5-17.9"/>
	<path class="st2" d="M824.4,935.4c3.5-8.5,14.5-11.9,23.4-9.6s16.1,8.6,22.7,15.1c6.6,6.5,13.1,13.3,21.5,17
		c7.3,3.2,15.5,3.7,23.4,3.9c9.3,0.3,19.5,0,26.7-5.9c7.9-6.5,9.9-17.8,10.5-28c0.2-3.9,0.3-7.9-0.6-11.7s-3-7.5-6.3-9.5
		c-4.6-2.9-10.6-2.2-16-1.9c-5.5,0.3-11.8-0.3-15-4.7c-2.5-3.3-2.4-7.8-4-11.6c-3.5-8.5-14.6-11.6-23.4-9.1s-15.9,9-22.3,15.6"/>
	<path class="st5" d="M859.7,904.7c7.6-7.3,19.8-9.4,29.4-5.1c5.3,2.4,9.6,6.3,14.5,9.4s10.9,5.2,16.4,3.4"/>
	<path class="st5" d="M851.5,913.1c11.1-3.3,23.4-2.3,33.8,2.8c6.3,3.1,11.8,7.6,18,11c6.2,3.4,13.4,5.7,20.2,3.8"/>
	<path class="st5" d="M847.2,919.2c7.8-0.4,15.3,3.4,21.6,8.1c6.3,4.6,11.9,10.2,18.7,14.2c12.1,7.2,27.4,8.6,40.7,3.8"/>
	<path class="st3" d="M234.7,914c30.4,60.9,75.6,60.1,125.2,98.2c24.8,19,59,53.1,50.6,87.9c-3.7,15.4-17.5,26-31.1,32.8
		c-20.3,10.1-41.6,13-59.3,28.6c-17.3,15.1-27.7,40.5-18.5,61.4c8.6,19.6,30.9,29.4,52,34.1c46.8,10.4,91.6,25.4,138.7,35.3
		c48.3,10.1,97.3,17.4,146.6,20.3c93.6,5.4,191-5,275-48.9c182.2-126.5-68.9-243-191.2-262.4c-12.3-2.4-27.9-8.1-27.1-20.5
		c21.2-54.1,169,0.2,182.2-90C875.6,714.9,172.8,719,234.7,914z"/>
	<path class="st2" d="M733.4,1016.6c0-1.2,1.4-2.4,3-3.6c-3.8-0.9-6.9-1.9-8-3.2c-3-3.7-16.5,16-16.5,16s3.5,3.4,8.7,8.5
		C727,1030.8,731.1,1024.3,733.4,1016.6z"/>
	<path class="st2" d="M785.3,1079.5c-1.8-7.8-22-59.2-28.9-62.1c-0.8-0.3-1.8-0.7-3-1c13.1,20.8,21.4,44.7,29.7,67.8
		c0,0.1,0,0.2,0.1,0.3C785,1083.5,785.8,1081.7,785.3,1079.5z"/>
	<path class="st3" d="M753.5,1016.5c-4.8-1.3-11.7-2.2-17.1-3.5c-1.6,1.2-3,2.4-3,3.6c-2.3,7.7-6.4,14.2-12.7,17.7
		c11.9,11.7,32.7,32.4,40.2,41.9c7.8,9.8,17.9,11.3,22.3,8.5c0-0.1,0-0.2-0.1-0.3C774.8,1061.2,766.5,1037.3,753.5,1016.5z"/>
	<path class="st3" d="M568,737.1c0,0,16.3,88.3,14.5,118.4l0.1,20.2c0,0,106.8,79.7,154.6,128.4c-9.5,18.4-23.6,26-23.6,26
		s-174.9-89.8-193.8-126.2c-18.9-36.4-49.6-149.8-50.1-196.9L568,737.1z"/>
	<path class="st6" d="M520.6,713.6c0,0-7.4,144.9,53,195.7c60.4,50.8,143.3,103.7,143.3,103.7"/>
	<path class="st2" d="M478.9,764.6c0,0,13.5-4.3,21-3.8c7.2,0.4,53.3,8.3,69.7-17.3c-8.5-23.2-8.5-23.2-8.5-23.2L469.7,697
		C469.7,697,476.5,761.8,478.9,764.6z"/>
	<path class="st3" d="M696.8,713.6c0,0.4,17.7,9.4,25.3,9.1c7.6-0.3,3,11-7.5,8.2c6.8,6.3,15.1,19.7,15.4,27.5s-10.1,11-15.4,8
		s-27.7-22.5-33.5-47C691.7,714.2,696.8,713.6,696.8,713.6z"/>
	<path class="st7" d="M609.1,511.9c0,0,8.2,86.5,36.5,127.3c28.4,40.8,51.8,72,51.8,72s3.8,5.4-4.5,11.5c-8.3,6-15.4,4-22.6-2.8
		c-7.2-6.9-69.2-59.7-84.7-112.5L609.1,511.9z"/>
	<path class="st3" d="M456.6,686.4c21.3,80.4,71.3,86.9,115.6,55.8c45.8-32.1,19.9-125.8,19.9-125.8L525,601.3l-23.9,13.5l-59.3,34"
		/>
	<path class="st2" d="M504.9,636.7c0,0,17.7-16.1,31.2-16.3c13.5-0.2,43.7,11.1,56,9.7c3.2,0.6,3.2,0.6,3.2,0.6l-3.7-18.1
		c0,0-68.3-16.3-68.3-15.4c0,0.9-21.7,32.6-21.7,33.6S504.9,636.7,504.9,636.7z"/>
	<path class="st3" d="M598.1,387.6c-3,12.1-23.4,37.4-23.4,37.4s51.4,12.1,52.8,12.1c1.4,0,43.6-92.7,43.6-92.7l-11.2-9.2
		c0,0-16.1-5.5-46.3,4.3c-30.1,9.8-34.7,20.6-29.6,28.7c5.1,8.2,9.6,21.5,21.3,21.6c11.7,0.2,16.3-1.2,16.3-1.2"/>
	<path class="st2" d="M595.7,396.3c0,0,24-0.8,25.1-7.1c-18.3,5-22.5,0-22.5,0L595.7,396.3z"/>
	<path class="st2" d="M607.2,481.5c11.8-7.9,29.7-9.1,39.5,2.4c11.3,14.8,6.5,35.6,11.7,52.7c21.9,63,61,76.4,123.5,64.4
		c1.6-45.3-63.1-57.7-63.2-102.3c0.3-13.2,7.9-25.4,8-38.5c0.1-12.6-6.6-24.1-12-35.6c-7.5-15.8-12.9-32.6-15.9-49.9
		c-2.4-19.5-8.2-48.4-32.5-48.7c-3.6,0.2-7.6,1.8-8.5,5.2c-1.2,4.6,3.9,9,3.2,13.7c-0.9,6.6-12,8.9-11.4,15.5
		c0.3,2.5,2.2,4.4,3.2,6.7c3.6,17.4-18.6,18.2-28.7,8.7c0,0,7.1,17.8,4.9,23.1s-30,36.3-30,36.3L607.2,481.5z"/>
	<path class="st7" d="M495.6,613.3c17.7-26.6,15.9-66.2,6.2-89.1c-9.7-22.9-6.6-35-0.5-49.2c6.1-14.2,63.1-54.6,63.1-54.6
		s12.6-4.8,22.5-0.4c9.9,4.4,28.2,5.1,28.2,5.1s3.2,82.8-5.7,120.8s-2.7,72.2-19.7,74.5c-17,2.3-30.6-8.5-42.9-9.8
		c-18.9-2-28.9,7.7-36.6,20.4C502.6,643.6,495.6,613.3,495.6,613.3z"/>
	<path class="st3" d="M761.9,284c0,0,8.3-25,19.1-37.9c10.8-12.9,21.6-15.8,17.5-7.4s-3.4,9.9,3.5,7.3c6.9-2.7,33.5-9.8,31.2,1.2
		c-2.3,11-16.3,25.4-37.4,25.9c-8.5,0-18.8,17.7-18.8,17.7L761.9,284z"/>
	<path class="st7" d="M590.2,482.1c0,0-5.7-7.6-4.5-23.8c1.2-16.1,9.3-28.5,15-30.5c5.7-2,77.6-35.8,104.9-61.7s55.3-86.9,55.3-86.9
		l20.2,9.6c0,0-29.4,75.5-63.8,111c-34.4,35.5-86.2,89-107.4,92.6"/>
	<path class="st2" d="M449.9,894.2c-15.9,13.9-27.9,27.9-39.8,46.8c-2.3,3.8-7.5,8.2-12.5,6.9c2.3,5.2,9.7,2.3,13.9-1.7
		c10-9.5,9.2-18.9,24.6-31.9c12-10.2,16.4-14.3,15.8-22.2C451.4,893,450.7,893.7,449.9,894.2z"/>
	<path class="st3" d="M410.1,941c11.9-18.9,23.9-32.8,39.8-46.8c0.8-0.5,1.4-1.2,1.9-2.1c-0.2-2.2-0.8-4.8-1.7-7.8
		c-1.5-4.9-2.2-9-2.4-12.3c-8.1,2.4-15.8,6.4-25,5.5c-1.3,4.2-3.4,9.2-6.7,13.6c-8,10.6-13.9,28.6-18.2,46.3
		c-1.2,5-1.1,8.4-0.2,10.4C402.6,949.2,407.9,944.8,410.1,941z"/>
	<path class="st2" d="M447.7,872c-0.5-6,0.4-9.2,0.4-9.2l-23.4,4.3c0,0-0.2,4.6-2,10.5C431.9,878.3,439.6,874.4,447.7,872z"/>
	<ellipse class="st2" cx="849.1" cy="391" rx="13.8" ry="13.8"/>
	<g>
		<polygon class="st3" points="945.7,551.5 915.6,594.2 843,543 873.1,500.3 894.4,547.2 		"/>
		<polygon class="st2" points="945.7,551.5 894.4,547.2 873.1,500.3 		"/>
	</g>
	<g>
		<polygon class="st3" points="284,527.4 190.5,580.4 199.3,518.8 218.4,520.7 226.6,503.3 226.6,503.3 		"/>
		<polygon class="st3" points="284,527.4 226.6,503.3 246.4,461 		"/>
		<polygon class="st3" points="199.3,518.8 190.5,580.4 152.9,514 		"/>
		<polygon class="st3" points="246.4,461 226.6,503.3 226.6,503.3 218.4,520.7 199.3,518.8 152.9,514 		"/>
		<line class="st4" x1="199.3" y1="518.8" x2="199.3" y2="518.8"/>
	</g>
	<path class="st1" d="M542.5,1219.7c0,0-146.3-137.3-207.8-346.8"/>
	<g>
		<rect x="537.7" y="1099.1" class="st3" width="230" height="136.9"/>
		<rect x="537.7" y="1236" class="st2" width="230" height="11.9"/>
		<polygon class="st2" points="658.6,1182.2 537.7,1099.1 767.6,1099.1 		"/>
		<polygon class="st3" points="658.6,1178.7 537.7,1095.6 767.6,1095.6 		"/>
		<line class="st3" x1="537.7" y1="1248" x2="625.8" y2="1159.7"/>
		<line class="st3" x1="686.1" y1="1161.3" x2="767.6" y2="1248"/>
	</g>
	
		<ellipse transform="matrix(0.6399 -0.7684 0.7684 0.6399 -757.1219 599.0701)" class="st3" cx="260.7" cy="1107.4" rx="39.5" ry="28.7"/>
	
		<ellipse transform="matrix(0.8858 -0.464 0.464 0.8858 -399.2904 591.9578)" class="st3" cx="1003.4" cy="1107.4" rx="13.7" ry="18.9"/>
	<path class="st0" d="M877.6,1009.3c0,0,54.4,16.5,82.1,57.9"/>
	<path class="st3" d="M514.8,650.2c0,0-26.2-141.9-93.6-100.7s-3.5,323.4-3.5,323.4l34.9-6.4c0,0,14.6-148,0-203.8"/>
	<path class="st6" d="M435.5,862.7c0,0-27.7-269.3,6.3-270c34-0.7,47.5,126.8,89.3,120.8s20-59.8,24.5-79.5"/>
</g>
</svg>
