<?xml version="1.0" encoding="utf-8"?>
<!-- Generator: Adobe Illustrator 26.0.3, SVG Export Plug-In . SVG Version: 6.00 Build 0)  -->
<svg version="1.1" id="Layer_1" xmlns="http://www.w3.org/2000/svg" xmlns:xlink="http://www.w3.org/1999/xlink" x="0px" y="0px"
	 viewBox="0 0 1353 1400" style="enable-background:new 0 0 1353 1400;" xml:space="preserve">
<style type="text/css">
	.st0{fill:#FFFFFF;stroke:#1A1A1A;stroke-width:2;stroke-linecap:round;stroke-linejoin:round;stroke-miterlimit:10;}
	.st1{fill:#1A1A1A;stroke:#1A1A1A;stroke-width:2;stroke-linecap:round;stroke-linejoin:round;stroke-miterlimit:10;}
	.st2{fill:#8054D4;stroke:#1A1A1A;stroke-width:2;stroke-linecap:round;stroke-linejoin:round;stroke-miterlimit:10;}
	.st3{display:none;}
	
		.st4{display:inline;fill:#FFFFFF;stroke:#1A1A1A;stroke-width:2;stroke-linecap:round;stroke-linejoin:round;stroke-miterlimit:10;}
	.st5{display:inline;}
	
		.st6{display:inline;fill:#1A1A1A;stroke:#1A1A1A;stroke-width:2;stroke-linecap:round;stroke-linejoin:round;stroke-miterlimit:10;}
</style>
<g>
	<path class="st0" d="M1225.1,1108.9H143.2c-52.6,9.4-133.4,28.7-100,53.8c48.2,36.1,247.5,44.6,344.1,44.6
		c-61.1,31.3,28,114.4,252,38.5c80.7-24.1,61,1.6,55.8,16.9c-5.2,15.3,88.7,15.3,129.7-23.7c40.9-38.9,249.3-16.1,328.8-0.8
		C1229.3,1252.7,1401,1125.3,1225.1,1108.9z"/>
	<path class="st0" d="M1233.1,966.1c-26.6-34.7-77.8-32.8-84.3-32.5c9.8-27.8-0.2-57.1-21.7-69.8c-22.7-13.4-48-2.4-50.6-1.2
		c40.5-41.4,52-103.6,28.9-156.5c-22.8-52.4-75.2-86.2-132.5-85.5c-14.4-62.2-75.2-102.8-137.3-92.7
		c-60.7,9.9-105.1,65.3-101.2,127.6c-25.2-22.8-61.5-29-92.7-15.7c-31.4,13.4-52.2,44.1-53,78.3c-86.3,33.7-172.6,67.4-258.9,101.1
		c-74.7-10.3-148,25.3-184.3,89.1c-35.8,63-29.4,142.5,15.1,200.7h1047.7C1253.9,1064.1,1260.2,1001.3,1233.1,966.1z"/>
	<g>
		<polygon class="st0" points="257.6,950.8 81.8,1165.9 270.4,1207.7 402.9,987.7 		"/>
		<polygon class="st1" points="1094.6,401.3 1082.4,435.4 1016.3,620.5 865.4,696.3 681,975.1 402.9,987.7 270.4,1207.7 
			296.1,1210.9 412.2,1007.8 683.5,995 871.8,713.2 1023.6,631.7 1090.7,430.3 1098.2,407.6 1125.7,408.4 1135.2,408.7 1137,401.3 
					"/>
		<polygon class="st0" points="1016.3,620.5 1082.4,435.4 1094.6,401.3 1137,401.3 1109.7,262.9 991.4,394 1041.2,398.8 1003,485 
			946.5,612.8 777.9,680.3 865.4,696.3 		"/>
		<polygon class="st0" points="681,975.1 553.3,939.6 257.6,950.8 402.9,987.7 		"/>
		<polygon class="st0" points="865.4,696.3 777.9,680.3 553.3,939.6 681,975.1 		"/>
	</g>
	<path class="st0" d="M1185.6,598.8c-40.9,0-81.9,0-122.8,0c0,0-2.6-13,5.3-21.1c0.9-0.9,7.3-7.2,16.8-6.2
		c7.2,0.7,11.6,5.1,12.8,6.4c-4.5-14.1,2.2-29.4,15.3-35.3c12.2-5.6,27.2-1.6,35.3,9.6c13.9-13.6,35-12.8,45.4-2
		C1205.2,562.2,1203.7,586.4,1185.6,598.8z"/>
	<path class="st0" d="M865.4,447.5c36.6,0,77.7,0,114.3,0c5-6.7,6.1-15.1,2.7-20.9c-4.9-8.2-19.2-11.3-30.5-2.7
		c-2-18.3-17.5-30.2-31.6-28.4c-10.2,1.4-19.2,9.9-22.5,21.4c-17.4-12.8-36.4-9.7-41.2-1.6C852.3,422.5,852.3,437.1,865.4,447.5z"/>
	<path class="st0" d="M182.9,237.6c59,0,118,0,177,0c13.4-17.7,12.6-39.6,2.5-49.6c-12.1-12.1-41.7-10.5-58.3,13.4
		c-8.8-29.8-33.1-47.1-53.5-43.9c-13.2,2.1-30.4,13.6-32.1,30.5c-0.9,9.2,3,16.7,5.4,20.3c-22.1-13.1-43.5-8.5-48.7,1.6
		C171.4,217.1,175.5,228.3,182.9,237.6z"/>
	<g>
		<polygon class="st0" points="621.1,320.5 605.9,329.3 607.7,338.7 623.9,327.2 		"/>
		<polygon class="st0" points="614.9,320.5 763.7,229.4 780.8,256.2 621.5,332.8 		"/>
		<path class="st0" d="M729.2,245.2c9.3,7.9,15.6,19.5,20.6,32.6l34.9-17.3c0,0,3.9-7.8-5.2-21.9c-9.1-14.2-19.9-16.1-19.9-16.1
			L729.2,245.2z"/>
		<path class="st2" d="M640.9,277.1c-32,1.1-82.6-2.5-121.3,18.2C470,321.9,458.3,378,458.3,378l69.2-4.2c0,0-5.4-25.5,11.4-47.4
			c14-18.1,74.6-30.2,102-35.4C642.7,286.7,642.6,281.7,640.9,277.1z"/>
		<path class="st0" d="M662.7,274.5c-5.3,1.7-12.8,2.3-21.7,2.6c1.7,4.6,1.7,9.5,0.1,14c5.7-1.1,9.9-1.9,12-2.3
			c-0.4,6.8,3.3,6.4,3.3,6.4s2.2-2.1,11.8-8.2c17.9,5.2,33.7-3.4,39.7-8.8C713.8,272.7,687.2,266.9,662.7,274.5z"/>
		<path class="st1" d="M396.3,928.9c-1.5-1.1-2.5-2.3-2.7-3.7c-1-7.8-24.6-4.1-24.6-4.1s-1.3,1.8-3.1,4.6
			C375.1,931.5,386.2,932.1,396.3,928.9z"/>
		<path class="st0" d="M426.4,941c-7.3-6.1-23.6-7.6-30.1-12.1c-10.1,3.2-21.1,2.6-30.4-3.3c-4.6,7.4-12,21.9-4.7,29.6
			c10.1,10.6,66.8,3.9,68.3,1.8S435.5,948.6,426.4,941z"/>
		<path class="st1" d="M498.7,943.8c-5.2-1.8-9.2-3.8-9.6-6.9c-1.1-8-25.4-4.3-25.4-4.3s-2.3,3-4.8,7.3
			C470.5,946.1,485.8,947.2,498.7,943.8z"/>
		<path class="st0" d="M523.1,953.3c-5.6-4.7-16.5-6.8-24.4-9.4c-13,3.4-28.2,2.2-39.8-3.9c-4.6,8.1-10.1,20.8-3.3,28
			c10.4,11,69,4,70.7,1.9C527.9,967.7,532.5,961.1,523.1,953.3z"/>
		<path class="st0" d="M405.9,633.7c0,0,7,94.7-2.7,137s-47.6,144-40,148.8c7.6,4.8,43.8,8.8,51,0c7.2-8.8,57.5-126,61.7-173
			S405.9,633.7,405.9,633.7z"/>
		<path class="st0" d="M402.1,572.2c0,0-11.8,13.1-12.8,42.7c-1.1,29.6,53.5,127,59.9,171.4s2.6,142.2,11.7,149.4s38.6,6,40.7,0
			c2.1-6,68.5-220.6,59.9-296s-15.5-80.8-15.5-80.8L402.1,572.2z"/>
		<path class="st0" d="M521.9,603c0,0-1.5,24.9-27.5,36.1"/>
		<path class="st1" d="M397.7,579.1c0,0,11.1,14.5,53.5,12.4c42.4-2.1,94.3-3.5,98.6-12.7c1.4-10.6,1.4-10.6,1.4-10.6l-3.8-5
			c0,0-143.6,4.3-143.6,5.4S397.7,579.1,397.7,579.1z"/>
		<path class="st0" d="M557.3,351.4c0,0,2.9,8,21.7,15.3c29.4,12.6,33.5-44.7,32.9-48.7c-0.5-4-4.8-15.3-28.4-16.3
			s-34.8,34.3-34.8,34.3s-36.9,30.2-38,30.8l29.7,20.1l24.8-27.1"/>
		<path class="st1" d="M557.4,351.9l4,10.5l3.4-2.3C562.1,359.6,560.1,355.5,557.4,351.9z"/>
		<path class="st1" d="M576.4,336.3c0,0-7,10.4-12.2,10.2c-5.2-0.2-19.9-4.6-20.1-13s10.2-19.1,11-26.1c0.8-7,9.6-24.1,32.3-23.1
			c22.7,1,26.1,16.1,34.3,21.5c8.2,5.4,5.8,5.2,0,8.8c-5.8,3.6-18.5,17.1-27.1,10.2c-8.6-6.8-16.8-8.1-19.9-4.6
			C569.9,325.7,568.9,326.5,576.4,336.3z"/>
		<path class="st0" d="M625.8,361.5c0,0-6.3-18.6-2.7-26.5s9.9-2.9,11.6-10.4c1.7-7.5,4.8-5.8,4.7-0.7c-0.1,5.1-3.2,9.9-3.2,9.9
			s7.2-5.4,10.6-14.3c3.3-8.9,7.5-12.2,9.2-10.2c1.7,2,5.6,22.5-2.8,29.3S638.1,358,638,362.3C637.9,366.5,625.8,361.5,625.8,361.5z
			"/>
		<path class="st2" d="M511.9,358.6c0,0-42.8-13.9-74.9,40.7s-76,168.6-28.9,179.3c47.1,10.7,148.3,7,153.9-18.7
			S585,373.4,511.9,358.6z"/>
		<path class="st2" d="M466.4,427.4c0,0,12.8,74.7,73.9,69.8c61-4.8,107.6-74.4,99-133.8c-13.4-3.7-15.9-2.1-17.4,0
			c-1.5,2.1,0.5,57.3-40.1,61.7c-40.5,4.4-52-16.1-55.4-21.5c-4.6-11-5.6-11.4-5.6-11.4"/>
	</g>
	<g>
		<ellipse class="st0" cx="1119.4" cy="138.1" rx="59.2" ry="59.2"/>
		<ellipse class="st0" cx="1119.4" cy="138.1" rx="50.9" ry="50.8"/>
		<g>
			<g>
				<path class="st0" d="M1130.6,152.8c0-2.5-0.9-4.5-2.6-6.2c-1.7-1.7-4.6-3.2-8.7-4.6c-5.7-1.7-9.8-4-12.4-6.8
					c-2.6-2.8-3.9-6.3-3.9-10.6c0-4.4,1.3-8,3.8-10.8c2.5-2.8,6-4.5,10.5-5v-8.8h6v8.8c4.5,0.6,8,2.5,10.5,5.6
					c2.5,3.1,3.7,7.5,3.7,12.9h-7.4c0-3.8-0.9-6.8-2.7-9c-1.8-2.2-4.2-3.3-7.2-3.3c-3.2,0-5.6,0.8-7.3,2.5c-1.7,1.6-2.5,3.9-2.5,6.9
					c0,2.7,0.9,4.9,2.7,6.5c1.8,1.6,4.7,3.1,8.8,4.4c4.1,1.3,7.2,2.8,9.5,4.4c2.3,1.6,4,3.4,5,5.5c1.1,2.1,1.6,4.6,1.6,7.4
					c0,4.5-1.4,8.1-4.1,10.9c-2.7,2.7-6.5,4.4-11.4,4.9v7.6h-5.9v-7.6c-5-0.5-8.8-2.2-11.7-5.3c-2.8-3.1-4.2-7.3-4.2-12.5h7.4
					c0,3.7,1,6.6,2.9,8.6c1.9,2,4.7,3,8.3,3c3.5,0,6.2-0.8,8.2-2.5C1129.6,158,1130.6,155.7,1130.6,152.8z"/>
			</g>
		</g>
	</g>
</g>
<g class="st3">
	<path class="st4" d="M183.8,806.1l604.1,317.7c39.3-25.1,73.9-56.1,87.5-113.2L487.6,497.5L183.8,806.1z"/>
	<g class="st5">
		<path class="st0" d="M668.2,1077.9c-7.8-2.1-17.9-4.2-27.7-3.9L513.7,1198c3.7-2.4,12.1-4.4,28.5,6.8
			c15.8,10.7,19.3,21.5,19.3,29.2c0,6.1-2.3,10.1-2.4,10.4c0.5-0.3,1-0.6,1.5-1l107.5-80.2c-0.4,0.1-0.8,0.2-1.2,0.3
			c0.4-0.1,0.8-0.2,1.2-0.3l47.9-35.7C719.9,1100.2,690.9,1084.4,668.2,1077.9z"/>
		<path class="st0" d="M665.4,1049.5l-25,24.4c9.8-0.3,19.9,1.8,27.7,3.9c22.7,6.5,51.7,22.4,47.9,49.6l42.1-31.4
			C771.8,1073.1,704.9,1017.4,665.4,1049.5z"/>
		<polygon class="st0" points="559.2,1244.4 559.2,1244.4 559.2,1244.4 		"/>
		<path class="st0" d="M513.7,1198l-0.4,0.4l-2,2C511.4,1200.3,512.1,1199.1,513.7,1198z"/>
		<path class="st1" d="M561.6,1234c0,6.1-2.3,10.1-2.4,10.4c0,0,0,0,0,0c-14.9,8.1-58.8-26.9-47.9-44l0,0l2-2l0.4-0.4
			c3.7-2.4,12.1-4.4,28.5,6.8C558.1,1215.5,561.6,1226.4,561.6,1234z"/>
	</g>
	<path class="st4" d="M183.8,806.1c0,0,74.2,32.6,197.5-101.3c92.5-100.4,128.3-182.4,106.4-207.3
		c-31.7-32.3-168.1,58.1-210.9,114.8C239.2,661.9,140.9,765.4,183.8,806.1z"/>
	<path class="st6" d="M198.4,790.9c0,0,67,29.4,178.2-91.5c83.4-90.7,115.8-164.6,96-187.1C444,483.2,320.9,564.8,282.2,616
		C248.4,660.8,159.6,754.1,198.4,790.9z"/>
	<path class="st6" d="M867.3,1036l-6.2,13.5c0,0-13.1-19.7-33.7-33.5c6-9,6-9,6-9C845.9,1013.6,857,1023.9,867.3,1036z"/>
	<path class="st6" d="M851.9,1065.2l-8.4,11.7c0,0-13.1-19.7-33.7-33.5c6-9,6-9,6-9C828.3,1040.9,841.5,1053,851.9,1065.2z"/>
	<path class="st6" d="M828,1093.2l-11.7,8.9c-0.8,3.1-14.8-12.9-33.7-33.5c6-9,6-9,6-9C798.7,1069.9,814.9,1085.4,828,1093.2z"/>
	<path class="st4" d="M76.6,672.3c-1.3,4-0.4,7.9,1.8,8.6l43,13.6c2.3,0.7,5.2-2,6.4-6c1.3-4,0.4-7.9-1.8-8.6l-43-13.6
		C80.7,665.6,77.9,668.3,76.6,672.3z"/>
	<path class="st4" d="M140.7,544.5c-2.7,3.3-3.3,7.1-1.4,8.6l35,28.4c1.9,1.5,5.5,0.1,8.2-3.2c2.7-3.3,3.3-7.1,1.4-8.6l-35-28.4
		C147,539.8,143.4,541.2,140.7,544.5z"/>
	<path class="st4" d="M224.4,445.2c-3.4,2.5-5,6-3.6,8l26.5,36.5c1.4,1.9,5.3,1.5,8.7-1c3.4-2.5,5-6,3.6-8l-26.5-36.5
		C231.7,442.3,227.8,442.7,224.4,445.2z"/>
	<path class="st4" d="M340.3,407.7c-4.2,0.5-7.3,2.8-7.1,5.2l5.3,44.8c0.3,2.4,3.9,3.9,8.1,3.4s7.3-2.8,7.1-5.2l-5.3-44.8
		C348.1,408.7,344.5,407.2,340.3,407.7z"/>
	<path class="st4" d="M264.4,725.2c0,0-53-82.7-12.8-128.4S355.9,592,384,612S311.8,749.3,264.4,725.2z"/>
</g>
</svg>
