<svg width="100%" height="100%" enable-background="new 0 0 1191 1450" version="1.1" viewBox="0 0 1191 1450" xml:space="preserve"
     xmlns="http://www.w3.org/2000/svg">
<style type="text/css">
	.st0{fill:none;stroke:#1A1A1A;stroke-width:3;stroke-linecap:round;stroke-linejoin:round;stroke-miterlimit:10;}

		.st1{fill:none;stroke:#1A1A1A;stroke-width:2;stroke-linecap:round;stroke-linejoin:round;stroke-miterlimit:10;stroke-dasharray:12;}
	.st2{fill:#1A1A1A;stroke:#1A1A1A;stroke-width:2;stroke-linecap:round;stroke-linejoin:round;stroke-miterlimit:10;}
	.st3{fill:#FFFFFF;stroke:#1A1A1A;stroke-width:2;stroke-linecap:round;stroke-linejoin:round;stroke-miterlimit:10;}
	.st4{fill:none;stroke:#1A1A1A;stroke-width:2;stroke-linecap:round;stroke-linejoin:round;stroke-miterlimit:10;}
	.st5{fill:none;stroke:#FFFFFF;stroke-width:2;stroke-linecap:round;stroke-linejoin:round;stroke-miterlimit:10;}

		.st6{fill:none;stroke:#B3B3B3;stroke-width:2;stroke-linecap:round;stroke-linejoin:round;stroke-miterlimit:10;stroke-dasharray:12;}
	.st7{fill:#8054D4;stroke:#1A1A1A;stroke-width:2;stroke-linecap:round;stroke-linejoin:round;stroke-miterlimit:10;}
</style>

    <path class="st0"
          d="m310.8 966.5c-110.9 56-133.5 96-130.6 123.4 4.7 43.9 76 61.2 77.5 115.3 1.1 39.4-36 49.5-30.8 79.2 9.6 54.9 151.5 106 231.5 60.2 37.6-21.5 27.6-45 65.8-68.2 16-9.7 56-28.8 227.2 8 115.8 24.9 119.6 38.5 167.8 36.1 56.8-2.8 156.7-26.7 181.6-95.3 30.2-83.1-71.5-171.4-86-183.5-126-106.1-345.8-94.1-401.4-18.1-10.1 13.8-18.3 34.5-38.2 38.1-32.2 5.8-54.8-40.1-100.9-69.2-30.4-19.1-80.1-36.8-163.5-26z"/>
    <path class="st1" d="m334.6 872.9c-23.5-80-20.8-170.5-6.7-267.9 51.1-352.7 434-550.1 434-550.1"/>
    <path class="st2"
          d="m557.8 193.2s58.7 73.6 65.1 73.6c1.1-12 123.6-194.7 142.4-212.8-74.7 18.2-207.5 139.2-207.5 139.2z"/>
    <polygon class="st3" points="623 266.8 581.8 203.4 769.4 52.1"/>
    <path class="st3"
          d="m557.8 193.2s164.5-128.4 211.5-141.1c-58.6 13.7-204.8 83-273.8 163.8 24.4-21 51-29.9 62.3-22.7z"/>
    <path class="st3"
          d="m570.1 197s120.8-108 199.2-144.9c-105.3 93.1-157.9 152.9-183.8 227.2-11.4-30.3-15.4-82.3-15.4-82.3z"/>
    <path class="st3"
          d="m769.7 799.2c-8.4-34.5 9.3-73.5 40.7-90 11.5-6 25.4-9.9 32.3-21 5.5-8.7 5.2-19.9 3.2-30-1.3-6.4-3.1-12.8-3.5-19.3-0.3-6.5 1.1-13.5 5.5-18.3 7.4-8 20.4-7.3 30.7-3.6 10.3 3.6 37.5 29.9 21.9 45.3-3.3 3.3-8.6 5.2-9.9 9.7-1.6 5.7 3.6 11.2 9 13.6s11.7 3.2 16.5 6.7c9.8 7.3 8.3 23.9-0.8 32.2-9 8.3-22.6 9.7-34.7 7.6-9.8-1.6-20.9-5-29.1 0.7-4.3 2.9-6.8 7.8-8.3 12.8-4 12.7-2.7 26.6-5.7 39.6s-13 26.4-26.3 25.8"/>
    <path class="st3" d="m780.4 801.6c4.8-22 11.7-43.9 24.1-62.7 12.5-18.8 31.1-34.2 53.1-39"/>
    <path class="st3" d="m789.7 804.9c4.2-16.9 16.4-31.6 32.3-38.8"/>
    <path class="st3"
          d="m850.6 849.7c-1.3-9-2.6-18.1-1.4-27.1s5.4-18 12.9-23.1c6.8-4.6 15.3-5.5 23.3-6.8 8-1.4 16.6-3.7 21.7-10.1 8.9-11.2 3-29.4 11.9-40.7 6-7.7 16.8-9.5 26.6-9.5 5.7 0 11.5 0.4 16.9 2.4s10.3 5.6 12.8 10.8c4.3 8.8 0.4 19.8-6.9 26.3-5 4.5-11.5 7.5-15.5 12.9-5.9 8.2-4.5 19.4-2 29.2s5.9 20 3.1 29.7c-2.8 9.6-11.3 16.7-20.7 20s-19.7 3.3-29.6 2.5c-12.4-1-24.7-3.1-36.7-6.4"/>
    <path class="st4"
          d="m855.7 851.9c-0.3-11.1 6.2-21.4 14.5-28.8s18.3-12.5 27.7-18.3 18.7-12.7 24.1-22.4c6.1-10.8 6.7-23.7 6.9-36.1"/>
    <path class="st4"
          d="m861.5 855.1c2.8-10.2 12.1-17.2 21.7-21.6 9.6-4.3 20.1-6.8 29.2-12 9.2-5.2 17.3-14.2 17.2-24.8"/>
    <path class="st4" d="m860.6 859.4c7.2-6.3 17.2-8.1 26.7-8.5s19.2 0.2 28.5-2.1c9.2-2.4 18.3-8.6 20.5-17.9"/>
    <path class="st2"
          d="m824.4 935.4c3.5-8.5 14.5-11.9 23.4-9.6s16.1 8.6 22.7 15.1 13.1 13.3 21.5 17c7.3 3.2 15.5 3.7 23.4 3.9 9.3 0.3 19.5 0 26.7-5.9 7.9-6.5 9.9-17.8 10.5-28 0.2-3.9 0.3-7.9-0.6-11.7s-3-7.5-6.3-9.5c-4.6-2.9-10.6-2.2-16-1.9-5.5 0.3-11.8-0.3-15-4.7-2.5-3.3-2.4-7.8-4-11.6-3.5-8.5-14.6-11.6-23.4-9.1s-15.9 9-22.3 15.6"/>
    <path class="st5" d="m859.7 904.7c7.6-7.3 19.8-9.4 29.4-5.1 5.3 2.4 9.6 6.3 14.5 9.4s10.9 5.2 16.4 3.4"/>
    <path class="st5" d="m851.5 913.1c11.1-3.3 23.4-2.3 33.8 2.8 6.3 3.1 11.8 7.6 18 11s13.4 5.7 20.2 3.8"/>
    <path class="st5"
          d="m847.2 919.2c7.8-0.4 15.3 3.4 21.6 8.1 6.3 4.6 11.9 10.2 18.7 14.2 12.1 7.2 27.4 8.6 40.7 3.8"/>
    <path class="st3"
          d="m234.7 914c30.4 60.9 75.6 60.1 125.2 98.2 24.8 19 59 53.1 50.6 87.9-3.7 15.4-17.5 26-31.1 32.8-20.3 10.1-41.6 13-59.3 28.6-17.3 15.1-27.7 40.5-18.5 61.4 8.6 19.6 30.9 29.4 52 34.1 46.8 10.4 91.6 25.4 138.7 35.3 48.3 10.1 97.3 17.4 146.6 20.3 93.6 5.4 191-5 275-48.9 182.2-126.5-68.9-243-191.2-262.4-12.3-2.4-27.9-8.1-27.1-20.5 21.2-54.1 169 0.2 182.2-90-2.2-175.9-705-171.8-643.1 23.2z"/>
    <path class="st2"
          d="m733.4 1016.6c0-1.2 1.4-2.4 3-3.6-3.8-0.9-6.9-1.9-8-3.2-3-3.7-16.5 16-16.5 16s3.5 3.4 8.7 8.5c6.4-3.5 10.5-10 12.8-17.7z"/>
    <path class="st2"
          d="m785.3 1079.5c-1.8-7.8-22-59.2-28.9-62.1-0.8-0.3-1.8-0.7-3-1 13.1 20.8 21.4 44.7 29.7 67.8 0 0.1 0 0.2 0.1 0.3 1.8-1 2.6-2.8 2.1-5z"/>
    <path class="st3"
          d="m753.5 1016.5c-4.8-1.3-11.7-2.2-17.1-3.5-1.6 1.2-3 2.4-3 3.6-2.3 7.7-6.4 14.2-12.7 17.7 11.9 11.7 32.7 32.4 40.2 41.9 7.8 9.8 17.9 11.3 22.3 8.5 0-0.1 0-0.2-0.1-0.3-8.3-23.2-16.6-47.1-29.6-67.9z"/>
    <path class="st3"
          d="m568 737.1s16.3 88.3 14.5 118.4l0.1 20.2s106.8 79.7 154.6 128.4c-9.5 18.4-23.6 26-23.6 26s-174.9-89.8-193.8-126.2-49.6-149.8-50.1-196.9l98.3 30.1z"/>
    <path class="st6" d="m520.6 713.6s-7.4 144.9 53 195.7 143.3 103.7 143.3 103.7"/>
    <path class="st2"
          d="m478.9 764.6s13.5-4.3 21-3.8c7.2 0.4 53.3 8.3 69.7-17.3l-8.5-23.2-91.4-23.3s6.8 64.8 9.2 67.6z"/>
    <path class="st3"
          d="m696.8 713.6c0 0.4 17.7 9.4 25.3 9.1s3 11-7.5 8.2c6.8 6.3 15.1 19.7 15.4 27.5s-10.1 11-15.4 8-27.7-22.5-33.5-47c10.6-5.2 15.7-5.8 15.7-5.8z"/>
    <path class="st7"
          d="m609.1 511.9s8.2 86.5 36.5 127.3c28.4 40.8 51.8 72 51.8 72s3.8 5.4-4.5 11.5c-8.3 6-15.4 4-22.6-2.8-7.2-6.9-69.2-59.7-84.7-112.5l23.5-95.5z"/>
    <path class="st3"
          d="m456.6 686.4c21.3 80.4 71.3 86.9 115.6 55.8 45.8-32.1 19.9-125.8 19.9-125.8l-67.1-15.1-23.9 13.5-59.3 34"/>
    <path class="st2"
          d="m504.9 636.7s17.7-16.1 31.2-16.3 43.7 11.1 56 9.7l3.2 0.6-3.7-18.1s-68.3-16.3-68.3-15.4-21.7 32.6-21.7 33.6 3.3 5.9 3.3 5.9z"/>
    <path class="st3"
          d="m598.1 387.6c-3 12.1-23.4 37.4-23.4 37.4s51.4 12.1 52.8 12.1 43.6-92.7 43.6-92.7l-11.2-9.2s-16.1-5.5-46.3 4.3c-30.1 9.8-34.7 20.6-29.6 28.7 5.1 8.2 9.6 21.5 21.3 21.6 11.7 0.2 16.3-1.2 16.3-1.2"/>
    <path class="st2" d="m595.7 396.3s24-0.8 25.1-7.1c-18.3 5-22.5 0-22.5 0l-2.6 7.1z"/>
    <path class="st2"
          d="m607.2 481.5c11.8-7.9 29.7-9.1 39.5 2.4 11.3 14.8 6.5 35.6 11.7 52.7 21.9 63 61 76.4 123.5 64.4 1.6-45.3-63.1-57.7-63.2-102.3 0.3-13.2 7.9-25.4 8-38.5 0.1-12.6-6.6-24.1-12-35.6-7.5-15.8-12.9-32.6-15.9-49.9-2.4-19.5-8.2-48.4-32.5-48.7-3.6 0.2-7.6 1.8-8.5 5.2-1.2 4.6 3.9 9 3.2 13.7-0.9 6.6-12 8.9-11.4 15.5 0.3 2.5 2.2 4.4 3.2 6.7 3.6 17.4-18.6 18.2-28.7 8.7 0 0 7.1 17.8 4.9 23.1s-30 36.3-30 36.3l8.2 46.3z"/>
    <path class="st7"
          d="m495.6 613.3c17.7-26.6 15.9-66.2 6.2-89.1s-6.6-35-0.5-49.2 63.1-54.6 63.1-54.6 12.6-4.8 22.5-0.4 28.2 5.1 28.2 5.1 3.2 82.8-5.7 120.8-2.7 72.2-19.7 74.5-30.6-8.5-42.9-9.8c-18.9-2-28.9 7.7-36.6 20.4-7.6 12.6-14.6-17.7-14.6-17.7z"/>
    <path class="st3"
          d="m761.9 284s8.3-25 19.1-37.9 21.6-15.8 17.5-7.4-3.4 9.9 3.5 7.3c6.9-2.7 33.5-9.8 31.2 1.2s-16.3 25.4-37.4 25.9c-8.5 0-18.8 17.7-18.8 17.7l-15.1-6.8z"/>
    <path class="st7"
          d="m590.2 482.1s-5.7-7.6-4.5-23.8c1.2-16.1 9.3-28.5 15-30.5s77.6-35.8 104.9-61.7 55.3-86.9 55.3-86.9l20.2 9.6s-29.4 75.5-63.8 111-86.2 89-107.4 92.6"/>
    <path class="st2"
          d="m449.9 894.2c-15.9 13.9-27.9 27.9-39.8 46.8-2.3 3.8-7.5 8.2-12.5 6.9 2.3 5.2 9.7 2.3 13.9-1.7 10-9.5 9.2-18.9 24.6-31.9 12-10.2 16.4-14.3 15.8-22.2-0.5 0.9-1.2 1.6-2 2.1z"/>
    <path class="st3"
          d="m410.1 941c11.9-18.9 23.9-32.8 39.8-46.8 0.8-0.5 1.4-1.2 1.9-2.1-0.2-2.2-0.8-4.8-1.7-7.8-1.5-4.9-2.2-9-2.4-12.3-8.1 2.4-15.8 6.4-25 5.5-1.3 4.2-3.4 9.2-6.7 13.6-8 10.6-13.9 28.6-18.2 46.3-1.2 5-1.1 8.4-0.2 10.4 5 1.4 10.3-3 12.5-6.8z"/>
    <path class="st2" d="m447.7 872c-0.5-6 0.4-9.2 0.4-9.2l-23.4 4.3s-0.2 4.6-2 10.5c9.2 0.7 16.9-3.2 25-5.6z"/>
    <ellipse class="st2" cx="849.1" cy="391" rx="13.8" ry="13.8"/>
    <polygon class="st3" points="945.7 551.5 915.6 594.2 843 543 873.1 500.3 894.4 547.2"/>
    <polygon class="st2" points="945.7 551.5 894.4 547.2 873.1 500.3"/>
    <polygon class="st3" points="284 527.4 190.5 580.4 199.3 518.8 218.4 520.7 226.6 503.3 226.6 503.3"/>
    <polygon class="st3" points="284 527.4 226.6 503.3 246.4 461"/>
    <polygon class="st3" points="199.3 518.8 190.5 580.4 152.9 514"/>
    <polygon class="st3" points="246.4 461 226.6 503.3 226.6 503.3 218.4 520.7 199.3 518.8 152.9 514"/>
    <line class="st4" x1="199.3" x2="199.3" y1="518.8" y2="518.8"/>
    <path class="st1" d="m542.5 1219.7s-146.3-137.3-207.8-346.8"/>
    <rect class="st3" x="537.7" y="1099.1" width="230" height="136.9"/>
    <rect class="st2" x="537.7" y="1236" width="230" height="11.9"/>
    <polygon class="st2" points="658.6 1182.2 537.7 1099.1 767.6 1099.1"/>
    <polygon class="st3" points="658.6 1178.7 537.7 1095.6 767.6 1095.6"/>
    <line class="st3" x1="537.7" x2="625.8" y1="1248" y2="1159.7"/>
    <line class="st3" x1="686.1" x2="767.6" y1="1161.3" y2="1248"/>
    <ellipse class="st3" transform="matrix(.6399 -.7684 .7684 .6399 -757.12 599.07)" cx="260.7" cy="1107.4" rx="39.5"
             ry="28.7"/>
    <ellipse class="st3" transform="matrix(.8858 -.464 .464 .8858 -399.29 591.96)" cx="1003.4" cy="1107.4" rx="13.7"
             ry="18.9"/>
    <path class="st0" d="m877.6 1009.3s54.4 16.5 82.1 57.9"/>
    <path class="st3" d="m514.8 650.2s-26.2-141.9-93.6-100.7-3.5 323.4-3.5 323.4l34.9-6.4s14.6-148 0-203.8"/>
    <path class="st6" d="m435.5 862.7s-27.7-269.3 6.3-270 47.5 126.8 89.3 120.8 20-59.8 24.5-79.5"/>
</svg>
