<?xml version="1.0" encoding="UTF-8" standalone="no"?>
<svg
   width="100%"
   height="100%"
   enable-background="new 0 0 1758.5 1325.7"
   version="1.1"
   viewBox="0 0 1758.5 1325.7"
   xml:space="preserve"
   id="svg336"
   sodipodi:docname="girlpuzzleblue.svg"
   inkscape:version="1.1.1 (3bf5ae0d25, 2021-09-20)"
   xmlns:inkscape="http://www.inkscape.org/namespaces/inkscape"
   xmlns:sodipodi="http://sodipodi.sourceforge.net/DTD/sodipodi-0.dtd"
   xmlns="http://www.w3.org/2000/svg"
   xmlns:svg="http://www.w3.org/2000/svg"><defs
   id="defs340" /><sodipodi:namedview
   id="namedview338"
   pagecolor="#ffffff"
   bordercolor="#666666"
   borderopacity="1.0"
   inkscape:pageshadow="2"
   inkscape:pageopacity="0.0"
   inkscape:pagecheckerboard="0"
   showgrid="false"
   inkscape:zoom="0.65022252"
   inkscape:cx="878.92987"
   inkscape:cy="786.65377"
   inkscape:window-width="1920"
   inkscape:window-height="1051"
   inkscape:window-x="2391"
   inkscape:window-y="-9"
   inkscape:window-maximized="1"
   inkscape:current-layer="svg336" />
<style
   type="text/css"
   id="style2">
	.st0{fill:none;}
	.st1{fill:#FFFFFF;}
	.st2{fill:#1A1A1A;}
	.st3{fill:#5634f7;}
	.st4{fill:#FFA64D;}
</style>

    <path
   class="st0"
   d="m1298 1202c-0.7 0.2-1.4 0.4-2.1 0.5-3.8 0.9-8.4 1.9-14.4 3.1-5 1-10.3 2-16 3-1.5 0.3-3 0.6-4.6 0.9-0.1 6.6-0.4 11.7-0.6 14.3h97.1c-14.6-2.5-28.2-6.8-37.6-13.2-13.6-10.9-16.7-10-21.8-8.6z"
   id="path4" />
    <polygon
   class="st0"
   points="1449.1 819.3 1429.7 781.5 1373.7 891 1412.4 891"
   id="polygon6" />
    <path
   class="st0"
   d="m542 798.3c-16.4-5.3-28.3-20.7-28.3-38.8 0-18.2 11.9-33.5 28.3-38.8-2-0.3-4-0.5-6.1-0.5-21.7 0-39.3 17.6-39.3 39.3s17.6 39.3 39.3 39.3c2.1 0 4.1-0.2 6.1-0.5z"
   id="path8" />
    <polygon
   class="st0"
   points="156.2 1029.4 94.8 1029.4 94.8 1041.5 172.9 1041.5 172.9 963.5 156.2 963.5"
   id="polygon10" />
    <path
   class="st1"
   d="m558.5 116.5c-0.6-0.2-1.1-0.3-1.5-0.2v6.1c0.1 0.8 1 9.5 6.2 12.8 2.5 1.5 5.6 1.6 9.4 0.1 0.6-0.2 1.1-0.4 1.7-0.6-5.8-10.1-11.6-16.8-15.8-18.2z"
   id="path12" />
    <path
   class="st1"
   d="m577.7 208.4c-12.3-8.5-6.5-20.5-2.4-29.2 1.8-3.8 3.6-7.5 3.4-9.8v-0.3c-1.9-0.5-3.9-1.2-6.1-2-3.8-1.5-6.9-1.4-9.4 0.1-5.2 3.2-6.1 12-6.1 12.8v34.3c0 0.3-0.1 0.6-0.3 0.9 4 6.6 6.7 12.7 8.5 18.2 3.9-2.3 8.4-4.3 13.5-5.3 3.2-0.6 6.4-0.9 9.7-0.7l-9.2-18.8c-0.6 0.1-1.2 0.1-1.6-0.2z"
   id="path14" />
    <path
   class="st2"
   d="m557 116.3c0.5 0 1 0 1.5 0.2 4.2 1.4 9.9 8.1 15.7 18.1 1-0.4 2-0.7 2.9-1-6.1-10.8-12.5-18.3-17.6-20-0.9-0.3-1.7-0.4-2.4-0.4v3.1z"
   id="path16" />
    <path
   class="st2"
   d="m565.2 233.4c-1.8-5.5-4.5-11.7-8.5-18.2-0.3 0.4-0.7 0.6-1.2 0.6h-2c4.4 7 7.2 13.6 9 19.4 0.9-0.7 1.8-1.3 2.7-1.8z"
   id="path18" />
    <path
   class="st3"
   d="m576 138c1.4-1.1 2.9-1.5 4.6-1.2 4.1 0.9 8.6 6.1 15.7 18.7 0.2-1.3 0.3-2.8 0.3-4.4-0.1-7.6-1.8-12.3-5-14.5-3.5-2.4-9.3-1.9-17.8 1.4-4.7 1.8-8.8 1.7-12.1-0.4-6.6-4.2-7.5-14.7-7.5-15.1v-0.1-38.6h-34.2c-0.8 0.1-9.5 1-12.8 6.2-1.5 2.5-1.6 5.6-0.1 9.4 3.8 9.6 4.1 16.1 1.1 20.6-2.8 4.1-8.3 6.2-17 6.3-8.7-0.1-14.3-2.2-17.1-6.3-3-4.4-2.6-11 1.1-20.6 1.5-3.8 1.4-6.9-0.1-9.4-3.2-5.1-12-6.1-12.8-6.2h-36.7v38.6 0.1c0 0.4-0.9 11-7.5 15.1-3.3 2.1-7.4 2.2-12.1 0.4-8.5-3.3-14.3-3.8-17.8-1.4-3.2 2.2-4.9 6.9-5 14.5 0.1 7.6 1.8 12.3 5 14.5 3.5 2.4 9.3 1.9 17.8-1.4 4.7-1.8 8.8-1.7 12.1 0.4 6.6 4.2 7.5 14.7 7.5 15.1v0.1 32.8h36.7c0.8-0.1 9.5-1 12.8-6.2 1.5-2.5 1.6-5.6 0.1-9.4-3.7-9.6-4.1-16.2-1.1-20.6 2.8-4.1 8.3-6.2 17-6.3h0.1c8.7 0.1 14.2 2.2 17 6.3 3 4.4 2.6 11-1.1 20.6-1.5 3.8-1.4 6.9 0.1 9.4 3.2 5.1 12 6.1 12.8 6.2h34v-32.8-0.1c0-0.4 0.9-11 7.5-15.1 3.3-2.1 7.4-2.2 12.1-0.4 1.6 0.6 3.1 1.1 4.5 1.6-0.5-2.1-1.1-4.4-1.8-6.8-2.4-8.4-5-17.2-0.3-21z"
   id="path20"
   style="fill:#8054D4;fill-opacity:1" />
    <path
   class="st2"
   d="m555.5 215.7c0.5 0 0.9-0.2 1.2-0.6 0.2-0.3 0.3-0.6 0.3-0.9v-34.3c0.1-0.8 1-9.5 6.1-12.8 2.5-1.5 5.6-1.6 9.4-0.1 2.2 0.9 4.2 1.5 6.1 2-0.1-1-0.3-2.1-0.6-3.3-1.4-0.4-2.9-0.9-4.5-1.6-4.7-1.8-8.8-1.7-12.1 0.4-6.6 4.2-7.5 14.7-7.5 15.1v0.1 32.8h-34.2c-0.8-0.1-9.5-1-12.8-6.2-1.5-2.5-1.6-5.6-0.1-9.4 3.8-9.6 4.1-16.1 1.1-20.6-2.8-4.1-8.3-6.2-17-6.3h-0.1c-8.7 0.1-14.2 2.2-17 6.3-3 4.4-2.6 11 1.1 20.6 1.5 3.8 1.4 6.9-0.1 9.4-3.2 5.2-12 6.1-12.8 6.2h-36.7v-32.8-0.1c0-0.4-0.9-11-7.5-15.1-3.3-2.1-7.4-2.2-12.1-0.4-8.5 3.3-14.3 3.8-17.8 1.4-3.2-2.2-4.9-6.9-5-14.5 0.1-7.6 1.8-12.4 5-14.5 3.5-2.4 9.3-1.9 17.8 1.4 4.7 1.8 8.8 1.7 12.1-0.4 6.6-4.2 7.5-14.7 7.5-15.1v-0.1-38.5h36.7c0.8 0.1 9.6 1 12.8 6.2 1.5 2.5 1.6 5.6 0.1 9.4-3.7 9.6-4.1 16.2-1.1 20.6 2.8 4.1 8.3 6.2 17.1 6.3 8.7-0.2 14.2-2.2 17-6.3 3-4.4 2.6-11-1.1-20.6-1.5-3.8-1.4-6.9 0.1-9.4 3.2-5.1 12-6.1 12.8-6.2h34.3v38.6 0.1c0 0.4 0.9 11 7.5 15.1 3.3 2.1 7.4 2.2 12.1 0.4 8.5-3.3 14.3-3.8 17.8-1.4 3.2 2.2 4.9 6.9 5 14.5 0 1.6-0.1 3-0.3 4.4 0.7 1.3 1.5 2.7 2.3 4.2 0.6-2.4 0.9-5.3 1-8.5-0.1-8.7-2.2-14.2-6.3-17-3.7-2.5-8.9-2.6-16.1-0.5-0.9 0.3-1.9 0.6-2.9 1-0.5 0.2-1.1 0.4-1.7 0.6-3.8 1.5-6.9 1.4-9.4-0.1-5.1-3.2-6.1-12-6.2-12.8v-40.1c0-0.8-0.7-1.5-1.5-1.5h-35.7-0.1c-0.4 0-11 0.9-15.1 7.5-2.1 3.3-2.2 7.4-0.4 12.1 3.3 8.5 3.8 14.3 1.4 17.8-2.2 3.2-6.9 4.9-14.5 5-7.6-0.1-12.4-1.8-14.6-5-2.4-3.5-1.9-9.3 1.4-17.8 1.8-4.7 1.7-8.8-0.4-12.1-4.2-6.6-14.7-7.5-15.1-7.6h-0.1-38.3c-0.8 0-1.5 0.7-1.5 1.5v40.1c-0.1 0.8-1 9.5-6.2 12.8-2.5 1.5-5.6 1.6-9.4 0.1-9.6-3.7-16.2-4.1-20.6-1.1-4.1 2.8-6.2 8.3-6.3 17 0.1 8.7 2.2 14.2 6.3 17 4.4 3 11 2.6 20.6-1.1 3.8-1.5 6.9-1.4 9.4 0.1 5.1 3.2 6.1 12 6.2 12.8v34.3c0 0.8 0.7 1.5 1.5 1.5h38.3 0.1c0.4 0 11-0.9 15.1-7.6 2.1-3.3 2.2-7.4 0.4-12.1-3.3-8.5-3.8-14.3-1.4-17.8 2.2-3.2 6.9-4.9 14.5-5 7.6 0.1 12.4 1.8 14.5 5 2.4 3.5 1.9 9.3-1.4 17.8-1.8 4.7-1.7 8.8 0.4 12.1 4.2 6.6 14.7 7.5 15.1 7.5h0.1 36z"
   id="path22" />
    <path
   class="st1"
   d="m602.8 174.5c-8.7-17.4-17.4-33.6-22.9-34.7-0.8-0.2-1.4 0-2.1 0.5-3.1 2.5-0.6 11.1 1.3 17.9 1.2 4 2.3 7.9 2.5 10.9 0.3 3.2-1.6 7-3.7 11.3-4.1 8.6-8.8 18.4 1.4 25.5 0.7 0.5 0.8 1.4 0.4 2.1-0.2 0.2-0.4 0.4-0.6 0.5l9.2 18.8c5.2 0.2 10.6 1.4 16.1 3.6 3.4-17.3 5.9-41.4-1.6-56.4z"
   id="path24" />
    <path
   class="st2"
   d="m596.2 155.5c-7.1-12.6-11.6-17.8-15.7-18.7-1.6-0.4-3.2 0-4.6 1.2-4.6 3.8-2.1 12.6 0.3 21.1 0.7 2.4 1.3 4.7 1.8 6.8 0.3 1.2 0.5 2.3 0.6 3.3v0.3c0.2 2.4-1.5 6-3.4 9.8-4.2 8.7-9.9 20.7 2.4 29.2 0.5 0.3 1 0.3 1.5 0.1 0.2-0.1 0.4-0.3 0.6-0.5 0.5-0.7 0.3-1.6-0.4-2.1-10.2-7.1-5.5-16.8-1.4-25.5 2.1-4.4 3.9-8.2 3.7-11.3-0.2-3-1.3-6.8-2.5-10.9-2-6.9-4.4-15.4-1.3-17.9 0.7-0.5 1.3-0.7 2.1-0.5 5.4 1.2 14.2 17.4 22.9 34.7 7.5 15 5 39.1 1.7 56.4 1 0.4 1.9 0.8 2.9 1.2 3.5-17.8 6.2-43-1.9-59-2.6-5.1-4.9-9.6-7-13.5-0.8-1.5-1.6-2.9-2.3-4.2z"
   id="path26" />
    <path
   class="st4"
   d="m164.4 1227.8h538.6c0-0.3 0.1-0.7 0.1-1h-538.7v1z"
   id="path28" />
    <path
   d="m1166 1116.1c-5.6-26.8-15.6-52.1-29.1-74.9 3.4 28.8 6.3 52.7 8.1 68.3 7.3 2.2 14.3 4.4 21 6.6z"
   id="path30" />
    <path
   d="m1022.5 1075c-16.7-25.9-31.8-55.8-45.2-86.9-24.9 14.4-70.1 39.5-121.4 62.5 55.8 1.8 113.2 11.8 166.6 24.4z"
   id="path32" />
    <path
   d="m468.2 1222.1h203.8c-2.4-0.3-4.7-0.7-7.1-1.1-35-5.5-82.1-17.5-108.3-43.4-13.5-13.3-20.3-29.3-20.3-47.3 0-19.5 13-48.7 38.7-87.4-59.1 39.5-100.3 104.4-106.8 179.2z"
   id="path34" />
    <path
   d="m1136.6 1038.8 0.3 2.4c13.5 22.9 23.5 48.1 29.1 74.9 1.1 0.4 2.2 0.7 3.3 1.1-5.6-27.8-15.8-54.3-30.3-78.5-0.8 0-1.6 0-2.4 0.1z"
   id="path36" />
    <path
   d="m672 1222.1h-203.8c6.5-74.8 47.7-139.7 106.8-179.1 1.5-2.3 3.1-4.7 4.8-7.1-13.3 8.2-25.9 17.8-37.6 28.7-44.9 41.6-72.3 98.1-77.1 158.9v0.3h220.4c-4.3-0.5-8.9-1.1-13.5-1.7z"
   id="path38" />
    <path
   d="m1279.4 1202.9v-0.2c0-0.3-0.1-0.5-0.2-0.8s-0.1-0.6-0.2-0.9-0.1-0.5-0.2-0.8-0.2-0.6-0.2-0.9c-0.1-0.3-0.2-0.5-0.2-0.8l-0.3-0.9c-0.1-0.3-0.2-0.5-0.3-0.8l-0.3-0.9c-0.1-0.3-0.2-0.5-0.3-0.8s-0.2-0.6-0.4-0.9c-0.1-0.2-0.2-0.5-0.3-0.7-0.1-0.3-0.3-0.6-0.4-0.9-0.1-0.2-0.3-0.5-0.4-0.7-0.2-0.3-0.3-0.6-0.5-0.9-0.1-0.2-0.3-0.5-0.4-0.7-0.2-0.3-0.3-0.6-0.5-0.9-0.1-0.2-0.3-0.5-0.4-0.7-0.2-0.3-0.4-0.6-0.5-0.9-0.2-0.2-0.3-0.5-0.5-0.7-0.2-0.3-0.4-0.6-0.6-0.8s-0.3-0.5-0.5-0.7c-0.2-0.3-0.4-0.6-0.6-0.8s-0.3-0.5-0.5-0.7c-0.2-0.3-0.4-0.6-0.6-0.8s-0.4-0.5-0.5-0.7c-0.2-0.3-0.5-0.6-0.7-0.8s-0.4-0.5-0.6-0.7c-0.2-0.3-0.5-0.6-0.7-0.8s-0.4-0.5-0.6-0.7c-0.2-0.3-0.5-0.5-0.7-0.8-0.2-0.2-0.4-0.4-0.6-0.7-0.3-0.3-0.5-0.6-0.8-0.8-0.2-0.2-0.4-0.4-0.6-0.7-0.3-0.3-0.5-0.6-0.8-0.8l-0.6-0.6c-0.3-0.3-0.5-0.6-0.8-0.8l-0.6-0.6c-0.3-0.3-0.6-0.6-0.9-0.8l-0.6-0.6c-0.3-0.3-0.6-0.6-0.9-0.8l-0.6-0.6c-0.2-0.2-0.5-0.4-0.7-0.7 2.6 12.2 3.3 25.5 3.3 36 1.3-0.3 2.7-0.5 4-0.8 4.9-0.8 9.8-1.7 14.3-2.6z"
   id="path40" />
    <path
   d="m1281.4 1205.6c-0.4 0.1-0.8 0-1.2-0.3-0.3-0.2-0.6-0.6-0.6-1-0.1-0.5-0.1-0.9-0.2-1.4-4.6 0.9-9.4 1.8-14.5 2.8-1.3 0.2-2.6 0.5-4 0.8v3.1c1.5-0.3 3.1-0.6 4.6-0.9 5.6-1.1 10.9-2.1 15.9-3.1z"
   id="path42" />
    <path
   d="m1272.8 1187.5c0.2 0.2 0.3 0.5 0.5 0.7-0.1-0.3-0.3-0.5-0.5-0.7z"
   id="path44" />
    <path
   d="m1266.9 1179.8c0.2 0.2 0.4 0.4 0.6 0.7-0.2-0.2-0.4-0.4-0.6-0.7z"
   id="path46" />
    <path
   d="m1269.5 1182.9c0.2 0.2 0.4 0.5 0.5 0.7-0.2-0.3-0.4-0.5-0.5-0.7z"
   id="path48" />
    <path
   d="m1265.6 1178.4c0.2 0.2 0.4 0.4 0.6 0.7-0.2-0.3-0.4-0.5-0.6-0.7z"
   id="path50" />
    <path
   d="m1270.6 1184.4c0.2 0.2 0.3 0.5 0.5 0.7-0.1-0.3-0.3-0.5-0.5-0.7z"
   id="path52" />
    <path
   d="m1271.8 1185.9c0.2 0.2 0.3 0.5 0.5 0.7-0.2-0.2-0.4-0.5-0.5-0.7z"
   id="path54" />
    <path
   d="m1268.2 1181.3c0.2 0.2 0.4 0.4 0.6 0.7-0.2-0.2-0.4-0.4-0.6-0.7z"
   id="path56" />
    <path
   d="m1259.9 1172.5 0.6 0.6-0.6-0.6z"
   id="path58" />
    <path
   d="m1258.4 1171.1 0.6 0.6-0.6-0.6z"
   id="path60" />
    <path
   d="m1261.4 1174 0.6 0.6-0.6-0.6z"
   id="path62" />
    <path
   d="m1262.8 1175.4 0.6 0.6-0.6-0.6z"
   id="path64" />
    <path
   d="m1264.2 1176.9c0.2 0.2 0.4 0.4 0.6 0.7-0.2-0.3-0.4-0.5-0.6-0.7z"
   id="path66" />
    <path
   d="m1273.9 1189c0.1 0.2 0.3 0.5 0.4 0.7-0.2-0.2-0.3-0.4-0.4-0.7z"
   id="path68" />
    <path
   d="m1277.2 1195.4c0.1 0.3 0.2 0.5 0.3 0.8-0.1-0.3-0.2-0.6-0.3-0.8z"
   id="path70" />
    <path
   d="m1277.8 1197c0.1 0.3 0.2 0.5 0.3 0.8-0.1-0.3-0.2-0.5-0.3-0.8z"
   id="path72" />
    <path
   d="m1278.4 1198.6c0.1 0.3 0.2 0.5 0.2 0.8 0-0.2-0.1-0.5-0.2-0.8z"
   id="path74" />
    <path
   d="m1278.9 1200.3c0.1 0.3 0.1 0.5 0.2 0.8-0.1-0.3-0.2-0.6-0.2-0.8z"
   id="path76" />
    <path
   d="m1279.3 1202c0.1 0.3 0.1 0.5 0.2 0.8-0.1-0.3-0.2-0.6-0.2-0.8z"
   id="path78" />
    <path
   d="m1276.5 1193.8c0.1 0.2 0.2 0.5 0.3 0.7-0.1-0.2-0.2-0.5-0.3-0.7z"
   id="path80" />
    <path
   d="m1274.8 1190.6c0.1 0.2 0.3 0.5 0.4 0.7-0.1-0.2-0.3-0.5-0.4-0.7z"
   id="path82" />
    <path
   d="m1275.7 1192.2c0.1 0.2 0.3 0.5 0.4 0.7-0.2-0.2-0.3-0.5-0.4-0.7z"
   id="path84" />
    <path
   d="m1426.8 1184.8c-10.2-6.8-23.6-14.5-35.4-21.4-11.9-6.9-22.1-12.9-27.1-16.6-5.3-3.9-10.1-9.3-14.8-14.6-9.7-10.8-18.8-21.1-30.4-16.4l4 4c0.6 0.6 1.3 1.2 1.9 1.9l1.4 1.4c0.6 0.6 1.2 1.2 1.9 1.8l1.5 1.5c0.6 0.6 1.2 1.2 1.9 1.8 0.5 0.5 1 1 1.6 1.5l1.8 1.8c0.5 0.5 1.1 1 1.6 1.5l1.8 1.8c0.5 0.5 1.1 1 1.6 1.5 0.6 0.6 1.2 1.2 1.9 1.7 0.6 0.5 1.1 1 1.7 1.6s1.2 1.1 1.9 1.7c0.6 0.5 1.1 1 1.7 1.6s1.2 1.1 1.9 1.7c0.6 0.5 1.2 1 1.7 1.6 0.6 0.6 1.3 1.1 1.9 1.7 0.6 0.5 1.2 1 1.8 1.6s1.3 1.1 1.9 1.7c0.6 0.5 1.2 1 1.8 1.6 0.6 0.5 1.3 1.1 1.9 1.6s1.2 1 1.9 1.6c0.6 0.5 1.3 1.1 1.9 1.6s1.3 1.1 1.9 1.6 1.2 1 1.9 1.5 1.3 1.1 2 1.6l1.8 1.5c0.7 0.5 1.4 1.1 2.1 1.6 0.6 0.5 1.2 0.9 1.8 1.4 0.7 0.6 1.5 1.1 2.2 1.7 0.6 0.4 1.2 0.9 1.7 1.3l2.4 1.8c0.5 0.4 1.1 0.8 1.6 1.2l3 2.1c0.3 0.2 0.7 0.5 1 0.7 1.3 0.9 2.7 1.9 4.1 2.8 0.3 0.2 0.7 0.5 1 0.7 1 0.7 2.1 1.4 3.1 2.1 0.5 0.3 1 0.6 1.5 1 0.9 0.6 1.8 1.1 2.7 1.7 0.5 0.3 1.1 0.7 1.7 1 0.8 0.5 1.7 1.1 2.5 1.6 0.6 0.4 1.2 0.7 1.7 1 0.8 0.5 1.7 1 2.5 1.5 0.6 0.3 1.2 0.7 1.8 1 0.8 0.5 1.7 0.9 2.5 1.4 0.6 0.3 1.2 0.7 1.9 1 0.8 0.4 1.6 0.9 2.5 1.3 0.6 0.3 1.3 0.7 1.9 1 0.8 0.4 1.6 0.9 2.5 1.3 0.6 0.3 1.3 0.6 1.9 1 0.8 0.4 1.6 0.8 2.5 1.2 0.7 0.3 1.3 0.6 2 0.9 0.8 0.4 1.6 0.8 2.5 1.1 0.7 0.3 1.3 0.6 2 0.9 0.8 0.4 1.6 0.7 2.5 1.1 0.7 0.3 1.4 0.6 2 0.8 0.8 0.3 1.7 0.7 2.5 1 0.7 0.3 1.4 0.5 2.1 0.8 0.6 0.2 1.2 0.4 1.8 0.7 0.6-1.9 0.9-3.9 0.9-6.1-0.3-1.1-1.9-4.5-17.2-14.6z"
   id="path86" />
    <path
   d="m1317.6 1114.4 1.5 1.5c11.6-4.7 20.8 5.6 30.4 16.4 4.7 5.3 9.5 10.7 14.8 14.6 5 3.7 15.3 9.6 27.1 16.6 11.8 6.9 25.1 14.6 35.4 21.4 15.3 10.1 16.9 13.5 16.9 14.5 0 2.2-0.3 4.2-0.9 6.1 0.5 0.2 0.9 0.4 1.4 0.5 0.4 0.1 0.7 0.4 0.9 0.8s0.2 0.8 0 1.2c1.1-2.6 1.7-5.5 1.7-8.6 0-6.6-22.3-20.1-53.8-38.5-11.8-6.9-22-12.8-26.9-16.4-5-3.7-9.8-9-14.4-14.1-10.5-11.8-21.3-23.9-35.9-16.2 0.6-0.4 1.3-0.3 1.8 0.2z"
   id="path88" />
    <path
   d="m1387.3 1175.5c-0.3-0.2-0.7-0.5-1-0.7 0.3 0.3 0.7 0.5 1 0.7z"
   id="path90" />
    <path
   d="m1392.4 1179c-0.3-0.2-0.7-0.4-1-0.7 0.3 0.3 0.6 0.5 1 0.7z"
   id="path92" />
    <path
   d="m1405.5 1187.4c-0.6-0.3-1.2-0.7-1.7-1 0.6 0.3 1.2 0.7 1.7 1z"
   id="path94" />
    <path
   d="m1379.3 1169.7c-0.6-0.4-1.2-0.9-1.7-1.3 0.5 0.5 1.1 0.9 1.7 1.3z"
   id="path96" />
    <path
   d="m1335 1131.7-1.8-1.8 1.8 1.8z"
   id="path98" />
    <path
   d="m1431.9 1201.1c-0.7-0.3-1.3-0.6-2-0.9 0.7 0.3 1.3 0.6 2 0.9z"
   id="path100" />
    <path
   d="m1383.3 1172.7c-0.5-0.4-1.1-0.8-1.6-1.2 0.5 0.4 1 0.8 1.6 1.2z"
   id="path102" />
    <path
   d="m1397 1182.1c-0.5-0.3-1-0.6-1.5-1 0.5 0.3 1 0.6 1.5 1z"
   id="path104" />
    <path
   d="m1324.9 1121.8-1.9-1.9 1.9 1.9z"
   id="path106" />
    <path
   d="m1401.3 1184.8c-0.5-0.3-1.1-0.7-1.7-1 0.6 0.3 1.1 0.7 1.7 1z"
   id="path108" />
    <path
   d="m1409.8 1189.9c-0.6-0.3-1.2-0.7-1.8-1 0.6 0.3 1.2 0.7 1.8 1z"
   id="path110" />
    <path
   d="m1345.5 1141.5c-0.6-0.6-1.2-1.1-1.9-1.7 0.7 0.6 1.3 1.1 1.9 1.7z"
   id="path112" />
    <path
   d="m1321.7 1118.5-1.9-1.9c0.6 0.7 1.2 1.3 1.9 1.9z"
   id="path114" />
    <path
   d="m1441 1204.8c-0.7-0.3-1.4-0.5-2.1-0.8 0.7 0.3 1.4 0.5 2.1 0.8z"
   id="path116" />
    <path
   d="m1331.6 1128.4c-0.6-0.6-1.2-1.2-1.9-1.8 0.7 0.6 1.3 1.2 1.9 1.8z"
   id="path118" />
    <path
   d="m1427.4 1199c-0.7-0.3-1.3-0.6-2-0.9 0.7 0.3 1.4 0.6 2 0.9z"
   id="path120" />
    <path
   d="m1328.2 1125.1c-0.6-0.6-1.2-1.2-1.9-1.8 0.7 0.6 1.3 1.2 1.9 1.8z"
   id="path122" />
    <path
   d="m1436.4 1203c-0.7-0.3-1.4-0.6-2-0.8 0.7 0.2 1.3 0.5 2 0.8z"
   id="path124" />
    <path
   d="m1360.1 1154.4c-0.6-0.5-1.3-1.1-1.9-1.6 0.6 0.5 1.3 1.1 1.9 1.6z"
   id="path126" />
    <path
   d="m1363.8 1157.5c-0.6-0.5-1.3-1.1-1.9-1.6 0.7 0.6 1.3 1.1 1.9 1.6z"
   id="path128" />
    <path
   d="m1342 1138.2c-0.6-0.6-1.2-1.2-1.9-1.7 0.6 0.6 1.2 1.1 1.9 1.7z"
   id="path130" />
    <path
   d="m1349.1 1144.8c-0.6-0.6-1.2-1.1-1.9-1.7 0.6 0.5 1.3 1.1 1.9 1.7z"
   id="path132" />
    <path
   d="m1352.7 1148c-0.6-0.6-1.3-1.1-1.9-1.7 0.6 0.6 1.3 1.1 1.9 1.7z"
   id="path134" />
    <path
   d="m1367.6 1160.7c-0.6-0.5-1.2-1-1.9-1.5 0.7 0.4 1.3 1 1.9 1.5z"
   id="path136" />
    <path
   d="m1356.4 1151.2c-0.6-0.5-1.3-1.1-1.9-1.7 0.6 0.6 1.2 1.2 1.9 1.7z"
   id="path138" />
    <path
   d="m1418.6 1194.7c-0.6-0.3-1.3-0.7-1.9-1 0.6 0.3 1.2 0.6 1.9 1z"
   id="path140" />
    <path
   d="m1414.2 1192.3c-0.6-0.3-1.2-0.7-1.9-1 0.6 0.4 1.3 0.7 1.9 1z"
   id="path142" />
    <path
   d="m1338.5 1134.9-1.8-1.8c0.5 0.7 1.1 1.3 1.8 1.8z"
   id="path144" />
    <path
   d="m1375.4 1166.8c-0.6-0.5-1.2-0.9-1.8-1.4 0.6 0.4 1.2 0.9 1.8 1.4z"
   id="path146" />
    <path
   d="m1423 1196.9c-0.6-0.3-1.3-0.6-1.9-1 0.6 0.4 1.2 0.7 1.9 1z"
   id="path148" />
    <path
   d="m1371.5 1163.7-1.8-1.5c0.6 0.6 1.2 1 1.8 1.5z"
   id="path150" />
    <path
   class="st3"
   d="m1282.4 1202.3c5.3-1 9.3-1.9 12.8-2.7 0.7-0.2 1.4-0.4 2-0.5 1.9-0.5 3.6-0.9 5.4-0.9 4.2 0 9.1 2.2 19.1 10 18.4 12.6 53.9 16.7 81 15.2 21.1-1.2 34.2-6.3 38.9-15-49.3-18.3-91-56.1-125.3-90.9-3 1.8-6.2 4.8-9.5 8.7-14.6 17.6-37.7 23-56.1 24.3 2.5 4.3 4.4 9.4 5.8 14.8 12.4 11 23.5 23.3 25.9 37z"
   id="path152" />
    <path
   class="st2"
   d="m1250.6 1150.4c18.5-1.3 41.6-6.8 56.1-24.3 3.3-4 6.5-6.9 9.5-8.7 34.4 34.8 76.1 72.6 125.3 90.9-4.8 8.8-17.8 13.8-38.9 15-27.1 1.5-62.7-2.6-81-15.2-9.9-7.8-14.8-10-19.1-10-1.8 0-3.5 0.4-5.4 0.9-0.6 0.2-1.3 0.4-2 0.5-3.4 0.8-7.5 1.7-12.8 2.7-2.4-13.8-13.5-26-26-37 0.5 1.7 0.9 3.4 1.2 5.2 0.2 0.2 0.5 0.4 0.7 0.7l0.6 0.6c0.3 0.3 0.6 0.6 0.9 0.8l0.6 0.6c0.3 0.3 0.6 0.6 0.9 0.8l2 2c0.3 0.3 0.5 0.6 0.8 0.8 0.2 0.2 0.4 0.4 0.6 0.7l0.8 0.8c0.2 0.2 0.4 0.4 0.6 0.7s0.5 0.5 0.7 0.8c0.2 0.2 0.4 0.4 0.6 0.7s0.5 0.6 0.7 0.8 0.4 0.4 0.6 0.7 0.5 0.6 0.7 0.8 0.4 0.5 0.5 0.7c0.2 0.3 0.4 0.6 0.6 0.8s0.3 0.5 0.5 0.7c0.2 0.3 0.4 0.6 0.6 0.8s0.3 0.5 0.5 0.7c0.2 0.3 0.4 0.6 0.6 0.8s0.3 0.5 0.5 0.7c0.2 0.3 0.4 0.6 0.5 0.9 0.1 0.2 0.3 0.5 0.4 0.7 0.2 0.3 0.3 0.6 0.5 0.9 0.1 0.2 0.3 0.5 0.4 0.7 0.2 0.3 0.3 0.6 0.5 0.9 0.1 0.2 0.3 0.5 0.4 0.7 0.1 0.3 0.3 0.6 0.4 0.9 0.1 0.2 0.2 0.5 0.3 0.7 0.1 0.3 0.3 0.6 0.4 0.9s0.2 0.5 0.3 0.8l0.3 0.9c0.1 0.3 0.2 0.5 0.3 0.8l0.3 0.9c0.1 0.3 0.2 0.5 0.2 0.8 0.1 0.3 0.2 0.6 0.2 0.9 0.1 0.3 0.1 0.5 0.2 0.8s0.1 0.6 0.2 0.9 0.1 0.5 0.2 0.8v0.2c0.1 0.5 0.2 0.9 0.2 1.4 0.1 0.4 0.3 0.8 0.6 1s0.8 0.3 1.2 0.3c6-1.2 10.6-2.2 14.4-3.1 0.8-0.2 1.5-0.4 2.1-0.5 5.1-1.4 8.2-2.2 21.9 8.6 9.4 6.4 22.9 10.7 37.6 13.2h64.2c12.5-2.9 20.2-8.1 23.4-15.8 0.2-0.4 0.2-0.8 0-1.2s-0.5-0.7-0.9-0.8c-0.5-0.2-0.9-0.4-1.4-0.5-0.6-0.2-1.2-0.4-1.8-0.7-0.7-0.3-1.4-0.5-2.1-0.8-0.8-0.3-1.7-0.7-2.5-1-0.7-0.3-1.4-0.6-2-0.8-0.8-0.4-1.7-0.7-2.5-1.1-0.7-0.3-1.3-0.6-2-0.9-0.8-0.4-1.7-0.8-2.5-1.1-0.7-0.3-1.3-0.6-2-0.9-0.8-0.4-1.6-0.8-2.5-1.2-0.6-0.3-1.3-0.6-1.9-1-0.8-0.4-1.6-0.8-2.5-1.3-0.6-0.3-1.3-0.7-1.9-1-0.8-0.4-1.6-0.9-2.5-1.3-0.6-0.3-1.2-0.7-1.9-1-0.8-0.5-1.7-0.9-2.5-1.4-0.6-0.3-1.2-0.7-1.8-1-0.8-0.5-1.7-1-2.5-1.5-0.6-0.3-1.2-0.7-1.7-1-0.9-0.5-1.7-1-2.5-1.6-0.5-0.3-1.1-0.7-1.7-1-0.9-0.6-1.8-1.1-2.7-1.7-0.5-0.3-1-0.6-1.5-1-1-0.7-2.1-1.4-3.1-2.1-0.3-0.2-0.7-0.4-1-0.7-1.4-0.9-2.7-1.9-4.1-2.8-0.3-0.2-0.7-0.5-1-0.7l-3-2.1c-0.5-0.4-1.1-0.8-1.6-1.2l-2.4-1.8c-0.6-0.4-1.2-0.9-1.7-1.3-0.7-0.6-1.5-1.1-2.2-1.7-0.6-0.5-1.2-0.9-1.8-1.4-0.7-0.5-1.4-1.1-2.1-1.6l-1.8-1.5c-0.7-0.5-1.3-1.1-2-1.6-0.6-0.5-1.2-1-1.9-1.5-0.6-0.5-1.3-1.1-1.9-1.6s-1.3-1.1-1.9-1.6-1.2-1-1.9-1.6c-0.6-0.5-1.3-1.1-1.9-1.6s-1.2-1-1.8-1.6c-0.6-0.5-1.3-1.1-1.9-1.7-0.6-0.5-1.2-1-1.8-1.6s-1.3-1.1-1.9-1.7c-0.6-0.5-1.2-1-1.7-1.6-0.6-0.6-1.2-1.1-1.9-1.7-0.6-0.5-1.1-1-1.7-1.6s-1.2-1.1-1.9-1.7c-0.6-0.5-1.1-1-1.7-1.6s-1.2-1.2-1.9-1.7c-0.5-0.5-1.1-1-1.6-1.5l-1.8-1.8c-0.5-0.5-1.1-1-1.6-1.5l-1.8-1.8c-0.5-0.5-1-1-1.6-1.5-0.6-0.6-1.2-1.2-1.9-1.8l-1.5-1.5c-0.6-0.6-1.2-1.2-1.9-1.8l-8.8-8.8c-0.5-0.5-1.2-0.6-1.8-0.3-3.7 2-7.4 5.2-11.4 10-14.3 17.3-37.5 22.3-55.6 23.4 1.3 1 1.9 1.9 2.5 2.9z"
   id="path154" />
    <path
   class="st1"
   d="m1136.2 1035.9c13-0.6 25.9-3 38.4-7.3 46.2-15.7 76.8-53.7 82-101.6 6.1-56.2-38.2-127.7-76.4-177.7-21.4-28-43.3-52.6-59.6-69.9-5.4 13.2-13.5 22.2-25.4 28.1 8.8 60.4 28.5 223.8 41 328.4z"
   id="path156" />
    <path
   class="st2"
   d="m1120.7 679.4c16.3 17.3 38.2 41.9 59.6 69.9 38.2 50.1 82.5 121.6 76.4 177.7-5.2 47.9-35.8 85.9-82 101.6-12.5 4.3-25.4 6.7-38.4 7.3 0.1 1 0.2 1.9 0.3 2.8 0.8 0 1.7-0.1 2.5-0.1 12.5-0.8 24.8-3.2 36.5-7.1 22.6-7.7 42.2-21 56.8-38.7 15.2-18.3 24.6-40.9 27.2-65.4 2.7-25.3-4.2-55.6-20.5-90.1-13-27.5-32-57.7-56.5-89.8-21.9-28.7-44.3-53.8-60.7-71.2-0.4 1-0.8 2.1-1.2 3.1z"
   id="path158" />
    <path
   class="st1"
   d="m721.7 1068.2c-0.3-0.8 0.2-1.7 1-1.9 38.9-12.4 82-16.8 126.3-15.9 53.8-23.8 101.5-50.2 127.2-65.1-16.9-39.6-31.1-80.9-42.4-117.7-16.1-52.4-28.3-102.5-36.5-141.9-8.7 0.8-17.7 1.7-27.1 2.8h-0.2-0.3c-2.9-0.7-5.8-1.6-8.7-2.9-21.1 20.6-89.8 88.3-157.7 163.5-106.8 118.3-163.4 201.5-163.9 240.7l182.3-61.6z"
   id="path160" />
    <path
   class="st2"
   d="m855.9 1050.6c51.3-23 96.5-48.1 121.4-62.5-0.4-0.9-0.8-1.9-1.2-2.8-25.7 14.9-73.5 41.3-127.2 65.1 2.3 0.1 4.6 0.1 7 0.2z"
   id="path162" />
    <path
   class="st2"
   d="m575 1043c-25.7 38.7-38.7 67.9-38.7 87.4 0-0.8 0.7-1.5 1.5-1.5 0.7 0 1.2 0.4 1.4 1h0.1c0.5-39.2 57.1-122.4 163.9-240.7 67.9-75.2 136.6-143 157.7-163.5-1-0.4-1.9-0.9-2.9-1.4-22 21.5-89.9 88.5-157.1 162.9-31.1 34.5-57.9 65.7-80.2 93.8-15.9 20-29.6 38.3-41 55-1.5 2.3-3.1 4.7-4.7 7z"
   id="path164" />
    <path
   class="st1"
   d="m1233 1139.7c-12.8-3.1-31.9-9.2-56-17-9.8-3.1-20.4-6.5-31.6-10.1 1.1 9.6 1.8 15.4 1.9 16 0.1 0.5 0.3 2.9-2 5.3l3.7 15.2 14.7 61.4 3.2 13.2h90.6c0.6-10.5 4.1-78.4-24.5-84z"
   id="path166" />
    <path
   class="st1"
   d="m539.3 1130.4c0 17.2 6.5 32.4 19.4 45.1 49 48.6 175 48.2 176.3 48.3h202.1c0.1-2.2 0.4-7.1 2-13.2 4.1-15.6 17.5-42.9 62-51 50.8-9.3 69.5-9.4 75.3-9l-2.2-9.9-1.7-7.4c-0.2 0-0.4-0.1-0.6-0.1-0.2-0.1-0.5-0.2-0.6-0.3-16.6-13.7-32.1-32.4-46.5-54.1-98.3-23.5-211.1-38.3-301.3-9.5-0.8 0.3-1.6-0.2-1.9-0.9l-182.3 61.6h-0.1c0.1 0 0.1 0.2 0.1 0.4z"
   id="path168" />
    <path
   class="st2"
   d="m734.7 1226.8h-0.2 0.2z"
   id="path170" />
    <path
   class="st2"
   d="m1022.5 1075c-53.3-12.6-110.8-22.6-166.6-24.4-2.3-0.1-4.6-0.1-7-0.2-44.3-0.9-87.3 3.5-126.3 15.9-0.8 0.3-1.2 1.1-1 1.9 0.3 0.8 1.1 1.2 1.9 0.9 90.2-28.8 203-14.1 301.3 9.5-0.7-1.2-1.5-2.4-2.3-3.6z"
   id="path172" />
    <path
   class="st2"
   d="m1166 1116.1c-6.7-2.2-13.7-4.4-21-6.7 0.1 1.1 0.3 2.2 0.4 3.3 11.2 3.5 21.8 6.9 31.6 10.1 24.1 7.7 43.2 13.9 56 17 28.7 5.6 25.1 73.5 24.4 84.1h3c0.2-2.5 0.5-7.7 0.6-14.3v-3.1c0-10.5-0.7-23.8-3.3-36-0.4-1.7-0.8-3.5-1.2-5.2-1.5-5.4-3.4-10.5-5.8-14.8-0.6-1-1.2-2-1.8-2.9-3.8-5.6-8.8-9.5-15.2-10.8-12.7-3-31.7-9.2-55.7-16.9-2.8-0.9-5.6-1.8-8.5-2.7-1.3-0.4-2.4-0.8-3.5-1.1z"
   id="path174" />
    <path
   class="st2"
   d="m735 1223.8c-1.3 0-127.3 0.4-176.3-48.3-12.9-12.8-19.4-28-19.4-45.1 0-0.2 0-0.3-0.1-0.5-0.2-0.6-0.8-1-1.4-1-0.8 0-1.5 0.7-1.5 1.5 0 18 6.8 33.9 20.3 47.3 26.1 25.9 73.3 37.9 108.3 43.4 2.4 0.4 4.8 0.7 7.1 1.1 4.6 0.6 9.1 1.2 13.5 1.7h251.7l-202.2-0.1z"
   id="path176" />
    <polygon
   class="st2"
   points="1166.8 1223.8 1166.8 1223.8 1257.3 1223.8"
   id="polygon178" />
    <rect
   class="st3"
   x="956.8"
   y="1246.2"
   width="272.6"
   height="16.2"
   id="rect180"
   style="fill:#8054D4;fill-opacity:1" />
    <rect
   class="st3"
   x="797.4"
   y="1250.4"
   width="108.6"
   height="16.2"
   id="rect182"
   style="fill:#8054D4;fill-opacity:1" />
    <path
   class="st3"
   d="m345.5 520.3 47.8 47.8 6.4-6.4-57.5-57.7c0.1 0.3 0.2 0.7 0.4 1 2.4 6.4 3.4 11.3 2.9 15.3z"
   id="path184"
   style="fill:#8054D4;fill-opacity:1" />
    <rect
   class="st3"
   x="471.7"
   y="1263.1"
   width="112.2"
   height="9.1"
   id="rect186"
   style="fill:#8054D4;fill-opacity:1" />
    <rect
   class="st3"
   x="671.6"
   y="1239.5"
   width="112.2"
   height="9.1"
   id="rect188"
   style="fill:#8054D4;fill-opacity:1" />
    <rect
   class="st3"
   x="1528.1"
   y="1169.9"
   width="112.2"
   height="9.1"
   id="rect190"
   style="fill:#8054D4;fill-opacity:1" />
    <rect
   class="st3"
   x="1497.3"
   y="1141.6"
   width="112.2"
   height="9.1"
   id="rect192"
   style="fill:#8054D4;fill-opacity:1" />

    <rect
   class="st3"
   transform="matrix(.7071 -.7071 .7071 .7071 -355.3 459.96)"
   x="373"
   y="602.8"
   width="9.1"
   height="112.2"
   id="rect194"
   style="fill:#8054D4;fill-opacity:1" />

    <rect
   class="st3"
   transform="matrix(.7071 -.7071 .7071 .7071 -458.34 419.3)"
   x="272.4"
   y="706.8"
   width="9.1"
   height="112.2"
   id="rect196"
   style="fill:#8054D4;fill-opacity:1" />
    <polygon
   class="st3"
   points="1215.4 328.9 1188.5 328.9 1188.5 302 1161.6 302 1161.6 275.1 1134.7 275.1 1126.8 284.3 1153.7 284.3 1153.7 311.2 1180.6 311.2 1180.6 338.1 1207.6 338.1 1207.6 365 1234.5 365 1234.5 391.9 1242.3 382.8 1242.3 355.8 1215.4 355.8"
   id="polygon198"
   style="fill:#8054D4;fill-opacity:1" />
    <path
   class="st3"
   d="m1489.6 893.3c-0.3 0.4-0.8 0.7-1.3 0.7h-77.4l-8.7 17h117.1l-58.5-114.3-9.9 19.3 38.8 75.8c0.2 0.5 0.1 1.1-0.1 1.5z"
   id="path200" />
    <polygon
   class="st3"
   points="1485.8 891 1449.1 819.3 1412.4 891"
   id="polygon202" />
    <path
   class="st3"
   d="m93.3 960.5h62.8v-18.5h-87.4v87.4h23.1v-67.4c0-0.8 0.7-1.5 1.5-1.5z"
   id="path204"
   style="fill:#8054D4;fill-opacity:1" />
    <rect
   class="st3"
   x="94.8"
   y="963.5"
   width="61.3"
   height="65.9"
   id="rect206"
   style="fill:#8054D4;fill-opacity:1" />
    <path
   d="m1123.2 230.7h25.4v25.4c0 0.8 0.7 1.5 1.5 1.5h25.4v25.4c0 0.8 0.7 1.5 1.5 1.5h25.4v25.5c0 0.8 0.7 1.5 1.5 1.5h25.4v25.4c0 0.8 0.7 1.5 1.5 1.5s1.5-0.7 1.5-1.5v-26.9c0-0.8-0.7-1.5-1.5-1.5h-25.4v-25.5c0-0.8-0.7-1.5-1.5-1.5h-25.4v-25.4c0-0.8-0.7-1.5-1.5-1.5h-25.4v-25.4c0-0.8-0.7-1.5-1.5-1.5h-26.9c-0.8 0-1.5 0.7-1.5 1.5s0.7 1.5 1.5 1.5z"
   id="path208" />
    <path
   d="m175.9 1043v-81c0-0.8-0.7-1.5-1.5-1.5h-81.1c-0.8 0-1.5 0.7-1.5 1.5v81.1c0 0.8 0.7 1.5 1.5 1.5h81c0.9-0.1 1.6-0.7 1.6-1.6zm-3-1.5h-78v-78.1h78v78.1z"
   id="path210" />
    <path
   d="m1371.2 894h117c0.5 0 1-0.3 1.3-0.7s0.3-1 0.1-1.5l-38.8-75.8-19.7-38.5c-0.3-0.5-0.8-0.8-1.3-0.8s-1.1 0.3-1.3 0.8l-58.5 114.3c-0.2 0.5-0.2 1 0.1 1.5 0.1 0.5 0.6 0.7 1.1 0.7zm58.5-112.5 19.4 37.8 36.7 71.7h-112.1l56-109.5z"
   id="path212" />
    <path
   d="m316.5 781.5c0.3 0.3 0.7 0.4 1.1 0.4s0.8-0.1 1.1-0.4c0.6-0.6 0.6-1.5 0-2.1l-67.3-67.3c-0.6-0.6-1.5-0.6-2.1 0s-0.6 1.5 0 2.1l67.2 67.3z"
   id="path214" />
    <path
   d="m395.8 543.3c0.3 0.3 0.7 0.4 1.1 0.4s0.8-0.1 1.1-0.4c0.6-0.6 0.6-1.5 0-2.1l-49.8-49.8c-0.9 0.4-1.9 0.9-2.7 1.5l50.3 50.4z"
   id="path216" />
    <path
   d="m350.1 608.3c-0.6-0.6-1.5-0.6-2.1 0s-0.6 1.5 0 2.1l67.3 67.3c0.3 0.3 0.7 0.4 1.1 0.4s0.8-0.1 1.1-0.4c0.6-0.6 0.6-1.5 0-2.1l-67.4-67.3z"
   id="path218" />
    <path
   class="st3"
   d="m513.8 759.5c0 18.2 11.9 33.6 28.3 38.8 18.8-2.9 33.2-19.2 33.2-38.8s-14.4-35.9-33.2-38.8c-16.5 5.2-28.3 20.6-28.3 38.8z"
   id="path220"
   style="fill:#8054D4;fill-opacity:1" />
    <path
   class="st3"
   d="m578.3 759.5c0 18.9-12.5 35-29.7 40.4 1.9 0.3 3.9 0.4 6 0.4 22.5 0 40.8-18.3 40.8-40.8s-18.3-40.8-40.8-40.8c-2 0-4 0.2-6 0.4 17.2 5.4 29.7 21.4 29.7 40.4z"
   id="path222"
   style="fill:#8054D4;fill-opacity:1" />
    <path
   d="m548.6 799.8c17.2-5.4 29.7-21.5 29.7-40.4s-12.5-35-29.7-40.4c-4-1.3-8.3-1.9-12.7-1.9-23.3 0-42.3 19-42.3 42.3s19 42.3 42.3 42.3c4.5 0.1 8.7-0.6 12.7-1.9zm-52-40.3c0-21.7 17.6-39.3 39.3-39.3 2.1 0 4.1 0.2 6.1 0.5 18.8 2.9 33.2 19.2 33.2 38.8s-14.4 35.9-33.2 38.8c-2 0.3-4 0.5-6.1 0.5-21.6 0-39.3-17.7-39.3-39.3z"
   id="path224" />
    <path
   d="m1092 687.2c0.7 3.3 1.6 9.2 2.8 17.1 12.7-6.6 20.9-17.1 25.9-34.2 2.1-7.3 0.8-16.2-3.1-26.3-13.8-3.6-28.5-8.2-44.1-13.8 6.9 14.4 13.7 33.1 18.5 57.2z"
   id="path226" />
    <path
   d="m884.4 646.7c0-4.3 0.5-8.9 1.5-13.7-1.6-0.7-3.2-1.7-4.5-2.9-7.4-6.6-7.8-19.7-1.5-38.9 10.2-30.6 31.3-45.1 48.9-52-18.2-47.2-52.3-100-64.9-118.7-1.2 0-2.5 0.1-3.8 0.2 4.1 9.9 7.5 15.4 7.6 15.5 0.4 0.7 0.3 1.6-0.4 2-1.1 0.8-19.8 13.7-37.5 13.7-6.9 0-13.6-1.9-19.1-7.3-0.2-0.2-0.4-0.5-0.4-0.8l-3.8-17.2c-0.6 0.1-1.3 0.3-1.9 0.4-0.2 18.4 1.9 108.6 54.7 204.7 5.8 9.1 1.2 25.6-12 41.9-5 6.2-11 12.1-17.6 17 11.9 19.6 25.4 31.4 40.3 34.9 9.1-1.1 18-2 26.5-2.7-8-39.1-12.1-67.3-12.1-76.1z"
   id="path228" />
    <path
   d="m861 725.6c2.8 1.3 5.7 2.2 8.7 2.9h0.3 0.2c9.3-1.1 18.3-2 27.1-2.8l-0.6-3c-8.5 0.8-17.4 1.7-26.5 2.7-14.8-3.5-28.3-15.3-40.3-34.9-0.8 0.6-1.7 1.2-2.5 1.8 9.3 15.3 19.6 25.9 30.8 31.7 0.9 0.7 1.8 1.2 2.8 1.6z"
   id="path230" />
    <path
   d="m1117.6 643.9c4 10.1 5.3 19 3.1 26.3-5 17.1-13.3 27.6-25.9 34.2 0.1 1 0.3 2.1 0.5 3.1 12-6 20-14.9 25.4-28.1 0.4-1 0.8-2 1.2-3.1 0.6-1.7 1.2-3.4 1.7-5.3 2.1-7.2 1.3-15.9-2.5-26.2-1.2-0.3-2.3-0.6-3.5-0.9z"
   id="path232" />
    <path
   d="m860.2 420.6c1.3-0.1 2.5-0.1 3.8-0.2-0.7-1.1-1.4-2-1.9-2.9-1 0-2 0.1-3 0.1 0.3 1.1 0.7 2.1 1.1 3z"
   id="path234" />
    <path
   d="m804.7 427.1c0.6-0.1 1.3-0.3 1.9-0.4l-0.7-3-1.2 0.3v3.1z"
   id="path236" />
    <path
   class="st1"
   d="m805.8 329.8c0.3-3.8 0.6-7.3 0.3-9.1-27.4-2.3-42.6-12.7-50.6-21.1-1.3-1.4-2.5-2.8-3.5-4.2-5.7 26-0.4 58.9 5.3 76.4 1.9 5.8 5.2 9.6 9.8 11.2 12 4.3 29.3-6.6 29.5-6.8 0.4-0.3 0.9-0.3 1.4-0.1s0.8 0.6 0.9 1.1l14.4 65.5c16.2 15 45.2-2.3 51.3-6.3-2.4-4.2-10-18.5-15.5-40.4-48.2-10.4-44.9-48-43.3-66.2z"
   id="path238" />
    <path
   class="st2"
   d="m806.6 426.7 3.8 17.2c0.1 0.3 0.2 0.6 0.4 0.8 5.5 5.3 12.2 7.3 19.1 7.3 17.7 0 36.4-12.9 37.5-13.7 0.7-0.5 0.8-1.4 0.4-2-0.1-0.1-3.5-5.6-7.6-15.5-0.4-0.9-0.8-1.9-1.2-2.9-2.3-5.9-4.8-13.1-6.9-21.5-0.6 0-1.2 0.1-1.8 0.1h-0.1-0.3c-0.3-0.1-0.6-0.1-0.9-0.2 5.5 21.9 13.1 36.2 15.5 40.4-6.1 4-35.1 21.3-51.3 6.3l-14.4-65.5c-0.1-0.5-0.4-0.9-0.9-1.1s-1-0.1-1.4 0.1c-0.2 0.1-17.5 11-29.5 6.8-4.6-1.6-7.9-5.4-9.8-11.2-5.7-17.6-11-50.4-5.3-76.4-0.9-1.1-1.7-2.2-2.3-3.3-1.5 6.1-2.5 12.9-2.9 20.3-1.2 21.8 3 46 7.7 60.3 2.2 6.7 6.1 11.1 11.6 13.1 11.1 4 25.3-3.1 30.3-6l9.6 43.7 0.7 2.9z"
   id="path240" />
    <path
   d="m1611.8 1223.8h-445.1l0.2 1c0.1 0.4 0 0.9-0.3 1.3s-0.7 0.6-1.2 0.6h-226.7c-0.8 0-1.5-0.6-1.5-1.4v-1.4h-780.4c-0.8 0-1.5 0.7-1.5 1.5s0.7 1.5 1.5 1.5h1455.1c0.8 0 1.5-0.7 1.5-1.5s-0.7-1.6-1.6-1.6z"
   id="path242" />
    <path
   class="st3"
   d="m759.9 525c0.6 0.1 1.1 0.5 1.2 1.1 0.2 0.8-0.3 1.6-1.1 1.8-0.1 0-2.4 0.6-6.6 1.5-0.1 4.1-0.3 8.2-0.3 12.3-1 52.5 3 122.3 28.1 157.4 22.5 8 48.3-8 64-27.5 12.1-15.1 16.8-30.5 11.7-38.4 0 0 0-0.1-0.1-0.1-31-56.4-44.3-110.4-50-145.8-5.4-33.3-5.2-56.8-5.1-62.6-5.8-0.7-16.1-1.5-24.5-0.7l-17.3 101z"
   id="path244" />
    <path
   class="st2"
   d="m829.8 690.7c6.6-4.9 12.6-10.8 17.6-17 13.1-16.3 17.8-32.8 12-41.9-52.8-96-54.9-186.3-54.7-204.7 0-1.6 0-2.7 0.1-3.1v-0.3c0-0.8-0.5-1.5-1.3-1.6-2.1-0.3-14.4-1.9-25.2-1 0.4 0.2 0.7 0.7 0.8 1.2 0 0.8-0.6 1.5-1.4 1.6h-0.3l-0.1 0.3c8.3-0.8 18.7 0 24.5 0.7-0.1 5.8-0.3 29.3 5.1 62.6 5.7 35.4 19 89.4 50 145.8 0 0 0 0.1 0.1 0.1 5.1 7.9 0.4 23.3-11.7 38.4-15.7 19.5-41.5 35.5-64 27.5-25.3-35.2-29.3-105-28.3-157.5 0.1-4.1 0.2-8.3 0.3-12.3-0.9 0.2-1.9 0.4-3 0.7-0.1 3.8-0.2 7.7-0.3 11.6-1 53.1 3.1 123.9 29 159.6 0.2 0.2 0.4 0.4 0.7 0.5 4.5 1.7 9.2 2.4 13.9 2.4 11.6 0 23.3-4.7 33.8-11.9 0.7-0.5 1.6-1.1 2.4-1.7z"
   id="path246" />
    <path
   class="st3"
   d="m961.4 532.3c2.2-2.6 4.8-4.5 7.8-5.4 7.7-2.1 45.1 3.3 83.3 9.9-30.8-19.4-53-37.8-65.9-48.5-0.6-0.5-0.7-1.4-0.2-2.1l-98.5-76.2c-9.8-0.6-20.8 2.2-25.1 3.4 7.4 10.8 48.1 71.2 68.8 124.8 0.7-0.3 1.5-0.5 2.2-0.8 10.8-3.5 20.7-4.8 27.6-5.1z"
   id="path248" />
    <path
   class="st2"
   d="m863.9 420.4c12.5 18.7 46.6 71.5 64.9 118.7 0.9-0.4 1.9-0.7 2.8-1-20.7-53.5-61.4-113.9-68.8-124.8 4.4-1.2 15.3-4 25.1-3.4l-0.2-0.2c-1 0.1-1.6 0.1-1.7 0.1-0.8 0-1.5-0.6-1.6-1.4s0.6-1.5 1.4-1.6c-12.4-0.2-25.2 4-25.9 4.3-0.4 0.1-0.8 0.5-1 1-0.1 0.5-0.1 0.9 0.2 1.3 0.1 0.1 1.1 1.6 2.8 4.2 0.7 0.8 1.3 1.8 2 2.8z"
   id="path250" />
    <path
   class="st3"
   d="m986.4 486.1c0.5-0.6 1.5-0.7 2.1-0.2 13.7 11.4 37.9 31.5 71.8 52.2 40.6 7.1 79.8 14.8 83 15.4 0.6 0.1 1.1 0.6 1.2 1.2l94.4-16.4c-45-76.2-138-107.1-208.3-119.6-70.1-12.5-132.2-9.6-143-9l0.2 0.2 98.6 76.2v0z"
   id="path252" />
    <path
   class="st2"
   d="m884.4 408.5c0.1 0.8 0.8 1.4 1.6 1.4 0.1 0 0.6 0 1.7-0.1 10.9-0.6 72.9-3.5 143 9 70.3 12.5 163.3 43.4 208.3 119.6-0.1-0.6 0.1-1.1 0.6-1.5 0.7-0.5 1.6-0.3 2.1 0.4s0.9 1.4 1.3 2.2c-0.2-0.4-0.4-0.7-0.6-1.1-20-34.6-51.2-63.1-92.8-84.6-33.2-17.2-73.1-30-118.5-38-76.8-13.6-143.9-9-145.4-8.9-0.8 0-1.4 0.7-1.3 1.6z"
   id="path254" />
    <path
   class="st2"
   d="m1060.4 538.1c-33.9-20.7-58.1-40.8-71.8-52.2-0.6-0.5-1.6-0.4-2.1 0.2s-0.4 1.6 0.2 2.1c12.9 10.7 35 29.1 65.9 48.5 2.5 0.5 5.2 1 7.8 1.4z"
   id="path256" />
    <path
   class="st3"
   d="m1144.6 555.3c-0.2 0.8-1 1.3-1.8 1.2-54.2-10.7-160.2-30.2-172.8-26.7-1.6 0.4-3 1.2-4.3 2.3 3.4 0 5.5 0.1 5.7 0.2 0.4 0 0.8 0.2 1 0.6 0.2 0.2 15.7 20.1 3.9 35.9 15.9 0.8 34.7 4.8 56.8 13.7 0.5 0.2 10.7 4.9 23.2 20.2 4.6 5.7 9.9 13.4 15.2 23.5 71.9 26.1 124.6 31.2 152.8 14.7 16.9-9.9 25.5-27.8 25.5-53.2 0-10.7-2.6-36.7-10.6-48.6-0.1-0.2-0.2-0.4-0.2-0.6l-94.4 16.4v0.4z"
   id="path258" />
    <path
   class="st2"
   d="m1239.6 536.9c-0.5 0.3-0.7 0.9-0.6 1.5 0 0.2 0.1 0.4 0.2 0.6 8.1 12 10.7 38 10.6 48.6 0 25.4-8.6 43.3-25.5 53.2-28.2 16.5-80.9 11.4-152.8-14.7 0.7 1.3 1.3 2.6 2 3.9 15.6 5.6 30.3 10.2 44.1 13.8 1.2 0.3 2.3 0.6 3.5 0.9 10.6 2.7 20.6 4.7 29.9 6.2 10.9 1.7 20.9 2.5 30.1 2.5 18.4 0 33.4-3.3 44.7-10 17.9-10.5 27-29.3 27-55.8 0-8.3-1.8-33.9-9.8-48.1-0.4-0.8-0.9-1.5-1.3-2.2-0.5-0.7-1.4-0.9-2.1-0.4z"
   id="path260" />
    <path
   class="st2"
   d="m1142.8 556.5c0.8 0.2 1.6-0.4 1.8-1.2v-0.5c-0.1-0.6-0.6-1.1-1.2-1.2-3.2-0.6-42.5-8.4-83-15.4-2.6-0.5-5.2-0.9-7.9-1.4-38.2-6.5-75.5-12-83.3-9.9-3 0.8-5.6 2.8-7.8 5.4 1.6-0.1 3-0.1 4.3-0.1 1.3-1.1 2.8-1.9 4.3-2.3 12.7-3.5 118.6 15.9 172.8 26.6z"
   id="path262" />
    <path
   class="st3"
   d="m612.8 279.9c2.2-10.4 4.2-19.3 5.7-25.9 1-4.7 1.8-8.3 2.2-10.2-14.6-11.1-28.5-15.4-41.4-12.8-17.7 3.5-27.6 19.2-28.6 20.8-0.5 1.5-3.7 11.8-8.2 27.8 8.3-4.8 37.4-18.9 70.3 0.3z"
   id="path264" />
    <path
   class="st3"
   d="m734.2 429.5c-44.5 6.8-105.5 16.2-126.6 6.8-11.9-5.3-14.5-31.8-8.1-81.2 3.3-24.9 8.3-51.2 12.7-72.1-37.5-22.5-69.8 0.2-70.2 0.5l-0.6 0.3c-18.2 66.3-52.7 214.3-5.8 243.3 61 37.8 222-1.6 223.6-2 0.2-0.1 0.4-0.1 0.6 0l17.4-100.9 0.1-0.3c-8.6 0.3-24.6 2.8-43.1 5.6z"
   id="path266" />
    <path
   class="st2"
   d="m753.4 529.5c4.2-0.9 6.5-1.5 6.6-1.5 0.8-0.2 1.3-1 1.1-1.8-0.1-0.6-0.6-1-1.2-1.1h-0.6c-1.6 0.4-162.6 39.8-223.6 2-46.9-29.1-12.5-177.1 5.8-243.3-0.6 0.1-1.1-0.1-1.5-0.6-0.5-0.7-0.3-1.6 0.3-2.1 0.1 0 0.9-0.6 2.3-1.4 4.5-16 7.7-26.4 8.2-27.8 1-1.6 10.9-17.3 28.6-20.8 12.8-2.5 26.7 1.8 41.4 12.8-0.4 1.9-1.2 5.5-2.2 10.2-1.5 6.6-3.5 15.5-5.7 25.9 0.6 0.4 1.2 0.7 1.8 1.1 0.7 0.4 0.9 1.4 0.5 2.1-0.3 0.5-0.8 0.7-1.3 0.7-0.3 0-0.5-0.1-0.8-0.2-0.3-0.2-0.6-0.4-0.9-0.5-4.4 21-9.4 47.2-12.7 72.1-6.5 49.3-3.8 75.9 8.1 81.2 21.2 9.4 82.1 0 126.6-6.8 18.5-2.8 34.5-5.3 43.1-5.7h0.3c0.8 0 1.5-0.7 1.4-1.6 0-0.5-0.3-1-0.8-1.2-0.2-0.1-0.5-0.2-0.8-0.2-8.6 0.3-24.9 2.8-43.7 5.7-44.1 6.8-104.6 16.1-124.9 7-7.1-3.2-14-19.3-6.3-78 5.1-38.6 14.4-80.7 18.9-100.9 1.3-5.8 2.2-9.7 2.4-11.2 0.1-0.5-0.1-1.1-0.6-1.4-5.4-4.2-10.7-7.4-15.9-9.8-1-0.4-1.9-0.9-2.9-1.2-5.5-2.2-10.8-3.4-16.1-3.6-3.3-0.1-6.5 0.1-9.7 0.7-5.2 1-9.7 3-13.5 5.3-0.9 0.6-1.8 1.1-2.6 1.7-9.3 6.5-14.2 14.8-14.4 15.3-0.1 0.1-0.1 0.2-0.1 0.3-0.2 0.6-19.4 60.5-30.7 124.3-15.3 86.2-9.6 138.3 16.8 154.6 18.2 11.3 46.1 16.9 83.2 16.9 16.1 0 33.9-1.1 53.4-3.2 34.1-3.7 64.7-9.9 79.6-13.2 1.1-0.3 2.1-0.6 3.1-0.8z"
   id="path268" />
    <path
   d="m807.4 317.8c0.5 0 1 0.4 1.2 0.8 1 2.1 0.7 5.8 0.2 11.5-1.6 18.7-4.7 53.4 41.6 63.2 36.8-1.8 63-26.4 78.4-46.8 14.1-18.6 22.1-37.1 24.4-42.7-10.8-1.5-63.8-11.3-112-63-15.6-16.7-39.6-14.8-56.9-7.5-19 8.1-37.8 25.8-36.8 47.3 0.5 2.1 9.9 33.5 59.9 37.2z"
   id="path270" />
    <path
   d="m752 295.4c1 1.4 2.2 2.7 3.5 4.2 8 8.4 23.2 18.9 50.6 21.1 0.3 1.8 0 5.4-0.3 9.1-1.6 18.1-4.9 55.7 43.2 66.2 0.3 0.1 0.6 0.1 0.9 0.2h0.3 0.1c0.6 0 1.2-0.1 1.8-0.1 29.5-2 56.7-18.5 79-47.9 17.1-22.6 25.4-45.1 25.5-45.3 0.2-0.4 0.1-0.9-0.1-1.3-0.3-0.4-0.7-0.6-1.1-0.7-0.6 0-59.1-5.6-112-62.3-16.6-17.8-42.1-15.9-60.3-8.2-20.1 8.5-39.8 27.4-38.6 50.4v0.3c0.1 0.3 1.2 4.9 5.1 11 0.7 1.1 1.5 2.2 2.4 3.3zm32.2-62.1c17.3-7.3 41.3-9.2 56.9 7.5 48.2 51.7 101.2 61.5 112 63-2.3 5.7-10.3 24.2-24.4 42.7-15.4 20.4-41.6 45-78.4 46.8-46.3-9.8-43.2-44.5-41.6-63.2 0.5-5.7 0.8-9.4-0.2-11.5-0.2-0.5-0.7-0.8-1.2-0.8-50-3.7-59.3-35.1-59.9-37.2-1-21.5 17.7-39.3 36.8-47.3z"
   id="path272" />
    <path
   d="m1078.9 1140c0.6 0.2 1.1 0.5 1.7 0.7 0.8 0.3 1.6 0.6 2.3 0.9 0.6 0.2 1.1 0.4 1.7 0.6 0.8 0.3 1.6 0.6 2.4 0.8 0.6 0.2 1.1 0.4 1.7 0.6 0.8 0.3 1.7 0.5 2.6 0.8 0.5 0.2 1.1 0.3 1.6 0.5 1 0.3 2 0.5 3 0.8 0.4 0.1 0.9 0.2 1.3 0.3 1.4 0.3 2.8 0.7 4.3 1 0.7 0.1 1.3 0.2 2 0.4 0.8 0.1 1.6 0.3 2.3 0.4s1.5 0.2 2.2 0.3 1.4 0.2 2.2 0.3 1.5 0.2 2.3 0.3c0.7 0.1 1.4 0.2 2.1 0.2 0.8 0.1 1.6 0.1 2.4 0.2 0.7 0.1 1.4 0.1 2.1 0.2 0.8 0 1.6 0.1 2.4 0.1 0.7 0 1.4 0.1 2.1 0.1h2.4 2.2c0.8 0 1.6 0 2.3-0.1 0.7 0 1.5 0 2.2-0.1 0.8 0 1.5-0.1 2.3-0.1s1.5-0.1 2.3-0.1c0.7-0.1 1.5-0.1 2.2-0.2 0.8-0.1 1.6-0.1 2.3-0.2s1.5-0.2 2.2-0.3c0.5-0.1 1.1-0.1 1.6-0.2l-3-12.3c-3.6 2.1-9.9 3.7-20.5 3.7s-25.4-1.6-46.3-5.8l1.2 5.3c0.6 0.4 1.2 0.7 1.9 0.9z"
   id="path274" />
    <path
   d="m1142.6 1136 3 12.3c0.5-0.1 1.1-0.1 1.6-0.2 0.8-0.1 1.5 0.4 1.7 1.1l-3.7-15.2c-0.1 0.1-0.1 0.2-0.2 0.2-0.7 0.6-1.4 1.2-2.4 1.8z"
   id="path276" />
    <path
   d="m1074.7 1139.1c0.4-0.4 1.1-0.4 1.6-0.2 0.2 0.1 0.4 0.2 0.7 0.3l-1.2-5.3c-1.1-0.2-2.1-0.4-3.2-0.7l1.7 7.4c-0.2-0.6 0-1.2 0.4-1.5z"
   id="path278" />
    <path
   d="m1116.9 1149.2c-0.8-0.1-1.6-0.1-2.4-0.2 0.8 0.1 1.6 0.2 2.4 0.2z"
   id="path280" />
    <path
   d="m1097.1 1146.1c-0.4-0.1-0.9-0.2-1.3-0.3 0.4 0.1 0.9 0.2 1.3 0.3z"
   id="path282" />
    <path
   d="m1092.8 1145c-0.5-0.2-1.1-0.3-1.6-0.5 0.6 0.2 1.1 0.3 1.6 0.5z"
   id="path284" />
    <path
   d="m1144 1148.5c-0.7 0.1-1.4 0.2-2.2 0.3 0.7-0.1 1.4-0.2 2.2-0.3z"
   id="path286" />
    <path
   d="m1103.4 1147.4c-0.7-0.1-1.3-0.2-2-0.4 0.6 0.2 1.3 0.3 2 0.4z"
   id="path288" />
    <path
   d="m1080.6 1140.7c-0.6-0.2-1.1-0.5-1.7-0.7 0.5 0.3 1.1 0.5 1.7 0.7z"
   id="path290" />
    <path
   d="m1084.6 1142.3c-0.6-0.2-1.1-0.4-1.7-0.6 0.6 0.2 1.1 0.4 1.7 0.6z"
   id="path292" />
    <path
   d="m1088.7 1143.7c-0.6-0.2-1.1-0.4-1.7-0.6 0.6 0.3 1.1 0.5 1.7 0.6z"
   id="path294" />
    <path
   d="m1107.9 1148.2c-0.7-0.1-1.5-0.2-2.2-0.3 0.7 0.1 1.5 0.2 2.2 0.3z"
   id="path296" />
    <path
   d="m1130.4 1149.6c-0.8 0-1.6 0-2.3 0.1 0.7-0.1 1.5-0.1 2.3-0.1z"
   id="path298" />
    <path
   d="m1134.9 1149.4c-0.8 0-1.5 0.1-2.3 0.1 0.8 0 1.6-0.1 2.3-0.1z"
   id="path300" />
    <path
   d="m1139.4 1149c-0.7 0.1-1.5 0.1-2.2 0.2 0.8 0 1.5-0.1 2.2-0.2z"
   id="path302" />
    <path
   d="m1121.4 1149.5c-0.8 0-1.6-0.1-2.4-0.1 0.8 0 1.6 0.1 2.4 0.1z"
   id="path304" />
    <path
   d="m1112.4 1148.8c-0.8-0.1-1.5-0.2-2.3-0.3 0.8 0.1 1.5 0.2 2.3 0.3z"
   id="path306" />
    <path
   d="m1125.9 1149.6h-2.4 2.4z"
   id="path308" />
    <path
   class="st3"
   d="m1077.8 1142.8 2 9.1c0.1 0.5 0 1-0.4 1.4s-0.9 0.5-1.4 0.4-13.2-2.8-76.3 8.8c-41.1 7.5-54.7 31.9-59.1 46.9h217.7l-14-58.2c-23.8 3.5-48 0.5-68.5-8.4z"
   id="path310" />
    <path
   class="st2"
   d="m1147.2 1148.1c-0.5 0.1-1.1 0.1-1.6 0.2s-1.1 0.1-1.6 0.2c-0.7 0.1-1.4 0.2-2.2 0.3s-1.6 0.2-2.3 0.2c-0.7 0.1-1.5 0.1-2.2 0.2-0.8 0.1-1.5 0.1-2.3 0.1s-1.5 0.1-2.3 0.1c-0.7 0-1.5 0-2.2 0.1-0.8 0-1.6 0-2.3 0.1h-2.2-2.4c-0.7 0-1.4-0.1-2.1-0.1-0.8 0-1.6-0.1-2.4-0.1-0.7 0-1.4-0.1-2.1-0.2-0.8-0.1-1.6-0.1-2.4-0.2-0.7-0.1-1.4-0.2-2.1-0.2-0.8-0.1-1.5-0.2-2.3-0.3-0.7-0.1-1.5-0.2-2.2-0.3s-1.5-0.2-2.2-0.3c-0.8-0.1-1.6-0.3-2.3-0.4s-1.3-0.2-2-0.4c-1.4-0.3-2.8-0.6-4.3-1-0.4-0.1-0.9-0.2-1.3-0.3-1-0.3-2-0.5-3-0.8-0.5-0.2-1.1-0.3-1.6-0.5-0.9-0.3-1.7-0.5-2.6-0.8-0.6-0.2-1.1-0.4-1.7-0.6-0.8-0.3-1.6-0.6-2.4-0.8-0.6-0.2-1.1-0.4-1.7-0.6-0.8-0.3-1.6-0.6-2.3-0.9-0.6-0.2-1.1-0.5-1.7-0.7-0.6-0.3-1.3-0.6-1.9-0.8-0.2-0.1-0.4-0.2-0.7-0.3-0.5-0.2-1.1-0.2-1.6 0.2s-0.6 0.9-0.5 1.5l2.2 9.9c-5.8-0.4-24.4-0.3-75.3 9-44.5 8.2-58 35.5-62 51 0.2-0.7 0.8-1.1 1.5-1.1h2c4.5-15.1 18-39.4 59.1-46.9 63.1-11.6 75.8-8.9 76.3-8.8s1 0 1.4-0.4 0.5-0.9 0.4-1.4l-2-9.1c20.5 8.9 44.7 11.8 68.5 8.4l14 58.2h1.9c0.7 0 1.3 0.5 1.5 1.1l-14.7-61.4c-0.3-0.8-1.1-1.3-1.8-1.1z"
   id="path312" />
    <path
   d="m1160.9 1212.4h-219.1c-1.2 5.1-1.5 9.1-1.6 11.1h223.4l-2.7-11.1z"
   id="path314" />
    <path
   d="m1163.6 1210.6c-0.2-0.7-0.8-1.1-1.5-1.1h-221.5c-0.7 0-1.3 0.5-1.5 1.1-1.6 6.1-1.9 11-2 13.2v1.4c0 0.8 0.7 1.4 1.5 1.4h226.9c0.5 0 0.9-0.2 1.2-0.6s0.4-0.8 0.3-1.3l-0.2-1-3.2-13.1zm-221.8 1.8h219.2l2.7 11.1h-223.5c0-2 0.3-6 1.6-11.1z"
   id="path316" />
    <path
   class="st1"
   d="m924.1 628.1c-0.2 0.2-0.4 0.4-0.6 0.5-0.8 0.4-14.3 6.3-26.9 6.3-2.7 0-5.4-0.3-7.9-1-0.9 4.4-1.4 8.7-1.4 12.7 0 17.8 16.8 114.1 49.3 220.1 28.2 92 74.7 212.3 136.4 263.4 50.9 10.7 65.6 5.9 69.7 2 1.7-1.6 1.6-3 1.5-3.1-0.5-4.1-47.3-401.9-55.2-441.3-16.7-83.6-56.7-102.4-57.1-102.6-23.1-9.3-42.5-13.2-58.7-13.6-9.8 2.6-38.7 41.6-49.1 56.6z"
   id="path318" />
    <path
   class="st2"
   d="m976.1 985.3c0.4 0.9 0.8 1.9 1.2 2.8 13.4 31.1 28.5 61 45.2 86.9 0.8 1.2 1.6 2.4 2.4 3.7 14.4 21.7 29.9 40.4 46.5 54.1 0.2 0.2 0.4 0.3 0.6 0.3s0.4 0.1 0.6 0.1c1.1 0.2 2.2 0.5 3.2 0.7 20.9 4.3 35.8 5.8 46.3 5.8 10.6 0 16.9-1.6 20.5-3.7 1-0.6 1.7-1.2 2.4-1.8l0.2-0.2c2.3-2.4 2.1-4.8 2-5.3-0.1-0.7-0.7-6.4-1.9-16-0.1-1-0.3-2.1-0.4-3.3-1.8-15.5-4.7-39.5-8.1-68.3l-0.3-2.4c-0.1-0.9-0.2-1.9-0.3-2.8-12.5-104.6-32.3-268-41-328.4-0.2-1.1-0.3-2.1-0.5-3.1-1.2-7.9-2.1-13.8-2.8-17.1-4.8-24.1-11.6-42.8-18.6-57.1-0.7-1.3-1.3-2.6-2-3.9-5.3-10.1-10.6-17.8-15.2-23.5-12.4-15.3-22.7-20-23.2-20.2-22.1-8.9-40.9-12.9-56.8-13.7-0.6 0.8-1.2 1.6-2 2.4-0.2 0.2-0.5 0.4-0.8 0.4-0.1 0-0.2 0.1-0.3 0.1 16.2 0.4 35.6 4.3 58.7 13.6 0.4 0.2 40.4 19 57.1 102.6 7.9 39.4 54.7 437.2 55.2 441.3 0 0.1 0.2 1.5-1.5 3.1-4.2 3.9-18.8 8.8-69.7-2-61.7-51.2-108.2-171.5-136.4-263.4-32.5-106.1-49.3-202.4-49.3-220.1 0-4 0.5-8.3 1.4-12.7-1-0.3-1.9-0.6-2.8-1-1 4.8-1.5 9.4-1.5 13.7 0 8.9 4.1 37 12.2 76.1l0.6 3c8.3 39.5 20.5 89.5 36.5 141.9 11.5 36.5 25.7 77.8 42.6 117.4z"
   id="path320" />
    <path
   class="st1"
   d="m934.6 540.3c-25.8 8.5-43.2 25.9-51.9 51.8-6 17.9-5.8 29.9 0.6 35.7 10.6 9.6 35.2-0.4 38.5-1.8 4.9-7 38-53.9 50.6-57.2 12.1-13.1 0.4-30.3-2-33.5-0.7 0-2-0.1-3.7-0.1-6.2 0-18.6 0.6-32.1 5.1z"
   id="path322" />
    <path
   class="st2"
   d="m879.9 591.2c-6.4 19.2-5.9 32.3 1.5 38.9 1.4 1.2 2.9 2.2 4.5 2.9 0.9 0.4 1.9 0.7 2.8 1 2.5 0.7 5.2 1 7.9 1 12.5 0 26-6 26.9-6.3 0.2-0.1 0.5-0.3 0.6-0.5 10.4-15 39.4-54 49.2-56.4 0.1 0 0.2-0.1 0.3-0.1 0.3-0.1 0.6-0.2 0.8-0.4 0.7-0.8 1.4-1.6 2-2.4 11.9-15.9-3.7-35.7-3.9-35.9-0.3-0.3-0.6-0.5-1-0.6-0.2 0-2.3-0.2-5.7-0.2-1.3 0-2.7 0.1-4.3 0.1-6.9 0.4-16.8 1.6-27.6 5.1-0.7 0.2-1.5 0.5-2.2 0.8-0.9 0.3-1.8 0.7-2.8 1-17.7 6.9-38.8 21.4-49 52zm90.6-55.9c2.4 3.2 14.1 20.4 2 33.5-12.6 3.4-45.7 50.2-50.6 57.2-3.3 1.4-27.9 11.4-38.5 1.8-6.4-5.8-6.6-17.8-0.6-35.7 8.6-25.9 26.1-43.4 51.9-51.8 13.5-4.4 25.8-5.1 32.1-5.1 1.7 0 3 0 3.7 0.1z"
   id="path324" />
    <path
   d="m612.2 283c0.3 0.2 0.6 0.4 0.9 0.5 0.2 0.2 0.5 0.2 0.8 0.2 0.5 0 1-0.3 1.3-0.7 0.4-0.7 0.2-1.6-0.5-2.1-0.6-0.4-1.2-0.7-1.8-1.1-32.9-19.2-62.1-5.1-70.3-0.3-1.4 0.8-2.2 1.4-2.3 1.4-0.7 0.5-0.8 1.4-0.3 2.1 0.4 0.5 0.9 0.7 1.5 0.6 0.2 0 0.4-0.1 0.6-0.3 0.2 0 32.6-22.7 70.1-0.3z"
   id="path326" />
    <path
   class="st3"
   d="m1419.5 584.4c0.4 0 11 0.9 15.1 7.5 2.1 3.3 2.2 7.4 0.4 12.1-3.3 8.5-3.8 14.3-1.4 17.8 2.2 3.2 6.9 4.9 14.5 5 7.6-0.1 12.3-1.8 14.5-5 2.4-3.5 1.9-9.3-1.4-17.8-1.8-4.7-1.7-8.8 0.4-12.1 4.2-6.6 14.7-7.5 15.1-7.5h0.1 32.8v-36.7c-0.1-0.8-1-9.5-6.2-12.8-2.5-1.5-5.6-1.6-9.4-0.1-9.6 3.7-16.2 4.1-20.6 1.1-4.1-2.8-6.2-8.3-6.3-17v-0.1c0.1-8.7 2.2-14.2 6.3-17 4.4-3 11-2.6 20.6 1.1 3.8 1.5 6.9 1.4 9.4-0.1 5.1-3.2 6.1-12 6.2-12.8v-34h-32.8-0.1c-0.4 0-11-0.9-15.1-7.5-2.1-3.3-2.2-7.4-0.4-12.1 3.3-8.5 3.8-14.3 1.4-17.8-2.2-3.2-6.9-4.9-14.6-5-7.6 0.1-12.3 1.8-14.5 5-2.4 3.5-1.9 9.3 1.4 17.8 1.8 4.7 1.7 8.8-0.4 12.1-4.2 6.6-14.7 7.5-15.1 7.5h-0.1-38.6v34.2c0.1 0.8 1 9.5 6.2 12.8 2.5 1.5 5.6 1.6 9.4 0.1 9.6-3.8 16.1-4.1 20.6-1.1 4.1 2.8 6.2 8.3 6.3 17-0.1 8.7-2.2 14.3-6.3 17.1-4.4 3-11 2.6-20.6-1.1-3.8-1.5-6.9-1.4-9.4 0.1-5.1 3.2-6.1 12-6.2 12.8v36.7h38.6c0.1-0.2 0.2-0.2 0.2-0.2z"
   id="path328" />
    <path
   class="st2"
   d="m1379.3 587.4h40.1c0.8 0.1 9.5 1 12.8 6.2 1.5 2.5 1.6 5.6 0.1 9.4-3.7 9.6-4.1 16.2-1.1 20.6 2.8 4.1 8.3 6.2 17 6.3 8.7-0.1 14.2-2.2 17-6.3 3-4.4 2.6-11-1.1-20.6-1.5-3.8-1.4-6.9 0.1-9.4 3.2-5.1 12-6.1 12.8-6.2h34.3c0.8 0 1.5-0.7 1.5-1.5v-38.3-0.1c0-0.4-0.9-11-7.6-15.1-3.3-2.1-7.4-2.2-12.1-0.4-8.5 3.3-14.3 3.8-17.8 1.4-3.2-2.2-4.9-6.9-5-14.5 0.1-7.6 1.8-12.4 5-14.5 3.5-2.4 9.3-1.9 17.8 1.4 4.7 1.8 8.8 1.7 12.1-0.4 6.6-4.2 7.5-14.7 7.5-15.1v-0.1-35.7c0-0.8-0.7-1.5-1.5-1.5h-34.3c-0.7-0.1-9.5-1-12.8-6.1-1.5-2.5-1.6-5.6-0.1-9.4 3.7-9.6 4.1-16.2 1.1-20.6-2.8-4.1-8.3-6.2-17.1-6.3-8.7 0.1-14.2 2.2-17 6.3-3 4.4-2.6 11 1.1 20.6 1.5 3.8 1.4 6.9-0.1 9.4-3.2 5.1-12 6.1-12.8 6.2h-40.1c-0.8 0-1.5 0.7-1.5 1.5v35.7 0.1c0 0.4 0.9 11 7.5 15.1 3.3 2.1 7.4 2.2 12.1 0.4 8.5-3.3 14.3-3.8 17.8-1.4 3.2 2.2 4.9 6.9 5 14.5-0.1 7.6-1.8 12.4-5 14.6-3.5 2.4-9.3 1.9-17.8-1.4-4.7-1.8-8.8-1.7-12.1 0.4-6.6 4.2-7.5 14.7-7.6 15.1v0.1 38.3c0.3 0.6 0.9 1.3 1.8 1.3zm1.5-39.7c0.1-0.8 1-9.6 6.2-12.8 2.5-1.5 5.6-1.6 9.4-0.1 9.6 3.7 16.2 4.1 20.6 1.1 4.1-2.8 6.2-8.3 6.3-17.1-0.2-8.7-2.2-14.2-6.3-17-4.4-3-11-2.6-20.6 1.1-3.8 1.5-6.9 1.4-9.4-0.1-5.1-3.2-6.1-12-6.2-12.8v-34h38.6 0.1c0.4 0 11-0.9 15.1-7.5 2.1-3.3 2.2-7.4 0.4-12.1-3.3-8.5-3.8-14.3-1.4-17.8 2.2-3.2 6.9-4.9 14.5-5 7.6 0.1 12.4 1.8 14.6 5 2.4 3.5 1.9 9.3-1.4 17.8-1.8 4.7-1.7 8.8 0.4 12.1 4.2 6.6 14.7 7.5 15.1 7.5h0.1 32.8v34.2c-0.1 0.8-1 9.5-6.2 12.8-2.5 1.5-5.6 1.6-9.4 0.1-9.6-3.8-16.1-4.1-20.6-1.1-4.1 2.8-6.2 8.3-6.3 17v0.1c0.1 8.7 2.2 14.2 6.3 17 4.4 3 11 2.6 20.6-1.1 3.8-1.5 6.9-1.4 9.4 0.1 5.2 3.2 6.1 12 6.2 12.8v36.7h-32.8-0.1c-0.4 0-11 0.9-15.1 7.5-2.1 3.3-2.2 7.4-0.4 12.1 3.3 8.5 3.8 14.3 1.4 17.8-2.2 3.2-6.9 4.9-14.5 5-7.6-0.1-12.4-1.8-14.5-5-2.4-3.5-1.9-9.3 1.4-17.8 1.8-4.7 1.7-8.8-0.4-12.1-4.2-6.6-14.7-7.5-15.1-7.5h-0.1-38.6v-36.9z"
   id="path330" />
    <path
   class="st1"
   d="m298 486.5c0.4 0 11 0.9 15.1 7.5 2.1 3.3 2.2 7.4 0.4 12.1-3.3 8.5-3.8 14.3-1.4 17.8 2.2 3.2 6.9 4.9 14.6 5 7.6-0.1 12.3-1.8 14.5-5 2.4-3.5 1.9-9.3-1.4-17.8-1.8-4.7-1.7-8.8 0.4-12.1 4.2-6.6 14.7-7.5 15.1-7.5h0.1 38.6v-34.2c-0.1-0.8-1-9.5-6.2-12.8-2.5-1.5-5.6-1.6-9.4-0.1-9.6 3.8-16.1 4.1-20.6 1.1-4.1-2.8-6.2-8.3-6.3-17 0.1-8.7 2.2-14.3 6.3-17.1 4.4-3 11-2.6 20.6 1.1 3.8 1.5 6.9 1.4 9.4-0.1 5.1-3.2 6.1-12 6.2-12.8v-36.7h-38.6-0.1c-0.4 0-11-0.9-15.1-7.5-2.1-3.3-2.2-7.4-0.4-12.1 3.3-8.5 3.8-14.3 1.4-17.8-2.2-3.2-6.9-4.9-14.5-5-7.6 0.1-12.3 1.8-14.5 5-2.4 3.5-1.9 9.3 1.4 17.8 1.8 4.7 1.7 8.8-0.4 12.1-4.2 6.6-14.7 7.5-15.1 7.5h-0.1-32.8v36.7c0.1 0.8 1 9.5 6.2 12.8 2.5 1.5 5.6 1.6 9.4 0.1 9.6-3.7 16.2-4.1 20.6-1.1 4.1 2.8 6.2 8.3 6.3 17v0.1c-0.2 8.7-2.2 14.2-6.3 17-4.4 3-11 2.6-20.6-1.1-3.8-1.5-7-1.4-9.4 0.1-5.2 3.2-6.1 12-6.1 12.8v34.2h32.8-0.1z"
   id="path332" />
    <path
   class="st2"
   d="m263.6 489.5h34.3c0.8 0.1 9.5 1 12.8 6.2 1.5 2.5 1.6 5.6 0.1 9.4-3.7 9.6-4.1 16.2-1.1 20.6 2.8 4.1 8.3 6.2 17.1 6.3 8.7-0.1 14.2-2.2 17-6.3 1-1.5 1.7-3.3 1.9-5.4 0.4-3.9-0.6-8.9-3-15.2-0.1-0.4-0.2-0.7-0.4-1-1.1-3.3-0.9-6.1 0.5-8.4 0.7-1.1 1.7-2 2.8-2.8 0.9-0.6 1.8-1.1 2.7-1.5 3.4-1.5 6.8-1.8 7.3-1.9h40.1c0.8 0 1.5-0.7 1.5-1.5v-35.7-0.1c0-0.4-0.9-11-7.5-15.1-3.3-2.1-7.4-2.2-12.1-0.4-8.5 3.3-14.3 3.8-17.8 1.4-3.2-2.2-4.9-6.9-5-14.5 0.1-7.6 1.8-12.4 5-14.6 3.5-2.4 9.3-1.9 17.8 1.4 4.7 1.8 8.8 1.7 12.1-0.4 6.6-4.2 7.5-14.7 7.6-15.1v-0.1-38.3c0-0.8-0.7-1.5-1.5-1.5h-40.1c-0.8-0.1-9.5-1-12.8-6.2-1.5-2.5-1.6-5.6-0.1-9.4 3.7-9.6 4.1-16.2 1.1-20.6-2.8-4.1-8.3-6.2-17-6.3-8.7 0.1-14.2 2.2-17 6.3-3 4.4-2.6 11 1.1 20.6 1.5 3.8 1.4 6.9-0.1 9.4-3.2 5.1-12 6.1-12.8 6.2h-34.3c-0.8 0-1.5 0.7-1.5 1.5v38.3 0.1c0 0.4 0.9 11 7.6 15.1 3.3 2.1 7.4 2.2 12.1 0.4 8.5-3.3 14.3-3.8 17.8-1.4 3.2 2.2 4.9 6.9 5 14.5-0.1 7.6-1.8 12.4-5 14.5-3.5 2.4-9.3 1.9-17.8-1.4-4.7-1.8-8.8-1.7-12.1 0.4-6.6 4.2-7.5 14.7-7.5 15.1v0.1 35.8c-0.3 0.9 0.3 1.5 1.2 1.5zm1.5-37.1c0.1-0.7 1-9.5 6.1-12.8 2.5-1.5 5.6-1.6 9.4-0.1 9.6 3.8 16.1 4.1 20.6 1.1 4.1-2.8 6.2-8.3 6.3-17v-0.1c-0.1-8.7-2.2-14.2-6.3-17-4.4-3-11-2.6-20.6 1.1-3.8 1.5-6.9 1.4-9.4-0.1-5.2-3.2-6.1-12-6.2-12.8v-36.7h32.8 0.1c0.4 0 11-0.9 15.1-7.5 2.1-3.3 2.2-7.4 0.4-12.1-3.3-8.5-3.8-14.3-1.4-17.8 2.2-3.2 6.9-4.9 14.5-5 7.6 0.1 12.4 1.8 14.5 5 2.4 3.5 1.9 9.3-1.4 17.8-1.8 4.7-1.7 8.8 0.4 12.1 4.2 6.6 14.7 7.5 15.1 7.5h0.1 38.8v36.7c-0.1 0.8-1 9.6-6.2 12.8-2.5 1.5-5.6 1.6-9.4 0.1-9.6-3.7-16.2-4.1-20.6-1.1-4.1 2.8-6.2 8.3-6.3 17.1 0.1 8.7 2.2 14.2 6.3 17 4.4 3 11 2.6 20.6-1.1 3.8-1.5 6.9-1.4 9.4 0.1 5.1 3.2 6.1 12 6.2 12.8v34.2h-38.6-0.1c-0.4 0-11 0.9-15.1 7.5-2.1 3.3-2.2 7.4-0.4 12.1 3.3 8.5 3.8 14.3 1.4 17.8-2.2 3.2-6.9 4.9-14.5 5-7.6-0.1-12.4-1.8-14.6-5-2.4-3.5-1.9-9.3 1.4-17.8 1.8-4.7 1.7-8.8-0.4-12.1-4.2-6.6-14.7-7.5-15.1-7.5h-0.1-32.8v-34.2z"
   id="path334" />
</svg>
