<svg width="2369" height="819" viewBox="0 0 2369 819" fill="none" xmlns="http://www.w3.org/2000/svg">
<g clip-path="url(#clip0_647_154)">
<path d="M115.197 0H2369C2169.36 302.269 1979.53 459.658 1799.5 472.168C1529.45 490.932 1497.92 628.921 1239.62 739.107C1053.95 818.308 -121.088 1011.9 -200 431.5C-215.786 315.39 12.0753 136.876 115.197 0Z" fill="#5634F7"/>
<path d="M5.62988 238.961C147.784 542.577 298.083 656.924 432.815 682C798.17 750 1052.5 561.116 1374.76 487C1626.95 429 1854.58 420.37 2057.63 461.109" stroke="white" stroke-linecap="square"/>
<path d="M1725 520.5C2051.68 520.5 2316.5 433.643 2316.5 326.5C2316.5 219.357 2051.68 132.5 1725 132.5C1398.32 132.5 1133.5 219.357 1133.5 326.5C1133.5 433.643 1398.32 520.5 1725 520.5Z" stroke="#F8F8FF"/>
<path d="M2120.52 733C2214.68 733 2291.02 656.665 2291.02 562.5C2291.02 468.335 2214.68 392 2120.52 392C2026.35 392 1950.02 468.335 1950.02 562.5C1950.02 656.665 2026.35 733 2120.52 733Z" fill="white" stroke="#1B2129"/>
<path d="M2290.52 545.5C2318.13 545.5 2340.52 523.114 2340.52 495.5C2340.52 467.886 2318.13 445.5 2290.52 445.5C2262.9 445.5 2240.52 467.886 2240.52 495.5C2240.52 523.114 2262.9 545.5 2290.52 545.5Z" fill="#5634F7" stroke="#1B2129"/>
<path d="M1891.52 732.5C1901.46 732.5 1909.52 724.441 1909.52 714.5C1909.52 704.559 1901.46 696.5 1891.52 696.5C1881.57 696.5 1873.52 704.559 1873.52 714.5C1873.52 724.441 1881.57 732.5 1891.52 732.5Z" fill="white" stroke="#1B2129"/>
</g>
<defs>
<clipPath id="clip0_647_154">
<rect width="2369" height="819" fill="white"/>
</clipPath>
</defs>
</svg>
