<?xml version="1.0" encoding="utf-8"?>
<!-- Generator: Adobe Illustrator 26.0.3, SVG Export Plug-In . SVG Version: 6.00 Build 0)  -->
<svg version="1.1" id="Layer_1" xmlns="http://www.w3.org/2000/svg" xmlns:xlink="http://www.w3.org/1999/xlink" x="0px" y="0px"
	 viewBox="0 0 906.1 792" style="enable-background:new 0 0 906.1 792;" xml:space="preserve">
<style type="text/css">
	.st0{fill:#FFFFFF;stroke:#1A1A1A;stroke-width:1.0561;stroke-linecap:round;stroke-linejoin:round;stroke-miterlimit:10;}
	.st1{fill:none;stroke:#1A1A1A;stroke-width:1.5842;stroke-linecap:round;stroke-linejoin:round;stroke-miterlimit:10;}
	.st2{fill:#1D0810;stroke:#1A1A1A;stroke-width:0.5281;stroke-linecap:round;stroke-linejoin:round;stroke-miterlimit:10;}
	.st3{fill:none;stroke:#1A1A1A;stroke-width:1.0561;stroke-linecap:round;stroke-linejoin:round;stroke-miterlimit:10;}
	
		.st4{fill:none;stroke:#1A1A1A;stroke-width:1.0561;stroke-linecap:round;stroke-linejoin:round;stroke-miterlimit:10;stroke-dasharray:6.3368;}
	.st5{fill:#8054D4;stroke:#1A1A1A;stroke-width:1.0561;stroke-linecap:round;stroke-linejoin:round;stroke-miterlimit:10;}
	.st6{fill:none;stroke:#FFFFFF;stroke-width:1.5842;stroke-linecap:round;stroke-linejoin:round;stroke-miterlimit:10;}
	.st7{fill:#F8F8FF;stroke:#353535;stroke-miterlimit:10;}
	.st8{fill:#4EBAD5;stroke:#1A1A1A;stroke-width:1.0561;stroke-linecap:round;stroke-linejoin:round;stroke-miterlimit:10;}
</style>
<g id="Vector">
	<path class="st0" d="M57.8,666h563.9c0,0-34.3,49.8-146.6,32.3s-93.6-28.2-155.8-8.5S185.7,731,123.5,721.4S57.8,666,57.8,666z"/>
	<path class="st1" d="M326.3,644.9c-14.8-31.8,13.6-91.5,50-116.6c44.9-31.1,125.7-6,132.5-2c2.6-5.5,43.4-88.6,126.6-91.7
		c64.3-2.4,94.1,18.5,119.1,96.9c2.1-0.9,34.1,1,54.6,21c24.7,23.9,22.3,78.7-0.1,113.7c-152.2,0-304.4,0-456.6,0
		C336.1,660.7,329.4,651.6,326.3,644.9z"/>
	<g>
		<g>
			<path class="st2" d="M721.3,93.2c0-17.1-13.9-31-31-31H255.8c-17.1,0-31,13.9-31,31v0.3h496.5V93.2z"/>
			<rect x="635.3" y="123.1" class="st2" width="86" height="25.8"/>
			<rect x="635.3" y="148.9" class="st0" width="86" height="149.1"/>
			<path class="st2" d="M635.3,297.9v98.7h55.1c17.1,0,31-13.9,31-31v-67.7H635.3z"/>
			<path class="st0" d="M721.3,93.5v29.6h-86v273.5H255.8c-17.1,0-31-13.9-31-31V93.5H721.3z"/>
			<line class="st3" x1="635.3" y1="123.1" x2="224.8" y2="123.1"/>
			<line class="st0" x1="308" y1="123.1" x2="308" y2="396.6"/>
			<rect x="335.7" y="143.1" class="st4" width="257.8" height="106.9"/>
			
				<rect x="418.6" y="75" transform="matrix(-1.836970e-16 1 -1 -1.836970e-16 661.1291 -268.1354)" class="st0" width="92.1" height="243"/>
			<rect x="335.7" y="266.7" class="st4" width="257.8" height="106.9"/>
			
				<rect x="418.6" y="198.7" transform="matrix(-1.836970e-16 1 -1 -1.836970e-16 784.805 -144.4594)" class="st0" width="92.1" height="243"/>
		</g>
		<path class="st0" d="M448.1,396.6V666h106V396.6H448.1z M501.1,504.8c-14.3,0-26-11.6-26-26c0-14.3,11.6-26,26-26
			c14.3,0,26,11.6,26,26C527.1,493.2,515.4,504.8,501.1,504.8z"/>
	</g>
	<g>
		<path class="st5" d="M683.2,665.5c12.1,0.5,24.7,0.9,35.9-3.7c11.2-4.6,20.7-15.8,19.3-27.9c-0.8-6.4-4.4-12.1-6.9-18
			c-2.6-5.9-4-13.1-0.6-18.6c4.7-7.5,16-8.2,21.1-15.5c4.5-6.5,2.1-15.6-1.7-22.5c-2.2-3.9-4.9-7.8-8.8-9.9
			c-3.9-2.2-9.3-2.1-12.5,1.1c-3.2,3.3-3.1,8.6-5.6,12.5c-2.4,3.8-7,5.7-11.4,6.2s-8.9-0.3-13.4-0.7c-22.5-2-47.1,6.8-58.9,26
			c-5.1,8.2-7.6,17.7-11.7,26.4s-10.6,17.1-19.8,19.8c-3.6,1-7.3,1.1-11,1.8c-3.6,0.7-7.4,2.4-9.3,5.5c-3.4,5.5,0.5,13.1,6.2,16.1
			c5.7,3,12.7,0.7,19,2.1C614.6,666.6,683.2,665.5,683.2,665.5z"/>
		<path class="st6" d="M635.3,666.3c10.5-5,23.7-17,31-26.1c7-8.7,12.1-18.8,18.7-27.8c6.6-9,15.4-17.2,26.3-19.5"/>
		<path class="st6" d="M685,597.6c0,0-2.8,4.6,0,14.8"/>
		<path class="st6" d="M690.9,626.3c0,0-3.1,4.2-17.7,4.1"/>
		<path class="st6" d="M714.3,601.5c0,0-8.6,3.8-17.6-1.6"/>
		<path class="st0" d="M563.3,585.8c0.6-6.7,1.8-13.7,5.5-19.3c3.7-5.7,10.4-9.8,17.1-8.7c7.4,1.3,14,8.6,21.1,6.3
			c4.5-1.5,7-6.5,7.2-11.2c0.2-4.7-1.4-9.3-2.5-13.9c-1.6-6.1-2.5-12.5-1.2-18.7c1.2-6.2,4.9-12.1,10.5-14.9
			c8.6-4.3,19.5-0.1,26.1,7c2.4,2.5,4.4,5.4,7,7.7s6.2,3.9,9.6,3.1c3.6-0.8,6.2-4,7.2-7.5s0.7-7.2,0-10.8c-0.8-4.8-1.8-10.7,2-13.8
			c2.6-2,6.2-1.8,9.4-1.3c7.5,1.2,15,3.4,21.1,7.9c6.1,4.5,10.7,11.5,10.7,19.1s-5.3,15.3-12.8,16.6c-4.9,0.9-10.4-0.9-14.8,1.6
			c-4.6,2.6-5.7,9-4.2,14s5.1,9.2,8.1,13.5c3,4.3,5.7,9.4,5.1,14.6c-0.8,7-7.4,12.2-14.3,13.3c-6.9,1.1-13.9-1.2-20.2-4.3
			c-3.5-1.8-7.3-4-11.2-3.2c-5.8,1.1-8.5,8-8,13.9c0.5,5.8,3.1,11.3,3.5,17.2c1.1,13.5-9.6,25.8-22.2,30.9
			c-12.6,5.2-26.6,4.8-40.2,4.4c-6.1-7.7-16.6-16.8-18.6-26.7C562.3,610.8,562.3,597.8,563.3,585.8z"/>
		<path class="st0" d="M573.1,621.3c16.8-8.3,31.3-21.2,41.4-36.9c6.4-9.9,11.1-20.9,17.6-30.8c6.5-9.9,15.2-19,26.5-22.5"/>
		<path class="st0" d="M631.9,534.6c0,0-2.4,13-1.3,21.4"/>
		<path class="st0" d="M667.2,548c-0.6-0.4-22.7,6.1-33.9,3.8"/>
		<path class="st0" d="M631.9,586.6c0,0-12.2,11-23.5,6.3"/>
		<path class="st0" d="M591,584.4c0,0.6-6.4,16.1,1.6,24.4"/>
	</g>
	<path class="st7" d="M85.1,666c179,0,358,0,537.1,0C611,608.8,563.3,566,506.9,561.4c-51.3-4.2-101,24.1-124.8,71.2
		c-4.9-7.3-21.8-42.4-100.5-42.4c-75.5,0-99.3,13.2-112.8,22.1c-16.5-35.4-68.1-47.1-87.9-23C63.3,610.8,64.3,644.2,85.1,666z"/>
	<path class="st1" d="M12.2,666c3.1,0,796.8,0,796.8,0"/>
	<g>
		<line class="st1" x1="562.7" y1="62.2" x2="186.1" y2="666"/>
		<line class="st1" x1="653" y1="62.2" x2="276.3" y2="666"/>
		<line class="st1" x1="254.6" y1="556.2" x2="330.3" y2="577"/>
		<line class="st1" x1="318.1" y1="454.2" x2="393.8" y2="475"/>
		<line class="st1" x1="381.7" y1="352.1" x2="457.4" y2="372.9"/>
		<line class="st1" x1="445.3" y1="250.6" x2="521" y2="271.4"/>
		<line class="st1" x1="508.7" y1="148.8" x2="584.4" y2="169.6"/>
	</g>
	<g>
		<path class="st0" d="M351.1,238c0,0,15,5.2,31.3,25.1s45.2,9.5,54.9-7.1c9.6-16.5,25.3-48.3,40.4-42.8c7.9,3.6,13.5,12.4,8.1,14.1
			c-5.4,1.7-11.5-4.1-13.1-1.7c-1.6,2.4,7.6,4.4,6,7s-7.9-2.8-10.4,4.7c-2.5,7.5-17,59.2-50.5,68.4s-51.6-15.6-52.3-17.2
			c-0.7-1.6-17.4-48.7-17.4-48.7L351.1,238z"/>
		<path class="st2" d="M107.7,651.2c-0.8-1.2-0.9-2.5-0.4-3.7c1.9-4.5-26.5-12.6-26.5-12.6s-2.1,2.8-4.6,6.9
			C83.2,651.1,95.5,652.7,107.7,651.2z"/>
		<path class="st0" d="M122,658.8c-6.7-1.7-12.3-4.5-14.2-7.6c-12.2,1.6-24.5-0.1-31.5-9.4c-4.1,6.7-9.1,17-7.3,23.9
			c2.9,11.2,61.6,12.4,67.4,9.1C142.3,671.5,131.2,661.2,122,658.8z"/>
		<path class="st0" d="M222.6,403.2c0,0-33.2,86.7-52,116.3s-93.4,107.3-92.4,114s11.2,11,21.8,14c10.6,3,14.7,5.5,40.6-20.4
			S266,523.3,294,449.9C290.3,409.1,222.6,403.2,222.6,403.2z"/>
		<path class="st2" d="M296,538.1c2.6,0.5,5.3,0.9,7.9,1.1c1.1-1.9,2.5-3.3,2.5-3.3l-10.8-15.9c0,0-4.3,3.7-9,8.4
			C288,533.3,291.4,537.4,296,538.1z"/>
		<path class="st0" d="M330.1,568.3c-1.5-5.8-7.9-17.7-27.2-22.4c-1.3-2-0.3-4.6,0.9-6.7c-2.6-0.3-5.2-0.7-7.9-1.1
			c-4.6-0.8-8.1-4.8-9.4-9.6c-4.8,5-10,11.2-10.8,15.9c-1.7,9.1,15.3,23.1,31,26.3C322.4,574,331.7,574.1,330.1,568.3z"/>
		<path class="st5" d="M260,249.6c0,0,26.9,36.4,103.8,54.6c14.7-11.3,24.1-27.8,25.2-43.7c-11-5.1-21.8-11.3-32-18.9"/>
		<path class="st0" d="M326,454.9c-20.3,23.3-34.8,66.4-34.5,67.1c0,0,8.1,19.3,16.2,16.2c8-3.1,35.8-24.9,35.8-24.9
			s67.1-53.4,75.3-89c8.3-35.6-7.3-62.8-72.3-52.5c-20-0.9-67.4-15.4-67.4-15.4l-40.6-25.9c0,0-18.5,31.7-19.7,44.1
			c0,0-13.5,81.1,43.1,86c56.7,4.8,83.7-14.2,83.7-14.2"/>
		<path class="st2" d="M218.8,374.5c0,0,92.8,6.2,113.6,2.6c15.7-2.6,11.5-5.4,11.5-5.4l-115-8.5L218.8,374.5z"/>
		<path class="st0" d="M352,215.8c-4.9-2.8-6.8-5.4-6.9-5.6L352,215.8z"/>
		<path class="st0" d="M389.3,185.5l-4.9,14.8c0,0-15.4,24.3-28.5,17.4c-1.5-0.6-2.8-1.3-3.9-1.9l0.4,0.3c0,0,0,0-6.5,11.5
			c2.1,3.7,9.5,11.8,10.4,12.8c0,0,0,0.1,0.1,0.1c0,0,0,0,0,0s-18.4,6.6-29.2,2.9c-10.8-3.6-16.7-14.4-16.7-14.4l27-30.4l10-22.7
			c0,0,27.2,0.7,31.1,2.4C382.6,180,389.3,185.5,389.3,185.5z"/>
		<path class="st2" d="M346.5,211.6c0,0,3.9,8.2,4,8c0.1-0.1,1.5-3,1.5-3L346.5,211.6z"/>
		<path class="st2" d="M227.3,306.4c-4-2.8-5.7-7.9-6.3-12.8c-0.7-4.9-0.6-9.9-2.3-14.5c-3-7.9-10.5-13.1-15.4-20
			c-9.6-13.6-7.1-34.3,5.6-45.1c10.4-8.9,25.1-10.6,38.7-9.5s26.9,4.8,40.5,5.2s28.3-3,37.2-13.4c5-5.9,7.7-13.5,12.5-19.6
			c7.2-9.1,19.3-14.1,30.8-12.8c11.5,1.3,22.2,8.9,27.1,19.4c1.5,3.1,2.5,6.6,2,10c-0.5,3.4-2.6,6.7-5.9,7.8
			c-4.3,1.4-8.7-1.3-12.4-3.8c-5.4-3.7-10.8-7.4-16.2-11c-3-2.1-6.4-4.2-10-3.9c-3.6,0.3-6.7,3.3-7.2,6.8s1.6,7.3,4.9,8.6
			c0,0-25.5,23-32,26.8c-6.5,3.8-81.5,91.2-81.5,91.2L227.3,306.4z"/>
		<path class="st5" d="M372.1,281c0,48.5-23.1,92.2-23.1,92.2s-42.7,4.5-52-3.1c-9.3-7.6-28.3-6-36.6-12.4
			c-8.3-6.4-16.5-26.2-16.5-26.2s25.5-94,66.5-102.5c0,0,5.9,10.8,16.7,14.4c10.8,3.6,29.2-2.9,29.2-2.9s0,0,0,0
			C364.9,248.4,372.1,261,372.1,281z"/>
		<polygon class="st0" points="165.2,379 176.7,289.2 324.9,308.9 308.2,400.2 		"/>
		<polygon class="st0" points="179.4,292.7 168.7,376.3 305.7,396.6 321.2,311.6 		"/>
		<path class="st5" d="M300.1,233.1c0,0-29.1,9.6-54.5,48.9c5.1,9.5,14.6,16.9,25.1,19.7c5.3-5.3,11.3-10.3,18.2-14.8"/>
		<path class="st0" d="M270.8,301.7c-10.5-2.7-20.1-10.1-25.1-19.7c-1.9,2.9-3.8,6.1-5.6,9.4c-26.5,47.1-32.3,78.1,20.6,114.1
			c12,6.2,29.8-4.8,26.1-11.6c-7.1-1-16.1,0.7-15-2.2c1.1-2.9,11.8-3.5,7.4-8.6c-4-3.7-11,1.5-17.5,0.8c-6.5-0.8-19.8-16.3-16.7-36
			C247.2,333.2,256,316.4,270.8,301.7z"/>
		<path class="st8" d="M347.1,211.2c0,0,3.7,3.9,4.9,4.6"/>
	</g>
	<circle class="st0" cx="789.1" cy="380.5" r="18.1"/>
	<circle class="st0" cx="57.8" cy="550.1" r="12.8"/>
	<path class="st0" d="M155.7,192.5v-12h-12.4c-0.5-1.8-1.2-3.5-2.1-5l8.8-8.8l-8.5-8.5l-8.8,8.8c-1.6-0.9-3.3-1.6-5-2.1v-12.4h-12
		v12.4c-1.8,0.5-3.5,1.2-5,2.1l-8.8-8.8l-8.5,8.5l8.8,8.8c-0.9,1.6-1.6,3.3-2.1,5H87.7v12h12.4c0.5,1.8,1.2,3.5,2.1,5l-8.8,8.8
		l8.5,8.5l8.8-8.8c1.6,0.9,3.3,1.6,5,2.1v12.4h12v-12.4c1.8-0.5,3.5-1.2,5-2.1l8.8,8.8l8.5-8.5l-8.8-8.8c0.9-1.6,1.6-3.3,2.1-5
		H155.7z M132.1,192.5c-1.1,1.8-2.6,3.3-4.4,4.4c-0.9,0.5-1.9,0.9-2.9,1.2c-1,0.3-2,0.4-3.1,0.4c-1.1,0-2.1-0.1-3.1-0.4
		c-1-0.3-2-0.7-2.9-1.2c-1.8-1.1-3.3-2.6-4.4-4.4c-0.5-0.9-0.9-1.9-1.2-2.9c-0.3-1-0.4-2-0.4-3.1s0.1-2.1,0.4-3.1
		c0.3-1,0.7-2,1.2-2.9c1.1-1.8,2.6-3.3,4.4-4.4c0.9-0.5,1.9-0.9,2.9-1.2c1-0.3,2-0.4,3.1-0.4c1.1,0,2.1,0.1,3.1,0.4
		c1,0.3,2,0.7,2.9,1.2c1.8,1.1,3.3,2.6,4.4,4.4c0.5,0.9,0.9,1.9,1.2,2.9c0.3,1,0.4,2,0.4,3.1s-0.1,2.1-0.4,3.1
		C133,190.6,132.6,191.6,132.1,192.5z"/>
	<g>
		<rect x="774.7" y="189.7" class="st0" width="45.7" height="45.7"/>
		<line class="st0" x1="797.5" y1="197.6" x2="797.5" y2="227.7"/>
		<line class="st0" x1="782.5" y1="212.6" x2="812.2" y2="212.6"/>
	</g>
	<circle class="st0" cx="269.4" cy="108" r="8.3"/>
	<path class="st0" d="M451.4,113.9h-138c-3,0-5.4-2.4-5.4-5.4v-1.2c0-3,2.4-5.4,5.4-5.4h138c3,0,5.4,2.4,5.4,5.4v1.2
		C456.9,111.4,454.4,113.9,451.4,113.9z"/>
	<g>
		<g>
			<rect x="820.4" y="285.3" class="st0" width="69" height="44.7"/>
			<polygon class="st0" points="854.9,307.1 820.4,285.3 889.4,285.3 			"/>
		</g>
		<line class="st0" x1="820.4" y1="330.1" x2="846.1" y2="301.5"/>
		<line class="st0" x1="864.7" y1="301.5" x2="889.4" y2="330.1"/>
	</g>
</g>
</svg>
