<svg width="1614" height="1231" viewBox="0 0 1614 1231" fill="none" xmlns="http://www.w3.org/2000/svg">
<path d="M185.612 1122.38H1231.96C1231.96 1122.38 1168.31 1214.79 959.934 1182.32C751.556 1149.84 786.254 1129.99 670.839 1166.54C555.424 1203.1 422.937 1242.99 307.522 1225.18C192.107 1207.37 185.612 1122.38 185.612 1122.38Z" fill="white" stroke="#1A1A1A" stroke-width="1.95965" stroke-miterlimit="10" stroke-linecap="round" stroke-linejoin="round"/>
<path d="M683.829 1083.23C656.367 1024.22 709.064 913.447 776.607 866.873C859.921 809.165 1009.85 855.74 1022.47 863.162C1027.29 852.956 1103 698.76 1257.38 693.008C1376.69 688.554 1431.99 727.335 1478.38 872.811C1482.27 871.141 1541.65 874.666 1579.69 911.777C1625.52 956.125 1621.07 1057.81 1579.5 1122.75C1297.09 1122.75 1014.67 1122.75 732.259 1122.75C702.013 1112.55 689.581 1095.66 683.829 1083.23Z" stroke="#1A1A1A" stroke-width="2.93957" stroke-miterlimit="10" stroke-linecap="round" stroke-linejoin="round"/>
<path d="M1416.77 59.5221C1416.77 27.7922 1390.98 2 1359.25 2H553.013C521.283 2 495.491 27.7922 495.491 59.5221V60.0788H1416.77V59.5221Z" fill="#1D0810" stroke="#1A1A1A" stroke-width="0.979917" stroke-miterlimit="10" stroke-linecap="round" stroke-linejoin="round"/>
<path d="M1257.19 439.354V622.497H1359.44C1391.17 622.497 1416.96 596.704 1416.96 564.974V439.354H1257.19Z" fill="#F6F5FD" stroke="#1A1A1A" stroke-width="0.979917" stroke-miterlimit="10" stroke-linecap="round" stroke-linejoin="round"/>
<path d="M1416.77 60.0781V115.002V368.749V440V566.496C1416.77 597.424 1391.7 622.496 1360.77 622.496H1257.2H553.013C521.283 622.496 495.491 596.704 495.491 564.974V60.0781H1416.77Z" fill="#F6F5FD" stroke="#1A1A1A" stroke-width="1.95965" stroke-miterlimit="10" stroke-linecap="round" stroke-linejoin="round"/>
<path d="M906.274 190.231C1004.18 256.933 1029.47 390.371 962.769 488.273C896.067 586.176 762.63 611.469 664.727 544.768C566.825 478.066 541.531 344.629 608.233 246.726C674.934 148.824 808.372 123.53 906.274 190.231ZM676.804 527.041C764.917 587.072 885.011 564.308 945.042 476.196C1005.07 388.084 982.309 267.99 894.197 207.958C806.085 147.927 685.991 170.691 625.959 258.803C565.928 346.916 588.692 467.01 676.804 527.041Z" fill="#C9BFF3"/>
<path d="M670.765 535.904C667.43 540.799 668.682 547.496 673.738 550.582C699.506 566.312 728.341 576.448 758.368 580.277C791.947 584.558 826.062 580.832 857.924 569.403C889.787 557.974 918.492 539.166 941.693 514.517C964.894 489.868 981.932 460.078 991.413 427.583C1000.9 395.088 1002.55 360.81 996.248 327.552C989.943 294.294 975.858 263 955.142 236.228C934.426 209.457 907.668 187.969 877.056 173.521C849.682 160.6 819.921 153.637 789.737 153.041C783.815 152.924 779.158 157.897 779.337 163.818C779.516 169.738 784.464 174.361 790.385 174.511C817.183 175.189 843.588 181.443 867.901 192.918C895.451 205.922 919.533 225.262 938.178 249.356C956.822 273.45 969.499 301.614 975.173 331.547C980.847 361.479 979.356 392.329 970.822 421.575C962.288 450.82 946.954 477.631 926.074 499.815C905.193 521.999 879.358 538.926 850.682 549.213C822.006 559.499 791.302 562.852 761.082 558.999C734.413 555.598 708.788 546.67 685.831 532.83C680.758 529.772 674.1 531.009 670.765 535.904Z" fill="#4E2E84"/>
<path d="M890.792 212.958C976.143 271.108 998.194 387.438 940.044 472.789C881.894 558.14 765.563 580.191 680.212 522.041C594.861 463.891 572.811 347.56 630.961 262.21C689.111 176.859 805.441 154.808 890.792 212.958ZM690.741 506.587C767.557 558.922 872.254 539.076 924.589 462.26C976.924 385.444 957.079 280.747 880.263 228.412C803.447 176.077 698.75 195.923 646.415 272.739C594.08 349.554 613.926 454.252 690.741 506.587Z" fill="#C9BFF3"/>
<path d="M685.475 514.314C682.567 518.582 683.658 524.42 688.066 527.11C706.323 538.256 726.379 546.198 747.365 550.57C771.406 555.578 796.198 555.802 820.326 551.228C844.454 546.655 867.444 537.374 887.985 523.915C905.916 512.167 921.673 497.436 934.586 480.382C937.703 476.265 936.582 470.432 932.314 467.525C928.047 464.617 922.251 465.738 919.111 469.838C907.596 484.871 893.613 497.871 877.736 508.274C859.25 520.386 838.558 528.739 816.843 532.855C795.129 536.971 772.816 536.77 751.179 532.263C732.597 528.392 714.826 521.411 698.608 511.634C694.186 508.968 688.382 510.047 685.475 514.314Z" fill="#4E2E84"/>
<path d="M876.858 233.412C950.912 283.866 970.044 384.799 919.591 458.854C869.137 532.908 768.203 552.04 694.149 501.587C620.095 451.133 600.962 350.199 651.416 276.145C701.87 202.091 802.803 182.958 876.858 233.412ZM703.284 488.178C769.933 533.586 860.774 516.367 906.182 449.718C951.59 383.069 934.371 292.229 867.722 246.821C801.073 201.412 710.233 218.631 664.825 285.28C619.416 351.929 636.635 442.77 703.284 488.178Z" fill="#C9BFF3"/>
<path d="M698.717 494.882C696.194 498.585 697.141 503.651 700.965 505.986C729.789 523.582 763.396 531.746 797.08 529.336C801.549 529.016 804.715 524.95 804.172 520.502C803.629 516.055 799.583 512.913 795.113 513.208C765.338 515.172 735.667 507.964 710.113 492.558C706.276 490.245 701.239 491.18 698.717 494.882Z" fill="#4E2E84"/>
<path d="M864.469 251.594C928.482 295.206 945.02 382.454 901.407 446.467C857.795 510.48 770.547 527.018 706.534 483.406C642.521 439.793 625.983 352.546 669.595 288.532C713.208 224.519 800.456 207.981 864.469 251.594ZM714.431 471.815C772.043 511.066 850.566 496.182 889.817 438.57C929.068 380.958 914.184 302.435 856.572 263.184C798.96 223.933 720.437 238.817 681.186 296.429C641.935 354.041 656.819 432.564 714.431 471.815Z" fill="#C9BFF3"/>
<path d="M710.482 477.611C708.302 480.811 709.12 485.19 712.426 487.208C729.391 497.564 748.366 504.197 768.089 506.665C771.932 507.146 775.3 504.23 775.588 500.368C775.877 496.506 772.975 493.161 769.135 492.659C751.865 490.401 735.249 484.593 720.333 475.601C717.016 473.601 712.663 474.41 710.482 477.611Z" fill="#4E2E84"/>
<path d="M853.63 267.502C908.857 305.128 923.125 380.401 885.498 435.628C847.872 490.855 772.599 505.123 717.372 467.497C662.145 429.87 647.877 354.598 685.504 299.371C723.13 244.144 798.403 229.876 853.63 267.502ZM724.185 457.497C773.89 491.361 841.635 478.52 875.499 428.815C909.363 379.111 896.521 311.366 846.817 277.502C797.113 243.638 729.367 256.479 695.503 306.184C661.64 355.888 674.481 423.633 724.185 457.497Z" fill="#C9BFF3"/>
<path d="M747.571 476.011C746.469 479.166 743.011 480.843 739.916 479.584C733.868 477.124 728.028 474.179 722.455 470.777C719.603 469.036 718.898 465.258 720.779 462.497C722.66 459.736 726.416 459.038 729.277 460.763C733.964 463.588 738.857 466.056 743.915 468.146C747.003 469.422 748.674 472.857 747.571 476.011Z" fill="#4E2E84"/>
<path d="M1417 115H495.001" stroke="#1A1A1A" stroke-width="1.95965" stroke-miterlimit="10" stroke-linecap="round" stroke-linejoin="round"/>
<path d="M909.835 622.496V1122.38H1106.52V622.496H909.835ZM1008.18 823.267C981.645 823.267 959.935 801.742 959.935 775.022C959.935 748.488 981.459 726.778 1008.18 726.778C1034.71 726.778 1056.42 748.302 1056.42 775.022C1056.42 801.742 1034.71 823.267 1008.18 823.267Z" fill="white" stroke="#1A1A1A" stroke-width="1.95965" stroke-miterlimit="10" stroke-linecap="round" stroke-linejoin="round"/>
<path d="M1346.08 1121.45C1368.53 1122.38 1391.91 1123.12 1412.69 1114.59C1433.47 1106.05 1451.1 1085.27 1448.5 1062.82C1447.02 1050.94 1440.34 1040.37 1435.7 1029.42C1430.87 1018.47 1428.28 1005.11 1434.59 994.906C1443.31 980.989 1464.27 979.69 1473.74 966.145C1482.09 954.084 1477.63 937.198 1470.58 924.395C1466.5 917.158 1461.49 909.921 1454.25 906.025C1447.02 901.943 1437 902.128 1431.06 908.066C1425.12 914.189 1425.31 924.024 1420.67 931.26C1416.22 938.311 1407.68 941.837 1399.52 942.765C1391.35 943.692 1383 942.208 1374.65 941.466C1332.9 937.755 1287.26 954.084 1265.36 989.71C1255.9 1004.93 1251.26 1022.55 1243.65 1038.7C1236.04 1054.84 1223.98 1070.43 1206.91 1075.44C1200.23 1077.29 1193.36 1077.48 1186.5 1078.78C1179.82 1080.08 1172.77 1083.23 1169.24 1088.98C1162.93 1099.19 1170.17 1113.29 1180.75 1118.86C1191.32 1124.42 1204.31 1120.16 1216 1122.75C1218.79 1123.5 1346.08 1121.45 1346.08 1121.45Z" fill="#8054D4" stroke="#1A1A1A" stroke-width="1.95965" stroke-miterlimit="10" stroke-linecap="round" stroke-linejoin="round"/>
<path d="M1257.2 1122.94C1276.68 1113.66 1301.17 1091.39 1314.72 1074.51C1327.71 1058.37 1337.17 1039.62 1349.42 1022.92C1361.66 1006.22 1377.99 991.009 1398.22 986.741" stroke="white" stroke-width="2.93957" stroke-miterlimit="10" stroke-linecap="round" stroke-linejoin="round"/>
<path d="M1349.42 995.462C1349.42 995.462 1344.22 1004 1349.42 1022.92" stroke="white" stroke-width="2.93957" stroke-miterlimit="10" stroke-linecap="round" stroke-linejoin="round"/>
<path d="M1360.36 1048.72C1360.36 1048.72 1354.61 1056.51 1327.52 1056.32" stroke="white" stroke-width="2.93957" stroke-miterlimit="10" stroke-linecap="round" stroke-linejoin="round"/>
<path d="M1403.78 1002.7C1403.78 1002.7 1387.83 1009.75 1371.13 999.73" stroke="white" stroke-width="2.93957" stroke-miterlimit="10" stroke-linecap="round" stroke-linejoin="round"/>
<path d="M1123.6 973.567C1124.71 961.134 1126.94 948.146 1133.8 937.754C1140.67 927.178 1153.1 919.57 1165.53 921.611C1179.26 924.023 1191.51 937.569 1204.68 933.301C1213.03 930.518 1217.67 921.24 1218.04 912.519C1218.41 903.798 1215.45 895.262 1213.4 886.727C1210.44 875.408 1208.77 863.532 1211.18 852.028C1213.4 840.524 1220.27 829.576 1230.66 824.38C1246.62 816.401 1266.84 824.195 1279.09 837.369C1283.54 842.008 1287.26 847.389 1292.08 851.657C1296.9 855.925 1303.58 858.894 1309.89 857.409C1316.57 855.925 1321.4 849.987 1323.25 843.492C1325.11 836.998 1324.55 830.132 1323.25 823.452C1321.77 814.546 1319.91 803.598 1326.96 797.846C1331.79 794.135 1338.47 794.506 1344.41 795.434C1358.32 797.66 1372.24 801.743 1383.56 810.093C1394.88 818.442 1403.41 831.431 1403.41 845.534C1403.41 859.636 1393.58 873.924 1379.66 876.336C1370.57 878.006 1360.36 874.666 1352.2 879.305C1343.66 884.129 1341.62 896.005 1344.41 905.282C1347.19 914.56 1353.87 922.353 1359.44 930.332C1365 938.311 1370.01 947.774 1368.9 957.423C1367.42 970.412 1355.17 980.061 1342.37 982.102C1329.56 984.143 1316.57 979.875 1304.88 974.123C1298.39 970.783 1291.34 966.701 1284.1 968.186C1273.34 970.227 1268.33 983.03 1269.26 993.978C1270.18 1004.74 1275.01 1014.95 1275.75 1025.89C1277.79 1050.94 1257.94 1073.77 1234.56 1083.23C1211.18 1092.88 1185.2 1092.14 1159.96 1091.39C1148.65 1077.11 1129.16 1060.22 1125.45 1041.85C1121.74 1019.96 1121.74 995.833 1123.6 973.567Z" fill="white" stroke="#1A1A1A" stroke-width="1.95965" stroke-miterlimit="10" stroke-linecap="round" stroke-linejoin="round"/>
<path d="M1141.78 1039.44C1172.95 1024.04 1199.86 1000.1 1218.6 970.968C1230.48 952.598 1239.2 932.187 1251.26 913.817C1263.32 895.447 1279.46 878.562 1300.43 872.067" fill="white"/>
<path d="M1141.78 1039.44C1172.95 1024.04 1199.86 1000.1 1218.6 970.968C1230.48 952.598 1239.2 932.187 1251.26 913.817C1263.32 895.447 1279.46 878.562 1300.43 872.067" stroke="#1A1A1A" stroke-width="1.95965" stroke-miterlimit="10" stroke-linecap="round" stroke-linejoin="round"/>
<path d="M1250.89 878.562C1250.89 878.562 1246.43 902.685 1248.47 918.271L1250.89 878.562Z" fill="white"/>
<path d="M1250.89 878.562C1250.89 878.562 1246.43 902.685 1248.47 918.271" stroke="#1A1A1A" stroke-width="1.95965" stroke-miterlimit="10" stroke-linecap="round" stroke-linejoin="round"/>
<path d="M1316.39 903.427C1315.28 902.684 1274.27 914.745 1253.49 910.478L1316.39 903.427Z" fill="white"/>
<path d="M1316.39 903.427C1315.28 902.684 1274.27 914.745 1253.49 910.478" stroke="#1A1A1A" stroke-width="1.95965" stroke-miterlimit="10" stroke-linecap="round" stroke-linejoin="round"/>
<path d="M1250.89 975.051C1250.89 975.051 1228.25 995.462 1207.28 986.741L1250.89 975.051Z" fill="white"/>
<path d="M1250.89 975.051C1250.89 975.051 1228.25 995.462 1207.28 986.741" stroke="#1A1A1A" stroke-width="1.95965" stroke-miterlimit="10" stroke-linecap="round" stroke-linejoin="round"/>
<path d="M1175 970.97C1175 972.083 1163.12 1000.84 1177.96 1016.25L1175 970.97Z" fill="white"/>
<path d="M1175 970.97C1175 972.083 1163.12 1000.84 1177.96 1016.25" stroke="#1A1A1A" stroke-width="1.95965" stroke-miterlimit="10" stroke-linecap="round" stroke-linejoin="round"/>
<path d="M236.269 1122.38C568.413 1122.38 900.557 1122.38 1232.89 1122.38C1212.1 1016.24 1123.59 936.827 1018.94 928.292C923.751 920.498 831.531 973.01 787.368 1060.41C778.276 1046.86 746.917 981.732 600.885 981.732C460.791 981.732 416.629 1006.22 391.579 1022.74C360.963 957.053 265.216 935.343 228.476 980.061C195.818 1019.96 197.674 1081.93 236.269 1122.38Z" fill="#F8F8FF" stroke="#353535" stroke-width="1.85555" stroke-miterlimit="10"/>
<path d="M101 1122.38C106.752 1122.38 1579.5 1122.38 1579.5 1122.38" stroke="#1A1A1A" stroke-width="2.93957" stroke-miterlimit="10" stroke-linecap="round" stroke-linejoin="round"/>
<path d="M942.481 2L243.681 1122.38" stroke="#1A1A1A" stroke-width="2.93957" stroke-miterlimit="10" stroke-linecap="round" stroke-linejoin="round"/>
<path d="M1110.04 2L411.052 1122.38" stroke="#1A1A1A" stroke-width="2.93957" stroke-miterlimit="10" stroke-linecap="round" stroke-linejoin="round"/>
<path d="M370.786 918.643L511.251 957.238" stroke="#1A1A1A" stroke-width="2.93957" stroke-miterlimit="10" stroke-linecap="round" stroke-linejoin="round"/>
<path d="M488.613 729.376L629.079 767.971" stroke="#1A1A1A" stroke-width="2.93957" stroke-miterlimit="10" stroke-linecap="round" stroke-linejoin="round"/>
<path d="M606.626 539.924L747.091 578.519" stroke="#1A1A1A" stroke-width="2.93957" stroke-miterlimit="10" stroke-linecap="round" stroke-linejoin="round"/>
<path d="M724.64 351.586L865.105 390.181" stroke="#1A1A1A" stroke-width="2.93957" stroke-miterlimit="10" stroke-linecap="round" stroke-linejoin="round"/>
<path d="M842.281 162.691L982.747 201.287" stroke="#1A1A1A" stroke-width="2.93957" stroke-miterlimit="10" stroke-linecap="round" stroke-linejoin="round"/>
<path d="M525.144 328.199C525.144 328.199 552.977 337.847 583.223 374.773C613.468 411.698 667.093 392.401 685.092 361.599C702.906 330.982 732.038 271.975 760.057 282.181C774.716 288.861 785.107 305.19 775.087 308.344C765.067 311.499 753.748 300.736 750.779 305.19C747.81 309.643 764.881 313.354 761.912 318.179C758.943 323.003 747.253 312.983 742.614 326.9C737.976 340.816 711.07 436.748 648.909 453.82C586.748 470.891 553.163 424.873 551.864 421.904C550.565 418.935 519.577 331.539 519.577 331.539L525.144 328.199Z" fill="white" stroke="#1A1A1A" stroke-width="1.95965" stroke-miterlimit="10" stroke-linecap="round" stroke-linejoin="round"/>
<path d="M73.5095 1094.92C72.025 1092.69 71.8395 1090.28 72.7672 1088.05C76.2928 1079.7 23.5951 1064.67 23.5951 1064.67C23.5951 1064.67 19.6985 1069.87 15.0596 1077.48C28.0484 1094.73 50.8717 1097.7 73.5095 1094.92Z" fill="#1D0810" stroke="#1A1A1A" stroke-width="0.979917" stroke-miterlimit="10" stroke-linecap="round" stroke-linejoin="round"/>
<path d="M100.045 1109.02C87.6127 1105.87 77.2216 1100.67 73.696 1094.92C51.0583 1097.89 28.235 1094.73 15.2462 1077.48C7.63839 1089.91 -1.63938 1109.02 1.70062 1121.83C7.08172 1142.61 116.003 1144.83 126.765 1138.71C137.713 1132.59 117.116 1113.48 100.045 1109.02Z" fill="white" stroke="#1A1A1A" stroke-width="1.95965" stroke-miterlimit="10" stroke-linecap="round" stroke-linejoin="round"/>
<path d="M286.713 634.743C286.713 634.743 225.109 795.619 190.224 850.544C155.34 905.468 16.9159 1049.64 18.7714 1062.08C20.627 1074.51 39.5536 1082.49 59.2224 1088.05C78.8913 1093.62 86.4991 1098.26 134.558 1050.2C182.617 1002.14 367.244 857.595 419.2 721.397C412.334 645.691 286.713 634.743 286.713 634.743Z" fill="white" stroke="#1A1A1A" stroke-width="1.95965" stroke-miterlimit="10" stroke-linecap="round" stroke-linejoin="round"/>
<path d="M422.911 885.057C427.735 885.985 432.745 886.727 437.57 887.098C439.611 883.573 442.209 880.975 442.209 880.975L422.169 851.472C422.169 851.472 414.19 858.337 405.469 867.058C408.067 876.151 414.375 883.758 422.911 885.057Z" fill="#1D0810" stroke="#1A1A1A" stroke-width="0.979917" stroke-miterlimit="10" stroke-linecap="round" stroke-linejoin="round"/>
<path d="M486.186 941.094C483.403 930.332 471.527 908.251 435.715 899.53C433.303 895.819 435.158 890.994 437.385 887.098C432.561 886.541 427.736 885.799 422.726 885.056C414.191 883.572 407.696 876.15 405.284 867.243C396.377 876.521 386.729 888.025 385.244 896.746C382.09 913.632 413.634 939.61 442.766 945.547C471.898 951.671 489.155 951.856 486.186 941.094Z" fill="white" stroke="#1A1A1A" stroke-width="1.95965" stroke-miterlimit="10" stroke-linecap="round" stroke-linejoin="round"/>
<path d="M356.112 349.73C356.112 349.73 406.027 417.272 548.719 451.043C575.995 430.076 593.437 399.459 595.479 369.956C575.067 360.492 555.027 348.988 536.101 334.886" fill="#8054D4"/>
<path d="M356.112 349.73C356.112 349.73 406.027 417.272 548.719 451.043C575.995 430.076 593.437 399.459 595.479 369.956C575.067 360.492 555.027 348.988 536.101 334.886" stroke="#1A1A1A" stroke-width="1.95965" stroke-miterlimit="10" stroke-linecap="round" stroke-linejoin="round"/>
<path d="M478.578 730.674C440.91 773.909 414.005 853.883 414.561 855.182C414.561 855.182 429.591 890.994 444.621 885.242C459.466 879.49 511.05 839.039 511.05 839.039C511.05 839.039 635.558 739.952 650.773 673.895C666.174 607.837 637.228 557.366 516.617 576.478C479.506 574.808 391.552 547.903 391.552 547.903L316.217 499.844C316.217 499.844 281.889 558.665 279.663 581.674C279.663 581.674 254.613 732.159 359.637 741.251C464.847 750.158 514.947 714.902 514.947 714.902" fill="white"/>
<path d="M478.578 730.674C440.91 773.909 414.005 853.883 414.561 855.182C414.561 855.182 429.591 890.994 444.621 885.242C459.466 879.49 511.05 839.039 511.05 839.039C511.05 839.039 635.558 739.952 650.773 673.895C666.174 607.837 637.228 557.366 516.617 576.478C479.506 574.808 391.552 547.903 391.552 547.903L316.217 499.844C316.217 499.844 281.889 558.665 279.663 581.674C279.663 581.674 254.613 732.159 359.637 741.251C464.847 750.158 514.947 714.902 514.947 714.902" stroke="#1A1A1A" stroke-width="1.95965" stroke-miterlimit="10" stroke-linecap="round" stroke-linejoin="round"/>
<path d="M279.663 581.489C279.663 581.489 451.858 592.994 490.454 586.314C519.586 581.489 511.793 576.294 511.793 576.294L298.404 560.521L279.663 581.489Z" fill="#1D0810" stroke="#1A1A1A" stroke-width="0.979917" stroke-miterlimit="10" stroke-linecap="round" stroke-linejoin="round"/>
<path d="M526.814 287.006C517.722 281.811 514.196 276.986 514.011 276.615L526.814 287.006Z" fill="white" stroke="#1A1A1A" stroke-width="1.95965" stroke-miterlimit="10" stroke-linecap="round" stroke-linejoin="round"/>
<path d="M596.035 230.789L586.943 258.251C586.943 258.251 558.367 303.341 534.059 290.538C531.276 289.424 528.864 288.125 526.823 287.012L527.565 287.569C527.565 287.569 527.565 287.569 515.504 308.908C519.401 315.773 533.132 330.803 534.802 332.659C534.802 332.659 534.802 332.844 534.987 332.844C534.987 332.844 500.845 345.091 480.805 338.225C460.765 331.545 449.817 311.505 449.817 311.505L499.917 255.097L518.473 212.976C518.473 212.976 568.944 214.274 576.18 217.429C583.603 220.583 596.035 230.789 596.035 230.789Z" fill="white" stroke="#1A1A1A" stroke-width="1.95965" stroke-miterlimit="10" stroke-linecap="round" stroke-linejoin="round"/>
<path d="M516.609 279.213C516.609 279.213 523.846 294.428 524.032 294.057C524.217 293.872 526.815 288.491 526.815 288.491L516.609 279.213Z" fill="#1D0810" stroke="#1A1A1A" stroke-width="0.979917" stroke-miterlimit="10" stroke-linecap="round" stroke-linejoin="round"/>
<path d="M295.435 455.125C288.013 449.93 284.859 440.466 283.745 431.374C282.446 422.282 282.632 413.004 279.477 404.469C273.911 389.81 259.994 380.161 250.902 367.358C233.089 342.122 237.728 303.712 261.293 283.672C280.591 267.158 307.867 264.003 333.103 266.044C358.338 268.086 383.017 274.951 408.253 275.693C433.488 276.435 460.765 270.127 477.279 250.829C486.557 239.881 491.567 225.779 500.474 214.46C513.834 197.575 536.286 188.297 557.625 190.709C578.964 193.121 598.818 207.223 607.91 226.707C610.694 232.459 612.549 238.953 611.621 245.262C610.694 251.571 606.797 257.694 600.674 259.736C592.695 262.333 584.53 257.323 577.665 252.684C567.645 245.819 557.625 238.953 547.605 232.273C542.038 228.377 535.729 224.48 529.049 225.037C522.369 225.593 516.617 231.16 515.689 237.654C514.762 244.149 518.658 251.2 524.781 253.612C524.781 253.612 477.465 296.29 465.404 303.341C453.343 310.392 314.176 472.567 314.176 472.567L295.435 455.125Z" fill="#1D0810" stroke="#1A1A1A" stroke-width="0.979917" stroke-miterlimit="10" stroke-linecap="round" stroke-linejoin="round"/>
<path d="M564.118 407.995C564.118 497.989 521.255 579.076 521.255 579.076C521.255 579.076 442.023 587.426 424.766 573.324C407.51 559.222 372.254 562.191 356.853 550.315C341.452 538.44 326.236 501.7 326.236 501.7C326.236 501.7 373.553 327.278 449.631 311.506C449.631 311.506 460.578 331.546 480.618 338.226C500.658 344.906 534.8 332.845 534.8 332.845C550.758 347.504 564.118 370.884 564.118 407.995Z" fill="#8054D4" stroke="#1A1A1A" stroke-width="1.95965" stroke-miterlimit="10" stroke-linecap="round" stroke-linejoin="round"/>
<path d="M180.204 589.839L201.543 423.21L476.536 459.764L445.548 629.176L180.204 589.839Z" fill="white" stroke="#1A1A1A" stroke-width="1.95965" stroke-miterlimit="10" stroke-linecap="round" stroke-linejoin="round"/>
<path d="M206.553 429.705L186.698 584.829L440.909 622.497L469.67 464.775L206.553 429.705Z" fill="white" stroke="#1A1A1A" stroke-width="1.95965" stroke-miterlimit="10" stroke-linecap="round" stroke-linejoin="round"/>
<path d="M430.519 319.113C430.519 319.113 376.523 336.927 329.392 409.85C338.855 427.478 356.483 441.209 375.966 446.404C385.8 436.57 396.934 427.292 409.737 418.942" fill="#8054D4"/>
<path d="M430.519 319.113C430.519 319.113 376.523 336.927 329.392 409.85C338.855 427.477 356.483 441.209 375.966 446.404C385.8 436.57 396.934 427.292 409.737 418.942" stroke="#1A1A1A" stroke-width="1.95965" stroke-miterlimit="10" stroke-linecap="round" stroke-linejoin="round"/>
<path d="M376.152 446.404C356.669 441.394 338.855 427.663 329.578 409.85C326.052 415.231 322.527 421.168 319.187 427.292C270.015 514.688 259.252 572.21 357.411 639.01C379.678 650.515 412.706 630.104 405.841 617.486C392.666 615.63 375.967 618.785 378.008 613.404C380.049 608.023 399.903 606.909 391.739 597.446C384.317 590.58 371.328 600.229 359.267 598.93C347.205 597.446 322.527 568.685 328.279 532.13C332.361 504.854 348.69 473.681 376.152 446.404Z" fill="white" stroke="#1A1A1A" stroke-width="1.95965" stroke-miterlimit="10" stroke-linecap="round" stroke-linejoin="round"/>
<path d="M517.722 278.471C517.722 278.471 524.587 285.707 526.814 287.006L517.722 278.471Z" fill="#4EBAD5"/>
<path d="M517.722 278.471C517.722 278.471 524.587 285.707 526.814 287.006" stroke="#1A1A1A" stroke-width="1.95965" stroke-miterlimit="10" stroke-linecap="round" stroke-linejoin="round"/>
<path d="M370.3 235.735C374.338 272.541 347.837 305.649 311.137 309.682C274.437 313.715 241.429 287.154 237.404 250.351C233.38 213.549 259.866 180.438 296.566 176.405C333.266 172.372 366.275 198.932 370.3 235.735Z" fill="white" stroke="black" stroke-miterlimit="10"/>
<path d="M359.481 236.943C360.684 247.977 358.597 259.12 353.485 268.965C348.373 278.809 340.465 286.912 330.761 292.25C321.058 297.587 309.994 299.919 298.968 298.951C287.943 297.983 277.452 293.757 268.821 286.81C260.19 279.862 253.807 270.503 250.479 259.918C247.151 249.332 247.027 237.994 250.124 227.338C253.22 216.682 259.398 207.186 267.876 200.05C276.353 192.915 286.75 188.461 297.751 187.251C305.058 186.448 312.451 187.096 319.508 189.159C326.565 191.221 333.148 194.658 338.881 199.272C344.613 203.887 349.383 209.589 352.917 216.052C356.452 222.516 358.683 229.615 359.481 236.943Z" fill="white" stroke="black" stroke-miterlimit="10"/>
<path d="M348.552 261.797C358.877 237.041 347.237 208.578 322.553 198.222C297.869 187.866 269.488 199.54 259.162 224.296C248.836 249.052 260.476 277.515 285.161 287.87C309.845 298.226 338.226 286.552 348.552 261.797Z" fill="white" stroke="black" stroke-miterlimit="10"/>
<path d="M325.308 261.508C327.061 256.395 325.904 252.173 322.128 248.747C321.697 248.356 321.058 248.17 320.873 247.445C321.021 247.347 321.182 247.27 321.351 247.215C325.123 246.601 327.684 244.364 329.471 240.891C332.203 235.582 331.426 230.054 327.351 226.129C325.273 224.171 322.909 222.542 320.341 221.3C319.399 220.824 319.086 220.351 319.614 219.217C320.859 216.541 321.926 213.787 323.141 211.097C323.268 210.833 323.353 210.551 323.393 210.261L317.087 207.611C317.046 207.682 317.009 207.755 316.976 207.831C315.838 210.709 314.62 213.551 313.466 216.43C313.146 217.23 312.773 217.51 311.992 217.196C311.016 216.804 310.03 216.413 309.021 216.113C307.937 215.775 307.87 215.249 308.348 214.209C309.606 211.486 310.727 208.701 311.945 205.961C312.009 205.817 312.057 205.666 312.09 205.512L306.063 202.978C305.922 203.156 305.808 203.355 305.726 203.568C304.67 206.167 303.532 208.732 302.462 211.33C301.648 213.295 301.54 213.355 299.723 212.68C299.551 212.613 299.386 212.535 299.215 212.464C296.164 211.216 293.11 209.967 290.055 208.718L289.887 208.654L286.989 215.897C288.123 216.322 289.244 216.781 290.354 217.246C292.451 218.148 293.124 219.666 292.333 221.971C291.801 223.524 291.101 225.009 290.482 226.548C287.137 234.749 283.792 242.949 280.447 251.15C279.711 252.946 278.603 253.442 276.864 252.794C275.918 252.456 274.979 252.078 274.057 251.67C273.199 253.111 271.278 256.331 269.518 259.216C272.795 260.566 275.975 262.139 279.324 263.324C280.283 263.661 280.387 264.127 279.933 265.126C278.634 267.971 277.483 270.863 276.251 273.752L282.645 276.573C282.665 276.526 282.685 276.502 282.705 276.452C283.786 273.708 285.014 271.018 286.131 268.288C286.545 267.275 287.016 266.776 288.096 267.316C288.921 267.719 289.78 268.045 290.664 268.291C291.7 268.592 291.906 269.098 291.425 270.161C290.169 272.939 289.025 275.763 287.804 278.554C287.76 278.649 287.746 278.723 287.713 278.811L294.157 281.656C294.156 281.649 294.156 281.642 294.157 281.636C295.311 278.821 296.637 276.074 297.791 273.259C298.303 272.007 298.939 271.737 300.127 272.132C302.929 273.062 305.839 273.629 308.785 273.819C313.214 274.093 317.336 273.144 320.634 269.641C322.824 267.316 324.275 264.515 325.308 261.508ZM299.629 237.499C301.246 233.62 302.839 229.733 304.407 225.839C304.713 225.08 304.983 224.826 305.827 225.198C309.239 226.652 312.759 227.898 315.465 230.597C318.864 233.999 317.821 239.632 313.506 241.141C311.992 241.662 310.366 241.773 308.795 241.461C305.457 240.999 302.765 239.831 300.066 238.684C299.511 238.451 299.353 238.161 299.629 237.499ZM305.423 263.742C304.436 263.836 303.442 263.805 302.462 263.651C298.31 263.135 294.746 261.531 291.105 260.155C290.489 259.922 290.405 259.513 290.647 258.916C292.41 254.576 294.168 250.232 295.92 245.886C296.146 245.322 296.351 244.998 297.038 245.271C300.692 246.739 304.441 248.029 307.695 250.334C308.799 251.088 309.775 252.017 310.582 253.084C312.147 255.197 312.352 257.499 311.178 259.935C310.003 262.372 307.994 263.563 305.423 263.742Z" fill="white" stroke="black" stroke-miterlimit="10"/>
<path d="M1542.58 626.208C1561.13 626.208 1576.16 611.171 1576.16 592.623C1576.16 574.074 1561.13 559.037 1542.58 559.037C1524.03 559.037 1508.99 574.074 1508.99 592.623C1508.99 611.171 1524.03 626.208 1542.58 626.208Z" fill="white" stroke="#1A1A1A" stroke-width="1.95965" stroke-miterlimit="10" stroke-linecap="round" stroke-linejoin="round"/>
<path d="M185.612 931.075C198.73 931.075 209.363 920.442 209.363 907.324C209.363 894.207 198.73 883.573 185.612 883.573C172.495 883.573 161.861 894.207 161.861 907.324C161.861 920.442 172.495 931.075 185.612 931.075Z" fill="white" stroke="#1A1A1A" stroke-width="1.95965" stroke-miterlimit="10" stroke-linecap="round" stroke-linejoin="round"/>
<path d="M578.249 102.385C586.754 102.385 593.65 95.4899 593.65 86.9841C593.65 78.4783 586.754 71.583 578.249 71.583C569.743 71.583 562.848 78.4783 562.848 86.9841C562.848 95.4899 569.743 102.385 578.249 102.385Z" fill="white" stroke="#1A1A1A" stroke-width="1.95965" stroke-miterlimit="10" stroke-linecap="round" stroke-linejoin="round"/>
<path d="M915.958 97.9326H659.892C654.325 97.9326 649.872 93.4793 649.872 87.9127V85.686C649.872 80.1193 654.325 75.666 659.892 75.666H915.958C921.525 75.666 925.978 80.1193 925.978 85.686V87.9127C926.164 93.2938 921.525 97.9326 915.958 97.9326Z" fill="white" stroke="#1A1A1A" stroke-width="1.95965" stroke-miterlimit="10" stroke-linecap="round" stroke-linejoin="round"/>
</svg>
