<?xml version="1.0" encoding="utf-8"?>
<!-- Generator: Adobe Illustrator 26.0.3, SVG Export Plug-In . SVG Version: 6.00 Build 0)  -->
<svg version="1.1" id="Layer_1" xmlns="http://www.w3.org/2000/svg" xmlns:xlink="http://www.w3.org/1999/xlink" x="0px" y="0px"
	 viewBox="0 0 779.7 671" style="enable-background:new 0 0 779.7 671;" xml:space="preserve">
<style type="text/css">
	.st0{fill:#FFFFFF;stroke:#1A1A1A;stroke-width:1.0271;stroke-linecap:round;stroke-linejoin:round;stroke-miterlimit:10;}
	.st1{fill:#1D0810;stroke:#1A1A1A;stroke-width:0.5135;stroke-linecap:round;stroke-linejoin:round;stroke-miterlimit:10;}
	.st2{fill:#8054D4;stroke:#1A1A1A;stroke-width:1.0271;stroke-linecap:round;stroke-linejoin:round;stroke-miterlimit:10;}
	.st3{fill:none;stroke:#1A1A1A;stroke-width:1.5406;stroke-linecap:round;stroke-linejoin:round;stroke-miterlimit:10;}
	
		.st4{fill:none;stroke:#1A1A1A;stroke-width:1.0271;stroke-linecap:round;stroke-linejoin:round;stroke-miterlimit:10;stroke-dasharray:6.1625;}
	.st5{fill:#FDFDFF;stroke:#1A1A1A;stroke-width:1.0271;stroke-linecap:round;stroke-linejoin:round;stroke-miterlimit:10;}
	.st6{fill:#FAFAFC;stroke:#1A1A1A;stroke-width:1.0271;stroke-linecap:round;stroke-linejoin:round;stroke-miterlimit:10;}
	.st7{fill:#8054D4;stroke:#1A1A1A;stroke-width:0.5135;stroke-linecap:round;stroke-linejoin:round;stroke-miterlimit:10;}
	.st8{fill:#FCFCFC;stroke:#1A1A1A;stroke-width:1.0271;stroke-linecap:round;stroke-linejoin:round;stroke-miterlimit:10;}
</style>
<g id="vector">
	<ellipse class="st0" cx="137" cy="588.4" rx="114" ry="45.1"/>
	<path class="st0" d="M256.5,534.4c2.8,2,5.7,3.9,8.7,5.7c11.5,6.9,24.4,12.3,38.1,9.9C761.5,573.5,755,481.9,755,481.9l-666.4,0
		c0,0,42.8,21.2,55,28.5c16.7,10,37.4,16.1,57,16.8c5.1,0.2,10.2,0,15.3-0.6c5.1-0.6,10.3-2.6,15.3-2.9
		C240.3,523.2,249.4,529.5,256.5,534.4z"/>
	<g>
		<g>
			<circle class="st0" cx="718.1" cy="171" r="25.8"/>
			<rect x="705.4" y="156.9" class="st1" width="25" height="4"/>
			<rect x="705.4" y="169.4" class="st1" width="25" height="4"/>
			<rect x="705.4" y="181.1" class="st1" width="25" height="4"/>
		</g>
		<path class="st2" d="M359,481.8c123.8-0.9,248.9,0.8,372.7-0.2c19.9-20.5,24.2-50.4,11.6-72.4c-13.9-24.3-41.8-28-45-28.3
			c-16.7-51.3-65-78.5-104-68.3c-38.5,10.1-53.5,52.8-54.8,56.7c-27.8-9.9-55.6-3.8-68.7,13.9c-7,9.5-8.3,20.2-8.4,27.4
			c-29.7-55.4-82.3-71.2-105.9-55.7c-18,11.9-23.5,45-14.9,78.9c-6.6,1.4-19.2,5-21.4,13C317.4,457.2,331.2,471.1,359,481.8z"/>
		<path class="st2" d="M107.3,481.4c171.7,0,343.4,0,515.1,0c-15.4-14.6-39.4-34.7-72.3-52.4c-32.1-17.2-124.2-66.7-199.6-27.3
			c-14,7.3-32.2,20.2-49.1,44.1c-8.6-7.5-39.3-32.2-83.6-31.8C147.4,414.7,109.3,478,107.3,481.4z"/>
		<line class="st3" x1="76.6" y1="481.9" x2="771.8" y2="481.9"/>
		<path class="st0" d="M377.2,476.2c0,1.1,210.8-3.3,210.8-3.3l85.2,23.7l-200,5.3L377.2,476.2z"/>
		<polygon class="st1" points="377.2,484.9 377.2,476.2 473.2,501.9 473.2,522 		"/>
		<polygon class="st0" points="673.2,496.6 673.2,514.9 473.2,522 473.2,501.9 		"/>
		<polygon class="st1" points="457.8,445.2 446.5,476.2 460.6,479.5 473.2,443.3 		"/>
		<polygon class="st0" points="566.7,441.7 566.7,476.2 460.6,479.5 473.2,443.3 		"/>
		<g>
			<path class="st1" d="M381.4,449.3c0,0-7.3,0.7-21.2,1.2s-21.8-14.9-21.8-14.9l-36.2-267.4c-1.5-10.3,2.5-16.5,11.4-20.4
				c0,0,7.2-3.3,14.4-5.2"/>
			<path class="st0" d="M650.4,443.4l-267,6.5c-17.4,0.4-33.5-13-35.8-30L313.5,168c-2.2-16,9.9-28.2,26.9-27.4l260.9,12.8
				c14.8,0.7,28.8,13.3,31.3,28.1l40.1,232.8C675.5,430,665.5,443,650.4,443.4z"/>
			<path class="st0" d="M621.8,186.1c-1.9-11.3-12.7-20.9-24-21.5l-249.5-11.6c-12.9-0.6-22.1,8.8-20.4,20.9l0.4,3.1l294,11.9
				L621.8,186.1z"/>
			<path class="st0" d="M332,203.9l28.7,209.4c1.8,12.9,14,23.1,27.2,22.9l254.8-5.4c11.6-0.2,19.2-10.2,17.2-22.1l-33.3-194.7
				L332,203.9z"/>
			<polygon class="st1" points="622.3,189 328.3,177.1 332,203.9 626.6,213.9 			"/>
			<polygon class="st0" points="394.3,197.4 350.8,195.8 349.5,186.3 392.9,187.9 			"/>
			<polygon class="st0" points="451.1,199.5 408.8,197.9 407.4,188.5 449.7,190.1 			"/>
			<polygon class="st0" points="580.3,204.1 540.7,202.7 539.2,193.6 578.8,195.1 			"/>
			<path class="st0" d="M610.4,200.8c-0.6-3.5-3.9-6.5-7.5-6.7c-3.5-0.1-5.9,2.6-5.3,6.2c0.6,3.6,4,6.5,7.5,6.7
				C608.7,207.1,611,204.3,610.4,200.8z"/>
			<polygon class="st0" points="573,409.5 374,412.6 346.5,214.1 542.5,220.4 			"/>
			<polygon class="st4" points="475.9,411 374,412.6 346.5,214.1 446.9,217.3 			"/>
			<polygon class="st0" points="659.8,408.2 584.1,409.3 553.5,220.7 628.2,223.1 			"/>
			<polygon class="st4" points="557.6,313.9 360.1,312.2 346.5,214.1 542.5,220.4 			"/>
			<polygon class="st0" points="623.4,248 567.7,246.6 564.8,229.4 620.5,231 			"/>
			<polygon class="st0" points="629.3,282.6 573.4,281.7 570.6,264.3 626.4,265.5 			"/>
			<polygon class="st0" points="635.2,317.5 579.2,317.1 576.3,299.6 632.3,300.3 			"/>
			<polygon class="st1" points="641.2,352.7 585,352.8 582.1,335.2 638.2,335.3 			"/>
			<polygon class="st1" points="647.2,388.2 590.9,388.8 588,371 644.2,370.7 			"/>
		</g>
		<g>
			<path class="st1" d="M296.2,486.7c-3.4-3.2-6.9-5.8-6.9-5.8s-15.3,8.4-14,9.8c0.5,0.6,0.8,4,1,8.6
				C284.8,499.3,291.9,493.9,296.2,486.7z"/>
			<path class="st5" d="M302.1,494.6c-0.3-2.1-3.1-5.2-6-7.9c-4.3,7.3-11.4,12.6-19.8,12.7c0.2,6.8,0.1,16.2-0.1,23.5
				c-0.4,12.3,4.5,21.3,13,20.4C297.9,542.3,302.9,499.2,302.1,494.6z"/>
			<path class="st0" d="M244.3,371.3c2.6,38.6,35.3,92.4,39.9,98.8c4.6,6.4,8.4,10.7,8.7,13.8c0.3,3.1-8.8,12.1-17.4,12.1
				c-27.9-5.3-68.7-66.5-102.5-106.9s17-138,23-149.5c6-11.5,15.6-8.9,15.6-8.9l71,13"/>
			<path class="st1" d="M152.4,582.5c1.1-5.9,1.5-11.4,3.1-14.4c2.7-4.8-15.4-3.9-15.4-3.9s-2.5,9.7-5.5,14.3
				C139.4,582.2,146,583.1,152.4,582.5z"/>
			<path class="st6" d="M134.7,578.6c-0.5,0.8-1,1.4-1.6,1.8c-3.7,2.8-30.2,14.7-33.9,33.5c0.8,5.6,8.7,9,22,1.8
				c13.3-7.2,23.4-13.2,27.9-22.3c1.7-3.4,2.7-7.2,3.4-10.9C146,583.1,139.4,582.2,134.7,578.6z"/>
			<path class="st0" d="M222.3,284.6c0,0-17.9,32.9-41.3,85.8s-48.4,201.2-46.6,204.9c1.8,3.8,11.3,5.4,17.6,2
				c20.8-21.9,66.3-136.3,78.2-169.7c39.8-30.1,71.5-100.2,74.1-122.1c2.6-21.9-8.6-39.4-8.6-39.4l-19.4-6.1"/>
			<path class="st1" d="M204.1,234.5c0,0,5.5,10.1,16.7,10.1c11.2,0,33.7-2.4,41.6,2c7.9,4.4,30.9,8.2,35.5,6.8
				c-0.4-5.9-0.4-5.9-0.4-5.9l-86.2-20.9l-7.1,4.7V234.5z"/>
			<path class="st2" d="M206.1,188c0,0-9.2,34.5,3.6,46.8c12.8,12.3,39.7,4,50,8.4c10.2,4.5,30.2,11.5,42.1,6.7s6.5-35.5,6.3-43.1
				c-0.2-7.6-5.8-90-5.8-90s-19.7-21.9-59.1-12.5C222.9,129.6,206.1,188,206.1,188z"/>
			<path class="st0" d="M275.1,86.2c0,0-2.7,13-4.2,14.2c-15.8,1.8-15.8,1.8-15.8,1.8s-2,11.1,21.4,15.8c15.6,3.3,22.2-4.6,22.2-4.6
				s-3.1-3.5-6-6.2c-1-7.9-0.7-18.8-0.2-21.1s17.9-18.2,13.4-29s-27.9-21-31.8-19.3c-3.9,1.7-9.1,15.4-9.1,15.4
				S257.3,85.4,275.1,86.2z"/>
			<path class="st2" d="M301.2,115.7c0,0,35.2,25.9,30.9,55.2c-3.4,23.6-12.3,60-33.1,63.1c-20.8,3.2-47.6-7.2-66.4-46.2
				c10.1-8.9,11.7-11,11.7-11s16.9,16.7,25.3,19s32.8,7.8,29.8-24.5"/>
			<path class="st0" d="M283.7,85.8c0,0-6.3,0.8-8.7,0.4"/>
			<path class="st0" d="M264.9,111.9c0,0,0.4-9.3-0.6-14.9c-0.1-2.2,0.3-2.6,1.7-2.1c-0.1-3.6-1.3-10.2,2.4-10
				c3.7,0.2,9.6,3.6,9.6,7.6s1.6,11.6-2.5,15.4c-4.1,3.8-3.7,7.2-3.7,7.2L264.9,111.9z"/>
			<path class="st2" d="M255.1,102.3c-4.7,1-14.9,1.2-22.1,5.2c-23.5,13.4-56.4,45.1-40.7,79.1c13.8,29.7,56.8,0.6,70.7-32.9
				c0,0,8.4-17.2,10.2-38.7c-0.6-1.7-8.4-5.3-10.2-4.4c-1.9,0.9-7.5,8.3-9.9,12c-2.4,3.8-20.4,29.7-26.8,29.5"/>
			<path class="st1" d="M272.5,50.9c0,0-7.8,5.9-12.7,1.7c-4.8-4.3-5.4-22.3,8.3-23.8c8.5-1.4,14.8,4.3,14.8,4.3s9.6-14.2,20.4-6
				c10.8,8.2,8,17.4,5.2,21c-2.8,3.5,2.2,4.9,9.9,7.7c7.6,2.8,7.4,18.1-4,17.9c-4.5,0.7-0.4,5.7,3.3,11.5c3.6,5.8,0.3,13.2-11,10.9
				c-11.3-2.3-15.8-11.8-16.5-13.9c4.2-4.6,3.7-11.8,2.6-13.2c6.3,1.4,9.5-4,9.1-6.9c-0.4-2.9-5.6-9.1-12.3-3.4
				c-7.3-4.6-13-10.5-13.4-13.1C274.1,50.6,272.5,50.9,272.5,50.9z"/>
		</g>
		<circle class="st7" cx="698.9" cy="300.2" r="14.8"/>
		<circle class="st3" cx="726.4" cy="251.9" r="7.7"/>
		<g>
			<circle class="st0" cx="576.3" cy="92.7" r="28.3"/>
			<path class="st7" d="M593.5,105.9l-12.2-12.2c-0.2-0.2-0.4-0.3-0.6-0.5c1.2-1.9,1.9-4.1,1.9-6.6c0-6.7-5.4-12.1-12.1-12.1
				c-6.7,0-12.1,5.4-12.1,12.1c0,6.7,5.4,12.1,12.1,12.1c2.3,0,4.4-0.6,6.2-1.7c0.1,0.3,0.3,0.5,0.5,0.7l12.2,12.2
				c1.1,1.1,2.9,1.1,4.1,0C594.6,108.9,594.6,107.1,593.5,105.9z M578.1,93.1c-0.4,0.5-0.9,1-1.4,1.4c-1.7,1.3-3.8,2.1-6.2,2.1
				c-5.5,0-10-4.5-10-10c0-5.5,4.5-10,10-10c5.5,0,10,4.5,10,10C580.4,89.1,579.5,91.4,578.1,93.1z"/>
		</g>
	</g>
	<path class="st4" d="M285.7,273.5c0,0-16.8,66.4-55,103s-78.3,181.2-78.3,181.2"/>
	<path class="st0" d="M260.7,264.3c0,0-6.6,19.3,6,32.3"/>
	<g>
		<path class="st8" d="M87.2,414.2c0,0.4,0,0.8,0,1.2c-5.8,1.3-12.2-0.3-16.7-4.8c-7-7-7-18.5,0-25.5c7-7,18.5-7,25.5,0
			c3.6,3.6,5.4,8.4,5.3,13.1C93.4,399.1,87.2,405.9,87.2,414.2z"/>
		<path class="st7" d="M119.6,414.2c0,8.9-7.3,16.2-16.2,16.2c-8.5,0-15.5-6.6-16.2-15c3.2-0.7,6.3-2.3,8.8-4.8
			c3.4-3.4,5.2-7.9,5.3-12.4c0.7-0.1,1.4-0.1,2.1-0.1C112.3,398,119.6,405.2,119.6,414.2z"/>
	</g>
	<g>
		<polygon class="st0" points="487.2,65.8 487.2,70 468.5,98.3 509.8,98.3 489.1,69.9 489.1,65.8 		"/>
		<line class="st0" x1="488.1" y1="9.2" x2="488.1" y2="65.4"/>
	</g>
	<g>
		<polygon class="st0" points="651.9,65.8 651.9,70 633.2,98.3 674.5,98.3 653.8,69.9 653.8,65.8 		"/>
		<line class="st0" x1="652.8" y1="9.2" x2="652.8" y2="65.4"/>
	</g>
	<g>
		<circle class="st0" cx="65.3" cy="308.6" r="27.3"/>
		<path class="st0" d="M65.3,323.7c0,0-23.3-11.5-15.4-22.9c7.7-11,15.4,2.1,15.4,2.1s7.6-13.2,15.4-2.1
			C88.6,312.1,65.3,323.7,65.3,323.7z"/>
	</g>
</g>
</svg>
