<?xml version="1.0" encoding="utf-8"?>
<!-- Generator: Adobe Illustrator 26.0.3, SVG Export Plug-In . SVG Version: 6.00 Build 0)  -->
<svg version="1.1" id="Layer_1" xmlns="http://www.w3.org/2000/svg" xmlns:xlink="http://www.w3.org/1999/xlink" x="0px" y="0px"
	 viewBox="0 0 1318 1292" style="enable-background:new 0 0 1318 1292;" xml:space="preserve">
<style type="text/css">
	.st0{fill:none;stroke:#1A1A1A;stroke-width:2;stroke-linecap:round;stroke-linejoin:round;stroke-miterlimit:10;}
	.st1{fill:#FFFFFF;stroke:#1A1A1A;stroke-width:2;stroke-linecap:round;stroke-linejoin:round;stroke-miterlimit:10;}
	.st2{fill:#1A1A1A;stroke:#1A1A1A;stroke-width:2;stroke-linecap:round;stroke-linejoin:round;stroke-miterlimit:10;}
	.st3{fill:none;stroke:#1A1A1A;stroke-width:3;stroke-linecap:round;stroke-linejoin:round;stroke-miterlimit:10;}
	.st4{fill:#8054D4;stroke:#1A1A1A;stroke-width:2;stroke-linecap:round;stroke-linejoin:round;stroke-miterlimit:10;}
</style>
<g>
	<path class="st0" d="M165.3,1098.7c-87-26-141.4-107.5-132.8-185.9C42.8,818.5,143,742.2,253,764.2c92.1,54,184.2,108,276.2,162
		c67.4-96.6,180.1-144.7,284.2-122.1c102.3,22.2,155.9,103.8,167.3,122.1c14.5-77.7,79.6-130.5,146.1-127.4
		c62.9,2.9,129.6,55.8,127.5,119.5c-1.7,52-48.4,85.2-55.8,90.3C854.1,1038.6,509.7,1068.6,165.3,1098.7z"/>
	<path class="st1" d="M181.2,1016.2c-41.3,10.3-89.5,35.5-92.6,82.7c0.9,73.2,89.3,89.7,148.7,85.3c181.8,3.2,365.7-14.9,546.3,8.8
		c72.4,12.3,142.6,37,215.6,44.9c67.5,7.3,135.6,0,203.1-7.3c14.9-1.6,30.1-3.3,43.6-9.8c45.2-21.4,27.6-72.1-16.9-82.2
		c-23-6-47.6-4.2-70.2-11.4c-63.4-21.8-41.2-89.4,18.3-88.7c16.4,0.9,31.7,8.8,48,11.1c36.3,6.3,58.7-30.8,23.9-51.9
		c-286.8-40.6-581.8-6.5-870.5,0.9C311.1,998.7,247.1,997.7,181.2,1016.2z"/>
	<g>
		<path class="st2" d="M466.8,381.8v32.5l-274.4-19.6c0,0-9.8-23.3-7.1-46L466.8,381.8z"/>
		<path class="st1" d="M780.2,64.6l-112.9,194c-66.1-4.7-184.6,63.7-200.5,123.3l-281.6-33.2C217.5,130.5,525.2-13.8,780.2,64.6z"/>
		<polygon class="st1" points="797.9,106.6 676.8,278.6 667.3,258.5 780.2,64.6 		"/>
		<path class="st1" d="M676.8,278.6c-83.8,3.7-167.9,64.3-210,135.7v-32.5c15.9-59.6,134.4-128,200.5-123.3L676.8,278.6z"/>
	</g>
	<g>
		<path class="st1" d="M664.7,790.7l-158.5,322.2c-249.7-94.8-386.3-273.6-383.4-555.8l302.8-50.4c18.8,69.5,45.8,132.1,87.2,182.3
			c37,44.9,85.6,80,150.3,101.2C663.6,790.4,664.1,790.6,664.7,790.7z"/>
		<polygon class="st2" points="685,805.5 568.2,1115.6 506.2,1112.9 664.7,790.7 		"/>
		<path class="st2" d="M512.8,689c-41.4-50.2-68.3-112.8-87.2-182.3l29.8,28c0,0,8.9,41.5,23.6,83.7C488.3,645,499.8,672,512.8,689z
			"/>
	</g>
	<g>
		<path class="st1" d="M1108.8,545.9l-229,25.4c-3-65-21.4-120.4-59.3-163.7l129.3-178.8C1057.8,289.5,1118.4,421.4,1108.8,545.9z"
			/>
		<polygon class="st2" points="1108.8,545.9 1100.6,602.5 879.8,602.5 879.8,571.3 		"/>
	</g>
	<path class="st1" d="M1173.8,715.2c-1.6,34.3-10.9,86-32.8,129.5l-190.4-92.9c0,0,16.2-23,14.5-54L1173.8,715.2z"/>
	<polygon class="st2" points="1141,844.7 1097,878.7 924.7,760.7 950.7,751.8 	"/>
	<path class="st1" d="M950.7,751.8l-26,8.9c7.5-8,11.4-14.5,13.9-21.6c2.6-7.2,3.9-14.9,6.3-25.3c11.8-4.7,19.8-15.2,20.2-15.9l0,0
		C966.8,728.8,950.7,751.8,950.7,751.8z"/>
	<g>
		<path class="st1" d="M313.2,714.3c-0.1-1.3-0.3-2.7-0.5-4c-3.5-21.8-20.2-37.9-39.9-40.5c1.4-3.2,1.9-6.8,1.3-10.5
			c-1.7-10.3-11.4-17.4-21.7-15.7c-10.3,1.6-17.4,11.4-15.7,21.7c0.8,4.7,3.2,8.7,6.6,11.5c-14.5,9.8-22.9,28.3-19.8,47.7
			c0.7,4.6,2.1,9,3.9,13c-15.7-9.1-27.3-24.9-30.4-44.2c-5.4-34.1,17.8-66.2,51.9-71.6c34.1-5.4,66.2,17.8,71.6,51.9
			C323,688.1,320.1,702.4,313.2,714.3z"/>
		<path class="st1" d="M312.8,710.2c0.2,1.3,0.4,2.7,0.5,4c-9.1,15.9-25,27.7-44.5,30.8c-14.8,2.4-29.2-0.7-41.3-7.7
			c-1.8-4-3.1-8.4-3.9-13c-3.1-19.4,5.2-37.8,19.8-47.7c-3.4-2.8-5.8-6.8-6.6-11.5c-1.7-10.3,5.4-20.1,15.7-21.7
			c10.3-1.6,20.1,5.4,21.7,15.7c0.6,3.7,0.1,7.3-1.3,10.5C292.6,672.3,309.3,688.5,312.8,710.2z"/>
	</g>
	<g>
		<path class="st2" d="M230.5,897.4c0.4-1.3,0.8-2.6,1.1-3.9c5-21.5-4.3-42.7-21.6-52.6c2.5-2.4,4.4-5.6,5.2-9.2
			c2.4-10.2-3.9-20.4-14.1-22.8c-10.2-2.4-20.4,3.9-22.8,14.1c-1.1,4.6-0.4,9.3,1.7,13.2c-17.2,3.6-31.9,17.5-36.4,36.7
			c-1.1,4.5-1.5,9.1-1.3,13.5c-11.1-14.4-15.8-33.4-11.4-52.4c7.9-33.6,41.6-54.5,75.2-46.6c33.6,7.9,54.5,41.5,46.6,75.2
			C249.5,876.8,241.4,888.9,230.5,897.4z"/>
		<path class="st1" d="M231.6,893.4c-0.3,1.3-0.7,2.6-1.1,3.9c-14.4,11.3-33.7,16.2-52.9,11.7c-14.6-3.4-26.8-11.7-35.3-22.7
			c-0.2-4.4,0.3-8.9,1.3-13.5c4.5-19.1,19.2-33.1,36.4-36.7c-2.1-3.9-2.8-8.5-1.7-13.2c2.4-10.2,12.6-16.5,22.8-14.1
			c10.2,2.4,16.5,12.6,14.1,22.8c-0.9,3.7-2.7,6.8-5.2,9.2C227.3,850.7,236.6,872,231.6,893.4z"/>
	</g>
	<g>
		<path class="st2" d="M435,897.3c-0.2-1.1-0.5-2.1-0.9-3.2c-5.3-17.1-20.6-28.1-36.7-27.9c0.8-2.7,0.8-5.7-0.1-8.6
			c-2.5-8.1-11.1-12.6-19.2-10.1c-8.1,2.5-12.6,11.1-10.1,19.2c1.1,3.7,3.6,6.6,6.6,8.5c-10.5,9.6-15.1,25.3-10.3,40.5
			c1.1,3.6,2.7,7,4.6,10c-13.6-5.5-24.8-16.8-29.5-32c-8.3-26.7,6.6-55.2,33.4-63.5c26.8-8.3,55.2,6.6,63.5,33.4
			C439.8,875.2,439.1,887,435,897.3z"/>
		<path class="st1" d="M434.1,894.1c0.3,1.1,0.6,2.1,0.9,3.2c-5.4,13.8-16.9,25.1-32.2,29.9c-11.6,3.6-23.5,2.8-34-1.4
			c-1.9-3-3.5-6.4-4.6-10c-4.7-15.2-0.2-31,10.3-40.5c-3.1-1.9-5.5-4.8-6.6-8.5c-2.5-8.1,2-16.7,10.1-19.2c8.1-2.5,16.7,2,19.2,10.1
			c0.9,2.9,0.9,5.9,0.1,8.6C413.5,866,428.8,877.1,434.1,894.1z"/>
	</g>
	<path class="st3" d="M1032.2,207.9c32.3,11.1,57.3,36.7,72.5,62.6"/>
	<path class="st3" d="M1156.9,258.4c19.2,35.2,29.7,73.9,30.6,112.7"/>
	<ellipse class="st1" cx="1193.2" cy="485.7" rx="8.9" ry="15.9"/>
	<g>
		<path class="st2" d="M712.9,1104c-1.4-6.1-2.7-10.8-2.7-10.8l-39.5,6.8c0,0-2.5,1.9-6.5,4.9C677.5,1115,698.5,1112.4,712.9,1104z"
			/>
		<path class="st1" d="M625.1,1159.2c32.6-8.1,66.3-15.2,91.9-34.5c-0.8-6.2-2.5-14.3-4.1-20.7c-14.5,8.4-35.4,11-48.7,0.9
			c-14.3,10.8-47.3,36.7-48.4,45.3c-0.5,3.5-0.3,6.4,0.5,8.8C619.1,1159.8,622.1,1160,625.1,1159.2z"/>
		<path class="st2" d="M625.1,1159.2c-3,0.8-6,0.6-8.8-0.2c1.6,4.9,5.7,7.1,10.8,6.7c7.7-0.6,88.2-26.1,90-32.8
			c0.4-1.6,0.3-4.5-0.2-8.2C691.4,1144,657.7,1151.1,625.1,1159.2z"/>
		<path class="st1" d="M925.7,1161.7c13.7-12.4,19.9-29.8,34.8-42.2c0.6-0.9,1.2-1.8,1.7-2.7c-3.4-8.3-11.5-19-18.1-26.8
			c-4.7,14.6-19.3,26.5-34.6,24.7c0.2,1.4,0.3,2.9,0.1,4.3c-11.2,19.1-26.2,50.2-28.9,61.5C896.8,1185.7,914.7,1172.7,925.7,1161.7z
			"/>
		<path class="st2" d="M960.5,1119.5c-14.9,12.4-21.1,29.8-34.8,42.2c-11,11-28.9,24-45,18.9c-0.3,1.2-0.4,2.2-0.4,2.9
			c0,7.5,11.5,5.1,23.5,3.1c12-2,50-49.6,58.7-59.3c2-2.3,1.6-6-0.2-10.5C961.7,1117.7,961.1,1118.6,960.5,1119.5z"/>
		<path class="st2" d="M944.1,1090c-5.2-6.2-9.3-10.5-9.3-10.5l-29.7,23.4c0,0,3.6,5.4,4.5,11.9
			C924.7,1116.5,939.4,1104.6,944.1,1090z"/>
		<path class="st1" d="M680.5,595.2c0,0-48.9,169-51.9,263.4c-3,94.4,35.1,236.6,36,241.3s46.3,8.9,48.1-2.4
			c1.8-11.2-22.4-190,13-277.9s85-181.7,86.2-191.2s-43.1-79.7-43.1-79.7L680.5,595.2z"/>
		<path class="st1" d="M754.1,655.6c0,0,0.6,118.6,8.9,180s127.5,259,135.2,269.1s16.5,3.2,29.8-8.1c13.3-11.2,10.9-21.5,10.9-21.5
			S839.7,884,848.5,831.5c8.9-52.5,52.6-181.2,42.4-228.2c-14.2-65.8-53-85.1-53-85.1l-99.2,27.7"/>
		<path class="st4" d="M724.2,339.6c0,0,36.4,14.6,75.9,105.4c10.2,23.5,48,32.6,53.1,70.8c-8.4,18.6-132.4,86.9-159.4,82
			c-49.1-55.3-106.1-135.5-106.2-178.3s2.9-48.2,2.9-48.2s23.4-39.1,51.7-49.7C670.6,311,724.2,339.6,724.2,339.6z"/>
		<path class="st4" d="M605.3,348.7c0,0-39,50.3-39.5,98.7s48.4,151,121,155.8c50.8,2.4,62-12.4,68.5-14.8
			c1.2-17.1,9.4-20.1,9.4-20.1s-90.9-8.9-111-34.2c-20.1-25.4-35.9-59.5-34.8-78.5"/>
		<path class="st2" d="M743,568.6c0,0-5.1,23,12.2,19.8s11.5-20.9,5-22.1C753.8,565.1,743,568.6,743,568.6z"/>
		<path class="st1" d="M754.5,587.2c0,0,13.3,3.3,27.2-6.9c13.9-10.2-2-26.6-2-26.6s-12.6,16.4-22.6,17.5S754.5,587.2,754.5,587.2z"
			/>
		<path class="st1" d="M611.2,319.9c0,0-7.4,15-20.4,18.6c-27.7,7.1-46.5-54-46.5-54l51.5-33.9c0,0,23.3,17.7,24.8,18.6
			c1.5,0.9,0,27.4,0,32.7c3.2,7.4,20.7,29.5,20.7,29.5l-5,31.3l-33.1-9.1l-9.3-15.7"/>
		<path class="st2" d="M610.9,322.3c0,0-0.2,15.6-13.6,17.3c-1.4-1.5-1.4-1.5-1.4-1.5L610.9,322.3z"/>
		<path class="st2" d="M519.2,259.1c-0.6-0.1,4,32.6,29.8,29.5c25.8-3.1,39.4-22.1,39.4-22.1s-1.2,7.9,2.7,8
			c3.9,0.1,8.2-9.6,15.6-5.9s6.1,16.5,4.9,22.7c-1.2,6.2,9.6,10.9,14.2,10.5c4.6-0.4,5.2-33.8,0-44.1c-5.2-10.3-13.7-29.5-31.7-18.3
			c-11.8-10.9-44.9-2.1-57,8.6C525.1,258.5,522.4,259.4,519.2,259.1z"/>
		<path class="st4" d="M634,321.8c0,0,40.1-22.6,102.5-28.5s107-11.5,87.5,35.8c-15.1,36.6-77.2,94.1-78.7,94.1
			c-7.8,9-23.8,11.4-28.8,1.3c2.1-10,34.8-64.5,39.5-71.1c2.7-9.7-3.8-10.9-19.2-7.1c-15,3.7-27.4,11.6-27.4,11.6"/>
		<path class="st2" d="M720.4,422.4c0,0,1.9-12.8,10.9-13.4s16.8,8.9,16.8,8.9s-1,4.9-8.1,6.3C733,425.7,721.2,424.9,720.4,422.4z"
			/>
		<path class="st1" d="M590.6,364.4l40.4,12.7l5.3-14.5l-38.1-15.3C598.3,347.3,587.3,357.8,590.6,364.4z"/>
		<path class="st1" d="M634,321.8c0,0,8.3-1.1,14.1,1.9c3.5,14.8,2.1,40.3,2.1,40.3l-13.9-1.3C636.3,362.7,636.8,328.2,634,321.8z"
			/>
		<path class="st1" d="M724.3,418.2c0,0-13.6,23.8-9.1,35.8c4.4,11.9,6.4,13.5,6.4,13.5l31-19.9c0,0-2.9-15.7-9.7-19.2
			c-3.2-2.3,3.2-6.3,2.1-9.6C743.8,415.4,729.2,411.7,724.3,418.2z"/>
		<g>
			<g>
				<path class="st0" d="M571.3,615.6c0,0-26.1,121.3,35.9,205.8"/>
				<path class="st0" d="M560.2,603.4c0,0-45.2,128.3,20.4,243.5"/>
				<path class="st0" d="M550.9,595.2c0,0-69.1,67.8-27,246.3"/>
				<path class="st0" d="M543,589.7c0,0-92.5,87.4-57.1,229"/>
				<path class="st0" d="M538.5,582.8c0,0-106.7,45.1-85.9,171.3"/>
			</g>
			<polygon class="st1" points="664.7,518.2 579.3,571.8 531,579.3 571.8,632.4 587.7,585 726.3,567.8 717.2,557.6 711,551.6 
				603.2,566 671.8,524.4 			"/>
			<g>
				<polygon class="st1" points="653.2,518.2 764.8,433.7 805.5,545.9 746.6,588.6 				"/>
			</g>
		</g>
	</g>
	<path class="st1" d="M812,580.5c0,0-1.4,35.4,39.5,38.9"/>
	<g>
		<g>
			<path d="M972.5,334.5c0,12.7-6.7,19-14.5,19c-7.5,0-14-6-14.1-18.2c0-12.1,6.6-18.8,14.6-18.8C966.9,316.5,972.5,323,972.5,334.5
				z M950.4,335c-0.2,7.7,2.7,13.5,7.8,13.5c5.4,0,7.8-5.8,7.8-13.7c0-7.3-2.1-13.5-7.8-13.5C953.1,321.4,950.4,327.4,950.4,335z
				 M957.5,378.8l35.4-62.3h5.2l-35.4,62.3H957.5z M1011.7,359.4c0,12.7-6.7,19-14.4,19c-7.5,0-14-6-14.1-18.1
				c0-12.2,6.6-18.9,14.6-18.9C1006.3,341.4,1011.7,347.9,1011.7,359.4z M989.7,360c-0.1,7.7,2.9,13.5,7.9,13.5
				c5.4,0,7.8-5.8,7.8-13.7c0-7.3-2.1-13.5-7.8-13.5C992.4,346.4,989.7,352.4,989.7,360z"/>
		</g>
	</g>
</g>
</svg>
