<?xml version="1.0" encoding="utf-8"?>
<!-- Generator: Adobe Illustrator 26.0.3, SVG Export Plug-In . SVG Version: 6.00 Build 0)  -->
<svg version="1.1" id="Layer_1" xmlns="http://www.w3.org/2000/svg" xmlns:xlink="http://www.w3.org/1999/xlink" x="0px" y="0px"
	 viewBox="0 0 1338 1316" style="enable-background:new 0 0 1338 1316;" xml:space="preserve">
<style type="text/css">
	.st0{fill:none;stroke:#1A1A1A;stroke-width:3;stroke-linecap:round;stroke-linejoin:round;stroke-miterlimit:10;}
	.st1{fill:#FFFFFF;stroke:#1A1A1A;stroke-width:2;stroke-linecap:round;stroke-linejoin:round;stroke-miterlimit:10;}
	.st2{fill:#8054D4;stroke:#1A1A1A;stroke-width:2;stroke-linecap:round;stroke-linejoin:round;stroke-miterlimit:10;}
	.st3{fill:#1A1A1A;stroke:#1A1A1A;stroke-width:2;stroke-linecap:round;stroke-linejoin:round;stroke-miterlimit:10;}
	
		.st4{clip-path:url(#XMLID_00000036234826005825578260000017795525428138356149_);fill:#FFFFFF;stroke:#1A1A1A;stroke-width:2;stroke-linecap:round;stroke-linejoin:round;stroke-miterlimit:10;}
</style>
<g>
	<path class="st0" d="M82.3,585.7c21.4,359.8,87.8,455.6,147.7,472c27.4,7.5,83.3,6.6,124.5,49.2c27.8,28.8,37,65.1,40.5,89.8
		c34.1,11.7,85,28,147.7,43.4c139.4,34.3,257.1,63.3,388,40.5c72.6-12.7,194.7-33.9,263.5-127.4c84.7-115.1,62.9-304.4-49.2-472
		c108.8-250.2-4.9-524.9-211.4-610.9C774.9,4.1,574.3,54.9,441.4,200.6c-14.1-1.1-184.6-11.8-292.4,124.5
		C60.9,436.3,78.9,564.1,82.3,585.7z"/>
	<path class="st1" d="M244.7,303.4c7.1,37.8,26.2,72.1,42.5,107c16.3,34.9,30.3,72.7,26,111c-6.6,58.3-52.9,102.9-82.1,153.8
		c-34.5,60.1-45.3,133.4-29.6,200.9s57.5,128.6,114.9,167.5c34.4,23.3,79.2,46.8,80.6,88.3c1.2,36.5-32.9,63-63.4,83.1
		c20.3,24,58.3,21.8,87.6,10.3c29.3-11.4,56.7-30,88.1-32.4c40.9-3.1,77.9,21.7,116.9,34.3c60.8,19.6,126.6,9.2,189.6-1.3
		c79.6-13.3,159.2-26.7,238.8-40c34-5.7,70.9-12.9,93.7-38.9c27.2-31,24.7-77.1,20.8-118.1c-13.8-142.3-27.6-284.5-41.4-426.8
		c-10.2-105.3-20.4-210.6-30.7-315.9c-4.5-46-11.4-96.9-47-126.4c-21.7-18-50.5-24.6-78.1-30.7C869.5,106.7,767.4,84.4,665.2,62
		c-46.5-10.2-93.6-20.4-141.1-19.1c-70.7,1.9-139.6,31.4-191.6,78.9C283.9,166.2,231.8,234.3,244.7,303.4z"/>
	<g>
		<path class="st1" d="M1084.8,970.1c-156.9-87.9-592.5-90.3-780.1,0C221.6,771.4,176,565.9,198.1,348.2
			c238.9-165,793.4-160.7,993.2,0C1215.7,590.2,1182.6,786.7,1084.8,970.1z"/>
		<path class="st2" d="M540.5,312c-72.8,10.1-134.5,25.9-182.7,41.5l1.9,15.5c110.4-37.8,183-42.5,183-42.5S542.7,326.5,540.5,312z"
			/>
		<path class="st3" d="M238.7,402.5c0,0,2.4,8.4,4.8,13.8c21.2-10,41.6-18.9,61.2-26.8l-2.3-16.1
			C261.1,389.8,238.7,402.5,238.7,402.5z"/>
		<path class="st1" d="M540.5,382.9c-72.8,10.1-134.5,25.9-182.7,41.5l1.9,15.5c110.4-37.8,183-42.5,183-42.5
			S542.7,397.4,540.5,382.9z"/>
		<path class="st3" d="M238.7,473.4c0,0,2.4,8.4,4.8,13.8c21.2-10,41.6-18.9,61.2-26.8l-2.3-16.1
			C261.1,460.7,238.7,473.4,238.7,473.4z"/>
		<path class="st1" d="M540.5,453.7c-72.8,10.1-134.5,25.9-182.7,41.5l1.9,15.5c110.4-37.8,183-42.5,183-42.5
			S542.7,468.2,540.5,453.7z"/>
		<path class="st3" d="M238.7,544.2c0,0,2.4,8.4,4.8,13.8c21.2-10,41.6-18.9,61.2-26.8l-2.3-16.1
			C261.1,531.5,238.7,544.2,238.7,544.2z"/>
		<path class="st1" d="M212,666.4c226.5-118.6,745.1-170.5,976.4-14.3"/>
		<g>
			<path class="st1" d="M776.9,374c0,42.2-34.2,76.4-76.4,76.4c-31.6,0-58.7-19.2-70.3-46.5l22.6-9.9c7.8,18.6,26.2,31.7,47.7,31.7
				c28.6,0,51.7-23.2,51.7-51.7s-23.2-51.7-51.7-51.7c-0.4,0-0.7,0-1.1,0l-0.7-24.7c0.6,0,1.2,0,1.8,0
				C742.7,297.6,776.9,331.8,776.9,374z"/>
			<path class="st2" d="M648.7,374c0,7.1,1.4,13.9,4,20.1l-22.6,9.9c-3.9-9.2-6.1-19.3-6.1-29.9c0-41.6,33.3-75.4,74.6-76.4
				l0.7,24.7C671.3,322.9,648.7,345.8,648.7,374z"/>
			<path class="st1" d="M752.2,374c0,28.6-23.2,51.7-51.7,51.7c-21.5,0-39.9-13.1-47.7-31.7c-2.6-6.2-4-12.9-4-20.1
				c0-28.2,22.6-51.1,50.7-51.7c0.4,0,0.7,0,1.1,0C729,322.3,752.2,345.5,752.2,374z"/>
			<path class="st1" d="M752.2,374c0,28.6-23.2,51.7-51.7,51.7c-21.5,0-39.9-13.1-47.7-31.7c-2.6-6.2-4-12.9-4-20.1
				c0-28.2,22.6-51.1,50.7-51.7c0.4,0,0.7,0,1.1,0C729,322.3,752.2,345.5,752.2,374z"/>
		</g>
		<g>
			<path class="st3" d="M836.7,414.1l-22.3,9.8c6.3,14.7,17.1,27,30.6,35.1l12.8-20.7C848.5,432.8,841,424.3,836.7,414.1z"/>
			<path class="st1" d="M883.8,318.9c-0.6,0-1.2,0-1.8,0l0.7,24.3c0.4,0,0.7,0,1.1,0c28.2,0,51.1,22.9,51.1,51.1
				s-22.9,51.1-51.1,51.1c-9.5,0-18.4-2.6-26-7.1L845,459c11.3,6.8,24.6,10.8,38.8,10.8c41.7,0,75.5-33.8,75.5-75.5
				C959.3,352.7,925.5,318.9,883.8,318.9z"/>
			<path class="st2" d="M832.7,394.3c0,7,1.4,13.7,4,19.8l-22.3,9.8c-3.9-9.1-6-19.1-6-29.5c0-41.1,32.8-74.5,73.7-75.4l0.7,24.3
				C855,343.9,832.7,366.5,832.7,394.3z"/>
		</g>
		<g>
			<path class="st1" d="M1141.9,442.5c0,41.7-33.8,75.5-75.5,75.5c-31.2,0-57.9-18.9-69.4-45.9l22.3-9.8
				c7.7,18.4,25.9,31.3,47.1,31.3c28.2,0,51.1-22.9,51.1-51.1s-22.9-51.1-51.1-51.1c-0.4,0-0.7,0-1.1,0l-0.7-24.3c0.6,0,1.2,0,1.8,0
				C1108.1,367.1,1141.9,400.9,1141.9,442.5z"/>
			<path class="st3" d="M1015.3,442.5c0,7,1.4,13.7,4,19.8l-22.3,9.8c-3.9-9.1-6-19.1-6-29.5c0-41.1,32.8-74.5,73.7-75.4l0.7,24.3
				C1037.6,392.1,1015.3,414.7,1015.3,442.5z"/>
			<path class="st1" d="M1117.5,442.5c0,28.2-22.9,51.1-51.1,51.1c-21.2,0-39.4-12.9-47.1-31.3c-2.6-6.1-4-12.8-4-19.8
				c0-27.8,22.3-50.5,50-51.1c0.4,0,0.7,0,1.1,0C1094.6,391.5,1117.5,414.3,1117.5,442.5z"/>
			<path class="st1" d="M1117.5,442.5c0,28.2-22.9,51.1-51.1,51.1c-21.2,0-39.4-12.9-47.1-31.3c-2.6-6.1-4-12.8-4-19.8
				c0-27.8,22.3-50.5,50-51.1c0.4,0,0.7,0,1.1,0C1094.6,391.5,1117.5,414.3,1117.5,442.5z"/>
		</g>
		<path class="st2" d="M776.9,575.1c0,0,180.6,3.3,282.7,40.2c-2.9,11.6-2.9,11.6-2.9,11.6c-90.9-26.1-184.5-36.6-279.8-36.9V575.1z
			"/>
		<path class="st1" d="M769,620.5c0,0,180.6,3.3,282.7,40.2c-2.9,11.6-2.9,11.6-2.9,11.6c-90.9-26.1-184.5-36.6-279.8-36.9V620.5z"
			/>
		<path class="st2" d="M761.1,665.9c0,0,180.6,3.3,282.7,40.2c-2.9,11.6-2.9,11.6-2.9,11.6c-90.9-26.1-184.5-36.6-279.8-36.9V665.9z
			"/>
		<path class="st1" d="M753.2,711.3c0,0,180.6,3.3,282.7,40.2c-2.9,11.6-2.9,11.6-2.9,11.6C942,737,848.4,726.6,753.2,726.2
			L753.2,711.3z"/>
		<path class="st2" d="M745.3,756.7c0,0,180.6,3.3,282.7,40.2c-2.9,11.6-2.9,11.6-2.9,11.6c-90.9-26.1-184.5-36.6-279.8-36.9
			L745.3,756.7z"/>
		<path class="st1" d="M737.4,802.1c0,0,180.6,3.3,282.7,40.2c-2.9,11.6-2.9,11.6-2.9,11.6c-90.9-26.1-184.5-36.6-279.8-36.9
			L737.4,802.1z"/>
		<path class="st1" d="M729.5,847.5c0,0,180.6,3.3,282.7,40.2c-2.9,11.6-2.9,11.6-2.9,11.6c-90.9-26.1-184.5-36.6-279.8-36.9
			L729.5,847.5z"/>
		<g>
			<defs>
				<path id="XMLID_7_" d="M248.1,672.3c0,0,222.9-88.7,389.4-92.5c14.2,241,14.2,302.6,14.2,302.6s-174.1-5.1-317.5,52.1
					C290.8,814.4,266.2,756.1,248.1,672.3z"/>
			</defs>
			<use xlink:href="#XMLID_7_"  style="overflow:visible;fill:#1A1A1A;"/>
			<clipPath id="XMLID_00000102515243624740619990000010625301974970509758_">
				<use xlink:href="#XMLID_7_"  style="overflow:visible;"/>
			</clipPath>
			
				<path style="clip-path:url(#XMLID_00000102515243624740619990000010625301974970509758_);fill:#FFFFFF;stroke:#1A1A1A;stroke-width:2;stroke-linecap:round;stroke-linejoin:round;stroke-miterlimit:10;" d="
				M389.6,916.9c2.9-9,4.7-19.2,0.3-27.5c-3.3-6.2-9.6-10.2-15.8-13.5c-6.2-3.3-12.7-6.4-17.5-11.5c-4.8-5.2-7.2-13.2-3.8-19.3
				c2.9-5.2,9.6-8.2,10.7-14.1c0.6-3-0.4-6.5,1.3-9.1c1.1-1.6,3.1-2.4,4.6-3.7c6.3-5.4,2.5-16.8,8-23.1c0.9-1,2-1.9,2.4-3.2
				c0.3-0.9,0.2-2-0.1-2.9c-1.5-4.7-6.9-7.1-11.8-7.8c-4.9-0.6-10.1-0.1-14.8-1.7c-8.9-3-14-12.7-22.5-16.8c0.5-4.2,7.8-5.6,7.1-9.8
				c-0.4-2.5-3.4-3.3-5.8-4c-18.2-5-29.7-23.9-47.7-29.7c2.6-8.1,8.3-15.1,15.8-19.2c2.7-1.5,5.7-2.7,7.7-5c4.3-5,2.2-12.5,2.4-19.1
				c0-1.1,0.2-2.3,0.9-3.2c0.8-1,2.2-1.4,3.5-1.7c5.3-1.1,10.8-1.4,16.2-0.8c5.3,0.6,10.6,1.9,15.8,1.1c3.2-0.5,6.1-1.8,9.1-2.9
				c10.4-3.8,21.6-5.4,32.6-4.8c0.5,5.2-2.3,10.3-6.1,14c-3.8,3.6-8.6,6-13.3,8.4c4,1.9,0.9,8,1.9,12.3c1.2,5.4,8.4,6.4,13.9,6.3
				c6.2-0.2,12.4-0.3,18.6-0.5c1.9,9.3,0.1,19.3-5,27.3c-1.4,2.2-3.1,4.4-3.3,7.1c-0.3,3.4,1.9,6.3,3.6,9.3
				c3.1,5.7,4.3,12.3,4.9,18.8c1,9.8,0.8,20.2-3.9,28.9c-5,9.3-14.9,17.2-13.9,27.7c0.9,9.4,12.9,15.7,21.2,11.2
				c1.6-0.9,3.3-2.1,5.1-1.7c1.6,0.4,2.6,2,3.7,3.2c3.4,3.8,9.1,4.5,14.2,4.2s10.2-1.5,15.2-0.4s9.9,5.2,9.5,10.3
				c-0.4,5.3-6.2,8.9-6.9,14.2c-0.6,5,3.7,9.4,8.3,11.6c4.5,2.3,9.7,3.5,13.6,6.7c4.5,3.8,6.5,9.8,7.6,15.7c0.3,1.6,0.5,3.3-0.2,4.7
				c-1.1,2.2-3.8,2.9-6.2,3.3c-12.5,2.5-24.8,6.4-36.5,11.5c-1.6,0.7-3.3,1.6-4.1,3.1c-0.7,1.5-0.4,3.2-0.6,4.8
				c-0.7,5.4-6.7,8.2-12,9.6c-7.6,2-15.5,3.1-23.4,3.3c-5.2,0.1-9,6.7-10.3-0.3C383,931.8,387.7,922.9,389.6,916.9z"/>
			
				<path style="clip-path:url(#XMLID_00000102515243624740619990000010625301974970509758_);fill:#FFFFFF;stroke:#1A1A1A;stroke-width:2;stroke-linecap:round;stroke-linejoin:round;stroke-miterlimit:10;" d="
				M433.6,681.1c-0.7-2.5-1.1-5.5,0.4-7.7c1.1-1.6,3-2.5,4.7-3.5c6.4-3.7,11-9.6,15.4-15.5c1.8-2.4,3.7-4.9,4.2-7.9
				s-1.1-6.5-4.1-7.1c9.7-5.4,21-8,32.1-7.3c1.2,0.1,2.4,0.2,3.2,1.1c1.2,1.3,0.6,3.3,0.8,5c0.2,3.1,3.3,5.7,6.4,5.5
				c4.6-0.4,7.2-5.7,11.5-7.5c1.9-0.8,4-0.8,5.9-1.5c4.9-1.6,8.7-6.9,13.8-6.5c2.9,0.2,5.3,2.2,7.5,4.1c6.4,5.6,14.5,11.4,22.7,9
				c4.9-1.4,8.5-5.6,12.6-8.6c8.6-6.5,20.4-8.3,30.6-4.9c0.7,4,1.4,8.1,2.2,12.1c0.1,0.7,0.3,1.6,0.9,2c0.5,0.4,1.3,0.4,1.9,0.4
				c2.4-0.1,4.9-0.2,7.3-0.3c2.7,8.4,3.7,17.4,3,26.2c-0.2,2.9-0.6,5.8,0.1,8.6c1.1,4.3,4.9,8,4.2,12.4c-0.8,5-7.3,8.2-7,13.3
				c0.4,5,7.1,7.2,8.7,11.9c0.6,1.7,0.5,3.6,0.3,5.3c-0.5,5.7-0.9,11.4-1.4,17.1c-0.1,1.7-0.3,3.5-1.1,5c-2.5,4.9-9.8,4.5-14.6,1.8
				c-0.7-0.4-1.3-0.8-1.7-1.5c-0.5-0.9-0.4-2.1-0.4-3.2c0.1-6.7-4.7-13.1-11.2-14.9c0.7,3.2,1.3,6.6,0.7,9.8s-2.8,6.4-6,7.2
				c-3.7,0.9-7.3-1.6-10.3-3.9c-1.7-1.3-3.5-2.7-4.2-4.7c-0.5-1.3-0.5-2.9-1.4-4c-1.8-2.4-5.9-1.3-7.4,1.3c-1.4,2.6-1,5.8-0.5,8.7
				c0.5,3,1,6,1.5,9c0.3,1.7,0.5,3.6-0.4,5c-0.7,1.1-1.9,1.7-3.2,2.1c-4.2,1.3-9,0.4-12.3-2.4c-3.4-2.8-5.1-7.4-4.3-11.7
				c-6.6-1.3-13.9,0.9-18.7,5.7c-4.8,4.8-7,12-5.7,18.6c-2.7,0.3-5.4,0.6-8,0.9c0.5,3.1-3.5,5-6.6,4.9c-3.1-0.1-6.7-0.8-9.1,1.1
				c-1.3,1-2.1,2.6-3.6,3.2c-2.4,1-5.1-1.3-5.7-3.8s-0.1-5.2-0.2-7.8c0-1.6-0.3-3.2,0.4-4.6c0.8-1.6,2.6-2.5,4.2-3.4
				c5.3-3.1,9.2-8,13-12.9c1.4-1.9,3-4.2,2.2-6.4c-0.8-2.3-3.7-3.1-6.2-3.5c-6.5-1-13.1-1.5-19.6-1.4c10.2-6.1,16.2-18.4,14.8-30.2
				c-0.3-2.4-1-5.1-3.1-6.5c-1.4-1-3.2-1.2-4.9-1.3c-5.4-0.2-10.8,0.6-15.9,2.4c-4.3,1.5-8.4,3.8-12.9,5
				C445,704.5,437,693.4,433.6,681.1z"/>
			
				<path style="clip-path:url(#XMLID_00000102515243624740619990000010625301974970509758_);fill:#FFFFFF;stroke:#1A1A1A;stroke-width:2;stroke-linecap:round;stroke-linejoin:round;stroke-miterlimit:10;" d="
				M510,793.3c-1.7-0.4-3.7-1.2-5.2-0.2c-1.2,0.8-1.5,2.5-2,3.8c-1.6,4.5-6.3,7.4-7.2,12.1c-0.6,2.7,0.3,5.5-0.1,8.1
				c-0.9,6.5-8.1,10-14.3,12.3c2.9,6.2,11,7.2,17.3,9.9c6,2.6,10.9,7.4,15.6,12c0.9,0.9,1.8,1.8,2.4,3c0.6,1.2,0.7,2.6,1,4
				c1.8,7.5,10.8,11.2,18.4,10.3c1.3-0.2,2.5-0.4,3.6-1.1c1.9-1.2,2.7-3.5,4.3-5.1c2.9-3.1,7.7-3.3,12-3.2c5.7,0,11.5,0.1,17.2,0.1
				c2.9,0,5.9,0.1,8.5,1.2s5,3.6,5,6.5c5-1.5,9.8-3.3,14.5-5.5c1.5-0.7,3-1.4,4.1-2.6c0.9-1,1.4-2.3,1.9-3.5
				c2.3-6.1,3.5-12.8,3.3-19.3c-0.1-2.6-0.3-5.3,1-7.5c1.5-2.4,4.4-3.5,6.7-5.2c5.6-4.3,6.3-12.4,6.3-19.5c0-9-0.4-18-1.1-26.9
				c-0.1-1.1-0.2-2.2-0.8-3c-1-1.3-2.8-1.6-4.4-1.7c-10.8-0.5-21.4,2.7-32,4.9c-14.4,2.9-28.7,2-43,3.9
				C531.3,782.6,522.3,796.3,510,793.3z"/>
			
				<use xlink:href="#XMLID_7_"  style="overflow:visible;fill:none;stroke:#1A1A1A;stroke-width:2;stroke-linecap:round;stroke-linejoin:round;stroke-miterlimit:10;"/>
		</g>
	</g>
	<g>
		<path class="st3" d="M616.9,1182.1l-17.3,35c0,0,43.5,34.5,134.2,25.3s142.2-26.7,142.2-26.7l-13.3-46.9l-74.3-37.8L616.9,1182.1z
			"/>
		<path class="st2" d="M596.3,1200.6c0,0,22.7-52.7,21.7-106.8c-1-54-21.2-122.1-35.7-143.3c-14.5-21.2-80.6-168.4-80.6-194
			s8.7-128.4,60.3-187.2c23.2,3.4,30.4,13,30.4,13s-42,99.4-29.4,148.2c12.5,48.7,36.2,63.7,57.9,70.2c22-7,69.5-24.1,69.5-24.1
			s69.2-2.2,77.2-0.5c8,1.7,53.6,38.6,72.1,58.4c18.6,19.8,94.3,129.1,110.3,197.6c15.9,68.5,0,132.7,0,132.7l-48.7-12.1
			c0,0,1-62.7-12.1-92.7c-13-29.9-35.7-56.9-35.7-56.9s17.4,159.7,20.8,180.5c-48.5,42-100.3,29.8-112.9,24.1
			c-26.1-49.7-26.1-49.7-26.1-49.7l-17.9,56C717.4,1214,645.5,1232.1,596.3,1200.6z"/>
		<path class="st1" d="M692.5,767.9c0,0,5.6-33.7,3.3-54.8c28.2,3.3,61.2-2,61.2-2s-3.1,40.9,1.6,55
			C727.6,770.2,692.5,767.9,692.5,767.9z"/>
		<path class="st1" d="M683.9,784.9c0,0-11.2,0.4-10-8.3c1.2-8.7,8-15,10-15.2s23.3,4.5,41.6,3.4c18.3-1.1,35.7-4.3,41.1-5.1
			c5.4-0.7,9.2,16.6,4.5,20.3C766.4,783.6,693.6,789.7,683.9,784.9z"/>
		<path class="st1" d="M572.7,552c0,0,27.2-52.5,50.5-73.9c23.3-21.3,27.4-30.7,28.5-22.2c1.1,8.5-18.5,40.8-21.8,47.9
			c9.9-4.8,14.9-0.9,13.2,9.2c-1.7,10.1-8.2,23.4-17.9,28.2c-9.7,4.8-26.5,24.3-27.8,26C596,569,572.7,552,572.7,552z"/>
		<path class="st1" d="M549,565.4c0,0,12.3-17.1,24.1-17.6c11.8-0.5,31.1,11.6,27.5,28.7c-3.6,17.1-8.4,26.3-10.9,25.1
			c-2.4-1.2-14.2-17.1-23.2-18.3s-20-2.4-21.7-5.1C543.2,575.5,549,565.4,549,565.4z"/>
		<path class="st1" d="M781.6,666.4c0,0,9.4-8.1,9.9,3.2c0.5,11.3-8.2,24.6-14.5,25.1C770.7,695.2,781.6,666.4,781.6,666.4z"/>
		<path class="st1" d="M675.7,666.4c0,0-9.2-8.1-9.6,3.2c-0.5,11.3,8,24.6,14.1,25.1C686.3,695.2,675.7,666.4,675.7,666.4z"/>
		<path class="st3" d="M679.9,689.2c0,0,2.9,46.7,35.1,47.4s58.6-6.2,62.6-32.9c4-26.8,17.4-68,4.3-82.9
			c-13-14.8-73.1-43.1-89.4-7.2c-2.1,3.3-3.6,5.8-3.6,5.8s-11.8-7.3-19.1,3.3C662.5,633.3,660,676.1,679.9,689.2z"/>
		<path class="st1" d="M937.9,1186.5c0,0,0.3,25.1-15,45.4c-12.3,16.4-41.5-5.1-42.4-16.9c-0.9-11.8,12.3-24.5,12.3-24.5
			s3.4-1.1,4.5-1.1c1.1,0,6.9-15.2,6.9-15.2L937.9,1186.5z"/>
		<path class="st1" d="M907.1,1148.8c0,0-14-10.1-13.5,0c0.5,10.1-3.4,24.1,3.4,30.9s41.5,17.4,49.7,12.1
			c8.2-5.3,19.5-28.5,10.5-31.8S907.1,1148.8,907.1,1148.8z"/>
	</g>
	<ellipse class="st1" cx="103.4" cy="685.6" rx="77.2" ry="76.6"/>
	<ellipse class="st1" cx="1252" cy="891.2" rx="62.6" ry="62.1"/>
	<circle class="st3" cx="1086.3" cy="188.3" r="30.9"/>
</g>
</svg>
