<?xml version="1.0" encoding="utf-8"?>
<!-- Generator: Adobe Illustrator 26.0.3, SVG Export Plug-In . SVG Version: 6.00 Build 0)  -->
<svg version="1.1" id="Слой_1" xmlns="http://www.w3.org/2000/svg" xmlns:xlink="http://www.w3.org/1999/xlink" x="0px" y="0px"
	 viewBox="0 0 362 413" style="enable-background:new 0 0 362 413;" xml:space="preserve">
<style type="text/css">
	.st0{fill-rule:evenodd;clip-rule:evenodd;fill:none;stroke:#1B2129;}
</style>
<g id="Page-1">
	<g id="_x31_0.Blog-Sidebar" transform="translate(-1392.000000, -3180.000000)">
		<g id="CTA" transform="translate(-124.000000, 3155.378646)">
			<path id="bg-shape" class="st0" d="M1640.7,403.1c15.7,17.2,47.1,28.1,81.9,31.9c36.4,4,76.7,0.3,107-12
				c13.4-5.4,24.8-12.6,33.1-21.5c7.6-8.1,12.5-17.8,13.9-28.9c6.3-51-24.1-151.7-60.4-231.6c-18.7-41-38.9-76.5-56.7-97.1
				c-8-9.3-15.6-15.5-22.2-17.8c-3.1-1-5.9-1.2-8.6-0.4c-2.5,0.8-4.9,2.5-6.9,5.2c-16.1,21-51.5,23.4-88.5,25.8c-0.3,0-0.7,0-1,0.1
				l-2.9,0.2c-29.4,1.9-59.4,4.4-81,16.7c-16.3,9.3-27.9,24.2-30.9,48.8c-2.3,19.1,3.4,35.3,13.8,49.7c13.9,19.4,36,35.5,57.8,51.2
				l2,1.4l0,0l1.6,1.2c26.2,18.9,51.4,37.3,60.8,60c7.2,17.2,5.4,36.8-11.7,60.9c-7.8,11-11.4,21-11.5,30.1
				C1629.9,386.9,1633.8,395.6,1640.7,403.1z"/>
		</g>
	</g>
</g>
</svg>
