<svg width="43" height="57" viewBox="0 0 43 57" fill="none" xmlns="http://www.w3.org/2000/svg">
<path d="M19.3125 54.9062C20.2969 56.4375 22.5938 56.4375 23.5781 54.9062C39.5469 31.9375 42.5 29.5312 42.5 21C42.5 9.40625 33.0938 0 21.5 0C9.79688 0 0.5 9.40625 0.5 21C0.5 29.5312 3.34375 31.9375 19.3125 54.9062ZM21.5 29.75C16.5781 29.75 12.75 25.9219 12.75 21C12.75 16.1875 16.5781 12.25 21.5 12.25C26.3125 12.25 30.25 16.1875 30.25 21C30.25 25.9219 26.3125 29.75 21.5 29.75Z" fill="#5634f7"/>
</svg>
