<?xml version="1.0" encoding="utf-8"?>
<!-- Generator: Adobe Illustrator 26.0.3, SVG Export Plug-In . SVG Version: 6.00 Build 0)  -->
<svg version="1.1" id="Layer_1" xmlns="http://www.w3.org/2000/svg" xmlns:xlink="http://www.w3.org/1999/xlink" x="0px" y="0px"
	 viewBox="0 0 753 1012" style="enable-background:new 0 0 753 1012;" xml:space="preserve">
<style type="text/css">
	.st0{fill:#FFFFFF;stroke:#1A1A1A;stroke-width:2;stroke-linecap:round;stroke-linejoin:round;stroke-miterlimit:10;}
	.st1{fill:#1A1A1A;stroke:#1A1A1A;stroke-width:2;stroke-linecap:round;stroke-linejoin:round;stroke-miterlimit:10;}
	.st2{fill:#8054D4;stroke:#1A1A1A;stroke-width:2;stroke-linecap:round;stroke-linejoin:round;stroke-miterlimit:10;}
	.st3{fill:#FFFFFF;stroke:#1A1A1A;stroke-width:3;stroke-linecap:round;stroke-linejoin:round;stroke-miterlimit:10;}
	.st4{fill:#8054D4;stroke:#1A1A1A;stroke-width:3;stroke-linecap:round;stroke-linejoin:round;stroke-miterlimit:10;}
	.st5{fill:none;stroke:#1A1A1A;stroke-width:2;stroke-linecap:round;stroke-linejoin:round;stroke-miterlimit:10;}
</style>
<g>
	<g>
		<path class="st0" d="M726.6,299c0,50.4-40.8,91.2-91.2,91.2c-4.3,0-8.5-0.3-12.7-0.9l12.7-90.3l-64-65v0
			c16.5-16.2,39-26.2,64-26.2C685.7,207.9,726.6,248.7,726.6,299z"/>
		<polygon class="st0" points="571.4,234.1 571.4,234.1 571.4,234.1 		"/>
		<polygon class="st0" points="622.7,389.4 622.7,389.3 622.7,389.3 		"/>
		<path class="st1" d="M635.4,299l-12.7,90.3c-26.2-3.6-48.8-18.3-62.9-39.3l40.8-27.6L635.4,299z"/>
		<path class="st2" d="M635.4,299l-34.7,23.5l-40.8,27.6c-9.9-14.6-15.6-32.1-15.6-51.1c0-25.4,10.4-48.4,27.2-65L635.4,299z"/>
	</g>
	<path class="st0" d="M562.7,884.1c0,50.4-40.8,91.2-91.2,91.2c-4.3,0-8.5-0.3-12.7-0.9l12.7-90.3l-75.6,51
		c-9.9-14.6-15.6-32.1-15.6-51c0-25.4,10.4-48.4,27.2-65c16.5-16.2,39-26.2,64-26.2C521.9,792.9,562.7,833.7,562.7,884.1z"/>
	<path class="st1" d="M471.6,884.1l-12.7,90.3c-26.2-3.6-48.8-18.4-62.9-39.3L471.6,884.1z"/>
	<path class="st0" d="M250.2,144.5c0,50.4-40.8,91.2-91.2,91.2c-4.3,0-8.5-0.3-12.7-0.9l12.7-90.3l26.8-87.2
		C223.1,68.7,250.2,103.4,250.2,144.5z"/>
	<path class="st2" d="M185.8,57.3L159,144.5l-21.6-21.9L95.1,79.5v0c16.5-16.2,39-26.2,64-26.2C168.3,53.3,177.3,54.7,185.8,57.3z"
		/>
	<path class="st2" d="M159,144.5L124.3,168l-40.8,27.6c-9.9-14.6-15.6-32.1-15.6-51c0-25.4,10.4-48.4,27.2-65l42.4,43.1L159,144.5z"
		/>
	<path class="st1" d="M159,144.5l-12.7,90.3c-26.2-3.6-48.8-18.4-62.9-39.3l40.8-27.6L159,144.5z"/>
	<g>
		<path class="st3" d="M283.6,616.1c-7.8,5.3-12,14-11.8,22.7l-13.6,9.1c0,0-9.6,4.9-23.7-11l-19.2-28.6
			c-13.3-19.8-40.1-25.1-59.9-11.8l-33.1,22.2c-10.5,11.8-6.6,19.6-6.6,19.6l9.3,13.8c8.8-0.1,17.6,4.1,22.9,12.1
			c8.3,12.4,5.2,29.2-7.1,37.4c-12.3,8.2-29,4.8-37.3-7.6c-5.3-7.9-6-17.7-2.5-25.8l-9.3-13.8c-4.1-6.2-13.7-4.1-19.8-1.9
			l-33.9,22.7c-19.8,13.3-25.1,40.1-11.8,59.9l19.2,28.6c14.1,15.8,23.7,11,23.7,11l13.6-9.1c-0.2-8.8,4-17.5,11.8-22.7
			c12.3-8.2,28.9-5,37.1,7.3c8.2,12.3,5,28.9-7.3,37.1c-7.8,5.3-17.5,5.8-25.5,2.3l-13.6,9.1c-9.3,6.3,0.6,25.3,0.6,25.3l19.2,28.6
			c13.3,19.8,40.1,25.1,59.9,11.8l28.9-19.4c0,0,19.1-10,25.3-0.6l9.1,13.6c-3.5,8.1-2.9,17.7,2.3,25.5c8.2,12.3,24.8,15.5,37.1,7.3
			c12.3-8.2,15.5-24.8,7.3-37.1c-5.3-7.8-14-12-22.7-11.8l-9.1-13.6c0,0-4.9-9.6,11-23.7l28.2-18.9c19.8-13.3,25.1-40.1,11.8-59.9
			l-19.2-28.6c0,0-10-19.1-0.6-25.3l13.6-9.1c8.1,3.5,17.7,2.9,25.5-2.3c12.3-8.2,15.5-24.8,7.3-37.1
			C312.4,611.2,295.8,607.9,283.6,616.1z"/>
		<path class="st4" d="M472.7,489.9c-7.8,5.3-12,14-11.8,22.7l-13.6,9.1c0,0-9.6,4.9-23.7-11l-19.2-28.6
			c-13.3-19.8-40.1-25.1-59.9-11.8l-33.1,22.2c-10.5,11.8-6.6,19.6-6.6,19.6l9.3,13.8c8.8-0.1,17.6,4.1,22.9,12.1
			c8.3,12.4,5.2,29.2-7.1,37.4c-12.3,8.2-29,4.8-37.3-7.6c-5.3-7.9-6-17.7-2.5-25.8l-9.3-13.8c-4.1-6.2-13.7-4.1-19.8-1.9
			l-33.9,22.7c-19.8,13.3-25.1,40.1-11.8,59.9l19.2,28.6c14.1,15.8,23.7,11,23.7,11l13.6-9.1c-0.2-8.8,4-17.5,11.8-22.7
			c12.3-8.2,28.9-5,37.1,7.3c8.2,12.3,5,28.9-7.3,37.1c-7.8,5.3-17.5,5.8-25.5,2.3l-13.6,9.1c-9.3,6.3,0.6,25.3,0.6,25.3l19.2,28.6
			c13.3,19.8,40.1,25.1,59.9,11.8l28.9-19.4c0,0,19.1-10,25.3-0.6l9.1,13.6c-3.5,8.1-2.9,17.7,2.3,25.5c8.2,12.3,24.8,15.5,37.1,7.3
			c12.3-8.2,15.5-24.8,7.3-37.1c-5.3-7.8-14-12-22.7-11.8l-9.1-13.6c0,0-4.9-9.6,11-23.7l28.2-18.9c19.8-13.3,25.1-40.1,11.8-59.9
			L464,571.1c0,0-10-19.1-0.6-25.3l13.6-9.1c8.1,3.5,17.7,2.9,25.5-2.3c12.3-8.2,15.5-24.8,7.3-37.1
			C501.6,484.9,485,481.7,472.7,489.9z"/>
		<path class="st3" d="M344.9,299.3c-7.8,5.3-12,14-11.8,22.7l-13.6,9.1c0,0-9.6,4.9-23.7-11l-19.2-28.6
			c-13.3-19.8-40.1-25.1-59.9-11.8L183.6,302c-10.5,11.8-6.6,19.6-6.6,19.6l9.3,13.8c8.8-0.1,17.6,4.1,22.9,12.1
			c8.3,12.4,5.2,29.2-7.1,37.4c-12.3,8.2-29,4.8-37.3-7.6c-5.3-7.9-6-17.7-2.5-25.8l-9.3-13.8c-4.1-6.2-13.7-4.1-19.8-1.9
			l-33.9,22.7c-19.8,13.3-25.1,40.1-11.8,59.9l19.2,28.6c14.1,15.8,23.7,11,23.7,11l13.6-9.1c-0.2-8.8,4-17.5,11.8-22.7
			c12.3-8.2,28.9-5,37.1,7.3c8.2,12.3,5,28.9-7.3,37.1c-7.8,5.3-17.5,5.8-25.5,2.3l-13.6,9.1c-9.3,6.3,0.6,25.3,0.6,25.3l19.2,28.6
			c13.3,19.8,40.1,25.1,59.9,11.8l28.9-19.4c0,0,19.1-10,25.3-0.6l9.1,13.6c-3.5,8.1-2.9,17.7,2.3,25.5c8.2,12.3,24.8,15.5,37.1,7.3
			c12.3-8.2,15.5-24.8,7.3-37.1c-5.3-7.8-14-12-22.7-11.8l-9.1-13.6c0,0-4.9-9.6,11-23.7l28.2-18.9c19.8-13.3,25.1-40.1,11.8-59.9
			l-19.2-28.6c0,0-10-19.1-0.6-25.3l13.6-9.1c8.1,3.5,17.7,2.9,25.5-2.3c12.3-8.2,15.5-24.8,7.3-37.1
			C373.8,294.3,357.2,291.1,344.9,299.3z"/>
	</g>
	<line class="st0" x1="287.8" y1="752.3" x2="380.6" y2="877.6"/>
	<line class="st0" x1="206.6" y1="221.8" x2="254.1" y2="299"/>
	<line class="st0" x1="562.7" y1="354.7" x2="375.9" y2="486.4"/>
	<path class="st5" d="M602.5,541.8c11.4,38.3,8.3,80.6-8.4,116.9"/>
	<path class="st5" d="M625.7,554.2c6.8,16.7,7.3,35.8,1.5,52.9"/>
</g>
</svg>
