<?xml version="1.0" encoding="UTF-8"?>
<svg width="375px" height="667px" viewBox="0 0 375 667" version="1.1" xmlns="http://www.w3.org/2000/svg" xmlns:xlink="http://www.w3.org/1999/xlink">
    <title>Pie Chart</title>
    <defs>
        <path d="M171.5,0 C265.269666,0 341.462543,75.2609222 342.977024,168.664106 L343,171.5 C343,265.269666 267.739078,341.462543 174.335894,342.977024 L171.5,343 C77.7303338,343 1.53745668,267.744535 0.0229761001,174.336058 L0,171.5 L24,171.5 L24,171.5 C24,252.962001 90.0379994,319 171.5,319 C252.962001,319 319,252.962001 319,171.5 C319,90.0379994 252.962001,24 171.5,24 L171.5,0 Z" id="path-1"></path>
    </defs>
    <g id="Pie-Chart" stroke="none" stroke-width="1" fill="none" fill-rule="evenodd">
        <rect fill="#F4F4F6" x="0" y="0" width="375" height="667"></rect>
        <g id="Content" transform="translate(16.000000, 80.000000)">
            <g id="Details" transform="translate(0.000000, 363.000000)">
                <g id="List-/-Row-/-Icon-/-2-+-1-/-Label" transform="translate(0.000000, 144.000000)">
                    <rect id="BG" fill="#FFFFFF" x="0" y="0" width="343" height="64"></rect>
                    <text id="Label" font-family="OpenSans, Open Sans" font-size="16" font-weight="normal" line-spacing="24" letter-spacing="0.5" fill="#ABABB6">
                        <tspan x="294.03125" y="37">+9%</tspan>
                    </text>
                    <text id="Sublabel" font-family="OpenSans, Open Sans" font-size="14" font-weight="normal" line-spacing="16" letter-spacing="0.5" fill="#CDCDD2">
                        <tspan x="48" y="51">Sales</tspan>
                    </text>
                    <text id="Label" font-family="RobotoMono-Bold, Roboto Mono" font-size="16" font-weight="bold" line-spacing="24" letter-spacing="0.5" fill="#4E4E56">
                        <tspan x="48" y="25">214</tspan>
                    </text>
                    <g id="Shape" transform="translate(16.000000, 20.000000)">
                        <polygon points="0 0 24 0 24 24 0 24"></polygon>
                        <path d="M7,18 C5.9,18 5.01,18.9 5.01,20 C5.01,21.1 5.9,22 7,22 C8.1,22 9,21.1 9,20 C9,18.9 8.1,18 7,18 Z M1,2 L1,4 L3,4 L6.6,11.59 L5.25,14.04 C5.09,14.32 5,14.65 5,15 C5,16.1 5.9,17 7,17 L19,17 L19,15 L7.42,15 C7.28,15 7.17,14.89 7.17,14.75 L7.2,14.63 L8.1,13 L15.55,13 C16.3,13 16.96,12.59 17.3,11.97 L20.88,5.48 C20.96,5.34 21,5.17 21,5 C21,4.45 20.55,4 20,4 L5.21,4 L4.27,2 L1,2 Z M17,18 C15.9,18 15.01,18.9 15.01,20 C15.01,21.1 15.9,22 17,22 C18.1,22 19,21.1 19,20 C19,18.9 18.1,18 17,18 Z" fill="#CDCDD2"></path>
                    </g>
                </g>
                <g id="List-/-Row-/-Icon-/-2-+-1-/-Label" transform="translate(0.000000, 72.000000)">
                    <rect id="BG" fill="#FFFFFF" x="0" y="0" width="343" height="64"></rect>
                    <text id="Label" font-family="OpenSans, Open Sans" font-size="16" font-weight="normal" line-spacing="24" letter-spacing="0.5" fill="#ABABB6">
                        <tspan x="294.03125" y="37">+5%</tspan>
                    </text>
                    <text id="Sublabel" font-family="OpenSans, Open Sans" font-size="14" font-weight="normal" line-spacing="16" letter-spacing="0.5" fill="#CDCDD2">
                        <tspan x="48" y="51">Likes</tspan>
                    </text>
                    <text id="Label" font-family="RobotoMono-Bold, Roboto Mono" font-size="16" font-weight="bold" line-spacing="24" letter-spacing="0.5" fill="#4E4E56">
                        <tspan x="48" y="25">1649</tspan>
                    </text>
                    <g id="Shape" transform="translate(16.000000, 20.000000)">
                        <polygon points="0 0 24 0 24 24 0 24"></polygon>
                        <path d="M12,6 C12,5.45 11.55,5 11,5 L5.82,5 L6.48,1.82 L6.5,1.59 C6.5,1.28 6.37,1 6.17,0.79 L5.38,0 L0.44,4.94 C0.17,5.21 0,5.59 0,6 L0,12.5 C0,13.33 0.67,14 1.5,14 L8.25,14 C8.87,14 9.4,13.62 9.63,13.09 L11.89,7.8 C11.96,7.63 12,7.44 12,7.25 L12,6 L12,6 Z M22.5,10 L15.75,10 C15.13,10 14.6,10.38 14.37,10.91 L12.11,16.2 C12.04,16.37 12,16.56 12,16.75 L12,18 C12,18.55 12.45,19 13,19 L18.18,19 L17.52,22.18 L17.5,22.42 C17.5,22.73 17.63,23.01 17.83,23.22 L18.62,24 L23.56,19.06 C23.83,18.79 24,18.41 24,18 L24,11.5 C24,10.67 23.33,10 22.5,10 L22.5,10 Z" fill="#CDCDD2"></path>
                    </g>
                </g>
                <g id="List-/-Row-/-Icon-/-2-+-1-/-Label">
                    <rect id="BG" fill="#FFFFFF" x="0" y="0" width="343" height="64"></rect>
                    <text id="Label" font-family="OpenSans, Open Sans" font-size="16" font-weight="normal" line-spacing="24" letter-spacing="0.5" fill="#ABABB6">
                        <tspan x="294.03125" y="37">+7%</tspan>
                    </text>
                    <text id="Sublabel" font-family="OpenSans, Open Sans" font-size="14" font-weight="normal" line-spacing="16" letter-spacing="0.5" fill="#CDCDD2">
                        <tspan x="48" y="51">Customers</tspan>
                    </text>
                    <text id="Label" font-family="RobotoMono-Bold, Roboto Mono" font-size="16" font-weight="bold" line-spacing="24" letter-spacing="0.5" fill="#4E4E56">
                        <tspan x="48" y="25">328</tspan>
                    </text>
                    <g id="Shape" transform="translate(16.000000, 20.000000)">
                        <polygon points="0 0 24 0 24 24 0 24"></polygon>
                        <path d="M16,11 C17.66,11 18.99,9.66 18.99,8 C18.99,6.34 17.66,5 16,5 C14.34,5 13,6.34 13,8 C13,9.66 14.34,11 16,11 L16,11 Z M8,11 C9.66,11 10.99,9.66 10.99,8 C10.99,6.34 9.66,5 8,5 C6.34,5 5,6.34 5,8 C5,9.66 6.34,11 8,11 L8,11 Z M8,13 C5.67,13 1,14.17 1,16.5 L1,19 L15,19 L15,16.5 C15,14.17 10.33,13 8,13 L8,13 Z M16,13 C15.71,13 15.38,13.02 15.03,13.05 C16.19,13.89 17,15.02 17,16.5 L17,19 L23,19 L23,16.5 C23,14.17 18.33,13 16,13 L16,13 Z" fill="#CDCDD2"></path>
                    </g>
                </g>
            </g>
            <g id="Pie-Chart">
                <path d="M171.5,0 C266.216835,0 343,76.7831654 343,171.5 C343,266.216835 266.216835,343 171.5,343 C76.7831654,343 0,266.216835 0,171.5 C0,76.7831654 76.7831654,0 171.5,0 Z M171.5,24 C90.0379994,24 24,90.0379994 24,171.5 C24,252.962001 90.0379994,319 171.5,319 C252.962001,319 319,252.962001 319,171.5 C319,90.0379994 252.962001,24 171.5,24 Z" id="BG" fill="#E4E4E5"></path>
                <g id="Progress">
                    <use fill="#ABABB6" xlink:href="#path-1"></use>
                    <use fill="#5634f7" xlink:href="#path-1"></use>
                </g>
                <text id="75%-of-current-goal." font-family="RobotoMono-Bold, Roboto Mono" font-size="16" font-weight="bold" line-spacing="24" letter-spacing="0.5" fill="#4E4E56">
                    <tspan x="70.484375" y="177">75% of current goal.</tspan>
                </text>
            </g>
        </g>
        <g id="Navigation-Bar-/-Icon---Title---Icon">
            <rect id="BG" fill="#FFFFFF" x="0" y="0" width="375" height="64"></rect>
            <g id="Actions" transform="translate(16.000000, 24.000000)">
                <g id="Shape" transform="translate(319.000000, 0.000000)">
                    <polygon points="0 0 24 0 24 24 0 24"></polygon>
                    <path d="M12,2 L16,6 L13,6 L13,15 L11,15 L11,6 L8,6 L12,2 Z M20,8 L15,8 L15,9.99 L20,9.99 L20,20.02 L4,20.02 L4,9.99 L9,9.99 L9,8 L4,8 C2.9,8 2,8.9 2,10 L2,20 C2,21.1 2.9,22 4,22 L20,22 C21.1,22 22,21.1 22,20 L22,10 C22,8.9 21.1,8 20,8 Z" fill="#4E4E56"></path>
                </g>
                <g id="Shape" transform="translate(279.000000, 0.000000)">
                    <polygon points="0 0 24 0 24 24 0 24"></polygon>
                </g>
                <g id="Shape" transform="translate(40.000000, 0.000000)">
                    <polygon points="0 0 24 0 24 24 0 24"></polygon>
                </g>
                <g id="Shape">
                    <polygon points="0 0 24 0 24 24 0 24"></polygon>
                    <path d="M13.9653985,19 C13.9048959,18.9958498 13.8894953,18.9963498 13.8295927,18.9860494 C13.6948869,18.9627984 13.5653314,18.9117462 13.4510265,18.836743 C13.393224,18.7988414 13.3427718,18.7547395 13.2923697,18.7076875 L7.29211252,12.7074303 C7.25071074,12.6630784 7.23916025,12.652978 7.20240867,12.6045259 C7.16115691,12.5501236 7.12550538,12.4914711 7.09615412,12.4297684 C6.96794863,12.1602069 6.96794863,11.8403432 7.09615412,11.5707816 C7.12550538,11.509079 7.16115691,11.4504264 7.20240867,11.3960241 C7.23916025,11.347622 7.25071074,11.3374716 7.29211252,11.2931697 L13.2923697,5.29291255 C13.3367216,5.25151078 13.346872,5.23991028 13.3952741,5.20320871 C13.5223795,5.10675458 13.672386,5.04165179 13.8295927,5.01450062 C13.9418475,4.99519979 14.0572025,4.99519979 14.1694573,5.01450062 C14.2592111,5.03000129 14.3467649,5.05780248 14.4290184,5.09690415 C14.7414318,5.24546052 14.9589411,5.55362373 14.9943426,5.89773847 C15.0082932,6.0337443 14.9940426,6.17225024 14.9526908,6.30255582 C14.9182394,6.41111048 14.8651871,6.51356487 14.7963841,6.60426875 C14.7596326,6.65272083 14.7480821,6.66282126 14.7066803,6.70717316 L9.41355344,12.0003 L14.7066803,17.2934269 L14.7532823,17.343329 C14.7915339,17.390331 14.8024344,17.4012815 14.8357358,17.4520837 C14.8981885,17.5472877 14.9441905,17.6531423 14.9711416,17.763747 C14.9926925,17.8522508 15.0020929,17.9436547 14.9989928,18.0346586 C14.9871923,18.3804234 14.7911839,18.7026873 14.489671,18.8722445 C14.3904167,18.9280469 14.2816621,18.9666986 14.1694573,18.9860494 C14.1095547,18.9963498 14.094154,18.9958498 14.0336514,19 L13.9653985,19 L13.9653985,19 Z" fill="#4E4E56"></path>
                </g>
            </g>
            <text id="Title" font-family="Lato-Bold, Lato" font-size="16" font-weight="bold" line-spacing="24" letter-spacing="0.5" fill="#4E4E56">
                <tspan x="168.566" y="40">Stats</tspan>
            </text>
            <g id="Group">
                <path d="M365,13.0029699 C365,13.5536144 364.555054,14 364.006602,14 L347.993398,14 C347.444759,14 347,13.5469637 347,13.0029699 L347,6.99703014 C347,6.4463856 347.444946,6 347.993398,6 L364.006602,6 C364.555241,6 365,6.45303631 365,6.99703014 L365,13.0029699 Z M366,8 C366.552285,8 367,8.44335318 367,9.0093689 L367,10.9906311 C367,11.5480902 366.556135,12 366,12 L366,8 Z" id="Battery" fill="#CDCDD2"></path>
                <g id="Dots" transform="translate(8.000000, 8.000000)">
                    <path d="M28,2 C28,3.10457143 27.1045075,4 25.9998572,4 C24.8952069,4 24.0000001,3.10485714 24.0000001,2 C23.9997143,0.895428571 24.8952069,0 25.9998572,0 C27.1045075,0 28,0.895428571 28,2 Z" id="5" fill="#E4E4E5"></path>
                    <path d="M20,0 C21.1045714,0 22,0.895428571 22,2 C22,3.10457143 21.1045714,4 20,4 C18.8954286,4 18,3.10485714 18,2 C18,0.895428571 18.8954286,0 20,0 L20,0 Z" id="4" fill="#CDCDD2"></path>
                    <path d="M13.9998572,0 C15.1043497,0 16,0.895428571 16,2 C16,3.10457143 15.1046354,4 13.9998572,4 C12.8953646,4 12,3.10485714 12,2 C12,0.895428571 12.8956503,0 13.9998572,0 L13.9998572,0 Z" id="3" fill="#CDCDD2"></path>
                    <path d="M8,0 C9.10457143,0 10,0.895428571 10,2 C10,3.10457143 9.10457143,4 8,4 C6.89542857,4 6,3.10485714 6,2 C6,0.895428571 6.89542857,0 8,0 L8,0 Z" id="2" fill="#CDCDD2"></path>
                    <path d="M1.99985715,0 C3.10434969,0 4,0.895428571 4,2 C4,3.10457143 3.10463538,4 1.99985715,4 C0.895364617,4 9.09494702e-13,3.10485714 9.09494702e-13,2 C9.09494702e-13,0.895428571 0.895650311,0 1.99985715,0 L1.99985715,0 Z" id="1" fill="#CDCDD2"></path>
                </g>
            </g>
        </g>
    </g>
</svg>