<?xml version="1.0" encoding="UTF-8"?>
<svg width="712px" height="1033px" viewBox="0 0 712 1033" version="1.1" xmlns="http://www.w3.org/2000/svg" xmlns:xlink="http://www.w3.org/1999/xlink">
    <title>pazzle-4</title>
    <g id="Page-1" stroke="none" stroke-width="1" fill="none" fill-rule="evenodd" stroke-linecap="round" stroke-linejoin="round">
        <g id="pazzle-4" transform="translate(355.636362, 516.521247) rotate(-14.000000) translate(-355.636362, -516.521247) translate(107.901843, 47.744536)" fill-rule="nonzero" stroke="#1A1A1A">
            <line x1="268.932073" y1="699" x2="361.732073" y2="824.3" id="Path" stroke-width="2" fill="#FFFFFF"></line>
            <line x1="187.732073" y1="168.5" x2="235.232073" y2="245.7" id="Path" stroke-width="2" fill="#FFFFFF"></line>
            <path d="M494.60717,846.353421 C494.60717,896.753421 453.80717,937.553421 403.40717,937.553421 C399.10717,937.553421 394.90717,937.253421 390.70717,936.653421 L403.40717,846.353421 L327.80717,897.353421 C317.90717,882.753421 312.20717,865.253421 312.20717,846.353421 C312.20717,820.953421 322.60717,797.953421 339.40717,781.353421 C355.90717,765.153421 378.40717,755.153421 403.40717,755.153421 C453.80717,755.153421 494.60717,795.953421 494.60717,846.353421 Z" id="Path" stroke-width="2" fill="#FFFFFF"></path>
            <path d="M403.50717,846.353421 L390.80717,936.653421 C364.60717,933.053421 342.00717,918.253421 327.90717,897.353421 L403.50717,846.353421 Z" id="Path" stroke-width="2" fill="#1A1A1A"></path>
            <path d="M231.332073,91.2 C231.332073,141.6 190.532073,182.4 140.132073,182.4 C135.832073,182.4 131.632073,182.1 127.432073,181.5 L140.132073,91.2 L166.932073,4 C204.232073,15.4 231.332073,50.1 231.332073,91.2 Z" id="Path" stroke-width="2" fill="#FFFFFF"></path>
            <path d="M166.932073,4 L140.132073,91.2 L118.532073,69.3 L76.232073,26.2 L76.232073,26.2 C92.732073,10 115.232073,0 140.232073,0 C149.432073,0 158.432073,1.4 166.932073,4 Z" id="Path" stroke-width="2" fill="#8054D4"></path>
            <path d="M140.132073,91.2 L105.432073,114.7 L64.632073,142.3 C54.732073,127.7 49.032073,110.2 49.032073,91.3 C49.032073,65.9 59.432073,42.9 76.232073,26.3 L118.632073,69.4 L140.132073,91.2 Z" id="Path" stroke-width="2" fill="#8054D4"></path>
            <path d="M140.132073,91.2 L127.432073,181.5 C101.232073,177.9 78.632073,163.1 64.532073,142.2 L105.332073,114.6 L140.132073,91.2 Z" id="Path" stroke-width="2" fill="#1A1A1A"></path>
            <g id="Group" transform="translate(0.000000, 219.067927)" stroke-width="3">
                <path d="M264.732073,343.732073 C256.932073,349.032073 252.732073,357.732073 252.932073,366.432073 L239.332073,375.532073 C239.332073,375.532073 229.732073,380.432073 215.632073,364.532073 L196.432073,335.932073 C183.132073,316.132073 156.332073,310.832073 136.532073,324.132073 L103.432073,346.332073 C92.932073,358.132073 96.832073,365.932073 96.832073,365.932073 L106.132073,379.732073 C114.932073,379.632073 123.732073,383.832073 129.032073,391.832073 C137.332073,404.232073 134.232073,421.032073 121.932073,429.232073 C109.632073,437.432073 92.932073,434.032073 84.632073,421.632073 C79.332073,413.732073 78.632073,403.932073 82.132073,395.832073 L72.832073,382.032073 C68.732073,375.832073 59.132073,377.932073 53.032073,380.132073 L19.132073,402.832073 C-0.667927045,416.132073 -5.96792705,442.932073 7.33207295,462.732073 L26.532073,491.332073 C40.632073,507.132073 50.232073,502.332073 50.232073,502.332073 L63.832073,493.232073 C63.632073,484.432073 67.832073,475.732073 75.632073,470.532073 C87.932073,462.332073 104.532073,465.532073 112.732073,477.832073 C120.932073,490.132073 117.732073,506.732073 105.432073,514.932073 C97.632073,520.232073 87.932073,520.732073 79.932073,517.232073 L66.332073,526.332073 C57.032073,532.632073 66.932073,551.632073 66.932073,551.632073 L86.132073,580.232073 C99.432073,600.032073 126.232073,605.332073 146.032073,592.032073 L174.932073,572.632073 C174.932073,572.632073 194.032073,562.632073 200.232073,572.032073 L209.332073,585.632073 C205.832073,593.732073 206.432073,603.332073 211.632073,611.132073 C219.832073,623.432073 236.432073,626.632073 248.732073,618.432073 C261.032073,610.232073 264.232073,593.632073 256.032073,581.332073 C250.732073,573.532073 242.032073,569.332073 233.332073,569.532073 L224.232073,555.932073 C224.232073,555.932073 219.332073,546.332073 235.232073,532.232073 L263.432073,513.332073 C283.232073,500.032073 288.532073,473.232073 275.232073,453.432073 L256.032073,424.832073 C256.032073,424.832073 246.032073,405.732073 255.432073,399.532073 L269.032073,390.432073 C277.132073,393.932073 286.732073,393.332073 294.532073,388.132073 C306.832073,379.932073 310.032073,363.332073 301.832073,351.032073 C293.532073,338.832073 276.932073,335.532073 264.732073,343.732073 Z" id="Path" fill="#FFFFFF"></path>
                <path d="M453.832073,217.532073 C446.032073,222.832073 441.832073,231.532073 442.032073,240.232073 L428.432073,249.332073 C428.432073,249.332073 418.832073,254.232073 404.732073,238.332073 L385.532073,209.732073 C372.232073,189.932073 345.432073,184.632073 325.632073,197.932073 L292.532073,220.132073 C282.032073,231.932073 285.932073,239.732073 285.932073,239.732073 L295.232073,253.532073 C304.032073,253.432073 312.832073,257.632073 318.132073,265.632073 C326.432073,278.032073 323.332073,294.832073 311.032073,303.032073 C298.732073,311.232073 282.032073,307.832073 273.732073,295.432073 C268.432073,287.532073 267.732073,277.732073 271.232073,269.632073 L261.932073,255.832073 C257.832073,249.632073 248.232073,251.732073 242.132073,253.932073 L208.232073,276.632073 C188.432073,289.932073 183.132073,316.732073 196.432073,336.532073 L215.632073,365.132073 C229.732073,380.932073 239.332073,376.132073 239.332073,376.132073 L252.932073,367.032073 C252.732073,358.232073 256.932073,349.532073 264.732073,344.332073 C277.032073,336.132073 293.632073,339.332073 301.832073,351.632073 C310.032073,363.932073 306.832073,380.532073 294.532073,388.732073 C286.732073,394.032073 277.032073,394.532073 269.032073,391.032073 L255.432073,400.132073 C246.132073,406.432073 256.032073,425.432073 256.032073,425.432073 L275.232073,454.032073 C288.532073,473.832073 315.332073,479.132073 335.132073,465.832073 L364.032073,446.432073 C364.032073,446.432073 383.132073,436.432073 389.332073,445.832073 L398.432073,459.432073 C394.932073,467.532073 395.532073,477.132073 400.732073,484.932073 C408.932073,497.232073 425.532073,500.432073 437.832073,492.232073 C450.132073,484.032073 453.332073,467.432073 445.132073,455.132073 C439.832073,447.332073 431.132073,443.132073 422.432073,443.332073 L413.332073,429.732073 C413.332073,429.732073 408.432073,420.132073 424.332073,406.032073 L452.532073,387.132073 C472.332073,373.832073 477.632073,347.032073 464.332073,327.232073 L445.132073,298.732073 C445.132073,298.732073 435.132073,279.632073 444.532073,273.432073 L458.132073,264.332073 C466.232073,267.832073 475.832073,267.232073 483.632073,262.032073 C495.932073,253.832073 499.132073,237.232073 490.932073,224.932073 C482.732073,212.532073 466.132073,209.332073 453.832073,217.532073 Z" id="Path" fill="#8054D4"></path>
                <path d="M326.032073,26.932073 C318.232073,32.232073 314.032073,40.932073 314.232073,49.632073 L300.632073,58.732073 C300.632073,58.732073 291.032073,63.632073 276.932073,47.732073 L257.732073,19.132073 C244.432073,-0.667927045 217.632073,-5.96792705 197.832073,7.33207295 L164.732073,29.632073 C154.232073,41.432073 158.132073,49.232073 158.132073,49.232073 L167.432073,63.032073 C176.232073,62.932073 185.032073,67.132073 190.332073,75.132073 C198.632073,87.532073 195.532073,104.332073 183.232073,112.532073 C170.932073,120.732073 154.232073,117.332073 145.932073,104.932073 C140.632073,97.032073 139.932073,87.232073 143.432073,79.132073 L134.132073,65.332073 C130.032073,59.132073 120.432073,61.232073 114.332073,63.432073 L80.432073,86.132073 C60.632073,99.432073 55.332073,126.232073 68.632073,146.032073 L87.832073,174.632073 C101.932073,190.432073 111.532073,185.632073 111.532073,185.632073 L125.132073,176.532073 C124.932073,167.732073 129.132073,159.032073 136.932073,153.832073 C149.232073,145.632073 165.832073,148.832073 174.032073,161.132073 C182.232073,173.432073 179.032073,190.032073 166.732073,198.232073 C158.932073,203.532073 149.232073,204.032073 141.232073,200.532073 L127.632073,209.632073 C118.332073,215.932073 128.232073,234.932073 128.232073,234.932073 L147.432073,263.532073 C160.732073,283.332073 187.532073,288.632073 207.332073,275.332073 L236.232073,255.932073 C236.232073,255.932073 255.332073,245.932073 261.532073,255.332073 L270.632073,268.932073 C267.132073,277.032073 267.732073,286.632073 272.932073,294.432073 C281.132073,306.732073 297.732073,309.932073 310.032073,301.732073 C322.332073,293.532073 325.532073,276.932073 317.332073,264.632073 C312.032073,256.832073 303.332073,252.632073 294.632073,252.832073 L285.532073,239.232073 C285.532073,239.232073 280.632073,229.632073 296.532073,215.532073 L324.732073,196.632073 C344.532073,183.332073 349.832073,156.532073 336.532073,136.732073 L317.332073,108.132073 C317.332073,108.132073 307.332073,89.032073 316.732073,82.832073 L330.332073,73.732073 C338.432073,77.232073 348.032073,76.632073 355.832073,71.432073 C368.132073,63.232073 371.332073,46.632073 363.132073,34.332073 C354.932073,21.932073 338.332073,18.732073 326.032073,26.932073 Z" id="Path" fill="#FFFFFF"></path>
            </g>
        </g>
    </g>
</svg>