<?xml version="1.0" encoding="UTF-8"?>
<svg width="463px" height="422px" viewBox="0 0 463 422" version="1.1" xmlns="http://www.w3.org/2000/svg" xmlns:xlink="http://www.w3.org/1999/xlink">
    <title>Group 3</title>
    <g id="Page-1" stroke="none" stroke-width="1" fill="none" fill-rule="evenodd">
        <g id="04.Services" transform="translate(-1476.000000, -101.000000)">
            <g id="page-header" transform="translate(174.154417, 101.643182)">
                <g id="Group-3" transform="translate(1302.714090, -0.000000)">
                    <path d="M147.428934,401.632999 C192.877328,401.632999 221.57412,280.952232 245.632021,209.655066 C268.751571,141.138767 391.447018,159.993822 391.447018,116.358022 C391.447018,27.3153793 163.610925,-45.6571528 201.847418,52.5017309 C240.08391,150.660615 70.447018,124.875146 70.447018,213.917788 C70.447018,302.960431 101.980541,401.632999 147.428934,401.632999 Z" id="bg-shape-blue" fill="#5634f7" transform="translate(230.947018, 203.632999) rotate(104.000000) translate(-230.947018, -203.632999) "></path>
                    <path d="M208.979765,94.864446 C227.324545,90.3755104 258.556227,92.0358859 291.187532,97.8942737 C323.198742,103.641334 356.558815,113.435178 380.445478,125.471274 C390.961934,130.770343 399.638878,136.500764 405.538738,142.515857 C410.891853,147.973526 413.956783,153.658373 413.956783,159.470965 C413.956783,161.840988 412.758197,163.878216 410.612982,165.676158 C408.186809,167.709575 404.566497,169.433423 400.025988,170.958265 C388.26961,174.906415 370.394903,177.485377 350.867331,180.307368 C309.709893,186.255157 261.346588,193.347961 246.869455,216.218398 C242.305724,223.428012 237.596375,231.463364 232.678765,239.854294 C207.983044,281.992661 178.053269,333.305673 134.710195,333.305673 C110.218961,333.305673 89.2869485,319.880655 74.017481,300.03287 C56.9575961,277.857839 46.9567833,247.659787 46.9567833,219.090822 C46.9567833,214.092646 48.6382999,209.701561 51.6432293,205.796798 C54.9734519,201.469333 59.9197128,197.739524 66.0048852,194.438309 C79.6909428,187.013603 99.1139278,181.769587 119.061505,176.94102 L121.239434,176.415831 C122.329189,176.153975 123.419941,175.893164 124.510843,175.633112 L126.692599,175.113935 C127.783327,174.854767 128.873642,174.596167 129.962698,174.337848 C132.473783,173.74223 134.978118,173.14798 137.465472,172.551679 L139.121079,172.153803 C162.536698,166.511869 184.234802,160.619284 195.59635,151.596895 C200.65348,147.580947 203.680555,142.94641 204.002856,137.472769 C204.29673,132.481908 202.334007,126.767506 197.500192,120.152672 C195.154653,116.942919 193.693399,114.040778 193.038592,111.42591 C192.374658,108.774591 192.546757,106.427731 193.474888,104.371079 C195.497743,99.8886158 201.030473,96.8096242 208.979765,94.864446 Z" id="bg-shape" stroke="#1B2129" transform="translate(230.456783, 212.805673) rotate(104.000000) translate(-230.456783, -212.805673) "></path>
                </g>
            </g>
        </g>
    </g>
</svg>