<?xml version="1.0" encoding="UTF-8"?>
<svg width="565px" height="409px" viewBox="0 0 565 409" version="1.1" xmlns="http://www.w3.org/2000/svg" xmlns:xlink="http://www.w3.org/1999/xlink">
    <title>Group 2</title>
    <g id="Page-1" stroke="none" stroke-width="1" fill="none" fill-rule="evenodd">
        <g id="04.Services" transform="translate(-174.000000, -318.000000)">
            <g id="page-header" transform="translate(174.154417, 101.643182)">
                <g id="image" transform="translate(0.000000, 0.000000)">
                    <g id="Group-2" transform="translate(0.000000, 217.147572)">
                        <path d="M370.787568,296.487689 C406.509106,284.814918 382.660769,193.287562 374.155043,137.389401 C365.981074,83.671485 469.667299,65.3075241 452.888723,34.8780049 C418.650578,-27.2160744 211.516957,-19.587179 279.313551,39.0436334 C347.110144,97.6744458 203.864031,123.261708 238.102175,185.355787 C272.34032,247.449866 335.066031,308.16046 370.787568,296.487689 Z" id="bg-shape-blue" fill="#5634f7" transform="translate(343.729073, 144.760164) rotate(-76.000000) translate(-343.729073, -144.760164) "></path>
                        <path d="M203.55,58.65 L207.173233,58.6807745 C262.82101,59.6521101 292.257412,95.9777717 319.594255,132.2367 L321.300292,134.502476 L321.300292,134.502476 L323.002169,136.766156 C323.786366,137.809451 324.569664,138.851482 325.352632,139.891417 L326.526906,141.449642 C326.918295,141.968457 327.309672,142.486644 327.701108,143.004099 L328.875665,144.554162 C346.49879,167.769049 364.384758,189.290633 388.988905,199.638573 C409.229935,208.151485 434.020008,209.127764 466.959557,197.24175 C482.082795,191.784632 495.337127,189.934653 506.793631,190.989035 C519.188525,192.129779 529.471331,196.672908 537.72892,203.71059 C556.558202,219.758193 564.861522,248.72621 563.768752,279.83181 C562.625646,312.370236 551.190981,347.272723 530.648468,372.300261 C513.219,393.535086 489.225261,407.656412 459.390711,407.135648 C390.445783,405.93221 261.613656,373.996843 157.928743,334.860102 C111.225514,317.231576 69.6245595,298.142261 40.9036959,279.737511 C15.6291986,263.541243 0.262040005,247.9092 0.499923467,234.246731 C1.12838278,198.332051 26.4442599,146.185738 71.319941,108.051705 C104.770813,79.6261382 149.101928,58.9845364 202.219634,58.6528936 L203.55,58.65 Z" id="bg-shape" stroke="#1B2129"></path>
                    </g>
                </g>
            </g>
        </g>
    </g>
</svg>