<?xml version="1.0" encoding="utf-8"?>
<!-- Generator: Adobe Illustrator 26.0.3, SVG Export Plug-In . SVG Version: 6.00 Build 0)  -->
<svg version="1.1" id="Layer_1" xmlns="http://www.w3.org/2000/svg" xmlns:xlink="http://www.w3.org/1999/xlink" x="0px" y="0px"
	 viewBox="0 0 1041 980" style="enable-background:new 0 0 1041 980;" xml:space="preserve">
<style type="text/css">
	.st0{fill:#FFFFFF;stroke:#1A1A1A;stroke-width:2;stroke-linecap:round;stroke-linejoin:round;stroke-miterlimit:10;}
	.st1{fill:#1A1A1A;stroke:#1A1A1A;stroke-width:2;stroke-linecap:round;stroke-linejoin:round;stroke-miterlimit:10;}
</style>
<g>
	<path class="st0" d="M223.8,485.1l604.1,317.7c39.3-25.1,73.9-56.1,87.5-113.2L527.6,176.5L223.8,485.1z"/>
	<g>
		<path class="st0" d="M708.2,756.9c-7.8-2.1-17.9-4.2-27.7-3.9L553.7,877c3.7-2.4,12.1-4.4,28.5,6.8c15.8,10.7,19.3,21.5,19.3,29.2
			c0,6.1-2.3,10.1-2.4,10.4c0.5-0.3,1-0.6,1.5-1l107.5-80.2c-0.4,0.1-0.8,0.2-1.2,0.3c0.4-0.1,0.8-0.2,1.2-0.3l47.9-35.7
			C759.9,779.2,730.9,763.4,708.2,756.9z"/>
		<path class="st0" d="M705.4,728.5l-25,24.4c9.8-0.3,19.9,1.8,27.7,3.9c22.7,6.5,51.7,22.4,47.9,49.6l42.1-31.4
			C811.8,752.1,744.9,696.4,705.4,728.5z"/>
		<polygon class="st0" points="599.2,923.4 599.2,923.4 599.2,923.4 		"/>
		<path class="st0" d="M553.7,877l-0.4,0.4l-2,2C551.4,879.3,552.1,878.1,553.7,877z"/>
		<path class="st1" d="M601.6,913c0,6.1-2.3,10.1-2.4,10.4c0,0,0,0,0,0c-14.9,8.1-58.8-26.9-47.9-44l0,0l2-2l0.4-0.4
			c3.7-2.4,12.1-4.4,28.5,6.8C598.1,894.5,601.6,905.4,601.6,913z"/>
	</g>
	<path class="st0" d="M223.8,485.1c0,0,74.2,32.6,197.5-101.3c92.5-100.4,128.3-182.4,106.4-207.3
		c-31.7-32.3-168.1,58.1-210.9,114.8C279.2,340.9,180.9,444.4,223.8,485.1z"/>
	<path class="st1" d="M238.4,469.9c0,0,67,29.4,178.2-91.5c83.4-90.7,115.8-164.6,96-187.1C484,162.2,360.9,243.8,322.2,295
		C288.4,339.8,199.6,433.1,238.4,469.9z"/>
	<path class="st1" d="M907.3,715l-6.2,13.5c0,0-13.1-19.7-33.7-33.5c6-9,6-9,6-9C885.9,692.6,897,702.9,907.3,715z"/>
	<path class="st1" d="M891.9,744.2l-8.4,11.7c0,0-13.1-19.7-33.7-33.5c6-9,6-9,6-9C868.3,719.9,881.5,732,891.9,744.2z"/>
	<path class="st1" d="M868,772.2l-11.7,8.9c-0.8,3.1-14.8-12.9-33.7-33.5c6-9,6-9,6-9C838.7,748.9,854.9,764.4,868,772.2z"/>
	<path class="st0" d="M116.6,351.3c-1.3,4-0.4,7.9,1.8,8.6l43,13.6c2.3,0.7,5.2-2,6.4-6c1.3-4,0.4-7.9-1.8-8.6l-43-13.6
		C120.7,344.6,117.9,347.3,116.6,351.3z"/>
	<path class="st0" d="M180.7,223.5c-2.7,3.3-3.3,7.1-1.4,8.6l35,28.4c1.9,1.5,5.5,0.1,8.2-3.2c2.7-3.3,3.3-7.1,1.4-8.6l-35-28.4
		C187,218.8,183.4,220.2,180.7,223.5z"/>
	<path class="st0" d="M264.4,124.2c-3.4,2.5-5,6-3.6,8l26.5,36.5c1.4,1.9,5.3,1.5,8.7-1s5-6,3.6-8l-26.5-36.5
		C271.7,121.3,267.8,121.7,264.4,124.2z"/>
	<path class="st0" d="M380.3,86.7c-4.2,0.5-7.3,2.8-7.1,5.2l5.3,44.8c0.3,2.4,3.9,3.9,8.1,3.4s7.3-2.8,7.1-5.2l-5.3-44.8
		C388.1,87.7,384.5,86.2,380.3,86.7z"/>
	<path class="st0" d="M304.4,404.2c0,0-53-82.7-12.8-128.4S395.9,271,424,291S351.8,428.3,304.4,404.2z"/>
</g>
</svg>
