<?xml version="1.0" encoding="UTF-8"?>
<svg width="502px" height="487px" viewBox="0 0 502 487" version="1.1" xmlns="http://www.w3.org/2000/svg" xmlns:xlink="http://www.w3.org/1999/xlink">
    <title>white</title>
    <g id="Page-1" stroke="none" stroke-width="1" fill="none" fill-rule="evenodd">
        <g id="03.About" transform="translate(-1302.000000, -144.000000)" stroke="#FFFFFF">
            <g id="bg" transform="translate(0.000000, 103.000000)">
                <path d="M1500.70068,61.7226161 C1524.86755,44.2329247 1569.65409,36.740934 1618.23051,38.0853162 C1668.99321,39.4902047 1723.90855,50.5613897 1763.8519,70.0641995 C1781.51583,78.6888198 1796.24936,88.9603586 1806.38186,100.781263 C1815.6414,111.583744 1821.05278,123.679335 1821.31606,136.991626 C1822.51581,197.655019 1766.15224,310.365649 1704.43804,397.771378 C1672.78366,442.603435 1639.71461,480.781955 1612.25553,501.859169 C1599.80547,511.415662 1588.52114,517.454866 1579.05333,518.958528 C1574.62251,519.662224 1570.59584,519.367955 1567.04543,517.956643 C1563.62144,516.595588 1560.64522,514.195391 1558.17313,510.6713 C1539.09103,483.46879 1490.78069,474.756953 1440.23027,465.724893 C1439.3931,465.575312 1438.55532,465.42563 1437.71707,465.27576 L1435.20101,464.825499 C1430.58605,463.998666 1425.9604,463.163505 1421.34479,462.305498 L1418.8283,461.835141 C1384.03405,455.294777 1350.02515,447.303385 1325.70049,431.623946 C1304.58528,418.01329 1290.79638,398.591027 1290.21598,369.24392 C1289.76654,346.51878 1300.07587,328.558402 1316.40834,313.430558 C1335.92647,295.352033 1364.02976,281.311156 1392.76884,268.056915 L1395.0389,267.012103 C1398.06701,265.621041 1401.09984,264.237747 1404.12813,262.858429 L1406.39835,261.824627 C1446.06292,243.764253 1484.5305,226.206516 1501.16175,200.768806 C1507.61754,190.894598 1510.80185,179.836728 1509.52466,167.109319 C1508.35716,155.475096 1503.45422,142.435936 1493.87765,127.622769 C1484.72861,113.470914 1481.24345,101.099495 1482.35739,90.4283644 C1483.56295,78.8794497 1490.16339,69.3485105 1500.70068,61.7226161 Z" id="white" transform="translate(1555.768325, 278.629118) scale(1, -1) rotate(353.000000) translate(-1555.768325, -278.629118) "></path>
            </g>
        </g>
    </g>
</svg>