<svg width="100%" height="100%" viewBox="0 0 269 571" version="1.1" xmlns="http://www.w3.org/2000/svg"
     xmlns:xlink="http://www.w3.org/1999/xlink">
    <defs>
        <path d="M36,0 L232,0 C251.882251,-3.65231026e-15 268,16.117749 268,36 L268,513 L268,513 L0,513 L0,36 C-2.4348735e-15,16.117749 16.117749,3.65231026e-15 36,0 Z"
              id="slide1path-1"></path>
    </defs>
    <g stroke="none" stroke-width="1" fill="none" fill-rule="evenodd">
        <g transform="translate(-1550.000000, -134.000000)">
            <g transform="translate(1550.539194, 134.000000)">
                <path d="M37.9179081,22 L217.89702,22 C237.216806,22 253.092051,37.2499657 253.867974,56.5541641 L257.360636,143.448094 L257.360636,143.448094 C261.526916,295.091547 264.682069,409.189991 266.826095,485.743426 C267.27786,501.873895 267.671527,515.865953 268.007098,527.719601 C268.664707,550.906237 250.401376,570.235867 227.214742,570.893541 C226.818395,570.904783 226.42191,570.910412 226.025404,570.910426 L43.9354142,570.910426 C24.2303134,570.910426 8.18689259,555.068159 7.9382796,535.364627 L1.92077342,58.4542006 C1.66992538,38.5735321 17.583039,22.2537134 37.4637075,22.0028654 C37.6151001,22.0009551 37.7665033,22 37.9179081,22 Z"
                      fill="#1B2129" opacity="0.106490362"></path>
                <g>
                    <g>
                        <mask id="slide1mask-2" fill="white">
                            <use xlink:href="#slide1path-1"></use>
                        </mask>
                        <g>
                            <use fill="#5634f7" xlink:href="#slide1path-1"></use>
                            <use fill="#FFFFFF" xlink:href="#slide1path-1"></use>
                        </g>
                        <g mask="url(#slide1mask-2)">
                            <g transform="translate(3.460806, 31.000000)">
                                <path d="M12,0 L250,0 C256.627417,-1.71000662e-14 262,5.372583 262,12 L262,466 L262,466 L0,466 L0,12 C9.64732338e-16,5.372583 5.372583,2.99379359e-15 12,0 Z"
                                       fill="#F4F4F6" fill-rule="nonzero"></path>
                                <g stroke-width="1" fill="none" fill-rule="evenodd"
                                   transform="translate(10.000000, 56.000000)">
                                    <g transform="translate(0.000000, 253.516071)">
                                        <g
                                           transform="translate(0.000000, 100.568359)">
                                            <rect  fill="#FFFFFF" fill-rule="nonzero" x="0" y="0" width="240"
                                                  height="44.6970483"></rect>
                                            <g  transform="translate(194.126822, 12.994580)" fill="#ABABB6"
                                               fill-rule="nonzero" font-family="OpenSans, Open Sans" font-size="14"
                                               font-weight="normal">
                                                <text>
                                                    <tspan x="6.46484375" y="15">+9%</tspan>
                                                </text>
                                            </g>
                                            <g  transform="translate(33.586006, 24.028830)" fill="#CDCDD2"
                                               fill-rule="nonzero" font-family="OpenSans, Open Sans" font-size="12"
                                               font-weight="normal">
                                                <text>
                                                    <tspan x="0" y="13">Sales</tspan>
                                                </text>
                                            </g>
                                            <g  transform="translate(33.586006, 6.567212)" fill="#4E4E56"
                                               fill-rule="nonzero" font-family="RobotoMono-Bold, Roboto Mono"
                                               font-size="16" font-weight="bold">
                                                <text>
                                                    <tspan x="0" y="17">214</tspan>
                                                </text>
                                            </g>
                                            <g  transform="translate(11.195335, 13.967828)">
                                                <polygon
                                                         points="0 0 16.7930029 0 16.7930029 16.7613931 0 16.7613931"></polygon>
                                                <path d="M4.89795918,12.5710448 C4.12827988,12.5710448 3.50553936,13.1995971 3.50553936,13.9678276 C3.50553936,14.7360581 4.12827988,15.3646104 4.89795918,15.3646104 C5.66763848,15.3646104 6.29737609,14.7360581 6.29737609,13.9678276 C6.29737609,13.1995971 5.66763848,12.5710448 4.89795918,12.5710448 Z M0.699708455,1.39678276 L0.699708455,2.79356552 L2.09912536,2.79356552 L4.6180758,8.09435609 L3.67346939,9.80541497 C3.56151603,10.0009646 3.49854227,10.2314337 3.49854227,10.4758707 C3.49854227,11.2441012 4.12827988,11.8726535 4.89795918,11.8726535 L13.2944606,11.8726535 L13.2944606,10.4758707 L5.19183673,10.4758707 C5.09387755,10.4758707 5.01690962,10.3990476 5.01690962,10.3012729 L5.03790087,10.2174659 L5.66763848,9.07908794 L10.8804665,9.07908794 C11.4052478,9.07908794 11.8670554,8.79274747 12.1049563,8.35974482 L14.6099125,3.82718476 C14.6658892,3.72940997 14.6938776,3.61068343 14.6938776,3.4919569 C14.6938776,3.10784164 14.3790087,2.79356552 13.9941691,2.79356552 L3.64548105,2.79356552 L2.9877551,1.39678276 L0.699708455,1.39678276 Z M11.8950437,12.5710448 C11.1253644,12.5710448 10.5026239,13.1995971 10.5026239,13.9678276 C10.5026239,14.7360581 11.1253644,15.3646104 11.8950437,15.3646104 C12.664723,15.3646104 13.2944606,14.7360581 13.2944606,13.9678276 C13.2944606,13.1995971 12.664723,12.5710448 11.8950437,12.5710448 Z"
                                                      fill="#CDCDD2" fill-rule="nonzero"></path>
                                            </g>
                                        </g>
                                        <g
                                           transform="translate(0.000000, 50.284179)">
                                            <rect  fill="#FFFFFF" fill-rule="nonzero" x="0" y="0" width="240"
                                                  height="44.6970483"></rect>
                                            <g  transform="translate(193.126822, 12.994580)" fill="#ABABB6"
                                               fill-rule="nonzero" font-family="OpenSans, Open Sans" font-size="14"
                                               font-weight="normal">
                                                <text>
                                                    <tspan x="7.46484375" y="15">+5%</tspan>
                                                </text>
                                            </g>
                                            <g  transform="translate(36.586006, 26.028830)" fill="#CDCDD2"
                                               fill-rule="nonzero" font-family="OpenSans, Open Sans" font-size="12"
                                               font-weight="normal">
                                                <text>
                                                    <tspan x="0" y="13">Likes</tspan>
                                                </text>
                                            </g>
                                            <g  transform="translate(33.586006, 6.567212)" fill="#4E4E56"
                                               fill-rule="nonzero" font-family="RobotoMono-Bold, Roboto Mono"
                                               font-size="16" font-weight="bold">
                                                <text>
                                                    <tspan x="0" y="17">1649</tspan>
                                                </text>
                                            </g>
                                            <g  transform="translate(11.195335, 13.967828)">
                                                <polygon
                                                         points="0 0 16.7930029 0 16.7930029 16.7613931 0 16.7613931"></polygon>
                                                <path d="M8.39650146,4.19034828 C8.39650146,3.80623302 8.08163265,3.4919569 7.696793,3.4919569 L4.07230321,3.4919569 L4.53411079,1.27107231 L4.54810496,1.11044229 C4.54810496,0.893940966 4.45714286,0.69839138 4.31720117,0.55172919 L3.76443149,0 L0.30787172,3.45005342 C0.118950437,3.63861909 0,3.90400781 0,4.19034828 L0,8.72989225 C0,9.30955709 0.468804665,9.77747932 1.04956268,9.77747932 L5.77259475,9.77747932 C6.20641399,9.77747932 6.57725948,9.51209059 6.73819242,9.14194316 L8.31953353,5.44745276 C8.36851312,5.32872623 8.39650146,5.19603187 8.39650146,5.0633375 L8.39650146,4.19034828 L8.39650146,4.19034828 Z M15.7434402,6.9839138 L11.0204082,6.9839138 C10.5865889,6.9839138 10.2157434,7.24930252 10.0548105,7.61944995 L8.47346939,11.3139404 C8.4244898,11.4326669 8.39650146,11.5653613 8.39650146,11.6980556 L8.39650146,12.5710448 C8.39650146,12.9551601 8.71137026,13.2694362 9.09620991,13.2694362 L12.7206997,13.2694362 L12.2588921,15.4903208 L12.244898,15.6579347 C12.244898,15.8744361 12.3358601,16.0699857 12.4758017,16.2166478 L13.0285714,16.7613931 L16.4851312,13.3113397 C16.6740525,13.122774 16.7930029,12.8573853 16.7930029,12.5710448 L16.7930029,8.03150087 C16.7930029,7.45183602 16.3241983,6.9839138 15.7434402,6.9839138 L15.7434402,6.9839138 Z"
                                                      fill="#CDCDD2" fill-rule="nonzero"></path>
                                            </g>
                                        </g>
                                        <g>
                                            <rect  fill="#FFFFFF" fill-rule="nonzero" x="0" y="0" width="240"
                                                  height="44.6970483"></rect>
                                            <text fill="#ABABB6" fill-rule="nonzero"
                                                  font-family="OpenSans, Open Sans" font-size="14" font-weight="normal">
                                                <tspan x="200.464844" y="28">+7%</tspan>
                                            </text>
                                            <text fill="#CDCDD2" fill-rule="nonzero"
                                                  font-family="OpenSans, Open Sans" font-size="12" font-weight="normal">
                                                <tspan x="33.5860058" y="36.720178">Customers</tspan>
                                            </text>
                                            <text  fill="#4E4E56" fill-rule="nonzero"
                                                  font-family="RobotoMono-Bold, Roboto Mono" font-size="16"
                                                  font-weight="bold">
                                                <tspan x="33.5860058" y="19.9102813">328</tspan>
                                            </text>
                                            <g  transform="translate(11.195335, 13.967828)">
                                                <polygon
                                                         points="0 0 16.7930029 0 16.7930029 16.7613931 0 16.7613931"></polygon>
                                                <path d="M11.1953353,7.68230518 C12.3568513,7.68230518 13.2874636,6.74646073 13.2874636,5.58713104 C13.2874636,4.42780135 12.3568513,3.4919569 11.1953353,3.4919569 C10.0338192,3.4919569 9.09620991,4.42780135 9.09620991,5.58713104 C9.09620991,6.74646073 10.0338192,7.68230518 11.1953353,7.68230518 L11.1953353,7.68230518 Z M5.59766764,7.68230518 C6.75918367,7.68230518 7.68979592,6.74646073 7.68979592,5.58713104 C7.68979592,4.42780135 6.75918367,3.4919569 5.59766764,3.4919569 C4.4361516,3.4919569 3.49854227,4.42780135 3.49854227,5.58713104 C3.49854227,6.74646073 4.4361516,7.68230518 5.59766764,7.68230518 L5.59766764,7.68230518 Z M5.59766764,9.07908794 C3.96734694,9.07908794 0.699708455,9.89620585 0.699708455,11.5234578 L0.699708455,13.2694362 L10.4956268,13.2694362 L10.4956268,11.5234578 C10.4956268,9.89620585 7.22798834,9.07908794 5.59766764,9.07908794 L5.59766764,9.07908794 Z M11.1953353,9.07908794 C10.9924198,9.07908794 10.761516,9.09305577 10.5166181,9.11400751 C11.3282799,9.70065627 11.8950437,10.4898385 11.8950437,11.5234578 L11.8950437,13.2694362 L16.0932945,13.2694362 L16.0932945,11.5234578 C16.0932945,9.89620585 12.825656,9.07908794 11.1953353,9.07908794 L11.1953353,9.07908794 Z"
                                                      fill="#CDCDD2" fill-rule="nonzero"></path>
                                            </g>
                                        </g>
                                    </g>
                                    <g fill-rule="nonzero">
                                        <path d="M120,0 C186.27417,0 240,53.6247008 240,119.774122 C240,185.923543 186.27417,239.548243 120,239.548243 C53.72583,239.548243 0,185.923543 0,119.774122 C0,53.6247008 53.72583,0 120,0 Z M120,16.7613931 C63.0003494,16.7613931 16.7930029,62.8817626 16.7930029,119.774122 C16.7930029,176.666481 63.0003494,222.78685 120,222.78685 C176.999651,222.78685 223.206997,176.666481 223.206997,119.774122 C223.206997,62.8817626 176.999651,16.7613931 120,16.7613931 Z"
                                               fill="#E4E4E5"></path>
                                        <g>
                                            <g fill="#ABABB6">
                                                <path d="M120,0 C185.611428,0 238.924228,52.5615793 239.983923,117.793558 L240,119.774122 C240,185.262048 187.339297,238.474497 121.984299,239.532197 L120,239.548243 C54.3885718,239.548243 1.07577144,186.990475 0.0160765715,121.7548 L0,119.774122 L16.7930029,119.774122 L16.7930029,119.774122 C16.7930029,176.666481 63.0003494,222.78685 120,222.78685 C176.999651,222.78685 223.206997,176.666481 223.206997,119.774122 C223.206997,62.8817626 176.999651,16.7613931 120,16.7613931 L120,0 Z"
                                                      ></path>
                                            </g>
                                            <g fill="#5634f7">
                                                <path d="M120,0 C185.611428,0 238.924228,52.5615793 239.983923,117.793558 L240,119.774122 C240,185.262048 187.339297,238.474497 121.984299,239.532197 L120,239.548243 C54.3885718,239.548243 1.07577144,186.990475 0.0160765715,121.7548 L0,119.774122 L16.7930029,119.774122 L16.7930029,119.774122 C16.7930029,176.666481 63.0003494,222.78685 120,222.78685 C176.999651,222.78685 223.206997,176.666481 223.206997,119.774122 C223.206997,62.8817626 176.999651,16.7613931 120,16.7613931 L120,0 Z"
                                                      ></path>
                                            </g>
                                        </g>
                                        <text fill="#4E4E56"
                                              font-family="RobotoMono-Bold, Roboto Mono" font-size="15"
                                              font-weight="bold">
                                            <tspan x="57.4897461" y="125">75% of current</tspan>
                                            <tspan x="102.49707" y="145">goal</tspan>
                                        </text>
                                    </g>
                                </g>
                                <g stroke-width="1" fill="none"
                                   fill-rule="evenodd">
                                    <path d="M12,0 L250,0 C256.627417,-4.77015043e-15 262,5.372583 262,12 L262,44.6794302 L262,44.6794302 L0,44.6794302 L0,12 C-8.11624501e-16,5.372583 5.372583,1.21743675e-15 12,0 Z"
                                           stroke="#F8F8FF" fill="#FFFFFF" fill-rule="nonzero"></path>
                                    <g  transform="translate(8.178667, 16.754786)">
                                        <g  transform="translate(222.874667, 0.000000)">
                                            <polygon
                                                     points="0 0 16.768 0 16.768 16.7547863 0 16.7547863"></polygon>
                                            <path d="M8.384,1.39623219 L11.1786667,4.18869658 L9.08266667,4.18869658 L9.08266667,10.4717415 L7.68533333,10.4717415 L7.68533333,4.18869658 L5.58933333,4.18869658 L8.384,1.39623219 Z M13.9733333,5.58492878 L10.48,5.58492878 L10.48,6.97417981 L13.9733333,6.97417981 L13.9733333,13.9762843 L2.79466667,13.9762843 L2.79466667,6.97417981 L6.288,6.97417981 L6.288,5.58492878 L2.79466667,5.58492878 C2.02613333,5.58492878 1.39733333,6.21323327 1.39733333,6.98116097 L1.39733333,13.9623219 C1.39733333,14.7302497 2.02613333,15.3585541 2.79466667,15.3585541 L13.9733333,15.3585541 C14.7418667,15.3585541 15.3706667,14.7302497 15.3706667,13.9623219 L15.3706667,6.98116097 C15.3706667,6.21323327 14.7418667,5.58492878 13.9733333,5.58492878 Z"
                                                  fill="#4E4E56" fill-rule="nonzero"></path>
                                        </g>
                                        <g  transform="translate(194.928000, 0.000000)">
                                            <polygon
                                                     points="0 0 16.768 0 16.768 16.7547863 0 16.7547863"></polygon>
                                        </g>
                                        <g  transform="translate(27.946667, 0.000000)">
                                            <polygon
                                                     points="0 0 16.768 0 16.768 16.7547863 0 16.7547863"></polygon>
                                        </g>
                                        <g >
                                            <polygon
                                                     points="0 0 16.768 0 16.768 16.7547863 0 16.7547863"></polygon>
                                            <path d="M9.75715842,13.2642059 C9.71488727,13.2613085 9.70412738,13.2616576 9.66227543,13.2544667 C9.56816098,13.2382348 9.47764487,13.2025945 9.39778385,13.1502335 C9.35739917,13.1237738 9.3221499,13.0929855 9.28693563,13.0601378 L5.09475595,8.87126165 C5.0658299,8.84029887 5.05775996,8.83324762 5.03208286,8.79942243 C5.00326163,8.76144331 4.97835309,8.72049706 4.95784635,8.67742141 C4.86827344,8.48923618 4.86827344,8.26593419 4.95784635,8.07774889 C4.97835309,8.03467332 5.00326163,7.99372699 5.03208286,7.95574787 C5.05775996,7.92195759 5.0658299,7.91487143 5.09475595,7.88394356 L9.28693563,3.69506745 C9.31792282,3.66616421 9.32501457,3.65806572 9.3588315,3.63244376 C9.44763581,3.56510758 9.55244035,3.51965827 9.66227543,3.5007036 C9.74070412,3.48722938 9.82129881,3.48722938 9.8997275,3.5007036 C9.96243549,3.51152487 10.0236064,3.53093333 10.0810742,3.55823083 C10.299347,3.66194043 10.4513135,3.87707412 10.4760474,4.11730616 C10.4857942,4.21225402 10.4758378,4.30894725 10.4469466,4.39991567 C10.4228766,4.47569943 10.3858107,4.54722449 10.3377404,4.61054633 C10.3120633,4.6443715 10.3039934,4.65142278 10.2750673,4.68238555 L6.576936,8.3776026 L10.2750673,12.0728197 L10.3076266,12.1076572 C10.3343517,12.14047 10.3419675,12.1481147 10.3652341,12.1835806 C10.4088677,12.250044 10.4410078,12.3239428 10.4598376,12.4011577 C10.4748945,12.4629437 10.4814622,12.5267542 10.4792963,12.5902855 C10.4710517,12.8316695 10.3341072,13.0566471 10.1234501,13.1750177 C10.0541045,13.2139742 9.97812125,13.2409576 9.8997275,13.2544667 C9.85787555,13.2616576 9.84711559,13.2613085 9.80484444,13.2642059 L9.75715842,13.2642059 L9.75715842,13.2642059 Z"
                                                  fill="#4E4E56" fill-rule="nonzero"></path>
                                        </g>
                                    </g>
                                    <text fill="#4E4E56" fill-rule="nonzero"
                                          font-family="OpenSans-Bold, Open Sans" font-size="16" font-weight="bold">
                                        <tspan x="110.839844" y="30">Stats</tspan>
                                    </text>
                                    <g transform="translate(239.437333, 4.188697)"></g>
                                </g>
                            </g>
                        </g>
                    </g>
                    <path d="M0,513 L268,513 L268,535 C268,554.882251 251.882251,571 232,571 L36,571 C16.117749,571 2.4348735e-15,554.882251 0,535 L0,513 L0,513 Z"
                           fill="#EBEBFF"></path>
                    <g transform="translate(76.997927, 531.000033)" fill="#808080" fill-rule="nonzero">
                        <g transform="translate(50.252073, 5.749986)">
                            <path d="M9.99997616,2.24999464 C9.99997616,1.0062537 8.99372245,0 7.74998152,0 C6.50624059,0 5.49998689,1.0062537 5.49998689,2.24999464 C5.49998689,3.49373557 6.50624059,4.49998927 7.74998152,4.49998927 C8.99372245,4.49998927 9.99997616,3.49373557 9.99997616,2.24999464 Z M13.2499684,0 C12.0062275,0 10.9999738,1.0062537 10.9999738,2.24999464 C10.9999738,3.49373557 12.0062275,4.49998927 13.2499684,4.49998927 C14.4937093,4.49998927 15.499963,3.49373557 15.499963,2.24999464 C15.499963,1.0062537 14.4937093,0 13.2499684,0 Z M2.24999464,0 C1.0062537,0 0,1.0062537 0,2.24999464 C0,3.49373557 1.0062537,4.49998927 2.24999464,4.49998927 C3.49373557,4.49998927 4.49998927,3.49373557 4.49998927,2.24999464 C4.49998927,1.0062537 3.49373557,0 2.24999464,0 Z"
                                  ></path>
                        </g>
                        <g transform="translate(100.002073, 0.000000)">
                            <path d="M12.4999702,2 L10.9999738,2 L10.9999738,0.374999106 C10.9999738,0.167907315 10.8320665,0 10.6249747,0 L9.37497765,0 C9.16788586,0 8.99997854,0.167907315 8.99997854,0.374999106 L8.99997854,2 L4.99998808,2 L4.99998808,0.374999106 C4.99998808,0.167907315 4.83208076,0 4.62498897,0 L3.37499195,0 C3.16790016,0 3,0.167907315 3,0.374999106 L3,2 L1.5,2 C0.671568223,2 0,2.67156345 0,3.5 L0,14.4999654 C0,15.3283936 0.671568223,15.9999619 1.5,15.9999619 L12.4999702,15.9999619 C13.3283984,15.9999619 13.9999666,15.3283936 13.9999666,14.4999654 L13.9999666,3.5 C13.9999666,2.67156345 13.3283984,2 12.4999702,2 Z M12.3124706,14.4999654 L1.68749598,14.4999654 C1.58401112,14.4999654 1.49999642,14.4159507 1.49999642,14.3124659 L1.49999642,4.99998808 L12.4999702,4.99998808 L12.4999702,14.3124659 C12.4999702,14.4159507 12.4159555,14.4999654 12.3124706,14.4999654 Z M10.6609548,8.22965567 C10.8079881,8.08381251 10.8089342,7.84638632 10.663091,7.69935298 L9.95883856,6.98942425 C9.81296489,6.84239091 9.57553869,6.84144487 9.42850535,6.98728803 L5.95750533,10.4304561 L4.57927375,9.0410551 C4.43343059,8.89399125 4.1960044,8.8930452 4.04897106,9.03888836 L3.3389813,9.74314083 C3.19194796,9.88901451 3.19103243,10.1264407 3.33687559,10.273474 L5.68345813,12.639069 C5.8293318,12.7861023 6.066758,12.7870179 6.21379134,12.6411747 L10.6609548,8.22965567 Z"
                                  ></path>
                        </g>
                        <g transform="translate(0.000000, 0.999998)">
                            <path d="M10.5020481,5.74998629 L5.50206122,5.74998629 C5.22706679,5.74998629 5.00206122,5.97499186 5.00206122,6.24998629 L5.00206122,6.74998629 C5.00206122,7.02497715 5.22706679,7.24998629 5.50206122,7.24998629 L10.5020481,7.24998629 C10.7770414,7.24998629 11.0020469,7.02497715 11.0020469,6.74998629 L11.0020469,6.24998629 C11.0020469,5.97499186 10.7770414,5.74998629 10.5020481,5.74998629 Z M8.00205407,0 C3.5833024,0 0.00207314456,2.90935586 0.00207314456,6.4999845 C0.00207314456,7.98746875 0.623958869,9.34998381 1.65520641,10.446844 C1.18957031,11.6781033 0.220822623,12.7218325 0.20519766,12.7343446 C-0.00103964099,12.9530941 -0.0573139209,13.2718495 0.06146021,13.5468427 C0.180203823,13.8218359 0.452084279,13.9999666 0.752071356,13.9999666 C2.67394177,13.9999666 4.18956316,13.1968374 5.09892379,12.5531012 C6.00205884,12.8374633 6.97706262,12.999969 8.00205407,12.999969 C12.4208057,12.999969 16.002035,10.0906131 16.002035,6.4999845 C16.002035,2.90935586 12.4208057,0 8.00205407,0 Z M8.00205407,11.4999726 C7.16767496,11.4999726 6.34269523,11.3718601 5.55204771,11.1218607 L4.84269881,10.8968551 L4.23332526,11.328098 C3.78642691,11.64371 3.17394058,11.9968586 2.43645455,12.2343458 C2.6645729,11.8562339 2.88643516,11.4312166 3.05830975,10.9780927 L3.38957728,10.099982 L2.7458105,9.41873975 C2.18019906,8.81559177 1.50206957,7.81873746 1.50206957,6.4999845 C1.50206957,3.74373497 4.41768151,1.49999642 8.00205407,1.49999642 C11.5864266,1.49999642 14.5020386,3.74373497 14.5020386,6.4999845 C14.5020386,9.25623403 11.5864266,11.4999726 8.00205407,11.4999726 Z"
                                  ></path>
                        </g>
                    </g>
                    <g transform="translate(225.000013, 11.875019)" fill="#DCDCDC" fill-rule="nonzero">
                        <path d="M12.4005463,2.39999201 C8.94020447,-0.800588586 3.55838518,-0.799406033 0.0993976083,2.39999201 C-0.0306832583,2.52030727 -0.033220026,2.72401162 0.0925693165,2.84882822 L0.7613223,3.51229786 C0.881237022,3.63143057 1.07420302,3.63396734 1.19880981,3.51971743 C4.04880149,0.908792257 8.45074183,0.90820098 11.3013248,3.51971743 C11.4259316,3.63396734 11.6188976,3.63123984 11.7388314,3.51229786 L12.4075653,2.84882822 C12.5331639,2.72401162 12.5306271,2.52030727 12.4005463,2.39999201 Z M6.24997193,6.24998512 C5.55955152,6.24998512 4.99997491,6.80956173 4.99997491,7.49998214 C4.99997491,8.19040255 5.55955152,8.74998512 6.24997193,8.74998512 C6.94039235,8.74998512 7.49997491,8.19040255 7.49997491,7.49998214 C7.49997491,6.80956173 6.94039235,6.24998512 6.24997193,6.24998512 Z M10.2083594,4.61737488 C7.95719748,2.62656541 4.54020962,2.62870164 2.29158446,4.61737488 C2.15681153,4.73650759 2.15252,4.94333998 2.28044557,5.06951079 L2.95310861,5.73338097 C3.07029583,5.84900417 3.25897031,5.85682428 3.38376783,5.74900212 C5.02341617,4.33163566 7.48024702,4.3347637 9.1159853,5.74900212 C9.24078283,5.85682428 9.4294573,5.84921398 9.54664452,5.73338097 L10.2193076,5.06951079 C10.3474239,4.94333998 10.3429225,4.73631685 10.2083594,4.61737488 Z"
                              ></path>
                    </g>
                    <text font-family="OpenSans-Bold, Open Sans" font-size="10" font-weight="bold"
                          letter-spacing="0.27777775" fill="#DCDCDC">
                        <tspan x="20" y="25">12:00</tspan>
                    </text>
                    <rect fill="#1B2129" x="85" y="561" width="99" height="4" rx="2"></rect>
                    <rect  stroke="#1B2129" stroke-width="2" x="1" y="1" width="266" height="569"
                          rx="36"></rect>
                    <path d="M56,0.425766014 L211.81311,0.425766014 C209.481088,-1.10124352 208.056304,1.47921099 207.538757,8.16712954 C207.479908,8.9276027 207.42775,9.67598615 207.382284,10.4122799 C206.861021,18.8500352 199.865584,25.4262724 191.411743,25.425766 L75.222168,25.425766 C66.3856123,25.4280257 59.2203362,18.2664142 59.218076,9.42985847 C59.2180665,9.39244634 59.2181881,9.35503429 59.2184452,9.31762304 C59.2214066,8.88201991 59.2126886,8.49852207 59.1922913,8.16712954 C59.0332292,5.58286714 57.9691321,3.00241263 56,0.425766014 Z"
                           fill="#1B2129"></path>
                </g>
            </g>
        </g>
    </g>
</svg>