<svg width="100%" height="100%" viewBox="0 0 269 571" version="1.1" xmlns="http://www.w3.org/2000/svg"
     xmlns:xlink="http://www.w3.org/1999/xlink">
    <defs>
        <path d="M36,0 L232,0 C251.882251,-3.65231026e-15 268,16.117749 268,36 L268,513 L268,513 L0,513 L0,36 C-2.4348735e-15,16.117749 16.117749,3.65231026e-15 36,0 Z"
              id="slide4path-1"></path>
    </defs>
    <g stroke="none" stroke-width="1" fill="none" fill-rule="evenodd">
        <g transform="translate(-1550.000000, -134.000000)">
            <g transform="translate(1550.539194, 134.000000)">
                <path d="M37.9179081,22 L217.89702,22 C237.216806,22 253.092051,37.2499657 253.867974,56.5541641 L257.360636,143.448094 L257.360636,143.448094 C261.526916,295.091547 264.682069,409.189991 266.826095,485.743426 C267.27786,501.873895 267.671527,515.865953 268.007098,527.719601 C268.664707,550.906237 250.401376,570.235867 227.214742,570.893541 C226.818395,570.904783 226.42191,570.910412 226.025404,570.910426 L43.9354142,570.910426 C24.2303134,570.910426 8.18689259,555.068159 7.9382796,535.364627 L1.92077342,58.4542006 C1.66992538,38.5735321 17.583039,22.2537134 37.4637075,22.0028654 C37.6151001,22.0009551 37.7665033,22 37.9179081,22 Z"
                       fill="#1B2129" opacity="0.106490362"></path>
                <g>
                    <g>
                        <mask id="slide4mask-2" fill="white">
                            <use xlink:href="#slide4path-1"></use>
                        </mask>
                        <g>
                            <use fill="#5634f7" xlink:href="#slide4path-1"></use>
                            <use fill="#FFFFFF" xlink:href="#slide4path-1"></use>
                        </g>
                        <g mask="url(#slide4mask-2)">
                            <g transform="translate(-1.539194, 26.000000)">
                                <rect fill="#F4F4F6" fill-rule="nonzero" x="0" y="46" width="267"
                                      height="445"></rect>
                                <g stroke-width="1" fill="none" fill-rule="evenodd"
                                   transform="translate(11.000000, 58.000000)">
                                    <g transform="translate(0.000000, 311.012658)" fill-rule="nonzero">
                                        <rect  fill="#FFFFFF" x="0" y="0" width="247" height="143.987342"
                                              rx="4"></rect>
                                        <g transform="translate(11.521866, 25.917722)">
                                            <polygon fill="#F4F4F6"
                                                     points="0 20.8781646 7.56122449 22.318038 28.4446064 12.9588608 49.3279883 15.1186709 70.2113703 0 91.0947522 16.5585443 111.978134 47.5158228 132.861516 45.3560127 153.744898 23.0379747 174.62828 17.278481 195.511662 38.1566456 216.395044 14.3987342 223.956268 8.63924051 223.956268 106.550633 0 106.550633"></polygon>
                                            <polygon fill="#5634f7"
                                                     points="0 64.0743671 7.56122449 51.1155063 28.4446064 56.1550633 49.3279883 36.7167722 70.2113703 57.5949367 91.0947522 45.3560127 111.978134 69.1139241 132.861516 66.9541139 153.744898 44.6360759 174.62828 46.0759494 195.511662 30.9572785 216.395044 35.9968354 223.956268 30.2373418 223.956268 106.550633 0 106.550633"></polygon>
                                        </g>
                                    </g>
                                    <g transform="translate(0.000000, 155.506329)">
                                        <rect  fill="#FFFFFF" fill-rule="nonzero" x="0" y="0" width="247"
                                              height="143.987342" rx="4"></rect>
                                        <g  transform="translate(12.962099, 28.797468)">
                                            <polyline stroke="#F0F0F0"
                                                      points="0 20.8781646 6.12099125 22.318038 27.0043732 12.9588608 47.8877551 15.1186709 68.771137 0 89.654519 16.5585443 110.537901 47.5158228 131.421283 45.3560127 152.304665 23.0379747 173.188047 31.6772152 194.071429 66.9541139 214.95481 14.3987342 221.075802 8.63924051"></polyline>
                                            <polyline  stroke="#5634f7"
                                                      points="0 81.3528481 6.12099125 68.3939873 27.0043732 66.2341772 47.8877551 39.596519 68.771137 60.4746835 89.654519 48.2357595 110.537901 86.3924051 131.421283 84.2325949 152.304665 61.914557 173.188047 63.3544304 194.071429 48.2357595 214.95481 53.2753165 221.075802 47.5158228"></polyline>
                                        </g>
                                    </g>
                                    <g  fill-rule="nonzero">
                                        <rect  fill="#FFFFFF" x="0" y="0" width="247" height="143.987342"
                                              rx="4"></rect>
                                        <g  transform="translate(11.521866, 11.518987)">
                                            <rect fill="#5634f7" x="208.833819" y="86.3924051" width="15.122449"
                                                  height="34.556962"></rect>
                                            <rect fill="#F4F4F6" x="187.950437" y="0" width="15.122449"
                                                  height="120.949367"></rect>
                                            <rect fill="#F4F4F6" x="167.067055" y="109.43038" width="15.122449"
                                                  height="11.5189873"></rect>
                                            <rect fill="#F4F4F6" x="146.183673" y="17.278481" width="15.122449"
                                                  height="103.670886"></rect>
                                            <rect fill="#F4F4F6" x="125.300292" y="46.0759494" width="15.122449"
                                                  height="74.8734177"></rect>
                                            <rect fill="#F4F4F6" x="104.41691" y="57.5949367" width="15.122449"
                                                  height="63.3544304"></rect>
                                            <rect fill="#F4F4F6" x="83.5335277" y="28.7974684" width="15.122449"
                                                  height="92.1518987"></rect>
                                            <rect fill="#F4F4F6" x="62.6501458" y="86.3924051" width="15.122449"
                                                  height="34.556962"></rect>
                                            <rect fill="#F4F4F6" x="41.7667638" y="0" width="15.122449"
                                                  height="120.949367"></rect>
                                            <rect fill="#F4F4F6" x="20.8833819" y="74.8734177" width="15.122449"
                                                  height="46.0759494"></rect>
                                            <rect fill="#F4F4F6" x="0" y="109.43038" width="15.122449"
                                                  height="11.5189873"></rect>
                                        </g>
                                    </g>
                                </g>
                                <g  stroke-width="1" fill="none"
                                   fill-rule="evenodd">
                                    <rect  fill="#FFFFFF" fill-rule="nonzero" x="0" y="0" width="270"
                                          height="46"></rect>
                                    <g transform="translate(11.520000, 17.250000)">
                                        <g  transform="translate(229.680000, 0.000000)">
                                            <polygon  points="0 0 17.28 0 17.28 17.25 0 17.25"></polygon>
                                            <path d="M8.64,1.4375 L11.52,4.3125 L9.36,4.3125 L9.36,10.78125 L7.92,10.78125 L7.92,4.3125 L5.76,4.3125 L8.64,1.4375 Z M14.4,5.75 L10.8,5.75 L10.8,7.1803125 L14.4,7.1803125 L14.4,14.389375 L2.88,14.389375 L2.88,7.1803125 L6.48,7.1803125 L6.48,5.75 L2.88,5.75 C2.088,5.75 1.44,6.396875 1.44,7.1875 L1.44,14.375 C1.44,15.165625 2.088,15.8125 2.88,15.8125 L14.4,15.8125 C15.192,15.8125 15.84,15.165625 15.84,14.375 L15.84,7.1875 C15.84,6.396875 15.192,5.75 14.4,5.75 Z"
                                                  fill="#4E4E56" fill-rule="nonzero"></path>
                                        </g>
                                        <g  transform="translate(200.880000, 0.000000)">
                                            <polygon  points="0 0 17.28 0 17.28 17.25 0 17.25"></polygon>
                                        </g>
                                        <g  transform="translate(28.800000, 0.000000)">
                                            <polygon  points="0 0 17.28 0 17.28 17.25 0 17.25"></polygon>
                                        </g>
                                        <g >
                                            <polygon  points="0 0 17.28 0 17.28 17.25 0 17.25"></polygon>
                                            <path d="M10.0550869,13.65625 C10.011525,13.653267 10.0004366,13.6536264 9.95730674,13.646223 C9.86031857,13.6295114 9.76703861,13.5928176 9.68473908,13.538909 C9.64312128,13.5116673 9.6067957,13.479969 9.57050618,13.4461504 L5.25032101,9.13346553 C5.22051173,9.1015876 5.21219538,9.09432794 5.18573424,9.05950299 C5.15603298,9.02040134 5.13036387,8.97824485 5.10923097,8.93389604 C5.01692301,8.74014871 5.01692301,8.51024667 5.10923097,8.31649927 C5.13036387,8.27215053 5.15603298,8.22999397 5.18573424,8.19089232 C5.21219538,8.15610331 5.22051173,8.14880771 5.25032101,8.11696572 L9.57050618,3.8042809 C9.60243955,3.77452337 9.60974784,3.76618551 9.64459735,3.73980626 C9.73611324,3.67047985 9.84411792,3.62368722 9.95730674,3.60417232 C10.0381302,3.59029985 10.1211858,3.59029985 10.2020093,3.60417232 C10.266632,3.61531343 10.3296707,3.63529553 10.3888932,3.66339986 C10.6138309,3.77017475 10.7704376,3.99166706 10.7959267,4.23899953 C10.8059711,4.33675372 10.7957107,4.43630486 10.7659374,4.529962 C10.7411324,4.60798566 10.7029347,4.68162475 10.6533966,4.74681816 C10.6269355,4.7816431 10.6186191,4.78890278 10.5888098,4.82078071 L6.77775848,8.62521562 L10.5888098,12.4296506 L10.6223633,12.4655177 C10.6499044,12.4993004 10.6577528,12.5071711 10.6817298,12.5436852 C10.7266957,12.612113 10.7598172,12.688196 10.779222,12.7676932 C10.7947386,12.8313053 10.8015069,12.8970018 10.7992748,12.9624109 C10.7907785,13.2109293 10.6496524,13.4425565 10.4325631,13.5644257 C10.3611,13.6045337 10.2827967,13.6323146 10.2020093,13.646223 C10.1588794,13.6536264 10.1477909,13.653267 10.104229,13.65625 L10.0550869,13.65625 L10.0550869,13.65625 Z"
                                                   fill="#4E4E56" fill-rule="nonzero"></path>
                                        </g>
                                    </g>
                                    <text fill="#4E4E56" fill-rule="nonzero"
                                          font-family="OpenSans-Bold, Open Sans" font-size="16" font-weight="bold">
                                        <tspan x="115.227364" y="32.53125">Stats</tspan>
                                    </text>
                                </g>
                            </g>
                        </g>
                    </g>
                    <path d="M0,513 L268,513 L268,535 C268,554.882251 251.882251,571 232,571 L36,571 C16.117749,571 2.4348735e-15,554.882251 0,535 L0,513 L0,513 Z"
                           fill="#EBEBFF"></path>
                    <g transform="translate(76.997927, 531.000033)" fill="#808080" fill-rule="nonzero">
                        <g transform="translate(50.252073, 5.749986)">
                            <path d="M9.99997616,2.24999464 C9.99997616,1.0062537 8.99372245,0 7.74998152,0 C6.50624059,0 5.49998689,1.0062537 5.49998689,2.24999464 C5.49998689,3.49373557 6.50624059,4.49998927 7.74998152,4.49998927 C8.99372245,4.49998927 9.99997616,3.49373557 9.99997616,2.24999464 Z M13.2499684,0 C12.0062275,0 10.9999738,1.0062537 10.9999738,2.24999464 C10.9999738,3.49373557 12.0062275,4.49998927 13.2499684,4.49998927 C14.4937093,4.49998927 15.499963,3.49373557 15.499963,2.24999464 C15.499963,1.0062537 14.4937093,0 13.2499684,0 Z M2.24999464,0 C1.0062537,0 0,1.0062537 0,2.24999464 C0,3.49373557 1.0062537,4.49998927 2.24999464,4.49998927 C3.49373557,4.49998927 4.49998927,3.49373557 4.49998927,2.24999464 C4.49998927,1.0062537 3.49373557,0 2.24999464,0 Z"
                                  ></path>
                        </g>
                        <g transform="translate(100.002073, 0.000000)">
                            <path d="M12.4999702,2 L10.9999738,2 L10.9999738,0.374999106 C10.9999738,0.167907315 10.8320665,0 10.6249747,0 L9.37497765,0 C9.16788586,0 8.99997854,0.167907315 8.99997854,0.374999106 L8.99997854,2 L4.99998808,2 L4.99998808,0.374999106 C4.99998808,0.167907315 4.83208076,0 4.62498897,0 L3.37499195,0 C3.16790016,0 3,0.167907315 3,0.374999106 L3,2 L1.5,2 C0.671568223,2 0,2.67156345 0,3.5 L0,14.4999654 C0,15.3283936 0.671568223,15.9999619 1.5,15.9999619 L12.4999702,15.9999619 C13.3283984,15.9999619 13.9999666,15.3283936 13.9999666,14.4999654 L13.9999666,3.5 C13.9999666,2.67156345 13.3283984,2 12.4999702,2 Z M12.3124706,14.4999654 L1.68749598,14.4999654 C1.58401112,14.4999654 1.49999642,14.4159507 1.49999642,14.3124659 L1.49999642,4.99998808 L12.4999702,4.99998808 L12.4999702,14.3124659 C12.4999702,14.4159507 12.4159555,14.4999654 12.3124706,14.4999654 Z M10.6609548,8.22965567 C10.8079881,8.08381251 10.8089342,7.84638632 10.663091,7.69935298 L9.95883856,6.98942425 C9.81296489,6.84239091 9.57553869,6.84144487 9.42850535,6.98728803 L5.95750533,10.4304561 L4.57927375,9.0410551 C4.43343059,8.89399125 4.1960044,8.8930452 4.04897106,9.03888836 L3.3389813,9.74314083 C3.19194796,9.88901451 3.19103243,10.1264407 3.33687559,10.273474 L5.68345813,12.639069 C5.8293318,12.7861023 6.066758,12.7870179 6.21379134,12.6411747 L10.6609548,8.22965567 Z"
                                  ></path>
                        </g>
                        <g transform="translate(0.000000, 0.999998)">
                            <path d="M10.5020481,5.74998629 L5.50206122,5.74998629 C5.22706679,5.74998629 5.00206122,5.97499186 5.00206122,6.24998629 L5.00206122,6.74998629 C5.00206122,7.02497715 5.22706679,7.24998629 5.50206122,7.24998629 L10.5020481,7.24998629 C10.7770414,7.24998629 11.0020469,7.02497715 11.0020469,6.74998629 L11.0020469,6.24998629 C11.0020469,5.97499186 10.7770414,5.74998629 10.5020481,5.74998629 Z M8.00205407,0 C3.5833024,0 0.00207314456,2.90935586 0.00207314456,6.4999845 C0.00207314456,7.98746875 0.623958869,9.34998381 1.65520641,10.446844 C1.18957031,11.6781033 0.220822623,12.7218325 0.20519766,12.7343446 C-0.00103964099,12.9530941 -0.0573139209,13.2718495 0.06146021,13.5468427 C0.180203823,13.8218359 0.452084279,13.9999666 0.752071356,13.9999666 C2.67394177,13.9999666 4.18956316,13.1968374 5.09892379,12.5531012 C6.00205884,12.8374633 6.97706262,12.999969 8.00205407,12.999969 C12.4208057,12.999969 16.002035,10.0906131 16.002035,6.4999845 C16.002035,2.90935586 12.4208057,0 8.00205407,0 Z M8.00205407,11.4999726 C7.16767496,11.4999726 6.34269523,11.3718601 5.55204771,11.1218607 L4.84269881,10.8968551 L4.23332526,11.328098 C3.78642691,11.64371 3.17394058,11.9968586 2.43645455,12.2343458 C2.6645729,11.8562339 2.88643516,11.4312166 3.05830975,10.9780927 L3.38957728,10.099982 L2.7458105,9.41873975 C2.18019906,8.81559177 1.50206957,7.81873746 1.50206957,6.4999845 C1.50206957,3.74373497 4.41768151,1.49999642 8.00205407,1.49999642 C11.5864266,1.49999642 14.5020386,3.74373497 14.5020386,6.4999845 C14.5020386,9.25623403 11.5864266,11.4999726 8.00205407,11.4999726 Z"
                                  ></path>
                        </g>
                    </g>
                    <g transform="translate(225.000013, 11.875019)" fill="#DCDCDC" fill-rule="nonzero">
                        <path d="M12.4005463,2.39999201 C8.94020447,-0.800588586 3.55838518,-0.799406033 0.0993976083,2.39999201 C-0.0306832583,2.52030727 -0.033220026,2.72401162 0.0925693165,2.84882822 L0.7613223,3.51229786 C0.881237022,3.63143057 1.07420302,3.63396734 1.19880981,3.51971743 C4.04880149,0.908792257 8.45074183,0.90820098 11.3013248,3.51971743 C11.4259316,3.63396734 11.6188976,3.63123984 11.7388314,3.51229786 L12.4075653,2.84882822 C12.5331639,2.72401162 12.5306271,2.52030727 12.4005463,2.39999201 Z M6.24997193,6.24998512 C5.55955152,6.24998512 4.99997491,6.80956173 4.99997491,7.49998214 C4.99997491,8.19040255 5.55955152,8.74998512 6.24997193,8.74998512 C6.94039235,8.74998512 7.49997491,8.19040255 7.49997491,7.49998214 C7.49997491,6.80956173 6.94039235,6.24998512 6.24997193,6.24998512 Z M10.2083594,4.61737488 C7.95719748,2.62656541 4.54020962,2.62870164 2.29158446,4.61737488 C2.15681153,4.73650759 2.15252,4.94333998 2.28044557,5.06951079 L2.95310861,5.73338097 C3.07029583,5.84900417 3.25897031,5.85682428 3.38376783,5.74900212 C5.02341617,4.33163566 7.48024702,4.3347637 9.1159853,5.74900212 C9.24078283,5.85682428 9.4294573,5.84921398 9.54664452,5.73338097 L10.2193076,5.06951079 C10.3474239,4.94333998 10.3429225,4.73631685 10.2083594,4.61737488 Z"
                              ></path>
                    </g>
                    <text font-family="OpenSans-Bold, Open Sans" font-size="10" font-weight="bold"
                          letter-spacing="0.27777775" fill="#DCDCDC">
                        <tspan x="20" y="25">12:00</tspan>
                    </text>
                    <rect fill="#1B2129" x="85" y="561" width="99" height="4" rx="2"></rect>
                    <rect stroke="#1B2129" stroke-width="2" x="1" y="1" width="266" height="569"
                          rx="36"></rect>
                    <path d="M56,0.425766014 L211.81311,0.425766014 C209.481088,-1.10124352 208.056304,1.47921099 207.538757,8.16712954 C207.479908,8.9276027 207.42775,9.67598615 207.382284,10.4122799 C206.861021,18.8500352 199.865584,25.4262724 191.411743,25.425766 L75.222168,25.425766 C66.3856123,25.4280257 59.2203362,18.2664142 59.218076,9.42985847 C59.2180665,9.39244634 59.2181881,9.35503429 59.2184452,9.31762304 C59.2214066,8.88201991 59.2126886,8.49852207 59.1922913,8.16712954 C59.0332292,5.58286714 57.9691321,3.00241263 56,0.425766014 Z"
                           fill="#1B2129"></path>
                </g>
            </g>
        </g>
    </g>
</svg>