<svg width="100%" height="100%" viewBox="0 0 269 571" version="1.1" xmlns="http://www.w3.org/2000/svg"
     xmlns:xlink="http://www.w3.org/1999/xlink">
    <defs>
        <path d="M36,0 L232,0 C251.882251,-3.65231026e-15 268,16.117749 268,36 L268,513 L268,513 L0,513 L0,36 C-2.4348735e-15,16.117749 16.117749,3.65231026e-15 36,0 Z"
              id="slide2path-1"></path>
    </defs>
    <g stroke="none" stroke-width="1" fill="none" fill-rule="evenodd">
        <g transform="translate(-1550.000000, -134.000000)">
            <g transform="translate(1550.539194, 134.000000)">
                <path d="M37.9179081,22 L217.89702,22 C237.216806,22 253.092051,37.2499657 253.867974,56.5541641 L257.360636,143.448094 L257.360636,143.448094 C261.526916,295.091547 264.682069,409.189991 266.826095,485.743426 C267.27786,501.873895 267.671527,515.865953 268.007098,527.719601 C268.664707,550.906237 250.401376,570.235867 227.214742,570.893541 C226.818395,570.904783 226.42191,570.910412 226.025404,570.910426 L43.9354142,570.910426 C24.2303134,570.910426 8.18689259,555.068159 7.9382796,535.364627 L1.92077342,58.4542006 C1.66992538,38.5735321 17.583039,22.2537134 37.4637075,22.0028654 C37.6151001,22.0009551 37.7665033,22 37.9179081,22 Z"
                      fill="#1B2129" opacity="0.106490362"></path>
                <g>
                    <g>
                        <mask id="slide2mask-2" fill="white">
                            <use xlink:href="#slide2path-1"></use>
                        </mask>
                        <g>
                            <use fill="#5634f7" xlink:href="#slide2path-1"></use>
                            <use fill="#FFFFFF" xlink:href="#slide2path-1"></use>
                        </g>
                        <g mask="url(#slide2mask-2)">
                            <g transform="translate(0.460806, 25.000000)">
                                <path d="M12,0 L256,0 C262.627417,5.58920087e-16 268,5.372583 268,12 L268,476 L268,476 L0,476 L0,12 C9.64732338e-16,5.372583 5.372583,2.99379359e-15 12,0 Z"
                                       fill="#F4F4F6" fill-rule="nonzero"></path>
                                <g stroke-width="1" fill="none" fill-rule="evenodd"
                                   transform="translate(0.000000, 97.000000)">
                                    <g transform="translate(0.000000, 112.047570)" fill-rule="nonzero">
                                        <g
                                           transform="translate(0.000000, 233.089195)">
                                            <rect  fill="#FFFFFF" x="0" y="0" width="268"
                                                  height="45.7324078"></rect>
                                            <g transform="translate(11.434667, 27.724479)" fill="#CDCDD2"
                                               font-family="OpenSans, Open Sans" font-size="12" font-weight="normal">
                                                <text>
                                                    <tspan x="0" y="13">Sessions</tspan>
                                                </text>
                                            </g>
                                            <g  transform="translate(11.434667, 7.716551)" fill="#4E4E56"
                                               font-family="RobotoMono-Bold, Roboto Mono" font-size="14"
                                               font-weight="bold">
                                                <text>
                                                    <tspan x="0" y="15">3669</tspan>
                                                </text>
                                            </g>
                                        </g>
                                        <g
                                           transform="translate(0.000000, 186.642218)">
                                            <rect  fill="#FFFFFF" x="0" y="0" width="268"
                                                  height="45.7324078"></rect>
                                            <g  transform="translate(11.434667, 27.724479)" fill="#CDCDD2"
                                               font-family="OpenSans, Open Sans" font-size="12" font-weight="normal">
                                                <text>
                                                    <tspan x="0" y="13">Users</tspan>
                                                </text>
                                            </g>
                                            <g  transform="translate(11.434667, 7.716551)" fill="#4E4E56"
                                               font-family="RobotoMono-Bold, Roboto Mono" font-size="14"
                                               font-weight="bold">
                                                <text>
                                                    <tspan x="0" y="15">2991</tspan>
                                                </text>
                                            </g>
                                        </g>
                                        <g transform="translate(0.000000, 163.776014)">
                                            <rect fill="#F4F4F6" x="0" y="0" width="268"
                                                  height="22.8662039"></rect>
                                            <g transform="translate(11.434667, 2.716551)"
                                               fill="#5634f7" font-family="RobotoMono-Bold, Roboto Mono" font-size="12"
                                               font-weight="bold">
                                                <text>
                                                    <tspan x="0" y="13">Past Month</tspan>
                                                </text>
                                            </g>
                                        </g>
                                        <g
                                           transform="translate(0.000000, 118.043606)">
                                            <rect  fill="#FFFFFF" x="0" y="0" width="268"
                                                  height="45.7324078"></rect>
                                            <g  transform="translate(180.119250, 16.291377)" fill="#ABABB6"
                                               font-family="OpenSans, Open Sans" font-size="14" font-weight="normal">
                                                <text>
                                                    <tspan x="27.7294922" y="15">+1.72%</tspan>
                                                </text>
                                            </g>
                                            <g  transform="translate(11.434667, 27.724479)" fill="#CDCDD2"
                                               font-family="OpenSans, Open Sans" font-size="12" font-weight="normal">
                                                <text>
                                                    <tspan x="0" y="13">New Users</tspan>
                                                </text>
                                            </g>
                                            <g  transform="translate(11.434667, 7.716551)" fill="#4E4E56"
                                               font-family="RobotoMono-Bold, Roboto Mono" font-size="14"
                                               font-weight="bold">
                                                <text>
                                                    <tspan x="0" y="15">2895</tspan>
                                                </text>
                                            </g>
                                        </g>
                                        <g
                                           transform="translate(0.000000, 71.596630)">
                                            <rect  fill="#FFFFFF" x="0" y="0" width="268"
                                                  height="45.7324078"></rect>
                                            <g  transform="translate(162.119250, 16.291377)" fill="#ABABB6"
                                               font-family="OpenSans, Open Sans" font-size="14" font-weight="normal">
                                                <text>
                                                    <tspan x="45.7294922" y="15">+0.71%</tspan>
                                                </text>
                                            </g>
                                            <g  transform="translate(11.434667, 27.724479)" fill="#CDCDD2"
                                               font-family="OpenSans, Open Sans" font-size="12" font-weight="normal">
                                                <text>
                                                    <tspan x="0" y="13">Sessions</tspan>
                                                </text>
                                            </g>
                                            <g  transform="translate(11.434667, 7.716551)" fill="#4E4E56"
                                               font-family="RobotoMono-Bold, Roboto Mono" font-size="14"
                                               font-weight="bold">
                                                <text>
                                                    <tspan x="0" y="15">3695</tspan>
                                                </text>
                                            </g>
                                        </g>
                                        <g
                                           transform="translate(0.000000, 25.149653)">
                                            <rect  fill="#FFFFFF" x="0" y="0" width="268"
                                                  height="45.7324078"></rect>
                                            <g  transform="translate(175.868000, 16.291377)" fill="#ABABB6"
                                               font-family="OpenSans, Open Sans" font-size="14" font-weight="normal">
                                                <text>
                                                    <tspan x="39.734375" y="15">+1.6%</tspan>
                                                </text>
                                            </g>
                                            <g  transform="translate(11.434667, 27.724479)" fill="#CDCDD2"
                                               font-family="OpenSans, Open Sans" font-size="12" font-weight="normal">
                                                <text>
                                                    <tspan x="0" y="13">Users</tspan>
                                                </text>
                                            </g>
                                            <g  transform="translate(11.434667, 7.716551)" fill="#4E4E56"
                                               font-family="RobotoMono-Bold, Roboto Mono" font-size="14"
                                               font-weight="bold">
                                                <text>
                                                    <tspan x="0" y="15">3039</tspan>
                                                </text>
                                            </g>
                                        </g>
                                        <g>
                                            <rect  fill="#F4F4F6" x="0" y="2.28344903" width="268"
                                                  height="22.8662039"></rect>
                                            <text  font-family="RobotoMono-Bold, Roboto Mono"
                                                  font-size="12" font-weight="bold" fill="#5634f7">
                                                <tspan x="11.4346667" y="13">Current Month</tspan>
                                            </text>
                                        </g>
                                    </g>
                                    <g transform="translate(12.864000, 0.000000)">
                                        <polyline stroke="#E4E4E5"
                                                  points="0 29.2973237 9.648 23.5807728 37.52 0 65.392 9.28939533 93.264 1.42913774 121.136 39.3012879 149.008 62.8820607 176.88 25.0099105 204.752 52.8780965 232.624 40.0158568 242.272 25.0099105"></polyline>
                                        <polyline stroke="#5634f7"
                                                  points="0 45.7324078 9.648 32.8701681 37.52 37.8721502 65.392 18.5787907 93.264 39.3012879 121.136 27.1536171 149.008 50.7343899 176.88 48.5906833 204.752 26.4390482 232.624 27.868186 242.272 12.8622397"></polyline>
                                    </g>
                                </g>
                                <g stroke-width="1" fill="none"
                                   fill-rule="evenodd">
                                    <path d="M12,0 L256,0 C262.627417,5.58920087e-16 268,5.372583 268,12 L268,45.4285714 L268,45.4285714 L0,45.4285714 L0,12 C9.64732338e-16,5.372583 5.372583,2.99379359e-15 12,0 Z"
                                           fill="#FFFFFF" fill-rule="nonzero"></path>
                                    <g transform="translate(11.434667, 17.035714)">
                                        <g  transform="translate(227.978667, 0.000000)">
                                            <polygon 
                                                     points="0 0 17.152 0 17.152 17.0357143 0 17.0357143"></polygon>
                                            <path d="M8.576,1.41964286 L11.4346667,4.25892857 L9.29066667,4.25892857 L9.29066667,10.6473214 L7.86133333,10.6473214 L7.86133333,4.25892857 L5.71733333,4.25892857 L8.576,1.41964286 Z M14.2933333,5.67857143 L10.72,5.67857143 L10.72,7.09111607 L14.2933333,7.09111607 L14.2933333,14.210625 L2.85866667,14.210625 L2.85866667,7.09111607 L6.432,7.09111607 L6.432,5.67857143 L2.85866667,5.67857143 C2.07253333,5.67857143 1.42933333,6.31741071 1.42933333,7.09821429 L1.42933333,14.1964286 C1.42933333,14.9772321 2.07253333,15.6160714 2.85866667,15.6160714 L14.2933333,15.6160714 C15.0794667,15.6160714 15.7226667,14.9772321 15.7226667,14.1964286 L15.7226667,7.09821429 C15.7226667,6.31741071 15.0794667,5.67857143 14.2933333,5.67857143 Z"
                                                  fill="#4E4E56" fill-rule="nonzero"></path>
                                        </g>
                                        <g  transform="translate(199.392000, 0.000000)">
                                            <polygon 
                                                     points="0 0 17.152 0 17.152 17.0357143 0 17.0357143"></polygon>
                                        </g>
                                        <g  transform="translate(28.586667, 0.000000)">
                                            <polygon 
                                                     points="0 0 17.152 0 17.152 17.0357143 0 17.0357143"></polygon>
                                        </g>
                                        <g >
                                            <polygon 
                                                     points="0 0 17.152 0 17.152 17.0357143 0 17.0357143"></polygon>
                                            <path d="M9.98060479,13.4866071 C9.9373656,13.4836612 9.92635931,13.4840162 9.88354892,13.4767047 C9.78727917,13.4602006 9.69469017,13.4239627 9.61300027,13.3707238 C9.57169075,13.3438205 9.53563425,13.312516 9.49961355,13.2791175 L5.21142975,9.02000633 C5.18184128,8.9885244 5.17358653,8.98135492 5.1473214,8.94696258 C5.11784014,8.90834666 5.09236118,8.86671386 5.07138481,8.82291596 C4.97976062,8.63157543 4.97976062,8.40452932 5.07138481,8.21318872 C5.09236118,8.1693909 5.11784014,8.12775802 5.1473214,8.08914211 C5.17358653,8.05478526 5.18184128,8.04758029 5.21142975,8.01613385 L9.49961355,3.75702275 C9.53131037,3.72763488 9.53856452,3.7194006 9.57315589,3.69334904 C9.66399388,3.62488383 9.77119853,3.57867248 9.88354892,3.55939999 C9.96377368,3.54569985 10.0462141,3.54569985 10.1264388,3.55939999 C10.1905829,3.5704027 10.2531546,3.59013658 10.3119385,3.61789179 C10.5352099,3.72334028 10.6906566,3.94208113 10.7159568,4.18634115 C10.7259269,4.282881 10.7157424,4.38119548 10.6861897,4.47368918 C10.6615684,4.5507436 10.6236537,4.62346792 10.5744825,4.68785148 C10.5482174,4.7222438 10.5399627,4.72941331 10.5103742,4.76089523 L6.72755286,8.51807009 L10.5103742,12.275245 L10.5436791,12.3106666 C10.5710162,12.3440296 10.5788065,12.3518025 10.6026059,12.387863 C10.6472387,12.4554408 10.6801148,12.5305787 10.6993759,12.6090883 C10.7147776,12.6719102 10.7214957,12.7367906 10.7192802,12.8013871 C10.7108468,13.0468184 10.5707661,13.2755682 10.3552849,13.3959236 C10.2843511,13.4355333 10.2066278,13.4629691 10.1264388,13.4767047 C10.0836284,13.4840162 10.0726221,13.4836612 10.0293829,13.4866071 L9.98060479,13.4866071 L9.98060479,13.4866071 Z"
                                                   fill="#4E4E56" fill-rule="nonzero"></path>
                                        </g>
                                    </g>
                                    <text fill="#4E4E56" fill-rule="nonzero"
                                          font-family="OpenSans-Bold, Open Sans" font-size="16" font-weight="bold">
                                        <tspan x="113.339844" y="31">Stats</tspan>
                                    </text>
                                </g>
                            </g>
                        </g>
                    </g>
                    <path d="M0,513 L268,513 L268,535 C268,554.882251 251.882251,571 232,571 L36,571 C16.117749,571 2.4348735e-15,554.882251 0,535 L0,513 L0,513 Z"
                           fill="#EBEBFF"></path>
                    <g  transform="translate(76.997927, 531.000033)" fill="#808080" fill-rule="nonzero">
                        <g transform="translate(50.252073, 5.749986)">
                            <path d="M9.99997616,2.24999464 C9.99997616,1.0062537 8.99372245,0 7.74998152,0 C6.50624059,0 5.49998689,1.0062537 5.49998689,2.24999464 C5.49998689,3.49373557 6.50624059,4.49998927 7.74998152,4.49998927 C8.99372245,4.49998927 9.99997616,3.49373557 9.99997616,2.24999464 Z M13.2499684,0 C12.0062275,0 10.9999738,1.0062537 10.9999738,2.24999464 C10.9999738,3.49373557 12.0062275,4.49998927 13.2499684,4.49998927 C14.4937093,4.49998927 15.499963,3.49373557 15.499963,2.24999464 C15.499963,1.0062537 14.4937093,0 13.2499684,0 Z M2.24999464,0 C1.0062537,0 0,1.0062537 0,2.24999464 C0,3.49373557 1.0062537,4.49998927 2.24999464,4.49998927 C3.49373557,4.49998927 4.49998927,3.49373557 4.49998927,2.24999464 C4.49998927,1.0062537 3.49373557,0 2.24999464,0 Z"
                                  ></path>
                        </g>
                        <g  transform="translate(100.002073, 0.000000)">
                            <path d="M12.4999702,2 L10.9999738,2 L10.9999738,0.374999106 C10.9999738,0.167907315 10.8320665,0 10.6249747,0 L9.37497765,0 C9.16788586,0 8.99997854,0.167907315 8.99997854,0.374999106 L8.99997854,2 L4.99998808,2 L4.99998808,0.374999106 C4.99998808,0.167907315 4.83208076,0 4.62498897,0 L3.37499195,0 C3.16790016,0 3,0.167907315 3,0.374999106 L3,2 L1.5,2 C0.671568223,2 0,2.67156345 0,3.5 L0,14.4999654 C0,15.3283936 0.671568223,15.9999619 1.5,15.9999619 L12.4999702,15.9999619 C13.3283984,15.9999619 13.9999666,15.3283936 13.9999666,14.4999654 L13.9999666,3.5 C13.9999666,2.67156345 13.3283984,2 12.4999702,2 Z M12.3124706,14.4999654 L1.68749598,14.4999654 C1.58401112,14.4999654 1.49999642,14.4159507 1.49999642,14.3124659 L1.49999642,4.99998808 L12.4999702,4.99998808 L12.4999702,14.3124659 C12.4999702,14.4159507 12.4159555,14.4999654 12.3124706,14.4999654 Z M10.6609548,8.22965567 C10.8079881,8.08381251 10.8089342,7.84638632 10.663091,7.69935298 L9.95883856,6.98942425 C9.81296489,6.84239091 9.57553869,6.84144487 9.42850535,6.98728803 L5.95750533,10.4304561 L4.57927375,9.0410551 C4.43343059,8.89399125 4.1960044,8.8930452 4.04897106,9.03888836 L3.3389813,9.74314083 C3.19194796,9.88901451 3.19103243,10.1264407 3.33687559,10.273474 L5.68345813,12.639069 C5.8293318,12.7861023 6.066758,12.7870179 6.21379134,12.6411747 L10.6609548,8.22965567 Z"
                                  ></path>
                        </g>
                        <g  transform="translate(0.000000, 0.999998)">
                            <path d="M10.5020481,5.74998629 L5.50206122,5.74998629 C5.22706679,5.74998629 5.00206122,5.97499186 5.00206122,6.24998629 L5.00206122,6.74998629 C5.00206122,7.02497715 5.22706679,7.24998629 5.50206122,7.24998629 L10.5020481,7.24998629 C10.7770414,7.24998629 11.0020469,7.02497715 11.0020469,6.74998629 L11.0020469,6.24998629 C11.0020469,5.97499186 10.7770414,5.74998629 10.5020481,5.74998629 Z M8.00205407,0 C3.5833024,0 0.00207314456,2.90935586 0.00207314456,6.4999845 C0.00207314456,7.98746875 0.623958869,9.34998381 1.65520641,10.446844 C1.18957031,11.6781033 0.220822623,12.7218325 0.20519766,12.7343446 C-0.00103964099,12.9530941 -0.0573139209,13.2718495 0.06146021,13.5468427 C0.180203823,13.8218359 0.452084279,13.9999666 0.752071356,13.9999666 C2.67394177,13.9999666 4.18956316,13.1968374 5.09892379,12.5531012 C6.00205884,12.8374633 6.97706262,12.999969 8.00205407,12.999969 C12.4208057,12.999969 16.002035,10.0906131 16.002035,6.4999845 C16.002035,2.90935586 12.4208057,0 8.00205407,0 Z M8.00205407,11.4999726 C7.16767496,11.4999726 6.34269523,11.3718601 5.55204771,11.1218607 L4.84269881,10.8968551 L4.23332526,11.328098 C3.78642691,11.64371 3.17394058,11.9968586 2.43645455,12.2343458 C2.6645729,11.8562339 2.88643516,11.4312166 3.05830975,10.9780927 L3.38957728,10.099982 L2.7458105,9.41873975 C2.18019906,8.81559177 1.50206957,7.81873746 1.50206957,6.4999845 C1.50206957,3.74373497 4.41768151,1.49999642 8.00205407,1.49999642 C11.5864266,1.49999642 14.5020386,3.74373497 14.5020386,6.4999845 C14.5020386,9.25623403 11.5864266,11.4999726 8.00205407,11.4999726 Z"
                                  ></path>
                        </g>
                    </g>
                    <g transform="translate(225.000013, 11.875019)" fill="#DCDCDC" fill-rule="nonzero">
                        <path d="M12.4005463,2.39999201 C8.94020447,-0.800588586 3.55838518,-0.799406033 0.0993976083,2.39999201 C-0.0306832583,2.52030727 -0.033220026,2.72401162 0.0925693165,2.84882822 L0.7613223,3.51229786 C0.881237022,3.63143057 1.07420302,3.63396734 1.19880981,3.51971743 C4.04880149,0.908792257 8.45074183,0.90820098 11.3013248,3.51971743 C11.4259316,3.63396734 11.6188976,3.63123984 11.7388314,3.51229786 L12.4075653,2.84882822 C12.5331639,2.72401162 12.5306271,2.52030727 12.4005463,2.39999201 Z M6.24997193,6.24998512 C5.55955152,6.24998512 4.99997491,6.80956173 4.99997491,7.49998214 C4.99997491,8.19040255 5.55955152,8.74998512 6.24997193,8.74998512 C6.94039235,8.74998512 7.49997491,8.19040255 7.49997491,7.49998214 C7.49997491,6.80956173 6.94039235,6.24998512 6.24997193,6.24998512 Z M10.2083594,4.61737488 C7.95719748,2.62656541 4.54020962,2.62870164 2.29158446,4.61737488 C2.15681153,4.73650759 2.15252,4.94333998 2.28044557,5.06951079 L2.95310861,5.73338097 C3.07029583,5.84900417 3.25897031,5.85682428 3.38376783,5.74900212 C5.02341617,4.33163566 7.48024702,4.3347637 9.1159853,5.74900212 C9.24078283,5.85682428 9.4294573,5.84921398 9.54664452,5.73338097 L10.2193076,5.06951079 C10.3474239,4.94333998 10.3429225,4.73631685 10.2083594,4.61737488 Z"
                              ></path>
                    </g>
                    <text font-family="OpenSans-Bold, Open Sans" font-size="10" font-weight="bold"
                          letter-spacing="0.27777775" fill="#DCDCDC">
                        <tspan x="20" y="25">12:00</tspan>
                    </text>
                    <rect  fill="#1B2129" x="85" y="561" width="99" height="4" rx="2"></rect>
                    <rect stroke="#1B2129" stroke-width="2" x="1" y="1" width="266" height="569"
                          rx="36"></rect>
                    <path d="M56,0.425766014 L211.81311,0.425766014 C209.481088,-1.10124352 208.056304,1.47921099 207.538757,8.16712954 C207.479908,8.9276027 207.42775,9.67598615 207.382284,10.4122799 C206.861021,18.8500352 199.865584,25.4262724 191.411743,25.425766 L75.222168,25.425766 C66.3856123,25.4280257 59.2203362,18.2664142 59.218076,9.42985847 C59.2180665,9.39244634 59.2181881,9.35503429 59.2184452,9.31762304 C59.2214066,8.88201991 59.2126886,8.49852207 59.1922913,8.16712954 C59.0332292,5.58286714 57.9691321,3.00241263 56,0.425766014 Z"
                           fill="#1B2129"></path>
                </g>
            </g>
        </g>
    </g>
</svg>